<?xml version="1.0" encoding="utf-8"?>
<!-- Generator: Adobe Illustrator 28.1.0, SVG Export Plug-In . SVG Version: 6.00 Build 0)  -->
<svg version="1.1" xmlns="http://www.w3.org/2000/svg" xmlns:xlink="http://www.w3.org/1999/xlink" x="0px" y="0px"
	 viewBox="0 0 500 500" style="enable-background:new 0 0 500 500;" xml:space="preserve">
<style type="text/css">
	.st0{fill:#E9F2F8;}
	.st1{opacity:0.2;fill:#1B468A;}
	.st2{fill:url(#SVGID_1_);}
	.st3{fill:url(#SVGID_00000061462291844341196570000005600368632523955631_);}
	.st4{fill:url(#SVGID_00000168820487246756258420000009058994603860291995_);}
	.st5{fill:#FFD8B5;}
	.st6{fill:url(#SVGID_00000095327006794155806640000012783356191648660608_);}
	.st7{fill:url(#SVGID_00000111907451053978629350000006398671437067257244_);}
	.st8{fill:url(#SVGID_00000101068555860489979350000018328031314686292113_);}
	.st9{fill:url(#SVGID_00000137814005528331025500000014930930245931003015_);}
	.st10{fill:url(#SVGID_00000121973543573476734990000005093375150025385125_);}
	.st11{fill:url(#SVGID_00000031901571647259465150000011261228496767948943_);}
	.st12{fill:url(#SVGID_00000079474652569488392960000000847221468780347779_);}
	.st13{fill:url(#SVGID_00000063628918853558280100000008205868555465308810_);}
	.st14{fill:url(#SVGID_00000098213327020720796980000015572469699897638570_);}
	.st15{fill:url(#SVGID_00000008149940491848615540000015250662643839832452_);}
	.st16{fill:url(#SVGID_00000115486114719351026160000007445761368847456420_);}
	.st17{fill:url(#SVGID_00000119078934774394861060000010987488395998051740_);}
	.st18{fill:url(#SVGID_00000069387909863053034230000017723463750376251008_);}
	.st19{fill:url(#SVGID_00000159457924102852905640000014168268710373036957_);}
	.st20{fill:url(#SVGID_00000067924238289245114870000005619964984957286529_);}
	.st21{fill:url(#SVGID_00000178910427302111388350000011553125466794622863_);}
	.st22{fill:url(#SVGID_00000017479356841590151290000016760763060361837490_);}
	.st23{fill:url(#SVGID_00000055690215236905589320000013095893977867314868_);}
	.st24{fill:#B0D0FF;}
	.st25{fill:#98BAF4;}
</style>
<g id="BACKGROUND">
	<rect class="st0" width="500" height="500"/>
</g>
<g id="OBJECTS">
	<path class="st1" d="M417.6,328.9c0,6.1-75,11-167.6,11s-167.6-4.9-167.6-11c0-6.1,75-11,167.6-11S417.6,322.8,417.6,328.9z"/>
	<g>
		
			<linearGradient id="SVGID_1_" gradientUnits="userSpaceOnUse" x1="-6873.8706" y1="-613.5543" x2="-6873.8706" y2="-514.3585" gradientTransform="matrix(-0.7645 0.6447 -0.6447 -0.7645 -5397.709 4271.374)">
			<stop  offset="0" style="stop-color:#071785"/>
			<stop  offset="0.1467" style="stop-color:#05136B"/>
			<stop  offset="0.3202" style="stop-color:#041055"/>
			<stop  offset="0.5082" style="stop-color:#030E45"/>
			<stop  offset="0.719" style="stop-color:#020C3B"/>
			<stop  offset="1" style="stop-color:#020C38"/>
		</linearGradient>
		<path class="st2" d="M203.7,225.5c12,8.5,22.1,19.6,31.8,30.6c4.8,5.5,19.1,28.2,23.5,34c8.3,11,4.4,10.8-10.4,18.7
			c-1.9,1-3.9,1.6-6,1.8c-24.9,2.5-36.3-30-43.8-47.6c-3.2-7.6-6.7-17-9.5-24.8C191.4,224.4,203.7,225.5,203.7,225.5z"/>
		
			<linearGradient id="SVGID_00000088825705112012697890000014529905368557515136_" gradientUnits="userSpaceOnUse" x1="-4801.0801" y1="-1526.207" x2="-4801.0801" y2="-1427.0061" gradientTransform="matrix(0.2615 0.9652 -0.9652 0.2615 75.5714 5332.9014)">
			<stop  offset="0" style="stop-color:#071785"/>
			<stop  offset="0.1467" style="stop-color:#05136B"/>
			<stop  offset="0.3202" style="stop-color:#041055"/>
			<stop  offset="0.5082" style="stop-color:#030E45"/>
			<stop  offset="0.719" style="stop-color:#020C3B"/>
			<stop  offset="1" style="stop-color:#020C38"/>
		</linearGradient>
		<path style="fill:url(#SVGID_00000088825705112012697890000014529905368557515136_);" d="M196.9,309.2
			c12.8-7.3,27.1-11.8,41.2-15.9c7-2,33.6-5.4,40.7-6.9c13.5-2.9,11.7,0.6,12.6,17.3c0.1,2.1-0.2,4.2-0.9,6.2
			c-8.2,23.6-42.6,20.2-61.6,19.6c-8.3-0.3-18.3-1.1-26.5-1.9C190.7,319.9,196.9,309.2,196.9,309.2z"/>
		<g>
			
				<linearGradient id="SVGID_00000142178389013654096950000016845216946612025015_" gradientUnits="userSpaceOnUse" x1="-3233.0037" y1="179.0441" x2="-3233.0037" y2="138.6243" gradientTransform="matrix(0.9924 0.1228 -0.1228 0.9924 3394.8572 542.6038)">
				<stop  offset="0" style="stop-color:#FFD0C0"/>
				<stop  offset="0.3877" style="stop-color:#FFCEBE"/>
				<stop  offset="0.5902" style="stop-color:#FFC7B6"/>
				<stop  offset="0.75" style="stop-color:#FFBCA8"/>
				<stop  offset="0.8864" style="stop-color:#FFAC96"/>
				<stop  offset="1" style="stop-color:#FF997F"/>
			</linearGradient>
			<path style="fill:url(#SVGID_00000142178389013654096950000016845216946612025015_);" d="M191.9,314.5c0-1.2-0.3-2.5-0.6-3.7
				c-0.1-0.3-0.6-3.7-0.5-4.1c0.6-5.4,3.6-19.9,3.6-19.9l-14.7-2.3c0,0,0.3,13-2.9,20.2l0,0c-7,2.7-19.3,5.8-19.3,5.8
				s-13.4,0.2-14.2,0.4c-0.7,0.2-2.5,0.4-4.7,1.9c0,0-2,3.2,14,8.1c0,0,6.9,2.6,18.5,2.4c2.5,0.1,5,0.3,7.5,0.4
				c2.6,0.1,10.2,1,11.3,0.4c0.4-0.2,0.7-0.5,0.9-0.8C192.5,321.4,191.9,317.1,191.9,314.5z"/>
			<path class="st5" d="M186.2,297.8c0.2,0.8,0.3,1.7,0.4,2.5c0.4-0.8,0.8-1.5,1.2-2.3L186.2,297.8z"/>
			
				<linearGradient id="SVGID_00000041260354664551629570000017290628960459192730_" gradientUnits="userSpaceOnUse" x1="-3259.9114" y1="169.9829" x2="-3206.0959" y2="169.9829" gradientTransform="matrix(0.9924 0.1228 -0.1228 0.9924 3394.8572 542.6038)">
				<stop  offset="0" style="stop-color:#071785"/>
				<stop  offset="0.1467" style="stop-color:#05136B"/>
				<stop  offset="0.3202" style="stop-color:#041055"/>
				<stop  offset="0.5082" style="stop-color:#030E45"/>
				<stop  offset="0.719" style="stop-color:#020C3B"/>
				<stop  offset="1" style="stop-color:#020C38"/>
			</linearGradient>
			<path style="fill:url(#SVGID_00000041260354664551629570000017290628960459192730_);" d="M191.3,310.8c0-0.2-0.2-1.4-0.4-2.5
				c-0.6,0.2-1.2,0.4-1.8,0.6c-6.7,2.2-13.5,0.9-20-1.4c-0.1,0-0.2-0.1-0.3-0.1c-5.8,1.7-11.3,3.2-11.3,3.2s-13.4,0.2-14.2,0.4
				c-0.7,0.2-2.5,0.4-4.7,1.9c0,0-2,3.2,14,8.1c0,0,6.9,2.6,18.5,2.4c2.5,0.1,5,0.3,7.5,0.4c2.6,0.1,10.2,1,11.3,0.4
				c0.4-0.2,0.7-0.5,0.9-0.8c1.7-2.1,1-6.4,1.1-9C191.9,313.3,191.6,312,191.3,310.8z"/>
			
				<linearGradient id="SVGID_00000002368893376371515290000003979928619194867107_" gradientUnits="userSpaceOnUse" x1="-3214.1487" y1="146.2799" x2="-3214.1487" y2="63.4902" gradientTransform="matrix(0.9924 0.1228 -0.1228 0.9924 3394.8572 542.6038)">
				<stop  offset="0" style="stop-color:#071785"/>
				<stop  offset="0.1467" style="stop-color:#05136B"/>
				<stop  offset="0.3202" style="stop-color:#041055"/>
				<stop  offset="0.5082" style="stop-color:#030E45"/>
				<stop  offset="0.719" style="stop-color:#020C3B"/>
				<stop  offset="1" style="stop-color:#020C38"/>
			</linearGradient>
			<path style="fill:url(#SVGID_00000002368893376371515290000003979928619194867107_);" d="M196.1,225.4c0,0-0.1,0-0.1,0
				c-6.7-0.2-12.3,4.8-13,11.5c-1.6,16.3-3.8,40.3-5,54.1l15.1,2.9c4.3-13.6,7.9-27.5,10.1-41.6c1-6.1,2-16.2,2.2-22.4
				c0-1.1-1.8-3.1-1.8-4.4C200.6,225.1,199.4,225.5,196.1,225.4z"/>
		</g>
		
			<linearGradient id="SVGID_00000029744658014285633700000002557465390855185824_" gradientUnits="userSpaceOnUse" x1="-3065.4382" y1="399.1153" x2="-3070.804" y2="396.0174" gradientTransform="matrix(0.9972 -7.540000e-02 7.540000e-02 0.9972 3262.3296 -433.3625)">
			<stop  offset="0" style="stop-color:#E1B590"/>
			<stop  offset="1" style="stop-color:#EE9267"/>
		</linearGradient>
		<polygon style="fill:url(#SVGID_00000029744658014285633700000002557465390855185824_);" points="232.1,188.6 234.9,197.1 
			230.1,198.7 		"/>
		
			<linearGradient id="SVGID_00000157309060185036926080000001490333117613739672_" gradientUnits="userSpaceOnUse" x1="-3036.3752" y1="412.0095" x2="-3054.5195" y2="401.5339" gradientTransform="matrix(0.9972 -7.540000e-02 7.540000e-02 0.9972 3262.3296 -433.3625)">
			<stop  offset="0" style="stop-color:#FFD0C0"/>
			<stop  offset="0.3877" style="stop-color:#FFCEBE"/>
			<stop  offset="0.5902" style="stop-color:#FFC7B6"/>
			<stop  offset="0.75" style="stop-color:#FFBCA8"/>
			<stop  offset="0.8864" style="stop-color:#FFAC96"/>
			<stop  offset="1" style="stop-color:#FF997F"/>
		</linearGradient>
		<path style="fill:url(#SVGID_00000157309060185036926080000001490333117613739672_);" d="M247,196.7c0.2,2.8,0.8,19,0.8,19
			c1.8,1.8,9.9,1.8,13.1-1.3c2.5-2.5,2.7-4.6,2.7-4.6l-2.8-23.6L247,196.7z"/>
		
			<linearGradient id="SVGID_00000060727378648864571880000003654280830630967694_" gradientUnits="userSpaceOnUse" x1="-3038.718" y1="399.5639" x2="-3072.1909" y2="380.2384" gradientTransform="matrix(0.9972 -7.540000e-02 7.540000e-02 0.9972 3262.3296 -433.3625)">
			<stop  offset="0" style="stop-color:#FFD0C0"/>
			<stop  offset="0.3877" style="stop-color:#FFCEBE"/>
			<stop  offset="0.5902" style="stop-color:#FFC7B6"/>
			<stop  offset="0.75" style="stop-color:#FFBCA8"/>
			<stop  offset="0.8864" style="stop-color:#FFAC96"/>
			<stop  offset="1" style="stop-color:#FF997F"/>
		</linearGradient>
		<path style="fill:url(#SVGID_00000060727378648864571880000003654280830630967694_);" d="M258.3,168.3l1.5,8.4l2.3,12.8l0.7,3.6
			c-7.2,14.6-20.7,17.1-25.4,12.8c-4.8-4.3-8.8-30.8-8.8-30.8L258.3,168.3z"/>
		
			<linearGradient id="SVGID_00000022550654147743207120000005733015377451435946_" gradientUnits="userSpaceOnUse" x1="168.7363" y1="387.5437" x2="219.0983" y2="387.5437" gradientTransform="matrix(-0.9972 7.540000e-02 7.540000e-02 0.9972 408.4288 -217.3817)">
			<stop  offset="0" style="stop-color:#071785"/>
			<stop  offset="0.1467" style="stop-color:#05136B"/>
			<stop  offset="0.3202" style="stop-color:#041055"/>
			<stop  offset="0.5082" style="stop-color:#030E45"/>
			<stop  offset="0.719" style="stop-color:#020C3B"/>
			<stop  offset="1" style="stop-color:#020C38"/>
		</linearGradient>
		<path style="fill:url(#SVGID_00000022550654147743207120000005733015377451435946_);" d="M257.4,205.6c0,0-12-21.1-15.4-22.7
			c-3.4-1.6-14,1.8-20.4-6.4c-6.3-8.1-3.2-12.7-1-13.3c2.2-0.6,7,7.4,14.1,1.9c7.2-5.6,22.6-6.8,25.5-0.9c0,0,9.7,0.3,8.6,13.6
			c-1.1,13.3-3.9,24.7-7.1,25.9L257.4,205.6z"/>
		
			<linearGradient id="SVGID_00000123414864940899383240000005478033219953562755_" gradientUnits="userSpaceOnUse" x1="-3049.2617" y1="395.8571" x2="-3058.033" y2="390.793" gradientTransform="matrix(0.9972 -7.540000e-02 7.540000e-02 0.9972 3262.3296 -433.3625)">
			<stop  offset="0" style="stop-color:#FFD0C0"/>
			<stop  offset="0.3877" style="stop-color:#FFCEBE"/>
			<stop  offset="0.5902" style="stop-color:#FFC7B6"/>
			<stop  offset="0.75" style="stop-color:#FFBCA8"/>
			<stop  offset="0.8864" style="stop-color:#FFAC96"/>
			<stop  offset="1" style="stop-color:#FF997F"/>
		</linearGradient>
		<path style="fill:url(#SVGID_00000123414864940899383240000005478033219953562755_);" d="M249.3,182.3c3.5,2.4,4,10.2-2.1,14.9
			l-3.6-12.5C243.7,182.7,246.9,180.7,249.3,182.3z"/>
		
			<linearGradient id="SVGID_00000113337120237347289140000012688535308923715000_" gradientUnits="userSpaceOnUse" x1="216.6042" y1="498.0224" x2="149.3382" y2="430.7564" gradientTransform="matrix(-0.9972 7.540000e-02 7.540000e-02 0.9972 408.4288 -217.3817)">
			<stop  offset="0" style="stop-color:#795FED"/>
			<stop  offset="6.993932e-02" style="stop-color:#7A67EE"/>
			<stop  offset="0.488" style="stop-color:#7F94F0"/>
			<stop  offset="0.8118" style="stop-color:#83B0F2"/>
			<stop  offset="1" style="stop-color:#84BAF3"/>
		</linearGradient>
		<path style="fill:url(#SVGID_00000113337120237347289140000012688535308923715000_);" d="M262.6,210.4
			c-9.2,1.1-23.6,3.8-26.3,14.4c-1.4,5.6-1.2,11.7-0.2,17.4c0.8,4.5,1.5,8.9,2.1,13.5c0.9,7.6,2,16.2-0.1,23.7l-8.6,15.8
			c0,0,41.8,18.4,62.5-6c0,0-1.3-60.8-11-75c-1.2-1.7-4.1-2.5-6-3C270.8,210.1,266.7,209.9,262.6,210.4z"/>
		
			<linearGradient id="SVGID_00000180348207653914334180000014704908001524763305_" gradientUnits="userSpaceOnUse" x1="261.0191" y1="268.0471" x2="289.2872" y2="238.7512">
			<stop  offset="0" style="stop-color:#795FED"/>
			<stop  offset="6.993932e-02" style="stop-color:#7A67EE"/>
			<stop  offset="0.488" style="stop-color:#7F94F0"/>
			<stop  offset="0.8118" style="stop-color:#83B0F2"/>
			<stop  offset="1" style="stop-color:#84BAF3"/>
		</linearGradient>
		<path style="fill:url(#SVGID_00000180348207653914334180000014704908001524763305_);" d="M280.9,214.1c-1.2-1.7-4.1-2.5-6-3
			c-3.1-0.8-6.2-1-9.3-0.9v91.4c9.2-0.7,18.8-3.6,26.4-12.5C291.9,289.1,290.6,228.3,280.9,214.1z"/>
		<g>
			<g>
				
					<linearGradient id="SVGID_00000044169459624498409640000015507688983231457166_" gradientUnits="userSpaceOnUse" x1="-73.5404" y1="563.4461" x2="-88.5248" y2="619.2324" gradientTransform="matrix(0.9435 -0.3315 0.3315 0.9435 97.9388 -324.6299)">
					<stop  offset="0" style="stop-color:#FFD0C0"/>
					<stop  offset="0.3877" style="stop-color:#FFCEBE"/>
					<stop  offset="0.5902" style="stop-color:#FFC7B6"/>
					<stop  offset="0.75" style="stop-color:#FFBCA8"/>
					<stop  offset="0.8864" style="stop-color:#FFAC96"/>
					<stop  offset="1" style="stop-color:#FF997F"/>
				</linearGradient>
				<path style="fill:url(#SVGID_00000044169459624498409640000015507688983231457166_);" d="M187.1,233.5c0,0,1,7.9,5.6,13.1
					c4.6,5.3,9.9,7.4,14.2,12.9c3.4,4.4,37.2,36.8,40.6,25c0.5-1.5-0.1-3.2-0.7-4.7c-5.7-14-19.7-19.9-31.9-27.2l-4.6-3.1
					c0,0-2-8-6.9-12.3L187.1,233.5z"/>
				
					<linearGradient id="SVGID_00000145760126326480175280000005890594353220227754_" gradientUnits="userSpaceOnUse" x1="174.6341" y1="430.3215" x2="209.219" y2="430.3215" gradientTransform="matrix(0.9972 -7.540000e-02 7.540000e-02 0.9972 -31.6901 -184.3448)">
					<stop  offset="0" style="stop-color:#18154B"/>
					<stop  offset="0.1287" style="stop-color:#191650"/>
					<stop  offset="0.2848" style="stop-color:#1C1A5F"/>
					<stop  offset="0.4552" style="stop-color:#212078"/>
					<stop  offset="0.6357" style="stop-color:#27299A"/>
					<stop  offset="0.8222" style="stop-color:#3034C5"/>
					<stop  offset="1" style="stop-color:#3941F6"/>
				</linearGradient>
				<path style="fill:url(#SVGID_00000145760126326480175280000005890594353220227754_);" d="M186.2,213.2l-11.4,12.9
					c-0.4,0.4-0.3,1.1,0.1,1.4l22,19.9c0.4,0.4,1.1,0.3,1.4-0.1l11.2-12.4c0.4-0.4,0.3-1-0.1-1.4l-21.8-20.5
					C187.2,212.7,186.6,212.8,186.2,213.2z"/>
				<g>
					
						<linearGradient id="SVGID_00000076589846643458109820000015516917748469891751_" gradientUnits="userSpaceOnUse" x1="177.5307" y1="429.167" x2="204.0506" y2="429.167" gradientTransform="matrix(0.9972 -7.540000e-02 7.540000e-02 0.9972 -31.6901 -184.3448)">
						<stop  offset="4.569890e-02" style="stop-color:#F7F1F9"/>
						<stop  offset="0.221" style="stop-color:#F3F0F9"/>
						<stop  offset="0.3898" style="stop-color:#E8EBF9"/>
						<stop  offset="0.5559" style="stop-color:#D4E4FA"/>
						<stop  offset="0.7205" style="stop-color:#B9D9FB"/>
						<stop  offset="0.8823" style="stop-color:#96CCFC"/>
						<stop  offset="1" style="stop-color:#78C0FD"/>
					</linearGradient>
					<path style="fill:url(#SVGID_00000076589846643458109820000015516917748469891751_);" d="M177.4,226.7l17.6,16l9.4-10.4
						l-17.4-16.5L177.4,226.7z"/>
				</g>
				
					<linearGradient id="SVGID_00000109719770155486621600000009964731860911095180_" gradientUnits="userSpaceOnUse" x1="-88.8872" y1="578.444" x2="-94.3174" y2="558.1284" gradientTransform="matrix(0.9435 -0.3315 0.3315 0.9435 97.9388 -324.6299)">
					<stop  offset="0" style="stop-color:#FFD0C0"/>
					<stop  offset="0.3877" style="stop-color:#FFCEBE"/>
					<stop  offset="0.5902" style="stop-color:#FFC7B6"/>
					<stop  offset="0.75" style="stop-color:#FFBCA8"/>
					<stop  offset="0.8864" style="stop-color:#FFAC96"/>
					<stop  offset="1" style="stop-color:#FF997F"/>
				</linearGradient>
				<path style="fill:url(#SVGID_00000109719770155486621600000009964731860911095180_);" d="M197.6,246.8c0,0,1.5-0.9,0.9-3.9
					c-0.6-2.9-2-9.8-2-9.8s0-2.5,1-1.9c1,0.5,3.1,2.1,3.9,6.4c0,0,0.8,3.7,1.8,4.6c0.9,0.9,3.4,3.5,3.9,7.6
					C207.1,249.7,200.1,252.1,197.6,246.8z"/>
			</g>
			<g>
				
					<linearGradient id="SVGID_00000137123258575744033350000007569798749345016750_" gradientUnits="userSpaceOnUse" x1="-4113.7339" y1="-1826.6705" x2="-4119.9668" y2="-1770.209" gradientTransform="matrix(0.9828 -0.1843 0.1843 0.9828 4621.519 1267.2107)">
					<stop  offset="0" style="stop-color:#FFD0C0"/>
					<stop  offset="0.3877" style="stop-color:#FFCEBE"/>
					<stop  offset="0.5902" style="stop-color:#FFC7B6"/>
					<stop  offset="0.75" style="stop-color:#FFBCA8"/>
					<stop  offset="0.8864" style="stop-color:#FFAC96"/>
					<stop  offset="1" style="stop-color:#FF997F"/>
				</linearGradient>
				<path style="fill:url(#SVGID_00000137123258575744033350000007569798749345016750_);" d="M248.9,284.4c1.4-1.9,1.6-4.6,1.7-7.4
					c0.2-6.9,0.6-13.8,0.9-20.7c0.1-3.1,0.3-6.1,0.4-9.2c0.2-6.3,0.6-15.5-7.6-17c-1.9-0.3-4.3,1-5.5,2.3c-0.9,1-1.4,2.3-1.7,3.8
					c-0.7,3.2-0.5,7.1-0.7,9.9c-0.3,5.7-0.5,11.4-0.6,17.1c0,3.7,0,7.4,0.2,11c0.2,3,0.1,6.9,1.5,9.7c1.5,3,5.2,3.5,7.9,2.7
					C247.1,286.2,248.2,285.4,248.9,284.4z"/>
			</g>
			
				<linearGradient id="SVGID_00000010284509783669557330000015839221763928026812_" gradientUnits="userSpaceOnUse" x1="260.8908" y1="258.647" x2="223.0287" y2="225.5818">
				<stop  offset="0" style="stop-color:#795FED"/>
				<stop  offset="6.993932e-02" style="stop-color:#7A67EE"/>
				<stop  offset="0.488" style="stop-color:#7F94F0"/>
				<stop  offset="0.8118" style="stop-color:#83B0F2"/>
				<stop  offset="1" style="stop-color:#84BAF3"/>
			</linearGradient>
			<path style="fill:url(#SVGID_00000010284509783669557330000015839221763928026812_);" d="M255.5,259.4
				c-1.1-8.5,0.1-39.1-12.1-40.4c-13.5-1.4-10.9,40.7-10.9,40.7L255.5,259.4z"/>
		</g>
		<g>
			
				<linearGradient id="SVGID_00000116921824676729979440000001584171947395083924_" gradientUnits="userSpaceOnUse" x1="-5704.3184" y1="-819.1151" x2="-5708.7549" y2="-861.0558" gradientTransform="matrix(-0.1667 0.986 -0.986 -0.1667 -1662.2798 5794.521)">
				<stop  offset="0" style="stop-color:#FFD0C0"/>
				<stop  offset="0.3877" style="stop-color:#FFCEBE"/>
				<stop  offset="0.5902" style="stop-color:#FFC7B6"/>
				<stop  offset="0.75" style="stop-color:#FFBCA8"/>
				<stop  offset="0.8864" style="stop-color:#FFAC96"/>
				<stop  offset="1" style="stop-color:#FF997F"/>
			</linearGradient>
			<path style="fill:url(#SVGID_00000116921824676729979440000001584171947395083924_);" d="M109.4,329.9c1.2-0.2,2.4-0.8,3.6-1.2
				c0.3-0.1,3.6-1.2,4-1.2c5.4-0.4,20.2,0.2,20.2,0.2l-0.2-14.9c0,0-12.8,2.5-20.4,0.6l0,0c-3.8-6.5-12.1-15.3-12.1-15.3
				s-2.8-7.2-3.1-7.9c-0.3-0.7,2-2.4,0.1-4.3c0,0-0.4-9.9-2.5,6.7c0,0-3.9,6.9-1.8,18.3c0.3,2.5,0.6,5,0.9,7.4
				c0.3,2.5,0.8,10.2,1.5,11.2c0.3,0.4,0.6,0.6,0.9,0.8C102.8,331.7,106.9,330.3,109.4,329.9z"/>
			
				<linearGradient id="SVGID_00000056411723870358244230000006686918201229137028_" gradientUnits="userSpaceOnUse" x1="-5731.1885" y1="-828.0046" x2="-5681.3604" y2="-828.0046" gradientTransform="matrix(-0.1667 0.986 -0.986 -0.1667 -1662.2798 5794.521)">
				<stop  offset="0" style="stop-color:#071785"/>
				<stop  offset="0.1467" style="stop-color:#05136B"/>
				<stop  offset="0.3202" style="stop-color:#041055"/>
				<stop  offset="0.5082" style="stop-color:#030E45"/>
				<stop  offset="0.719" style="stop-color:#020C3B"/>
				<stop  offset="1" style="stop-color:#020C38"/>
			</linearGradient>
			<path style="fill:url(#SVGID_00000056411723870358244230000006686918201229137028_);" d="M113,328.7c-0.7-3.7-0.6-7.8-0.2-11.2
				c0.2-2.4,0.9-5.1,2-7.5c-3.5-6.5-7.2-14.7-7.2-14.7s-2.6-9.4-2.9-10.1c-0.3-0.7-0.8-2.4-2.7-4.3c0,0-3.4-5.2-5.5,11.4
				c0,0-1.4,7.2,0.7,18.6c0.3,2.5,0.6,5,0.9,7.4c0.3,2.5,0.8,10.2,1.5,11.2c0.3,0.4,0.6,0.6,0.9,0.8c2.4,1.3,6.5-0.1,9-0.5
				C110.6,329.7,111.8,329.2,113,328.7z"/>
			
				<linearGradient id="SVGID_00000111905955674287425160000011298689737727801784_" gradientUnits="userSpaceOnUse" x1="-5701.3105" y1="-853.9327" x2="-5710.2603" y2="-938.5338" gradientTransform="matrix(-0.1667 0.986 -0.986 -0.1667 -1662.2798 5794.521)">
				<stop  offset="0" style="stop-color:#071785"/>
				<stop  offset="0.1467" style="stop-color:#05136B"/>
				<stop  offset="0.3202" style="stop-color:#041055"/>
				<stop  offset="0.5082" style="stop-color:#030E45"/>
				<stop  offset="0.719" style="stop-color:#020C3B"/>
				<stop  offset="1" style="stop-color:#020C38"/>
			</linearGradient>
			<path style="fill:url(#SVGID_00000111905955674287425160000011298689737727801784_);" d="M130.1,327.6c17.5,2.4,56,5.8,77.7-1.6
				c3.4-1.2,7.1-4.6,7.5-8.4c0.3-2.9-0.9-7.2-3.4-8.9c-2.1-1.4-8.9-1.9-11.3-1.8c-6.7,0.3-49.8,3.7-70.2,5.4L130.1,327.6z"/>
		</g>
	</g>
	<path class="st24" d="M314.1,224c-10.4-7.7-17.2-19.9-17.2-33.8c0-23.3,18.9-42.1,42.1-42.1c23.3,0,42.1,18.9,42.1,42.1
		c0,13.9-6.8,26.2-17.2,33.8h18.4c7.3-9.4,11.9-21,11.9-33.8c0-30.5-24.7-55.2-55.2-55.2c-30.5,0-55.2,24.7-55.2,55.2
		c0,12.8,4.6,24.5,11.9,33.8H314.1z"/>
	<g>
		<path class="st25" d="M395.7,203.1H280.6c-4.6,0-8.3,3.7-8.3,8.3v109.1c0,4.6,3.7,8.3,8.3,8.3h115.1c4.6,0,8.3-3.7,8.3-8.3V211.5
			C404.1,206.9,400.3,203.1,395.7,203.1z M347.1,260.9v31.5c0,2.3-1.9,4.2-4.2,4.2h-7.7c-2.3,0-4.2-1.9-4.2-4.2v-31.5
			c-5.2-2.9-8.9-8.3-8.8-14.7c0.1-9,7.4-16.5,16.4-16.8c9.6-0.3,17.4,7.4,17.4,16.9C355.9,252.7,352.3,258,347.1,260.9z"/>
	</g>
</g>
<g id="DESIGNED_BY_FREEPIK">
</g>
</svg>
