<svg width="548" height="326" viewBox="0 0 548 326" fill="none" xmlns="http://www.w3.org/2000/svg">
<path d="M509.854 324.902L417.583 325.541L299.915 325.095L36.8325 324.108C36.8325 324.108 -0.907542 292.488 0.016703 237.38C0.594356 202.177 8.39267 127.842 90.1499 110.473C166.824 94.1691 146.433 -9.48245 259.479 0.702624C304.093 4.73018 323.868 44.6185 358.354 33.9881C504.039 -10.9153 536.021 82.4737 546.997 173.113C551.021 206.573 540.103 310.65 509.854 324.902Z" fill="#EBF3FA"/>
<path d="M288.574 71.9978H259.171C257.824 71.9978 256.726 70.8941 256.726 69.5387V40.9972C256.726 39.6418 257.824 38.5381 259.171 38.5381H288.574C289.922 38.5381 291.019 39.6418 291.019 40.9972V69.5387C291.039 70.8941 289.941 71.9978 288.574 71.9978Z" fill="#C0D8FB"/>
<path d="M287.303 70.5455H260.461C259.229 70.5455 258.228 69.5386 258.228 68.2993V42.2364C258.228 40.9971 259.229 39.9902 260.461 39.9902H287.303C288.535 39.9902 289.537 40.9971 289.537 42.2364V68.2993C289.556 69.5386 288.535 70.5455 287.303 70.5455Z" fill="#DFEBFD"/>
<path d="M273.17 43.0495C273.17 42.6622 273.497 42.333 273.882 42.333C274.267 42.333 274.595 42.6622 274.595 43.0495C274.595 43.4367 274.267 43.7659 273.882 43.7659C273.497 43.7659 273.17 43.4367 273.17 43.0495Z" fill="#B7D3F3"/>
<path d="M278.907 44.0572C279.1 43.7087 279.524 43.5925 279.87 43.7862C280.217 43.9798 280.332 44.4058 280.14 44.7543C279.947 45.1029 279.524 45.219 279.177 45.0254C278.83 44.8318 278.715 44.4058 278.907 44.0572Z" fill="#B7D3F3"/>
<path d="M283.818 47.9672C284.145 47.7542 284.588 47.851 284.8 48.1802C285.011 48.5094 284.915 48.9547 284.588 49.1677C284.26 49.3807 283.818 49.2839 283.606 48.9547C283.394 48.6255 283.49 48.1802 283.818 47.9672Z" fill="#B7D3F3"/>
<path d="M286.244 54.0474C286.629 54.0474 286.956 54.3765 286.956 54.7638C286.956 55.1511 286.629 55.4802 286.244 55.4802C285.859 55.4802 285.531 55.1511 285.531 54.7638C285.551 54.3765 285.859 54.0474 286.244 54.0474Z" fill="#B7D3F3"/>
<path d="M285.012 61.0964C285.281 61.3675 285.281 61.8322 285.012 62.1033C284.742 62.3744 284.28 62.3744 284.01 62.1033C283.741 61.8322 283.741 61.3675 284.01 61.0964C284.28 60.8253 284.742 60.8253 285.012 61.0964Z" fill="#B7D3F3"/>
<path d="M280.044 66.8274C280.437 66.8274 280.756 66.5067 280.756 66.111C280.756 65.7153 280.437 65.3945 280.044 65.3945C279.651 65.3945 279.332 65.7153 279.332 66.111C279.332 66.5067 279.651 66.8274 280.044 66.8274Z" fill="#B7D3F3"/>
<path d="M273.17 67.9118C273.17 67.5245 273.497 67.1953 273.882 67.1953C274.267 67.1953 274.595 67.5245 274.595 67.9118C274.595 68.299 274.267 68.6282 273.882 68.6282C273.497 68.6282 273.17 68.3184 273.17 67.9118Z" fill="#B7D3F3"/>
<path d="M268.837 44.0567C268.644 43.7082 268.221 43.592 267.874 43.7857C267.527 43.9793 267.412 44.4053 267.604 44.7538C267.797 45.1024 268.221 45.2185 268.567 45.0249C268.914 44.8313 269.029 44.4053 268.837 44.0567Z" fill="#B7D3F3"/>
<path d="M263.927 47.9677C263.599 47.7547 263.156 47.8515 262.945 48.1807C262.733 48.5099 262.829 48.9552 263.156 49.1682C263.484 49.3812 263.927 49.2844 264.138 48.9552C264.35 48.626 264.254 48.1807 263.927 47.9677Z" fill="#B7D3F3"/>
<path d="M261.5 54.0483C261.115 54.0483 260.788 54.3775 260.788 54.7648C260.788 55.152 261.115 55.4812 261.5 55.4812C261.885 55.4812 262.213 55.152 262.213 54.7648C262.193 54.3775 261.885 54.0483 261.5 54.0483Z" fill="#B7D3F3"/>
<path d="M262.733 61.0959C262.464 61.367 262.464 61.8317 262.733 62.1028C263.003 62.3739 263.465 62.3739 263.735 62.1028C264.004 61.8317 264.004 61.367 263.735 61.0959C263.465 60.8248 263.003 60.8248 262.733 61.0959Z" fill="#B7D3F3"/>
<path d="M267.2 65.6076C266.931 65.8787 266.931 66.3434 267.2 66.6145C267.47 66.8856 267.932 66.8856 268.202 66.6145C268.471 66.3434 268.471 65.8787 268.202 65.6076C267.932 65.3365 267.47 65.3172 267.2 65.6076Z" fill="#B7D3F3"/>
<path d="M273.69 54.7648C273.69 54.3775 274.018 54.0483 274.403 54.0483C274.788 54.0483 275.115 54.3775 275.115 54.7648C275.115 55.152 274.788 55.4812 274.403 55.4812C274.018 55.4812 273.69 55.152 273.69 54.7648Z" fill="#B7D3F3"/>
<path d="M274.499 45.8379H274.306V54.7644H274.499V45.8379Z" fill="#B7D3F3"/>
<path d="M278.843 50.798L274.133 54.5166L274.49 54.9735L279.2 51.255L278.843 50.798Z" fill="#B7D3F3"/>
<path d="M114.719 191.219C114.719 191.219 108.712 184.171 114.353 179.698C114.353 179.698 118.474 177.2 121.824 177.393C121.824 177.393 117.068 185.41 118.609 186.204C120.149 186.998 123.269 176.89 123.269 176.89C123.269 176.89 132.627 175.98 135.65 177.432C135.65 177.432 127.64 184.016 129.334 184.403C131.028 184.79 139.674 178.323 139.674 178.323C139.674 178.323 148.397 179.814 147.915 185.158C147.453 190.502 144.449 192.148 143.121 192.013C141.792 191.877 134.09 188.915 133.917 189.999C133.743 191.083 138.403 194.646 141.657 194.801C141.657 194.801 135.515 201.617 131.433 199.642C127.351 197.667 127.004 194.549 124.462 193.387C121.921 192.226 119.745 192.226 120.804 193.407C121.863 194.607 126.465 195.75 127.909 198.344C129.372 200.939 130.663 202.682 126.446 202.043C122.229 201.404 115.355 198.286 115.047 194.743C114.739 191.199 114.719 191.219 114.719 191.219Z" fill="#C8DBF4"/>
<path d="M143.622 185.333C143.622 185.333 119.958 184.423 114.72 191.22C114.72 191.22 113.565 194.705 110.003 197.88L109.445 199.391C109.445 199.391 113.546 195.034 115.009 194.782C115.029 194.782 112.737 186.359 143.622 185.333Z" fill="#C8DBF4"/>
<path d="M110.002 197.88C110.002 197.88 104.919 201.656 104.573 208.413L105.497 208.491C105.497 208.491 107.114 201.501 110.06 198.79C112.987 196.04 110.002 197.88 110.002 197.88Z" fill="#C8DBF4"/>
<path d="M93.7314 182.369C93.7314 182.369 103.282 176.986 98.834 169.686C98.834 169.686 95.2718 165.213 91.44 164.052C91.44 164.052 93.481 174.934 91.44 175.186C89.399 175.437 90.0344 162.89 90.0344 162.89C90.0344 162.89 79.9832 158.03 76.0359 158.417C76.0359 158.417 82.2746 169.047 80.2335 168.796C78.1925 168.544 71.2029 157.778 71.2029 157.778C71.2029 157.778 60.8821 155.861 59.2262 161.999C57.5703 168.137 60.2467 171.216 61.7679 171.603C63.289 171.991 73.1091 171.855 72.8396 173.133C72.5893 174.411 65.9655 176.464 62.2685 175.302C62.2685 175.302 66.3506 185.409 71.6843 184.906C77.0372 184.402 78.6931 181.072 82.005 180.801C85.3169 180.549 87.743 181.44 86.0871 182.331C84.4311 183.221 78.8279 182.621 76.1514 184.906C73.475 187.191 71.3184 188.604 76.2862 189.631C81.254 190.657 90.1692 190.018 91.9406 186.165C93.7121 182.311 93.7314 182.369 93.7314 182.369Z" fill="#C8DBF4"/>
<path d="M63.9434 163.935C63.9434 163.935 90.6887 172.649 93.731 182.369C93.731 182.369 93.5962 186.726 96.2727 191.721V193.638C96.2727 193.638 93.4807 187.113 91.9403 186.203C91.9403 186.203 97.9286 177.76 63.9434 163.935Z" fill="#C8DBF4"/>
<path d="M96.2722 191.722C96.2722 191.722 100.393 198.015 98.0437 205.683L96.9847 205.393C96.9847 205.393 98.0052 196.95 95.8486 192.71C93.7113 188.45 96.2722 191.722 96.2722 191.722Z" fill="#C8DBF4"/>
<path d="M108.923 174.955C108.923 174.955 96.3305 167.868 102.203 158.244C102.203 158.244 106.902 152.339 111.946 150.809C111.946 150.809 109.27 165.157 111.946 165.486C114.623 165.815 113.795 149.279 113.795 149.279C113.795 149.279 127.062 142.87 132.261 143.373C132.261 143.373 124.039 157.373 126.715 157.044C129.392 156.715 138.634 142.521 138.634 142.521C138.634 142.521 152.228 139.985 154.404 148.098C156.58 156.192 153.056 160.258 151.054 160.762C149.032 161.265 136.112 161.091 136.458 162.795C136.785 164.479 145.527 167.19 150.38 165.661C150.38 165.661 145.007 179.002 137.96 178.324C130.913 177.646 128.737 173.251 124.366 172.922C119.995 172.593 116.818 173.774 118.994 174.955C121.17 176.136 128.564 175.342 132.087 178.363C135.611 181.384 138.461 183.242 131.914 184.578C125.367 185.934 113.622 185.082 111.272 180.028C108.923 174.955 108.923 174.955 108.923 174.955Z" fill="#D4E4F8"/>
<path d="M148.204 150.655C148.204 150.655 112.948 162.137 108.923 174.956C108.923 174.956 109.097 180.687 105.573 187.271V189.807C105.573 189.807 109.27 181.191 111.273 180.009C111.273 180.009 103.378 168.876 148.204 150.655Z" fill="#D4E4F8"/>
<path d="M105.573 187.271C105.573 187.271 100.143 195.578 103.243 205.666L104.649 205.279C104.649 205.279 103.301 194.145 106.131 188.549C108.962 182.972 105.573 187.271 105.573 187.271Z" fill="#D4E4F8"/>
<path d="M108.5 227.582C122.113 227.582 133.166 216.487 133.166 202.777H83.8342C83.8342 216.487 94.8867 227.582 108.5 227.582Z" fill="#D4E4F8"/>
<path d="M133.493 228.841H83.5066C83.5066 227.157 84.8737 225.782 86.5489 225.782H130.47C132.145 225.782 133.493 227.157 133.493 228.841Z" fill="#D4E4F8"/>
<path d="M133.705 202.797H83.0251V203.553H133.705V202.797Z" fill="#9FC1F4"/>
<path d="M138.654 230.371V232.753C138.654 233.585 138.384 234.263 138.057 234.263H51.7168C51.3894 234.263 51.1199 233.585 51.1199 232.753V230.371C51.1199 229.538 51.3894 228.861 51.7168 228.861H138.076C138.384 228.841 138.654 229.538 138.654 230.371Z" fill="#9ABFE2"/>
<path d="M138.654 230.371V232.753C138.654 233.585 138.403 234.263 138.114 234.263H69.5663C69.2582 234.263 69.0271 233.585 69.0271 232.753V230.371C69.0271 229.538 69.2774 228.861 69.5663 228.861H138.114C138.403 228.841 138.654 229.538 138.654 230.371Z" fill="#BAD4F4"/>
<path d="M116.8 234.263H55.4915V324.128H116.8V234.263Z" fill="#C8DBF4"/>
<path d="M133.975 234.263H72.6667V324.128H133.975V234.263Z" fill="#DFEBFD"/>
<path d="M130.682 319.152H75.978V236.8H130.701V319.152H130.682ZM76.5557 318.552H130.085V237.381H76.5557V318.552Z" fill="#B7D3F3"/>
<path d="M130.393 264.043H76.2666V264.644H130.393V264.043Z" fill="#B7D3F3"/>
<path d="M130.393 291.811H76.2666V292.411H130.393V291.811Z" fill="#B7D3F3"/>
<path d="M108.885 242.105H98.8337C98.3524 242.105 97.948 241.699 97.948 241.214C97.948 240.73 98.3524 240.324 98.8337 240.324H108.885C109.366 240.324 109.771 240.73 109.771 241.214C109.771 241.699 109.366 242.105 108.885 242.105Z" fill="#B7D3F3"/>
<path d="M108.885 269.272H98.8337C98.3524 269.272 97.948 268.865 97.948 268.381C97.948 267.897 98.3524 267.49 98.8337 267.49H108.885C109.366 267.49 109.771 267.897 109.771 268.381C109.771 268.865 109.366 269.272 108.885 269.272Z" fill="#B7D3F3"/>
<path d="M108.885 297.581H98.8337C98.3524 297.581 97.948 297.174 97.948 296.69C97.948 296.206 98.3524 295.799 98.8337 295.799H108.885C109.366 295.799 109.771 296.206 109.771 296.69C109.771 297.174 109.366 297.581 108.885 297.581Z" fill="#B7D3F3"/>
<path d="M69.0656 216.526V229.015H56.5498V216.487C56.5498 216.371 56.5498 216.255 56.5691 216.119C56.7038 214.687 57.6088 213.486 58.8797 212.944C59.7847 212.557 60.4201 211.724 60.4586 210.756L60.5549 208.955H65.1568L65.1954 210.756C65.2146 211.743 65.8308 212.576 66.7358 212.963C68.0066 213.505 68.9308 214.706 69.0656 216.139C69.0656 216.255 69.0656 216.391 69.0656 216.526Z" fill="#C8DBF4"/>
<path d="M65.484 209.748H60.1311L60.2659 208.335H65.3492L65.484 209.748Z" fill="#B7D3F3"/>
<path d="M69.0656 216.526V224.581H56.5498V216.488C56.5498 216.371 56.5498 216.255 56.5691 216.12H69.0464C69.0656 216.255 69.0656 216.391 69.0656 216.526Z" fill="white"/>
<path d="M79.3668 222.024V229.015H72.3579V222.005C72.3579 221.928 72.3579 221.87 72.3772 221.811C72.4542 221.018 72.9548 220.34 73.6673 220.03C74.1679 219.817 74.5337 219.352 74.553 218.81L74.6107 217.803H77.1717L77.1909 218.81C77.2102 219.352 77.5375 219.836 78.0574 220.049C78.7699 220.359 79.2897 221.018 79.3668 221.831C79.3475 221.87 79.3668 221.947 79.3668 222.024Z" fill="#C8DBF4"/>
<path d="M77.3451 218.23H74.3413L74.4376 217.455H77.2681L77.3451 218.23Z" fill="#B7D3F3"/>
<path d="M79.3668 222.025V226.536H72.3579V222.005C72.3579 221.928 72.3579 221.87 72.3772 221.812H79.3668C79.3475 221.87 79.3668 221.947 79.3668 222.025Z" fill="white"/>
<path d="M475.233 61.271H331.821V324.902H475.233V61.271Z" fill="#D3E3F7"/>
<path d="M469.11 65.9175H338.117V324.92H469.11V65.9175Z" fill="#E5EFFB"/>
<path d="M446.89 193.638C446.89 190.424 449.489 187.81 452.685 187.81C455.882 187.81 458.481 190.424 458.481 193.638C458.481 196.852 455.882 199.466 452.685 199.466C449.489 199.466 446.89 196.852 446.89 193.638Z" fill="#D3E3F7"/>
<path d="M430.832 105.167H376.763V122.343H430.832V105.167Z" fill="#F5F9FD"/>
<path d="M420.798 110.473H386.794V112.235H420.798V110.473Z" fill="#D3E3F7"/>
<path d="M416.043 115.236H391.551V116.998H416.043V115.236Z" fill="#D3E3F7"/>
<path d="M431.485 122.981H376.108V104.509H431.485V122.981ZM377.417 121.665H430.195V105.806H377.417V121.665Z" fill="#BAD4F4"/>
<path d="M341.642 86.9462C337.155 84.6032 333.555 86.0749 333.555 86.0749C319.826 84.4483 315.821 100.559 315.994 106.096C316.187 111.634 316.803 117.598 310.68 124.801C292.965 145.598 330.07 146.508 330.07 146.508C330.378 129.894 350.191 135.955 349.325 137.639C374.722 143.777 351.847 92.2711 341.642 86.9462Z" fill="#163560"/>
<path d="M288.651 156.228C288.651 156.228 286.245 152.529 284.281 152.452C282.336 152.375 278.735 151.368 279.024 152.084C279.313 152.801 281.546 152.878 281.758 153.323C281.97 153.749 278.446 154.408 277.426 154.485C276.425 154.563 274.037 154.485 274.114 154.989C274.191 155.492 278.408 157.603 281.373 157.312C284.338 157.022 288.016 158.184 288.016 158.184L288.651 156.228Z" fill="#FFB27D"/>
<path d="M323.58 157.428C323.58 157.428 322.271 160.042 319.883 163.043C317.014 166.664 312.586 170.827 307.04 171.66C304.383 172.047 301.783 171.486 299.396 170.421C292.657 167.4 287.573 160.487 287.573 160.487C286.379 157.234 288.324 155.007 288.324 155.007C288.324 155.007 301.957 158.086 303.247 157.428C304.537 156.77 312.123 134.85 313.914 132.081C315.724 129.332 321.867 127.899 321.867 127.899L323.58 157.428Z" fill="#F9DDBF"/>
<path d="M319.903 163.044C317.034 166.664 312.606 170.828 307.06 171.66C304.403 172.047 301.803 171.486 299.416 170.421C299.685 170.46 306.425 171.292 309.101 166.451C311.835 161.514 314.801 153.691 318.883 156.305C320.635 157.428 320.558 160.217 319.903 163.044Z" fill="#F2CCAA"/>
<path d="M374.434 305.344C374.434 305.344 378.593 309.159 377.784 311.869C376.975 314.58 373.22 316.381 372.72 319.712C372.219 323.023 370.178 324.824 368.368 324.824C366.558 324.824 359.665 324.824 359.665 324.824C359.665 324.824 358.317 322.5 361.571 321.783C364.825 321.086 366.038 317.194 365.846 313.573C365.634 309.953 366.154 305.131 366.154 305.131L373.047 303.524L374.434 305.344Z" fill="#233862"/>
<path d="M339.235 306.952C339.235 306.952 340.737 323.12 338.908 324.03L315.551 323.991C315.551 323.991 315.551 321.28 319.306 320.68C323.061 320.08 329.646 317.873 330.763 312.954C331.86 308.017 339.235 306.952 339.235 306.952Z" fill="#233862"/>
<path d="M355.89 190.985C351.076 180.142 348.15 177.024 348.708 173.674C349.132 171.176 347.437 126.97 347.437 126.97C346.86 126.796 345.724 126.641 345.107 126.486C343.143 126.041 341.507 124.647 340.833 122.749C340.024 120.445 339.369 117.037 339.389 112.777L338.772 112.893L328.413 114.946C328.413 114.946 328.644 118.218 328.664 121.316C328.664 121.335 328.664 121.374 328.664 121.394C328.683 124.066 326.931 126.447 324.37 127.183C323.06 127.57 321.924 127.88 321.924 127.88C321.924 127.88 318.131 138.801 317.399 150.012C316.668 161.224 324.312 166.103 317.342 188.507C310.179 211.413 358.528 196.968 355.89 190.985Z" fill="#FFB27D"/>
<path d="M328.375 114.965C328.375 114.965 328.606 118.237 328.626 121.335C334.421 121.18 337.483 115.855 338.735 112.912L328.375 114.965Z" fill="#E8945B"/>
<path d="M326.431 117.889C326.431 117.889 340.14 118.121 340.14 109.524C340.14 100.946 341.931 95.1757 333.17 94.6723C324.409 94.1688 322.714 97.4412 322.021 100.307C321.347 103.173 322.868 117.598 326.431 117.889Z" fill="#FFB27D"/>
<path d="M326.95 94.459C326.95 94.459 330.705 104.528 336.462 106.019C342.22 107.51 344.723 105.961 344.723 105.961C344.723 105.961 340.313 102.437 339.389 96.2597C339.389 96.2791 329.781 89.6762 326.95 94.459Z" fill="#163560"/>
<path d="M327.874 95.2916C327.874 95.2916 325.082 96.3372 323.946 98.3703C322.829 100.365 321.867 103.017 322.098 106.251C322.098 106.251 319.267 99.3966 322.444 95.5239C325.814 91.4189 327.874 95.2916 327.874 95.2916Z" fill="#163560"/>
<path d="M329.415 112.563C329.415 112.563 328.471 113.822 326.584 113.725C325.063 113.648 324.466 112.331 324.466 112.331C324.466 112.331 327.278 111.634 329.415 112.563Z" fill="white"/>
<path d="M354.023 146.527C354.023 146.527 353.966 153.072 353.619 158.997C353.388 162.927 353.022 166.587 352.464 167.884C351.058 171.157 349.479 171.68 349.479 171.68L337.214 174.7L332.9 175.765L319.306 171.68C319.306 171.68 313.106 154.291 315.59 144.513C318.074 134.735 321.887 127.919 321.887 127.919C321.887 127.919 332.977 138.84 347.438 126.989L354.023 146.527Z" fill="#F9DDBF"/>
<path d="M353.619 158.978C353.388 162.909 353.022 166.568 352.464 167.866C351.058 171.138 349.479 171.661 349.479 171.661L337.214 174.681L331.88 173.113C331.88 173.113 349.672 170.402 347.688 155.008L353.619 158.978Z" fill="#F2CCAA"/>
<path d="M320.154 174.293C320.154 174.293 313.414 195.38 312.991 202.544C312.567 209.728 325.872 304.511 326.392 307.822C326.893 310.94 330.744 312.934 330.744 312.934C330.744 312.934 332.515 313.98 335.038 313.264C338.542 312.276 339.659 311.076 339.659 311.076C339.659 311.076 344.896 243.478 341.661 219.332C338.427 195.186 338.388 174.293 338.388 174.293H320.154Z" fill="#ED7D2B"/>
<path d="M348.69 173.674C348.69 173.674 358.972 187.538 359.915 196.91C360.878 206.282 361.417 239.2 363.458 248.339C365.499 257.479 372.989 275.06 372.989 303.544C372.989 303.544 372.219 305.17 369.812 306.042C369.042 306.313 368.002 306.584 367.02 306.816C365.037 307.281 362.996 306.293 362.091 304.473C357.027 294.211 340.872 261.119 340.044 254.245C339.466 249.385 334.364 217.203 323.234 198.324C320.558 193.793 324.871 175.766 324.871 175.766L348.69 173.674Z" fill="#F99746"/>
<path d="M319.074 171.041C319.074 171.041 321.77 173.19 327.142 173.306C333.554 173.442 349.459 171.66 349.459 171.66C349.459 171.66 350.171 173.635 350.133 175.746C350.133 175.746 330.724 180.664 319.459 176.462C319.479 176.462 318.035 173.713 319.074 171.041Z" fill="#233862"/>
<path d="M325.622 178.863C324.004 178.863 322.695 177.372 322.695 175.533C322.695 173.693 324.004 172.202 325.622 172.202C327.239 172.202 328.549 173.693 328.549 175.533C328.549 177.372 327.239 178.863 325.622 178.863ZM325.622 173.17C324.544 173.17 323.658 174.235 323.658 175.533C323.658 176.83 324.544 177.895 325.622 177.895C326.7 177.895 327.586 176.83 327.586 175.533C327.567 174.235 326.7 173.17 325.622 173.17Z" fill="white"/>
<path d="M370.593 189.747L340.045 196.372L343.738 213.596L374.286 206.971L370.593 189.747Z" fill="#163560"/>
<path d="M340.044 196.387C340.044 196.387 348.593 203.59 358.086 201.073C367.579 198.575 370.602 189.746 370.602 189.746L340.044 196.387Z" fill="#17467F"/>
<path d="M344.319 196.967C343.376 196.967 342.625 196.193 342.625 195.264C342.625 194.315 343.395 193.56 344.319 193.56C345.263 193.56 346.014 194.334 346.014 195.264C346.014 196.193 345.263 196.967 344.319 196.967ZM344.319 194.121C343.703 194.121 343.183 194.625 343.183 195.264C343.183 195.883 343.684 196.406 344.319 196.406C344.935 196.406 345.455 195.903 345.455 195.264C345.455 194.625 344.935 194.121 344.319 194.121Z" fill="#17467F"/>
<path d="M369.196 197.414C369.196 197.414 369.216 199.911 369.678 201.112C370.14 202.313 371.565 203.92 372.027 203.92C372.489 203.92 371.603 201.402 371.834 201.461C372.065 201.519 373.201 205.643 374.029 205.74C374.857 205.837 375.608 201.112 375.165 199.253C374.723 197.394 372.874 195.167 372.874 195.167L369.196 197.414Z" fill="#FFB27D"/>
<path d="M347.419 126.97C347.419 126.97 355.005 127.996 359.087 136.09C362.245 142.345 364.402 161.998 366.635 168.195C368.773 174.12 371.699 185.563 373.336 194.742C373.471 195.458 373.067 196.155 372.412 196.426L369.62 197.53C369.023 197.762 368.33 197.53 368.002 196.968C365.519 192.786 355.756 176.037 352.367 166.336C348.401 155.008 340.988 147.96 340.988 147.96L347.419 126.97Z" fill="#F9DDBF"/>
<path d="M343.76 193.947C343.741 193.657 341.969 165.638 342.316 149.877C342.489 141.609 343.76 135.78 344.8 132.334C345.936 128.577 347.611 127.047 347.669 126.989L348.246 127.164C348.208 127.241 343.529 134.309 343.182 149.896C342.855 165.619 344.607 193.618 344.626 193.889L343.76 193.947Z" fill="#0C2442"/>
<path d="M198.209 323.954H212.612C212.496 323.199 212.13 320.875 211.457 318.745C211.225 318.009 210.956 317.293 210.648 316.654C209.242 313.846 200.346 315.628 200.346 315.628C200.346 315.628 199.518 316.344 198.883 319.055C198.594 320.275 198.344 321.862 198.209 323.954Z" fill="#233862"/>
<path d="M224.666 102.631C224.666 102.631 236.142 104.664 238.741 111.48C241.341 118.296 255.994 228.376 255.994 228.376C255.994 228.376 248.735 234.166 233.138 232.094C217.541 230.022 224.666 102.631 224.666 102.631Z" fill="#91CECF"/>
<path d="M241.764 319.384C241.803 321.359 242.053 323.218 242.765 323.954H271.263C270.897 322.908 269.877 321.359 266.95 320.875C263.619 320.333 258.439 318.726 255.416 315.512C254.338 314.369 253.529 313.014 253.182 311.445C251.835 305.443 242.092 313.285 242.092 313.285C242.092 313.285 241.687 316.441 241.764 319.384Z" fill="#233862"/>
<path d="M254.029 316.46C250.852 317.486 244.748 320.603 240.897 319.132C238.394 318.183 224.434 277.559 223.529 259.783C223.471 258.486 223.202 256.685 222.817 254.497C221.989 249.908 220.545 243.615 218.869 236.644C214.402 218.017 208.356 194.703 208.491 187.249C208.703 175.689 242.765 184.828 242.765 184.828C242.765 184.828 245.114 194.316 245.576 208.045C246.501 235.308 249.042 281.354 255.955 313.342C256.244 314.698 255.358 316.034 254.029 316.46Z" fill="#AF4138"/>
<path d="M230.384 187.288L212.38 318.552C212.38 318.552 204.466 320.469 198.324 318.939C198.324 318.939 193.048 249.115 193.491 232.25C193.934 215.365 189.698 187.095 194.454 183.958C199.191 180.84 230.384 187.288 230.384 187.288Z" fill="#C65447"/>
<path d="M192.163 108.653C192.163 108.653 211.091 96.338 224.666 102.631C226.822 103.638 229.306 106.426 231.058 108.382C235.968 113.823 245.558 200.203 245.558 200.203C245.558 200.203 218.331 209.478 192.163 197.066V108.653Z" fill="white"/>
<path d="M225.744 102.322C225.744 102.322 244.902 110.222 247.502 116.283C250.101 122.343 258.535 159.618 258.535 163.974C258.535 168.35 243.843 164.943 241.475 157.894C239.511 152.047 232.887 134.058 229.402 122.692L225.744 102.322Z" fill="#ABDDDA"/>
<path d="M221.758 108.344C217.58 109.177 211.437 108.286 206.932 105.304C208.953 100.425 209.801 96.5713 210.089 94.0734C210.109 93.9379 210.128 93.8217 210.128 93.6862C210.263 92.3888 210.244 91.5175 210.186 91.1108H221.007C221.007 91.1108 223.972 92.4663 223.972 93.4151C223.972 93.9185 223.972 94.4026 223.992 94.8479C224.011 96.1066 224.069 97.1909 224.126 98.1203C224.338 101.18 224.685 102.613 224.685 102.613C224.685 102.613 225.994 107.512 221.758 108.344Z" fill="#FFB27D"/>
<path d="M224.107 98.1398C215.905 99.7275 211.148 95.2353 210.089 94.0735C209.935 93.8992 209.858 93.8024 209.858 93.8024C209.935 93.7637 210.032 93.7249 210.128 93.6862C213.17 92.447 220.102 93.4345 223.972 94.848C223.992 96.126 224.049 97.2103 224.107 98.1398Z" fill="#E2915A"/>
<path d="M207.413 89.3295C208.876 97.2491 219.043 96.9974 223.433 96.4939C224.665 96.3584 225.455 96.2035 225.455 96.2035C226.841 95.8356 227.631 93.6282 227.996 90.7237C228.709 84.9921 227.804 76.5885 226.841 74.4392C225.397 71.2055 222.663 67.7008 212.419 70.2373C202.195 72.7739 205.545 79.1832 207.413 89.3295Z" fill="#FFB27D"/>
<path d="M227.226 70.0245C225.821 68.0688 222.855 65.6871 220.16 64.2348C214.364 61.0786 206.951 64.3317 206.931 64.351C198.575 68.0494 196.38 74.478 200.827 84.5082C205.526 95.0999 209.974 93.9187 209.974 93.9187C209.974 93.9187 209.03 93.3185 209.107 90.0267C209.107 89.8331 209.126 89.6782 209.126 89.5426C209.165 88.8649 208.934 88.1872 208.433 87.7418C207.393 86.8124 206.893 83.9854 207.759 83.2108C208.818 82.262 210.282 83.4045 210.763 84.2952C211.167 84.9148 211.918 85.1472 212.592 84.7018C215.192 83.0559 213.497 79.7448 216.001 77.7117C218.484 75.6785 223.529 77.3825 227.265 75.7753C232.136 73.9358 228.285 71.4961 227.226 70.0245Z" fill="#233862"/>
<path d="M228.401 236.451C226.745 236.877 225.128 237.226 223.491 237.497C222.066 237.749 220.622 237.923 219.197 238.039C211.091 238.756 202.965 237.594 193.453 234.864C191.316 234.244 189.101 233.547 186.81 232.772C186.56 232.695 187.426 207.407 188.447 181.305C188.543 178.613 188.658 175.902 188.755 173.23C188.793 172.088 188.851 170.965 188.889 169.842C189.794 146.78 190.699 125.926 190.892 124.822C191.335 122.286 191.739 120.117 192.182 118.239C193.472 112.778 195.09 109.777 198.594 107.202C198.941 106.95 201.733 105.517 204.216 104.278C206.258 103.252 208.087 102.361 208.087 102.361C208.896 102.767 209.878 104.646 210.898 107.279C212.785 112.139 214.807 119.594 216.232 125.151C216.232 125.171 216.232 125.171 216.232 125.171C217.137 128.753 217.791 131.561 217.984 132.355C218.292 133.71 218.716 136.324 219.216 139.887C219.89 144.728 220.68 151.292 221.527 158.747C221.604 159.521 221.7 160.296 221.777 161.07C221.873 161.961 221.97 162.871 222.085 163.781C222.124 164.072 222.143 164.362 222.182 164.652C222.509 167.596 222.836 170.655 223.164 173.753C223.433 176.309 227.303 178.168 227.554 180.763C227.708 182.292 228.035 196.408 228.439 200.9C228.728 204.153 228.516 234.941 228.401 236.451Z" fill="#ABDDDA"/>
<path d="M200.462 134.117C200.443 134.175 199.807 157.449 217.214 160.276C234.62 163.103 223.048 163.859 223.048 163.859C223.048 163.859 190.295 162.465 189.756 161.593C189.217 160.702 200.462 134.117 200.462 134.117Z" fill="#91CECF"/>
<path d="M215.172 170.268C215.172 170.268 214.845 170.5 214.21 170.907C214.19 170.907 214.19 170.926 214.171 170.926C211.514 172.63 203.639 177.277 192.143 180.395C190.93 180.724 189.698 181.034 188.408 181.324C188.504 178.633 188.62 175.922 188.716 173.25C187.195 173.133 185.751 172.94 184.403 172.649C184.441 172.301 184.499 171.933 184.538 171.584C186.001 170.984 187.445 170.403 188.851 169.842C189.987 169.396 191.084 168.97 192.143 168.564C196.861 166.763 200.346 165.543 200.346 165.543L214.306 169.997L215.172 170.268Z" fill="#91CECF"/>
<path d="M218.87 169.88C218.87 169.88 217.079 170.326 214.229 170.907C214.21 170.907 214.21 170.907 214.191 170.907C208.934 171.972 200.077 173.463 192.163 173.385C190.989 173.366 189.853 173.327 188.736 173.23C187.215 173.114 185.77 172.92 184.423 172.63C181.534 172.01 179.108 170.984 177.529 169.358C165.764 157.314 183.941 114.075 187.773 109.874C192.24 104.955 200.385 103.232 204.871 102.651C205.064 102.632 205.237 102.612 205.411 102.574C206.99 102.38 208.01 102.341 208.068 102.341C208.068 102.341 207.721 103.484 207.124 105.42C206.893 106.175 206.624 107.027 206.335 107.995C203.581 117.096 198.248 134.968 195.899 145.057C195.032 148.755 194.57 151.388 194.782 152.182C195.706 155.629 205.199 157.391 211.226 158.185C213.729 158.514 215.635 158.669 216.078 158.708C216.116 158.708 216.136 158.708 216.174 158.708L216.521 160.141L217.349 163.587L218.177 166.976L218.87 169.88Z" fill="#ABDDDA"/>
<path d="M251.662 190.599L211.265 188.895L219.467 138.28L259.865 139.984L251.662 190.599Z" fill="#233862"/>
<path d="M216.155 158.708C216.155 158.708 224.011 158.166 224.415 160.006C225.339 164.304 217.657 167.828 215.173 167.596C212.689 167.344 214.345 158.418 216.155 158.708Z" fill="#FFB27D"/>
<path d="M257.649 150.266C257.649 150.266 250.121 147.903 249.312 149.607C247.425 153.577 254.087 158.786 256.571 159.134C259.036 159.463 259.479 150.401 257.649 150.266Z" fill="#FFB27D"/>
<path d="M208.895 99.8242C208.895 99.8242 205.583 101.412 203.927 103.794C203.927 103.794 216.289 125.384 216.231 125.171C216.174 124.977 212.053 102.574 208.895 99.8242Z" fill="#91CECF"/>
<path d="M224.281 100.115C225.378 100.521 227.458 102.671 227.92 103.871L229.383 122.712C229.383 122.712 226.245 108.886 224.646 102.632C224.261 101.044 224.338 100.56 224.281 100.115Z" fill="#91CECF"/>
<path d="M232.849 138.841C232.849 138.841 233.176 137.428 235.005 137.602C236.835 137.757 247.175 138.28 247.175 138.28C247.175 138.28 249.158 138.241 248.985 139.538L232.849 138.841Z" fill="#C65447"/>
<path d="M221.007 91.1302C221.007 91.1302 222.355 92.35 224.511 91.9821C225.801 91.7498 226.514 90.0845 226.514 90.0845C226.514 90.0845 224.049 89.6198 221.007 91.1302Z" fill="white"/>
<path d="M542.722 325.696H6.83335C6.46751 325.696 6.15942 325.386 6.15942 325.018V324.612C6.15942 324.244 6.46751 323.934 6.83335 323.934H542.722C543.088 323.934 543.396 324.244 543.396 324.612V325.018C543.396 325.386 543.107 325.696 542.722 325.696Z" fill="#2E3552"/>
</svg>
