<svg id="Group_6334" data-name="Group 6334" xmlns="http://www.w3.org/2000/svg" xmlns:xlink="http://www.w3.org/1999/xlink" width="213.309" height="161" viewBox="0 0 213.309 161">
  <defs>
    <clipPath id="clip-path">
      <rect id="Rectangle_1663" data-name="Rectangle 1663" width="213.309" height="161" fill="none"/>
    </clipPath>
    <clipPath id="clip-path-2">
      <rect id="Rectangle_1662" data-name="Rectangle 1662" width="213.31" height="161" fill="none"/>
    </clipPath>
    <clipPath id="clip-path-3">
      <rect id="Rectangle_1657" data-name="Rectangle 1657" width="35.87" height="35.87" fill="none"/>
    </clipPath>
    <clipPath id="clip-path-4">
      <rect id="Rectangle_1658" data-name="Rectangle 1658" width="31.242" height="2.712" fill="none"/>
    </clipPath>
    <clipPath id="clip-path-5">
      <rect id="Rectangle_1659" data-name="Rectangle 1659" width="31.243" height="2.712" fill="none"/>
    </clipPath>
    <clipPath id="clip-path-6">
      <rect id="Rectangle_1660" data-name="Rectangle 1660" width="53.382" height="11.919" fill="none"/>
    </clipPath>
    <clipPath id="clip-path-7">
      <rect id="Rectangle_1661" data-name="Rectangle 1661" width="49.588" height="7.206" fill="none"/>
    </clipPath>
  </defs>
  <g id="Group_5446" data-name="Group 5446" clip-path="url(#clip-path)">
    <g id="Group_5445" data-name="Group 5445" transform="translate(0 0)">
      <g id="Group_5444" data-name="Group 5444" clip-path="url(#clip-path-2)">
        <path id="Path_967" data-name="Path 967" d="M399.328,107.871h-116.2a5.172,5.172,0,0,1-5.172-5.172V5.174A5.172,5.172,0,0,1,283.132,0h116.2A5.172,5.172,0,0,1,404.5,5.174V102.7a5.172,5.172,0,0,1-5.172,5.172" transform="translate(-247.929 -0.002)" fill="#ebf3fa"/>
        <path id="Path_968" data-name="Path 968" d="M404.5,11.972H277.96V3.863A3.861,3.861,0,0,1,281.821,0H400.639A3.861,3.861,0,0,1,404.5,3.863Z" transform="translate(-247.929 -0.002)" fill="#699dee"/>
        <path id="Path_969" data-name="Path 969" d="M325.324,42.915a1.431,1.431,0,1,1,1.431,1.431,1.431,1.431,0,0,1-1.431-1.431" transform="translate(-290.176 -37.002)" fill="#dde7fe"/>
        <path id="Path_970" data-name="Path 970" d="M380.918,42.915a1.431,1.431,0,1,1,1.431,1.431,1.431,1.431,0,0,1-1.431-1.431" transform="translate(-339.764 -37.002)" fill="#dde7fe"/>
        <path id="Path_971" data-name="Path 971" d="M436.511,42.915a1.431,1.431,0,1,1,1.431,1.431,1.431,1.431,0,0,1-1.431-1.431" transform="translate(-389.351 -37.002)" fill="#dde7fe"/>
        <g id="Group_5431" data-name="Group 5431" transform="translate(40.059 21.467)" opacity="0.5">
          <g id="Group_5430" data-name="Group 5430">
            <g id="Group_5429" data-name="Group 5429" clip-path="url(#clip-path-3)">
              <rect id="Rectangle_1656" data-name="Rectangle 1656" width="35.87" height="35.87" transform="translate(0 0)" fill="#cde0fb"/>
            </g>
          </g>
        </g>
        <g id="Group_5434" data-name="Group 5434" transform="translate(84.326 21.429)" opacity="0.5">
          <g id="Group_5433" data-name="Group 5433">
            <g id="Group_5432" data-name="Group 5432" clip-path="url(#clip-path-4)">
              <path id="Path_972" data-name="Path 972" d="M810.4,201.064H781.872a1.356,1.356,0,0,1,0-2.711H810.4a1.356,1.356,0,0,1,0,2.711" transform="translate(-780.516 -198.353)" fill="#7c9af2"/>
            </g>
          </g>
        </g>
        <g id="Group_5437" data-name="Group 5437" transform="translate(118.444 19.611)" opacity="0.5">
          <g id="Group_5436" data-name="Group 5436">
            <g id="Group_5435" data-name="Group 5435" clip-path="url(#clip-path-5)">
              <path id="Path_973" data-name="Path 973" d="M1126.2,184.235H1097.67a1.356,1.356,0,0,1,0-2.711H1126.2a1.356,1.356,0,0,1,0,2.711" transform="translate(-1096.314 -181.524)" fill="#7c9af2"/>
            </g>
          </g>
        </g>
        <g id="Group_5440" data-name="Group 5440" transform="translate(84.326 32.819)" opacity="0.3">
          <g id="Group_5439" data-name="Group 5439">
            <g id="Group_5438" data-name="Group 5438" clip-path="url(#clip-path-6)">
              <path id="Path_974" data-name="Path 974" d="M816.05,305.531H781.394a.879.879,0,1,1,0-1.757H816.05a.879.879,0,1,1,0,1.757" transform="translate(-780.515 -303.774)" fill="#bdd1f9"/>
              <path id="Path_975" data-name="Path 975" d="M1148.586,305.531h-9.149a.879.879,0,0,1,0-1.757h9.149a.879.879,0,0,1,0,1.757" transform="translate(-1099.876 -303.774)" fill="#bdd1f9"/>
              <path id="Path_976" data-name="Path 976" d="M794.47,355.969H781.394a.879.879,0,1,1,0-1.757H794.47a.879.879,0,1,1,0,1.757" transform="translate(-780.515 -348.762)" fill="#bdd1f9"/>
              <path id="Path_977" data-name="Path 977" d="M950.535,355.969H932.618a.879.879,0,0,1,0-1.757h17.918a.879.879,0,0,1,0,1.757" transform="translate(-915.401 -348.762)" fill="#bdd1f9"/>
              <path id="Path_978" data-name="Path 978" d="M1148.586,355.969h-9.149a.879.879,0,0,1,0-1.757h9.149a.879.879,0,0,1,0,1.757" transform="translate(-1099.876 -348.762)" fill="#bdd1f9"/>
              <path id="Path_979" data-name="Path 979" d="M799.138,399.581H781.395a.879.879,0,0,1,0-1.757h17.743a.879.879,0,0,1,0,1.757" transform="translate(-780.516 -387.663)" fill="#bdd1f9"/>
              <path id="Path_980" data-name="Path 980" d="M1019.651,399.581H990.633a.879.879,0,1,1,0-1.757h29.019a.879.879,0,1,1,0,1.757" transform="translate(-967.148 -387.663)" fill="#bdd1f9"/>
            </g>
          </g>
        </g>
        <g id="Group_5443" data-name="Group 5443" transform="translate(84.326 50.131)" opacity="0.3">
          <g id="Group_5442" data-name="Group 5442">
            <g id="Group_5441" data-name="Group 5441" clip-path="url(#clip-path-7)">
              <path id="Path_981" data-name="Path 981" d="M816.05,465.762H781.394a.879.879,0,1,1,0-1.757H816.05a.879.879,0,1,1,0,1.757" transform="translate(-780.515 -464.006)" fill="#bdd1f9"/>
              <path id="Path_982" data-name="Path 982" d="M1148.586,465.762h-9.149a.879.879,0,0,1,0-1.757h9.149a.879.879,0,0,1,0,1.757" transform="translate(-1099.876 -464.006)" fill="#bdd1f9"/>
              <path id="Path_983" data-name="Path 983" d="M794.47,516.2H781.394a.879.879,0,1,1,0-1.757H794.47a.879.879,0,1,1,0,1.757" transform="translate(-780.515 -508.994)" fill="#bdd1f9"/>
              <path id="Path_984" data-name="Path 984" d="M950.535,516.2H932.618a.879.879,0,0,1,0-1.757h17.918a.879.879,0,0,1,0,1.757" transform="translate(-915.401 -508.994)" fill="#bdd1f9"/>
            </g>
          </g>
        </g>
        <path id="Path_985" data-name="Path 985" d="M437.012,248.191h3.7L450.725,271.1H446.5l-2.307-5.492H433.438L431.1,271.1H427Zm5.719,13.875-3.932-9.1-3.9,9.1Z" transform="translate(-380.871 -221.377)" fill="#bdd1f9"/>
        <path id="Path_986" data-name="Path 986" d="M382.639,604.064H371.614a.835.835,0,1,1,0-1.671h11.025a.835.835,0,1,1,0,1.671" transform="translate(-330.72 -537.311)" fill="#bdd1f9"/>
        <path id="Path_987" data-name="Path 987" d="M378.925,631.318h-7.311a.835.835,0,1,1,0-1.671h7.311a.835.835,0,0,1,0,1.671" transform="translate(-330.72 -561.621)" fill="#bdd1f9"/>
        <path id="Path_988" data-name="Path 988" d="M382.639,789.187H371.614a.835.835,0,0,1,0-1.671h11.025a.835.835,0,1,1,0,1.671" transform="translate(-330.72 -702.434)" fill="#bdd1f9"/>
        <path id="Path_989" data-name="Path 989" d="M378.925,816.441h-7.311a.835.835,0,0,1,0-1.671h7.311a.835.835,0,0,1,0,1.671" transform="translate(-330.72 -726.743)" fill="#bdd1f9"/>
        <path id="Path_990" data-name="Path 990" d="M875.277,1084.019h-62.5v-23.746h62.707a9.177,9.177,0,0,1,9.177,9.177v5.183a9.385,9.385,0,0,1-9.385,9.385" transform="translate(-724.966 -945.722)" fill="#fcecdb"/>
        <path id="Path_991" data-name="Path 991" d="M910.743,1070.041v3.572a10.9,10.9,0,0,1-1.318,5.233,9.618,9.618,0,0,1-8.4,5.17H783.32a1.461,1.461,0,0,1-1.41-1.508v-.535a1.461,1.461,0,0,1,1.41-1.508h71.75a9.816,9.816,0,0,0,1.007-1.619,10.2,10.2,0,0,0,1.052-4.54v-4.541a10.093,10.093,0,0,0-.291-2.416,9.744,9.744,0,0,0-1.664-3.526H783.32a1.462,1.462,0,0,1-1.41-1.509v-.534a1.462,1.462,0,0,1,1.41-1.509h118.3a9.245,9.245,0,0,1,8.776,7.078,10.383,10.383,0,0,1,.352,2.692" transform="translate(-697.433 -945.72)" fill="#699dee"/>
        <path id="Path_992" data-name="Path 992" d="M910.391,1067.349H856.838a9.745,9.745,0,0,0-1.664-3.526H783.32a1.462,1.462,0,0,1-1.41-1.509v-.534a1.462,1.462,0,0,1,1.41-1.509h118.3a9.245,9.245,0,0,1,8.776,7.078" transform="translate(-697.433 -945.72)" fill="#548ee2"/>
        <path id="Path_993" data-name="Path 993" d="M812.778,1170.168l8.715.4-8.715.24Z" transform="translate(-724.966 -1043.745)" fill="#f4d2b8"/>
        <path id="Path_994" data-name="Path 994" d="M812.778,1204.654l20.734.4-20.734.241Z" transform="translate(-724.966 -1074.504)" fill="#f4d2b8"/>
        <path id="Path_995" data-name="Path 995" d="M655.073,1298.071h61.353V1279.6H654.533a8.323,8.323,0,0,0-8.323,8.323v1.284a8.863,8.863,0,0,0,8.863,8.863" transform="translate(-576.394 -1141.354)" fill="#f99746"/>
        <path id="Path_996" data-name="Path 996" d="M1197.314,1298.071h69.924V1279.6h-70.116a8.462,8.462,0,0,0-8.462,8.462v1.354a8.654,8.654,0,0,0,8.654,8.654" transform="translate(-1060.238 -1141.354)" fill="#fcecdb"/>
        <path id="Path_997" data-name="Path 997" d="M1135.288,1427.753h85.558a1.285,1.285,0,0,0,1.285-1.285v-.192a1.285,1.285,0,0,0-1.285-1.285h-85.558a1.285,1.285,0,0,0-1.285,1.285v.192a1.285,1.285,0,0,0,1.285,1.285" transform="translate(-1011.486 -1271.036)" fill="#f99746"/>
        <path id="Path_998" data-name="Path 998" d="M1135.288,1282.364h85.558a1.285,1.285,0,0,0,1.285-1.285v-.192a1.285,1.285,0,0,0-1.285-1.285h-85.558a1.285,1.285,0,0,0-1.285,1.285v.192a1.285,1.285,0,0,0,1.285,1.285" transform="translate(-1011.486 -1141.355)" fill="#f99746"/>
        <path id="Path_999" data-name="Path 999" d="M1837.323,1365.081l-9.527.31,9.527.187Z" transform="translate(-1630.323 -1217.599)" fill="#f4d2b8"/>
        <path id="Path_1000" data-name="Path 1000" d="M1728.858,1325.737l-22.665.311,22.665.187Z" transform="translate(-1521.857 -1182.505)" fill="#f4d2b8"/>
        <path id="Path_1001" data-name="Path 1001" d="M1708.353,1328.039a4.289,4.289,0,0,1,1.293,2.1,3.439,3.439,0,0,1,.1.73c.054,1.733,0,5.656,0,5.656l2.868-1.961,2.86,1.961v-5.316a4.682,4.682,0,0,0-.7-2.624,1.068,1.068,0,0,0-.792-.544Z" transform="translate(-1523.784 -1184.559)" fill="#699dee"/>
        <path id="Path_1002" data-name="Path 1002" d="M1708.353,1328.039a4.289,4.289,0,0,1,1.293,2.1l5.746.078s-.226-1.868-1.411-2.176Z" transform="translate(-1523.784 -1184.559)" fill="#568cdb"/>
        <path id="Path_1003" data-name="Path 1003" d="M727.2,836.7H666.812V809.56h60.605a9.7,9.7,0,0,1,9.7,9.7v7.512A9.923,9.923,0,0,1,727.2,836.7" transform="translate(-594.77 -722.096)" fill="#fcecdb"/>
        <path id="Path_1004" data-name="Path 1004" d="M710.229,820.095v5.84a7.047,7.047,0,0,1-2.87,5.816,5.015,5.015,0,0,1-2.83.893H638.036a1.567,1.567,0,0,0-1.411,1.685v.689a1.567,1.567,0,0,0,1.411,1.685H752.9a9.37,9.37,0,0,0,7.968-4.952,13.16,13.16,0,0,0,1.761-6.667v-4.608a12.63,12.63,0,0,0-.907-4.745c-1.477-3.649-4.605-6.165-8.227-6.165H638.036a1.565,1.565,0,0,0-1.411,1.684v.689a1.567,1.567,0,0,0,1.411,1.685h66.7a5.146,5.146,0,0,1,4.044,2.107,7.179,7.179,0,0,1,1.452,4.364" transform="translate(-567.845 -722.101)" fill="#afcdfb"/>
        <path id="Path_1005" data-name="Path 1005" d="M636.625,1017.482v.689a1.567,1.567,0,0,0,1.411,1.685H752.9a9.369,9.369,0,0,0,7.968-4.952H707.359a5.015,5.015,0,0,1-2.83.892H638.036a1.567,1.567,0,0,0-1.411,1.685" transform="translate(-567.845 -905.255)" fill="#a4c4f4"/>
        <path id="Path_1006" data-name="Path 1006" d="M666.812,935.148l8.524.456-8.524.275Z" transform="translate(-594.77 -834.116)" fill="#f4d2b8"/>
        <path id="Path_1007" data-name="Path 1007" d="M666.812,877.343l20.279.456-20.279.275Z" transform="translate(-594.77 -782.556)" fill="#f4d2b8"/>
        <path id="Path_1008" data-name="Path 1008" d="M771.569,880.726A4.758,4.758,0,0,0,769.787,883a2.98,2.98,0,0,0-.139.791c-.074,1.879,0,6.132,0,6.132L765.7,887.8l-3.941,2.126V884.16a4.3,4.3,0,0,1,.966-2.845,1.531,1.531,0,0,1,1.092-.589Z" transform="translate(-679.456 -785.573)" fill="#f99746"/>
        <path id="Path_1009" data-name="Path 1009" d="M772.5,880.726A4.758,4.758,0,0,0,770.719,883l-7.918.084s.311-2.025,1.945-2.359Z" transform="translate(-680.389 -785.573)" fill="#ed7d2b"/>
        <path id="Path_1010" data-name="Path 1010" d="M1296.953,1011.963a13.039,13.039,0,0,0,4.5,4.876l10.508.074s-16.521-7.628-15.008-4.951" transform="translate(-1156.744 -902.124)" fill="#233862"/>
        <path id="Path_1011" data-name="Path 1011" d="M1298.831,1195.24a.971.971,0,0,1,.166,1.04.008.008,0,0,1,0,.005,6.459,6.459,0,0,1-2.056,2.224c-.124.1-.234.188-.33.271l-.074.065-.057.051c-.9.82-.567,1.012-2.19,2.679-1.851,1.9-3.116,1.924-3.475,1.748-.3-.151.323-1.16,1.016-2.295.034-.055.066-.11.1-.165.092-.151.184-.3.276-.456.813-1.366.611-2.011.435-4.053-.143-1.66-2.515-9.285-2.515-9.285l3.525-.582s1.018,6.065,2.179,7.007c.621.5,1.321.513,1.918.886q.063.039.124.08a4.616,4.616,0,0,1,.958.781" transform="translate(-1150.742 -1058.3)" fill="#ffb27d"/>
        <path id="Path_1012" data-name="Path 1012" d="M1303.855,1260.4a.971.971,0,0,1,.166,1.04.008.008,0,0,1,0,.005,7.475,7.475,0,0,1-2.059,2.217c-.122.1-.23.192-.326.278-.025.022-.05.043-.074.065l-.057.051c-.9.821-.566,1.012-2.19,2.679-1.851,1.9-3.116,1.924-3.475,1.747-.3-.151.322-1.16,1.016-2.295a7.832,7.832,0,0,0,3.292-2.39c1.116-1.4,1.867-3.213,2.628-4.258.042.026.084.053.124.08a4.611,4.611,0,0,1,.958.781" transform="translate(-1155.766 -1123.459)" fill="#233862"/>
        <path id="Path_1013" data-name="Path 1013" d="M1020.886,1182.614c-.225,1.085-1.773.893-3.5.458s-1.32.071-3.781-.219-3.2-1.214-3.274-1.581c-.065-.326,1.153-.432,2.46-.573.164-.017.329-.036.495-.056,1.475-.175,2.561-1.118,3.906-1.89,1.273-.731,3.187-3.732,3.187-3.732l3.376.291s-1.792,2.68-2.486,3.846a4.081,4.081,0,0,0-.348,2.3,4.334,4.334,0,0,1-.034,1.156" transform="translate(-901.173 -1048.073)" fill="#ffb27d"/>
        <path id="Path_1014" data-name="Path 1014" d="M1017.386,1229.946c-1.728-.435-1.32.071-3.781-.219s-3.2-1.214-3.274-1.581c-.065-.325,1.153-.431,2.46-.573l.012.025a6.945,6.945,0,0,0,3.52,1.121c1.671.053,3.444-.414,4.6-.387a4.335,4.335,0,0,1-.034,1.156c-.225,1.085-1.773.893-3.5.458" transform="translate(-901.173 -1094.947)" fill="#233862"/>
        <path id="Path_1015" data-name="Path 1015" d="M1229.3,1001.763l3.1,8.52,4.045,11.125a6.68,6.68,0,0,0,2.192-.185,9.493,9.493,0,0,0,2.126-1.016s-1.061-11.922-3.148-18.776a12.184,12.184,0,0,0-1.809-3.988c-3.283-3.936-6.5,4.319-6.5,4.319" transform="translate(-1096.485 -888.732)" fill="#233862"/>
        <path id="Path_1016" data-name="Path 1016" d="M1104.01,909.112c2.074-.653,7.969.246,13.888,1.448l1.256-2.038,12.811-.91s4.159,9.4,1.8,15.353a2.259,2.259,0,0,1-2.342,1.249v0s-7.641.133-10.116.115c-6.367-.045-13.445-4.472-14.363-4.662-1.5-.312-2.126,2.694-3.654,5.844s-14.247,13.9-14.247,13.9a11.124,11.124,0,0,1-2.744-.3,2.7,2.7,0,0,1-1.174-.752s14.206-27.773,18.882-29.245" transform="translate(-967.892 -809.555)" fill="#2b478b"/>
        <path id="Path_1017" data-name="Path 1017" d="M1374.784,582.06c4.542,2.542,13.754,7.812,13.8,7.779,0,0,3.39,1.305,5.328.038,3.229-2.112,4.994-7.846-.85-12.831-2.914-2.487-4.993-3.1-5.282-7.041-.157-2.137-3.027-9.208-7.884-8.59a7.4,7.4,0,0,1-1.223.072,4.541,4.541,0,0,0-2.466.619c-2.757,1.615-8.254,18.937-1.426,19.957" transform="translate(-1223.322 -500.725)" fill="#233862"/>
        <path id="Path_1018" data-name="Path 1018" d="M1432.942,674.367a6.026,6.026,0,0,0,3.756.142c1.428-.619,2.523-2.954,2.5-2.955-.647-.034-1.354-.606-1.876-4.325l-.276.1-4.649,1.636s.325,1.49.533,2.908c.175,1.191.265,2.331.011,2.5" transform="translate(-1277.644 -595.143)" fill="#ffb27d"/>
        <path id="Path_1019" data-name="Path 1019" d="M1432.4,669.763s.2,1.044.473,2.537a5.416,5.416,0,0,0,4.176-4.173Z" transform="translate(-1277.644 -595.943)" fill="#ed975d"/>
        <path id="Path_1020" data-name="Path 1020" d="M1399.462,604.885s6.35-.807,5.787-4.754-.123-6.709-4.2-6.361-4.649,1.966-4.782,3.33,1.53,7.893,3.2,7.785" transform="translate(-1245.408 -529.594)" fill="#ffb27d"/>
        <path id="Path_1021" data-name="Path 1021" d="M1398.608,592.023s4.036,3.529,6.8,3.83,3.813-.578,3.813-.578a10.785,10.785,0,0,1-2.583-3.552,1.943,1.943,0,0,0-1.594-1.156c-1.971-.184-5.71-.288-6.433,1.456" transform="translate(-1247.504 -526.676)" fill="#233862"/>
        <path id="Path_1022" data-name="Path 1022" d="M1394.938,595.757a10,10,0,0,0-1.8,2.275,7.682,7.682,0,0,0-.237,4.081s-2.088-4.131-.875-6.123c1.286-2.112,2.915-.234,2.915-.234" transform="translate(-1241.292 -530.706)" fill="#233862"/>
        <path id="Path_1023" data-name="Path 1023" d="M1387.365,718.123c.1,12.844-.019,10.159,1.377,11.388a5.4,5.4,0,0,0,2.539.569c3.936.289,10.863-.311,11.132-1.037.926-2.512.29-3.3,1.075-7.148.082-.409.183-.853.3-1.335.651-2.644,1.272-3.54-.94-7.81-2.006-3.868-4.1-7.01-4.286-6.9-5.386,3.146-5.8.467-5.8.467s-5.448,5.54-5.4,11.8" transform="translate(-1237.475 -629.589)" fill="#f9ddbf"/>
        <path id="Path_1024" data-name="Path 1024" d="M1257.974,1051.984l4.045,11.125a6.68,6.68,0,0,0,2.192-.185,9.5,9.5,0,0,0,2.126-1.016s-1.061-11.922-3.148-18.776Z" transform="translate(-1122.063 -930.433)" fill="#2b478b"/>
        <path id="Path_1025" data-name="Path 1025" d="M1348.437,710.188s-5.525.9-6.19,3.268-4.577,16.314-4.577,16.314,2.8.524,4.107-.763,4.595-11.993,4.595-11.993Z" transform="translate(-1193.149 -633.46)" fill="#f9ddbf"/>
        <path id="Path_1026" data-name="Path 1026" d="M1423.613,818.287c3.936.289,10.863-.311,11.131-1.037.926-2.512.29-3.3,1.075-7.148l-1.862-5.362s.272,5.958-1.5,7.512-7.213,2.973-8.076,4.276a4.79,4.79,0,0,0-.774,1.758" transform="translate(-1269.807 -717.797)" fill="#f2ccaa"/>
        <path id="Path_1027" data-name="Path 1027" d="M1408.657,902.041s-3.879-.893-4.508-.552a9.129,9.129,0,0,0-2.365,2.021c-.195.436,1.4-.322,1.915-.457a4.605,4.605,0,0,1,1.648.373,5.483,5.483,0,0,0,2.955.318Z" transform="translate(-1250.322 -804.024)" fill="#ffb27d"/>
        <path id="Path_1028" data-name="Path 1028" d="M1463.053,705.848s5.214.358,7,2.89c2.517,3.563,7.453,18.709,4.549,20.7-3.271,2.247-14.817.489-14.817.489a4.693,4.693,0,0,1,.169-2.666c.541-.866,9.248-2.209,9.652-2.608s-4.962-7.862-4.954-9.066-1.6-9.742-1.6-9.742" transform="translate(-1301.962 -629.589)" fill="#f9ddbf"/>
        <path id="Path_1029" data-name="Path 1029" d="M1409.375,912.124a7.519,7.519,0,0,1-1.089,1.168.8.8,0,0,1-.44.091l.555-.983Z" transform="translate(-1255.743 -813.579)" fill="#ffb27d"/>
        <path id="Path_1030" data-name="Path 1030" d="M1404.2,902.128l-2.375,1.133a.421.421,0,0,0,.391.154,5.629,5.629,0,0,0,1.028-.275Z" transform="translate(-1250.377 -804.663)" fill="#ffb27d"/>
        <path id="Path_1031" data-name="Path 1031" d="M1216.363,821.58l-18.721-.132-5.533-14.044,18.693.132Z" transform="translate(-1063.314 -720.173)" fill="#f99746"/>
        <path id="Path_1032" data-name="Path 1032" d="M1241.326,932.332l24.722.174,0,.546-24.5-.173Z" transform="translate(-1107.214 -831.604)" fill="#ed7d2b"/>
        <path id="Path_1033" data-name="Path 1033" d="M1287.237,865.571a.649.649,0,0,1,.642-.887,1.276,1.276,0,0,1,1.141.9.648.648,0,0,1-.642.887,1.278,1.278,0,0,1-1.141-.9" transform="translate(-1148.134 -771.264)" fill="#fff"/>
        <path id="Path_1034" data-name="Path 1034" d="M42.529,831.165s1.019,4.421,3.989,4.421c2.546,0,6.038-5.755,6.038-5.755Z" transform="translate(-37.934 -740.177)" fill="#f99746"/>
        <path id="Path_1035" data-name="Path 1035" d="M167.919,983.334l-1.908,1.312s-9.177-9.782-11.393-19.158a14.581,14.581,0,0,1-.386-4.892s-.134-.425-.368-1.176l-.031-.1c-.1-.329-.226-.717-.362-1.156-.445-1.417-1.056-3.356-1.752-5.563-1.6-5.08-5.272-16.536-6.84-21.3l11.266-4.076a71.134,71.134,0,0,1,3.119,10.85c.283,1.035.567,2.18.832,3.427.3,1.413.581,2.957.814,4.626a71.034,71.034,0,0,1,.675,9.5c.006,1.419-.029,2.891-.113,4.409a19.46,19.46,0,0,0,.414,4.285c1.42,7.717,6.033,19.015,6.033,19.015" transform="translate(-129.225 -827.048)" fill="#2b478b"/>
        <path id="Path_1036" data-name="Path 1036" d="M337.7,1451.187h-9.109a3.787,3.787,0,0,1,.257-2.442,1.755,1.755,0,0,0-.065-2.1,3.545,3.545,0,0,0,1.534.289,3.21,3.21,0,0,0,1.355-.477,32.765,32.765,0,0,0,2.6,2.726c.6.428,3.25.275,3.433,2" transform="translate(-293.004 -1290.187)" fill="#233862"/>
        <path id="Path_1037" data-name="Path 1037" d="M160.909,946.127l-7.077,13.193c-.1-.329-.226-.717-.362-1.156-.445-1.417-1.056-3.356-1.752-5.563-1.6-5.08-5.272-16.536-6.84-21.3l11.266-4.076a71.134,71.134,0,0,1,3.119,10.85c.283,1.035.567,2.18.832,3.427.3,1.413.581,2.957.814,4.626" transform="translate(-129.225 -827.048)" fill="#233862"/>
        <path id="Path_1038" data-name="Path 1038" d="M140.775,1461.784a4.068,4.068,0,0,0-.037,2.851h4.955s.1-1.177-1.7-2.54a3.661,3.661,0,0,0-3.223-.311" transform="translate(-125.306 -1303.635)" fill="#233862"/>
        <path id="Path_1039" data-name="Path 1039" d="M140.037,505.7c0-.247.13-2.906,4.17-3.142,0,0-1.983.285-2.305,1.168,0,0,1.328-1.113,2.439-.792s1.805,2.237,1.827,2.872-.541,2.7-1.237,2.889a2.137,2.137,0,0,1-.848.021,9.516,9.516,0,0,1,.566.956c1.693,3.273.233,7.129-1.142,6.8-.882-.208-1.418,1.32-1.418,1.32l-8.479-7.291s2.97-6.544,6.426-4.806" transform="translate(-119.176 -448.263)" fill="#2c3a64"/>
        <path id="Path_1040" data-name="Path 1040" d="M143.754,644.018a10.3,10.3,0,0,0,3.6,1.531c5.547,1.282,7.673-3.407,8.471-6.625a4.765,4.765,0,0,0-1.879-.577c-.4-.047-.823-.079-1.172-.1-.623-.477-1.551-2.43-1.756-5.461l-.261.07-4.371,1.2s.2,1.39.3,2.7a5.2,5.2,0,0,1-.107,2.251c-.341.074-.546.122-.546.122a.01.01,0,0,1,0,0,28.173,28.173,0,0,0-2.273,4.881" transform="translate(-128.223 -564.425)" fill="#ffb27d"/>
        <path id="Path_1041" data-name="Path 1041" d="M168.093,634.643s.2,1.388.3,2.7c2.477-.248,3.626-2.606,4.074-3.9Z" transform="translate(-149.932 -565.01)" fill="#ed985f"/>
        <path id="Path_1042" data-name="Path 1042" d="M136.144,577.41s5.7-1.465,4.735-5-.883-6.108-4.564-5.322-4.017,2.328-3.981,3.588,2.3,7.027,3.811,6.737" transform="translate(-118.035 -505.692)" fill="#ffb27d"/>
        <path id="Path_1043" data-name="Path 1043" d="M127.04,563.464c.585-1.3,1.312-1.253,1.772-1.036a4.115,4.115,0,0,1,5.326-.585,7.005,7.005,0,0,0,3.305,3.384s-.859.923-3.413.965a4.2,4.2,0,0,1-2.3-.8,13.735,13.735,0,0,0,3.044,2.158c-3.211-.535-5.443-4.183-5.672-4.571a4.611,4.611,0,0,0-.785,1.99c-.036.978.346,2.867-.211,2.952,0,0-1.945-2.5-1.067-4.454" transform="translate(-113.112 -500.495)" fill="#2c3a64"/>
        <path id="Path_1044" data-name="Path 1044" d="M94.076,682.419s9.577-2.325,13.741,1.109l-2.081,29.023-18.729-4.525s.527-1.837,4.118-6.72,2.029-12.047,2.951-18.888" transform="translate(-77.606 -608.005)" fill="#ffb27d"/>
        <path id="Path_1045" data-name="Path 1045" d="M91.179,918.139s-.011.1-.03.286c-.009.081-.02.178-.031.292-.081.752-.233,2.2-.43,4.072-.514,4.922-1.32,12.828-1.87,19.068a79.874,79.874,0,0,0-.556,9.36c.444,1.866,0,24.17,0,24.17-1.592.763-4.005,0-4.005,0s-4.24-20.1-3.647-22.893a9.621,9.621,0,0,0-.4-5.178c-3.292-15.332-2.932-23.83-2.278-27.9a17.146,17.146,0,0,1,.563-2.484,5.174,5.174,0,0,1,.226-.611,15.5,15.5,0,0,1,12.456,1.816" transform="translate(-69.127 -816.823)" fill="#2b478b"/>
        <path id="Path_1046" data-name="Path 1046" d="M94.106,693.634c-.462,3.492-2.312,7.764-2.972,10.064,0,0,1.1,7.985.05,10.177a.971.971,0,0,1-.449.5c-3.905,1.7-19.115.049-19.757-4.857-.233-1.783,5.793-8.053,6.144-8.814.146-.315.3-1.335-.405-3.449-1,3.088-6.529,2.2-6.529,2.2.649-1.11,2.265-8.79,4.07-12.257,1.357-2.606,4.98-2.984,4.98-2.984a5.419,5.419,0,0,0,5.155,2.052c3.647-.339,4.313-2.571,4.313-2.571s3.234.43,4.231,1.234a16.643,16.643,0,0,1,1.17,8.7" transform="translate(-62.604 -609.833)" fill="#f99746"/>
        <path id="Path_1047" data-name="Path 1047" d="M226.132,816.713s1.1,7.984.05,10.177c-2.845-1.428-5.088-5.292-4.57-9.6.383-3.181.951-3.907,2.653-5.728,1.251-1.338,4.142-1.413,3.916-.777-.675,1.9-1.7,4.708-2.049,5.923" transform="translate(-197.603 -722.848)" fill="#ed7d2b"/>
        <path id="Path_1048" data-name="Path 1048" d="M65.065,781.413l6.521,10.462H60.49l-6.213-10.236Z" transform="translate(-48.413 -696.99)" fill="#1c468a"/>
        <path id="Path_1049" data-name="Path 1049" d="M160.311,788.63l.113-.365-6.171-9.9-.124.329Z" transform="translate(-137.477 -694.271)" fill="#efdece"/>
        <path id="Path_1050" data-name="Path 1050" d="M65.189,778.364l-10.453.3-.459.258,10.788-.226Z" transform="translate(-48.413 -694.271)" fill="#fcecdb"/>
        <path id="Path_1051" data-name="Path 1051" d="M5.864,757.3,0,754.13l6.836,10.734,5.242,2.675Z" transform="translate(0 -672.654)" fill="#163560"/>
        <path id="Path_1052" data-name="Path 1052" d="M205.985,825.213c-.628.287-2.24,2.186-2.816,2.379-2.587.865-13.6-1.438-13.6-1.438l.341-1.929s10.808.287,12-.031c.224-.06,1.392-1.887,1.841-2.149Z" transform="translate(-169.089 -733.232)" fill="#ffb27d"/>
        <path id="Path_1053" data-name="Path 1053" d="M141.949,835.152s-1.3-1.061-2.184-.821a14.1,14.1,0,0,0-2.658,1.617c-.481.264-1.788,1.207-1.126,1.777s2.725.081,3.542-.357a4.225,4.225,0,0,1,2.084-.288Z" transform="translate(-121.126 -744.16)" fill="#ffb27d"/>
        <path id="Path_1054" data-name="Path 1054" d="M155.781,832.813s-1.584-.189-2.017-.18-.315.1-.076.439,1.064.464,1.1.581.991-.84.991-.84" transform="translate(-136.893 -742.676)" fill="#ffb27d"/>
        <path id="Path_1055" data-name="Path 1055" d="M230.145,683.7s4.7.557,5.991,2.571c1.635,2.547,5.494,12.69,5.37,15.246,0,0-2.822,4.8-12.5,4.034,0,0-1.007-3.556,1.029-4.729,0,0,4.97-.884,5.542-1.388l-4.052-7.363Z" transform="translate(-204.045 -609.833)" fill="#f99746"/>
        <path id="Path_1056" data-name="Path 1056" d="M44.447,816.326c-.146-.592-1.436-.222-1.871.118a1.762,1.762,0,0,0-.331.389c-.014-.1-.025-.194-.032-.268-.025-.278-.348-.776-.429-.4s-.213,1.939-.213,1.939c-.016,1.262.8,1.782,1.316,1.372s1.7-2.555,1.558-3.147" transform="translate(-37.081 -727.852)" fill="#ffb27d"/>
      </g>
    </g>
  </g>
</svg>
