<svg xmlns="http://www.w3.org/2000/svg" xmlns:xlink="http://www.w3.org/1999/xlink" width="205.077" height="210" viewBox="0 0 205.077 210">
  <defs>
    <clipPath id="clip-path">
      <rect id="Rectangle_2009" data-name="Rectangle 2009" width="205.077" height="210" transform="translate(0 0)" fill="none"/>
    </clipPath>
  </defs>
  <g id="Group_6563" data-name="Group 6563" clip-path="url(#clip-path)">
    <path id="Path_1294" data-name="Path 1294" d="M24.718,653.225a193.167,193.167,0,0,0-2.57-25.4c-1.843-9.918-3.5-15.623-3.522-15.684-.243-.872-3.75-4.4-11.549-4.292S.018,612.587.018,612.587A1.4,1.4,0,0,0,.074,613,207.674,207.674,0,0,1,7,668.574c0,.438-.057,1.195-.024,1.7,0,0,18.072.434,18.076,0,.63-2.725.323-10.277-.332-17.047" transform="translate(0 -516.011)" fill="#b7d3f3"/>
    <path id="Path_1295" data-name="Path 1295" d="M38.321,668.421c-.005.434-.252.782-.553.782h-.007c-.3-.006-.54-.354-.543-.782H21.73c-.006.434-.252.782-.553.782H21.17c-.306-.006-.549-.366-.545-.805a202.7,202.7,0,0,0-1.285-24.619A181.545,181.545,0,0,0,13.421,613a1.426,1.426,0,0,1-.056-.412s-.739-4.628,7.058-4.737,11.307,3.42,11.55,4.293c.014.046.954,3.277,2.2,9.085.414,1.924.86,4.131,1.319,6.6a193.358,193.358,0,0,1,2.57,25.4c.655,6.771.885,12.471.256,15.2" transform="translate(-11.33 -516.012)" fill="#d2e3fc"/>
    <path id="Path_1296" data-name="Path 1296" d="M53.933,988.033h60.719s-1.414-5.325-36.578-4.532c-24.885.561-24.14,4.532-24.14,4.532" transform="translate(-45.782 -834.842)" fill="#c5dcf8"/>
    <path id="Path_1297" data-name="Path 1297" d="M21.235,1074.2c7.04-33.164,5.23-53.514,5.221-53.771-.018-.51.994-.974,1.538-.991s2.981-.15,3.262.286c.368.573,1.786,25.646-8.706,54.475Z" transform="translate(-18.027 -865.39)" fill="#b7d3f3"/>
    <path id="Path_1298" data-name="Path 1298" d="M338.634,1074.2c-7.04-33.164-5.23-53.514-5.221-53.771.018-.51-.994-.974-1.538-.991s-2.981-.15-3.262.286c-.369.573-1.786,25.646,8.706,54.475Z" transform="translate(-278.734 -865.39)" fill="#b7d3f3"/>
    <path id="Path_1299" data-name="Path 1299" d="M413,1074.2c-7.04-33.164-5.23-53.514-5.221-53.771.018-.51-.994-.974-1.538-.991s-2.981-.15-3.262.286c-.368.573-1.786,25.646,8.706,54.475Z" transform="translate(-341.862 -865.39)" fill="#b7d3f3"/>
    <path id="Path_1300" data-name="Path 1300" d="M96.1,1074.2c7.04-33.164,5.23-53.514,5.221-53.771-.018-.51.994-.974,1.538-.991s2.981-.15,3.262.286c.368.573,1.786,25.646-8.706,54.475Z" transform="translate(-81.58 -865.39)" fill="#b7d3f3"/>
    <path id="Path_1301" data-name="Path 1301" d="M107.959,1007.914H47.152a1.2,1.2,0,0,1-1.2-1.2v-.676a1.2,1.2,0,0,1,1.2-1.2h60.807a1.2,1.2,0,0,1,1.2,1.2v.676a1.2,1.2,0,0,1-1.2,1.2" transform="translate(-39.009 -853.023)" fill="#b7d3f3"/>
    <path id="Path_1302" data-name="Path 1302" d="M89.539,285.162c-.176-.414-2.233-4.814-9.215-2.413,0,0,3.544-.893,4.7.373,0,0-3.012-.958-4.665.354s-1.5,5.026-1.093,6.113,2.783,4.178,4.09,4.019a3.9,3.9,0,0,0,1.445-.551,17.368,17.368,0,0,0-.293,2.007c-.589,6.7,4.358,11.129,6.453,9.628,1.343-.962,2.741,1.424,2.741,1.424l10.011-17.3s-9.548-8.985-14.174-3.657" transform="translate(-67.063 -239.425)" fill="#2c3a64"/>
    <path id="Path_1303" data-name="Path 1303" d="M183,452.863c-9.482,4.238-16.61-10.72-15.991-10.873.948-1.073,1.925-4.893,1.231-10.393l.492.034,8.246.61s.128,2.558.413,4.944a14.141,14.141,0,0,0,.781,3.716,7.816,7.816,0,0,0,1.89.455c.139.152,5.469,10.376,2.939,11.506" transform="translate(-141.746 -366.389)" fill="#ffb27d"/>
    <path id="Path_1304" data-name="Path 1304" d="M579.791,1332.8H563.175a9.126,9.126,0,0,1,.47-4.454c.831-1.844,1.362-2.349.459-4.48,1.056,1.087,4.14,1.873,6.542,1.55a18.226,18.226,0,0,0,2.883,3.737c1.086.781,5.928.5,6.262,3.647" transform="translate(-478.01 -1123.853)" fill="#233862"/>
    <path id="Path_1305" data-name="Path 1305" d="M386.135,1327.795H369.518a9.124,9.124,0,0,1,.47-4.454c.832-1.844,2.452-3.077,2.928-5.2,1.056,1.087,1.671,2.6,4.073,2.272a18.229,18.229,0,0,0,2.883,3.737c1.086.78,5.928.5,6.262,3.647" transform="translate(-313.612 -1118.988)" fill="#233862"/>
    <path id="Path_1306" data-name="Path 1306" d="M326.368,576.3l-.008,3.313s-1.113.094-2.885.239c-.532.039-.841.045-.841.045-1.421.1-3.132.178-5,.269l-.025.007c-3.208.094-6.815.141-9.921-.053-.279-.02-.554-.041-.823-.064a23.939,23.939,0,0,1-4.688-.8,3.106,3.106,0,0,1-.4-.148c-15.172-8.762-23.91-23.457-23.988-23.849-1.848-7,4.218-8.043,20.573,10.127,4.758,5.286,7.593,5.087,9.351,5.749.465.177.963.355,1.482.536,2.887.995,6.49,2,9.668,2.8,1.559.406,3.026.758,4.243,1.049,1.966.476,3.262.772,3.262.772" transform="translate(-235.548 -467.387)" fill="#ffb27d"/>
    <path id="Path_1307" data-name="Path 1307" d="M95.2,839.939s-3.728,11.621,4.591,17.132c11.147,7.385,42.055,1.09,45.583,4.863.893.956-1.808,1.438-3.332,15.095-2.192,19.64-3.967,30.626-3.967,30.626a5.068,5.068,0,0,0,2.722,3.4,5.856,5.856,0,0,0,3.482.29s22.7-49.843,20.44-56.757c-3.916-11.976-25.6-10.8-50.729-17.878-15.346-4.321-18.79,3.224-18.79,3.224" transform="translate(-80.111 -709.167)" fill="#93312c"/>
    <path id="Path_1308" data-name="Path 1308" d="M102.991,852.385c11.036-1.021,41.15-1.54,47.663,2.935,8.016,5.507,18.91,68.483,18.91,68.483a5.341,5.341,0,0,1-2.66.845c-1.695.166-5.376-.919-5.376-.919s-17.907-28.363-18.984-35.459-.523-13.407-3.552-13.62-44.647,4.584-48.2-6.806c-2.775-8.9.551-17.505.551-17.505s1.467,2.989,11.648,2.047" transform="translate(-76.136 -721.864)" fill="#b5453c"/>
    <path id="Path_1309" data-name="Path 1309" d="M114.026,522.756c1.938,11.775,1.172,26.983,1.172,26.983-11.272,17.4-42.649,12.167-42.649,12.167-.692-6.6,1.957-21.267,3.566-34.321.394-3.2.726-6.3.932-9.161a57.623,57.623,0,0,1,.85-6.681c2.675-13.951,9.555-15.484,9.555-15.484,3.217,6.247,13.368,7.929,13.368,7.929a34.354,34.354,0,0,0-1.012-7.994,62.168,62.168,0,0,1,6.791,1.251c3.951,1.292,14.929,16.077,14.929,16.077s-2.244,6.114-7.5,9.233" transform="translate(-61.492 -421.229)" fill="#abddda"/>
    <path id="Path_1310" data-name="Path 1310" d="M186.87,432.443s.127,2.556.413,4.944c-4.521.424-7.4-3.4-8.659-5.554Z" transform="translate(-151.637 -366.59)" fill="#ed975d"/>
    <path id="Path_1311" data-name="Path 1311" d="M175.6,350.5s-10.638,1.479-11.457-5.16-2.744-10.92,4.014-12.145,8.392,1.145,9.2,3.3.985,13.454-1.761,14.01" transform="translate(-138.589 -282.571)" fill="#ffb27d"/>
    <path id="Path_1312" data-name="Path 1312" d="M159.788,325.988c-1.892-1.8-3.083-1.205-3.708-.52a7.506,7.506,0,0,0-9.394,2.7,12.778,12.778,0,0,1-3.233,8s2.09.963,6.428-.737a7.67,7.67,0,0,0,3.322-2.947,25.054,25.054,0,0,1-3.641,5.751c5.048-3.127,6.287-10.831,6.4-11.644a8.415,8.415,0,0,1,2.7,2.814c.738,1.626,1.4,5.078,2.4,4.835,0,0,1.552-5.564-1.286-8.257" transform="translate(-121.78 -275.722)" fill="#2c3a64"/>
    <path id="Path_1313" data-name="Path 1313" d="M601.077,710.621a10.237,10.237,0,0,0,2.149-.462,6.416,6.416,0,0,1,2.815-.839c1.247.033,3.249-.792,3.19-.433s-1.805,1.57-1.889,1.777a8.173,8.173,0,0,0,2.939,2.778c1.06.384,3.763,1.271,3.4,1.678s-4.468,1.181-5.532,1.08-3.207-1.853-4.308-2.182a8.007,8.007,0,0,0-2.775-.085Z" transform="translate(-510.257 -601.708)" fill="#ffb27d"/>
    <path id="Path_1314" data-name="Path 1314" d="M649.838,733.694s3.617-.191,4.443.763l-2.8.423Z" transform="translate(-551.658 -622.831)" fill="#ffb27d"/>
    <path id="Path_1315" data-name="Path 1315" d="M653.755,751.466l5.127.188a2.656,2.656,0,0,0-1.339-.969c-.877-.267-3.788.781-3.788.781" transform="translate(-554.983 -637.231)" fill="#ffb27d"/>
    <path id="Path_1316" data-name="Path 1316" d="M121.254,637.117c-.182-.1-21.8,2.26-24.47-22.328.394-3.2.726-6.3.932-9.161a57.583,57.583,0,0,1,.85-6.681c1.946-.3,4.281,1.793,5.328,4.9,2.155,6.4,17.3,33,17.36,33.269" transform="translate(-82.161 -508.431)" fill="#91cecf"/>
    <path id="Path_1317" data-name="Path 1317" d="M155.176,591.682l-1.2,3.089s-1.072-.312-2.779-.813c-.511-.155-.8-.26-.8-.26-1.363-.415-2.987-.959-4.76-1.544l-.026,0c-3.027-1.065-6.411-2.317-9.239-3.613-.253-.119-.5-.238-.745-.356a23.941,23.941,0,0,1-4.089-2.427,3.1,3.1,0,0,1-.323-.283c-2.687-2.411-5.5-8.974-7.5-15.908-.278-.956-.531-1.912-.785-2.841a68.184,68.184,0,0,1-1.859-9.73,26.905,26.905,0,0,1-.207-4.564,10.873,10.873,0,0,1,.106-1.268c.791-7.2,5.96-7.417,6.546-6.529A22.757,22.757,0,0,1,129.7,549.6c1.085,3.348,2.147,7.651,3.113,11.916.538,2.34,1.05,4.677,1.58,6.839.292,1.31.592,2.545.876,3.679a34.531,34.531,0,0,0,1.586,5.058,12.1,12.1,0,0,0,2.771,3.073c.371.333.771.677,1.191,1.033,2.336,1.965,5.339,4.2,8.014,6.091,1.309.938,2.551,1.795,3.583,2.5,1.663,1.15,2.767,1.892,2.767,1.892" transform="translate(-102.584 -462.033)" fill="#ffb27d"/>
    <path id="Path_1318" data-name="Path 1318" d="M337.176,851.92s5.391-1.526,6.676-1.169,5.684,3.27,5.066,4.061-4.495-.474-6.278-.234-3.163,1.12-4.447.929a14.893,14.893,0,0,1-2.627-.7Z" transform="translate(-284.865 -722.17)" fill="#ffb27d"/>
    <path id="Path_1319" data-name="Path 1319" d="M346.23,846.5a20.226,20.226,0,0,0,3.388-2.127.21.21,0,0,1,.327.038c.2.317.389.929-.536,1.538a4.976,4.976,0,0,1-3.18.551" transform="translate(-293.92 -716.745)" fill="#ffb27d"/>
    <path id="Path_1320" data-name="Path 1320" d="M115.324,530.841s-5.027,2.441-6.782,5.784-1.97,14.014.747,27.887a20.08,20.08,0,0,0,13.547-7.64s-1.989-28.037-7.511-26.031" transform="translate(-91.031 -450.552)" fill="#abddda"/>
    <path id="Path_1321" data-name="Path 1321" d="M164.117,482.107s-1.833,1.14-1.837,2.832c0,0,2.165,5.917,14.809,7.291,0,0-11.637-5.723-12.972-10.123" transform="translate(-137.762 -409.268)" fill="#91cecf"/>
    <path id="Path_1322" data-name="Path 1322" d="M238.228,483.515s3.19,5.86,3.1,8.715c0,0,.217-6.488-.235-7.994s-3.142-2.129-3.142-2.129Z" transform="translate(-201.999 -409.268)" fill="#91cecf"/>
    <path id="Path_1323" data-name="Path 1323" d="M224.272,422.19a3.559,3.559,0,0,0,2.457.65c1.337-.253,1.324-1.3,1.324-1.3a5.983,5.983,0,0,0-1.714,0,14.025,14.025,0,0,0-2.067.65" transform="translate(-190.388 -357.797)" fill="#fff"/>
    <path id="Path_1324" data-name="Path 1324" d="M755.725,1011.271H654.253a2.58,2.58,0,0,1-2.573-2.573v-3.4a2.581,2.581,0,0,1,2.573-2.573H755.725a2.581,2.581,0,0,1,2.573,2.573v3.4a2.581,2.581,0,0,1-2.573,2.573" transform="translate(-553.221 -851.226)" fill="#b0d4ff"/>
    <path id="Path_1325" data-name="Path 1325" d="M1229.786,1108.035H1228.7l-8.438-31.946v-.006l-1.919-7.265,0,0-2.488-9.422,4.969-.085,1.694,9.2,1.267,6.891c.006.035.015.067.02.1Z" transform="translate(-1032.154 -899.264)" fill="#d2e3fc"/>
    <path id="Path_1326" data-name="Path 1326" d="M1222.513,1068.509a13.715,13.715,0,0,0-2.254,7.574l-1.919-7.265,0,0-2.488-9.422,4.969-.085Z" transform="translate(-1032.154 -899.264)" fill="#b0d4ff"/>
    <path id="Path_1327" data-name="Path 1327" d="M687.833,1108.035h1.089l8.438-31.946v-.006l1.918-7.265,0,0,2.488-9.422-4.969-.085-1.693,9.2-1.267,6.891c-.006.035-.014.067-.021.1Z" transform="translate(-583.912 -899.264)" fill="#d2e3fc"/>
    <path id="Path_1328" data-name="Path 1328" d="M735.974,1068.509a13.715,13.715,0,0,1,2.254,7.574l1.918-7.265,0,0,2.488-9.422-4.97-.085Z" transform="translate(-624.78 -899.264)" fill="#b0d4ff"/>
    <path id="Path_1329" data-name="Path 1329" d="M644.5,724.684a1.962,1.962,0,0,0-1.539-.425,5.682,5.682,0,0,1-2.577.36c-1.088-.195-2.951.262-2.852-.045s1.79-1.135,1.89-1.305a7.241,7.241,0,0,0-2.2-2.824c-.877-.477-3.127-1.613-2.756-1.922s4.07-.44,4.988-.21,2.563,2.05,3.482,2.483a23.683,23.683,0,0,1,2.529,1.57Z" transform="translate(-538.57 -609.688)" fill="#f29b5f"/>
    <path id="Path_1330" data-name="Path 1330" d="M641.567,732.677s-3.193-.313-3.789-1.259l2.512,0Z" transform="translate(-541.419 -620.912)" fill="#ffb27d"/>
    <path id="Path_1331" data-name="Path 1331" d="M637.309,714.93l-4.465-.846a2.354,2.354,0,0,0,1.044,1.027c.733.35,3.421-.181,3.421-.181" transform="translate(-537.231 -606.197)" fill="#ffb27d"/>
    <path id="Path_1332" data-name="Path 1332" d="M743.1,588.117s-2.734-1.242-11.272,6.477-14.386,15.789-18.947,16.14-16.339.374-16.339.374l-1.311,2.754s-.221,1.064,7.007,3.363a63.305,63.305,0,0,0,14.581,2.515c5.848-.7,19.865-10.067,22-12.874s4.284-18.749,4.284-18.749" transform="translate(-590.19 -499.199)" fill="#b0d0ff"/>
    <path id="Path_1333" data-name="Path 1333" d="M1001.1,377.839s-.158-5.564,7.18-6.655,9.365.624,10.612,2.5,3.587,9.513,3.353,12.553-8.6,6.8-8.466,8.575-12.678-16.969-12.678-16.969" transform="translate(-849.85 -314.814)" fill="#163560"/>
    <path id="Path_1334" data-name="Path 1334" d="M700.357,1286.31c.147,1.856-2.441,2.274-5.433,2.384s-2.1.734-6.2,1.423-5.735-.454-6.024-1.012c-.258-.495,1.657-1.238,3.7-2.08.257-.1.514-.214.772-.322a9.587,9.587,0,0,0,4.946-4.946c.785-1.573,1.454-7.585,1.454-7.585l7.135-.988s-1.261,4.674-1.833,6.88c-.336,1.3.6,3.252,1,4.366a7.286,7.286,0,0,1,.488,1.88" transform="translate(-579.532 -1080.826)" fill="#f29b5f"/>
    <path id="Path_1335" data-name="Path 1335" d="M694.924,1351.883c-2.992.11-2.1.734-6.2,1.423s-5.735-.454-6.024-1.012c-.258-.495,1.657-1.238,3.7-2.08l.031.035a11.67,11.67,0,0,0,6.206.155c2.72-.7,5.362-2.286,7.236-2.785a7.286,7.286,0,0,1,.488,1.88c.147,1.857-2.441,2.274-5.433,2.384" transform="translate(-579.532 -1144.015)" fill="#b24940"/>
    <path id="Path_1336" data-name="Path 1336" d="M795.672,871.97s-37.058,1.945-43.408,7.191-5.187,55.822-5.187,55.822c.595.684,1.672.934,3.158,1.146a29.457,29.457,0,0,0,3.626.2s7.261-25.308,7.649-31.178,2.127-15.776,4.664-16.241,32.226,4.293,35.955-4.81-1.331-16.993-1.331-16.993Z" transform="translate(-634.134 -736.101)" fill="#163560"/>
    <path id="Path_1337" data-name="Path 1337" d="M989.766,641.435c-1.593,1.067-5.71,1.656-10.489,1.827-8.552.311-19.223-.709-21.324-2.692a3.615,3.615,0,0,1-.887-2.437c-.232-3.282,1.336-8.681,2.388-13.148.683-2.9,1.149-5.41.767-6.692-1.16-3.9-4.765-11.852-5.076-14.465s2.807-16.613,7.118-18.346,20.952,0,20.952,0c6.5,1.319,6.774,15.179,4.615,26.975-.056.3-.112.606-.171.905-2.339,11.979,6.55,25.1,2.105,28.075" transform="translate(-810.82 -496.368)" fill="#b0d0ff"/>
    <path id="Path_1338" data-name="Path 1338" d="M1021.2,531.329c.117.76,2.2,1.993,6.646.821,4.262-1.123,4.773-2.512,4.773-3.428,0-1.085-1.852-2.547-1.828-9.222l-.511.1-8.593,1.7s.2,2.7.2,5.252c.006,2.139-.882,3.51-.687,4.775" transform="translate(-866.889 -441.012)" fill="#f29b5f"/>
    <path id="Path_1339" data-name="Path 1339" d="M1024.574,521.868s.2,2.7.2,5.252c4.808-.135,7.35-4.522,8.391-6.953Z" transform="translate(-869.777 -441.577)" fill="#d68147"/>
    <path id="Path_1340" data-name="Path 1340" d="M992.658,439.534s11.376.188,11.384-6.9,1.482-11.835-5.781-12.254-8.677,2.283-9.255,4.648.694,14.274,3.653,14.505" transform="translate(-839.466 -356.831)" fill="#f29b5f"/>
    <path id="Path_1341" data-name="Path 1341" d="M1016.734,409.78s3.115,8.314,7.9,9.543,6.854-.052,6.854-.052a35.575,35.575,0,0,1-2.878-9.361s-9.521-4.087-11.871-.13" transform="translate(-863.121 -346.404)" fill="#163560"/>
    <path id="Path_1342" data-name="Path 1342" d="M989.478,416.326s-2.326,1.856-2.893,3.661-.822,5.519-1.9,5.393c0,0-2.347-5.651.291-8.847,2.8-3.39,4.508-.206,4.508-.206" transform="translate(-835.093 -352.275)" fill="#163560"/>
    <path id="Path_1343" data-name="Path 1343" d="M1006.661,515.728s-.212.9-2.452.761c0,0-1.88-.116-1.823-1.106a6.05,6.05,0,0,1,4.274.344" transform="translate(-850.94 -437.321)" fill="#fff"/>
    <path id="Path_1344" data-name="Path 1344" d="M846.349,1275.41c-.064,1.861-2.682,1.983-5.668,1.753s-2.166.492-6.325.711-5.646-1.1-5.871-1.687c-.2-.521,1.787-1.042,3.91-1.648.267-.075.535-.154.8-.232,2.394-.708,3.924-2.58,5.931-4.24,1.9-1.573-1.719-9.81-1.719-9.81l5.39-2.3s.716,5.789,1.755,10.874c.268,1.314,1.246,3.5,1.521,4.656a7.3,7.3,0,0,1,.272,1.923" transform="translate(-703.302 -1067.898)" fill="#f29b5f"/>
    <path id="Path_1345" data-name="Path 1345" d="M1000.547,762.141c-1.593,1.067-5.71,1.656-10.489,1.827-7.888-1.794-16.868-3.883-22.21-5.13-.232-3.282,1.336-8.681,2.388-13.148,6.229,1.9,15.5-4.578,18.615-7.139,3.275-2.69,3.172-11.654,3.172-11.654l6.589,6.264c-.056.3-.112.606-.171.905-2.339,11.979,6.55,25.1,2.105,28.075" transform="translate(-821.601 -617.074)" fill="#98baf4"/>
    <path id="Path_1346" data-name="Path 1346" d="M840.681,1364.425c-2.985-.229-2.166.492-6.325.711s-5.646-1.1-5.871-1.687c-.2-.52,1.787-1.042,3.91-1.647l.027.038a11.668,11.668,0,0,0,6.148.857c2.782-.388,5.587-1.665,7.505-1.948a7.29,7.29,0,0,1,.272,1.923c-.065,1.862-2.683,1.983-5.668,1.753" transform="translate(-703.302 -1155.16)" fill="#c65447"/>
    <path id="Path_1347" data-name="Path 1347" d="M870.253,906.475c-9.349-.723-37.418.094-42.985,3.809-6.852,4.573,9.669,56.959,9.669,56.959h5.3s3.083-30.419,1.17-36.491c-1.768-5.61-2.922-7.621-.351-7.824s34.26,5.362,37.387-3.965a23.08,23.08,0,0,0-.293-14.274s-1.274,2.453-9.9,1.786" transform="translate(-700.868 -768.005)" fill="#1c468a"/>
    <path id="Path_1348" data-name="Path 1348" d="M1027.148,589.7s6.511.553,7.018,5.7c.385,3.908,3.217,31.624,1.177,34.035-5.739,6.784-24.875,8.221-27.693,9.251l-.775-3.208s20.429-10.292,20.117-12.631-6.089-34.071.156-33.145" transform="translate(-854.752 -500.588)" fill="#b0d0ff"/>
    <path id="Path_1349" data-name="Path 1349" d="M1095.321,370.365s-.467-2.968,3.65-3.735,4.194,7.979,4.635,10.087-.658,3.371-2.229,3.5-6.057-9.852-6.057-9.852" transform="translate(-929.821 -311.198)" fill="#163560"/>
    <path id="Path_1350" data-name="Path 1350" d="M933.855,884.447s-5.818-1.646-7.2-1.261-6.134,3.529-5.466,4.383,4.85-.511,6.775-.253,3.413,1.208,4.8,1a16.064,16.064,0,0,0,2.835-.75Z" transform="translate(-781.953 -749.7)" fill="#f29b5f"/>
    <path id="Path_1351" data-name="Path 1351" d="M981.875,878.592a21.812,21.812,0,0,1-3.656-2.295.227.227,0,0,0-.354.041c-.217.342-.42,1,.578,1.66a5.369,5.369,0,0,0,3.431.594" transform="translate(-829.974 -743.845)" fill="#f29b5f"/>
    <path id="Path_1352" data-name="Path 1352" d="M374.082,17.525c0,9.678-10.83,17.524-24.19,17.524S325.7,27.2,325.7,17.525,336.532,0,349.892,0s24.19,7.846,24.19,17.524" transform="translate(-276.493 -0.001)" fill="#ffb27d"/>
    <path id="Path_1353" data-name="Path 1353" d="M343.749,183.94l-5.874,8.9,11.941-5.509Z" transform="translate(-286.827 -156.15)" fill="#ffb27d"/>
    <path id="Path_1354" data-name="Path 1354" d="M625.157,246.627c0,8.032,8.987,14.542,20.074,14.542s20.074-6.511,20.074-14.542-8.987-14.542-20.074-14.542-20.074,6.511-20.074,14.542" transform="translate(-530.705 -197.021)" fill="#d1e4ff"/>
    <path id="Path_1355" data-name="Path 1355" d="M820.236,384.729l4.874,7.389-9.909-4.571Z" transform="translate(-692.037 -326.603)" fill="#d1e4ff"/>
  </g>
</svg>
