<svg xmlns="http://www.w3.org/2000/svg" xmlns:xlink="http://www.w3.org/1999/xlink" width="292.984" height="188.062" viewBox="0 0 292.984 188.062">
  <defs>
    <clipPath id="clip-path">
      <rect id="Rectangle_2059" data-name="Rectangle 2059" width="292.984" height="188.062" fill="none"/>
    </clipPath>
  </defs>
  <g id="Group_6624" data-name="Group 6624" transform="translate(0 0.004)">
    <g id="Group_6623" data-name="Group 6623" transform="translate(0 -0.004)" clip-path="url(#clip-path)">
      <path id="Path_1513" data-name="Path 1513" d="M256.268,618.991s21.594,5.119,32.224-18.081c13.791-30.1-5.565-58.692-38.954-60.752-48.157-2.97-21.468-79.856-97.46-58.994-21.368,5.866-67.843-24.415-95.2,26.893-4.652,8.724-18.559,8.3-37.087,23.18C-12.9,557.492-1.13,619.27,26.408,619.55s229.859-.559,229.859-.559" transform="translate(0 -431.577)" fill="#fcecdb"/>
      <path id="Path_1514" data-name="Path 1514" d="M324.353,1740.826s1-6.578,13.812-8.347,24.718-15.957,45.841-13.9,38.651,14.98,62.694,11.021,39.1,1.087,44.493,5.067,27.713-.934,29.361,6.359Z" transform="translate(-293.131 -1552.965)" fill="#a8d29f"/>
      <path id="Path_1515" data-name="Path 1515" d="M786.54,323.384s-14.456-.707-6.787,43.352c0,0,5.159,14.956-1.354,24.595H874.27V323.384Z" transform="translate(-702.666 -292.254)" fill="#afcdfb"/>
      <path id="Path_1516" data-name="Path 1516" d="M944.482,1361.258s-6.7-7.814-.413-12.777c0,0,4.59-2.779,8.333-2.554,0,0-5.3,8.894-3.588,9.779s5.2-10.337,5.2-10.337,10.447-1.013,13.807.6c0,0-8.931,7.308-7.05,7.743s11.527-6.738,11.527-6.738,9.723,1.655,9.2,7.586-3.869,7.763-5.341,7.6-10.086-3.446-10.274-2.239,5,5.149,8.628,5.334c0,0-6.855,7.56-11.411,5.378s-4.945-5.64-7.785-6.937-5.264-1.294-4.092.029,6.312,2.609,7.936,5.481,3.081,4.81-1.632,4.1-12.375-4.158-12.712-8.107Z" transform="translate(-850.761 -1215.58)" fill="#599dad"/>
      <path id="Path_1517" data-name="Path 1517" d="M950.675,1445.053s-26.408-1.018-32.24,6.535a19.1,19.1,0,0,1-5.259,7.38l-.619,1.686s4.576-4.825,6.214-5.117c0,0-2.561-9.356,31.9-10.484" transform="translate(-824.714 -1305.91)" fill="#599dad"/>
      <path id="Path_1518" data-name="Path 1518" d="M862.072,1583.8a16.582,16.582,0,0,0-6.062,11.682l1.029.092s1.81-7.745,5.083-10.773-.049-1-.049-1" transform="translate(-773.61 -1430.742)" fill="#599dad"/>
      <path id="Path_1519" data-name="Path 1519" d="M363.434,1152.252s10.654-5.966,5.682-14.064c0,0-3.978-4.972-8.239-6.25,0,0,2.273,12.075,0,12.359s-1.563-13.638-1.563-13.638-11.223-5.4-15.627-4.972c0,0,6.961,11.791,4.688,11.507s-10.086-12.217-10.086-12.217-11.507-2.131-13.353,4.688,1.137,10.228,2.841,10.654,12.643.284,12.359,1.7-7.671,3.693-11.791,2.415c0,0,4.546,11.223,10.512,10.654s7.813-4.262,11.507-4.546,6.393.71,4.546,1.7-8.1.326-11.081,2.862-5.4,4.1.142,5.235,15.484.426,17.473-3.836Z" transform="translate(-293.131 -1016.401)" fill="#6bb7bf"/>
      <path id="Path_1520" data-name="Path 1520" d="M385.009,1198.774s29.832,9.66,33.242,20.456a22.665,22.665,0,0,0,2.841,10.37v2.131s-3.125-7.245-4.83-8.24c0,0,6.677-9.376-31.253-24.718" transform="translate(-347.948 -1083.379)" fill="#6bb7bf"/>
      <path id="Path_1521" data-name="Path 1521" d="M746.475,1506.566a19.677,19.677,0,0,1,1.978,15.491l-1.184-.318s1.149-9.367-1.258-14.078.464-1.095.464-1.095" transform="translate(-673.331 -1360.344)" fill="#6bb7bf"/>
      <path id="Path_1522" data-name="Path 1522" d="M819.745,984.349s-14.044-7.865-7.49-18.539c0,0,5.243-6.554,10.861-8.24,0,0-3,15.917,0,16.292s2.06-17.977,2.06-17.977,14.794-7.116,20.6-6.554c0,0-9.176,15.543-6.18,15.168s13.3-16.1,13.3-16.1,15.168-2.809,17.6,6.18-1.5,13.483-3.745,14.045-16.666.375-16.292,2.247,10.112,4.869,15.542,3.184c0,0-5.992,14.793-13.857,14.044s-10.3-5.618-15.168-5.992-8.427.936-5.992,2.247,10.674.429,14.606,3.773,7.116,5.4-.187,6.9-20.411.562-23.033-5.056Z" transform="translate(-732.491 -856.726)" fill="#86d1cd"/>
      <path id="Path_1523" data-name="Path 1523" d="M915.087,1045.674s-39.325,12.733-43.819,26.965a29.874,29.874,0,0,1-3.745,13.67v2.809s4.12-9.55,6.367-10.861c0,0-8.8-12.359,41.2-32.583" transform="translate(-784.015 -945.017)" fill="#6bb7bf"/>
      <path id="Path_1524" data-name="Path 1524" d="M833.043,1451.4a25.937,25.937,0,0,0-2.607,20.419l1.56-.419s-1.514-12.348,1.659-18.557-.611-1.443-.611-1.443" transform="translate(-749.535 -1310.108)" fill="#6bb7bf"/>
      <path id="Path_1525" data-name="Path 1525" d="M643.227,1674.2a27.511,27.511,0,0,0,27.511-27.511H615.716a27.511,27.511,0,0,0,27.511,27.511" transform="translate(-556.447 -1488.174)" fill="#efcbab"/>
      <path id="Path_1526" data-name="Path 1526" d="M681.475,1673.985a27.529,27.529,0,0,1-30.928-27.3h6.835a27.516,27.516,0,0,0,24.093,27.3" transform="translate(-587.925 -1488.173)" fill="#ffebdc"/>
      <path id="Path_1527" data-name="Path 1527" d="M667.551,1915.159H611.769a3.394,3.394,0,0,1,3.394-3.394h48.993a3.394,3.394,0,0,1,3.394,3.394" transform="translate(-552.88 -1727.737)" fill="#efcbab"/>
      <rect id="Rectangle_2055" data-name="Rectangle 2055" width="56.552" height="0.844" transform="translate(58.364 158.511)" fill="#efcdaf"/>
      <path id="Path_1528" data-name="Path 1528" d="M1920.9,432.751s-4.819-9.093,2.4-12.556c0,0,5.089-1.7,8.691-.662,0,0-7.127,7.513-5.647,8.753s7.338-8.944,7.338-8.944,10.415,1.3,13.338,3.619c0,0-10.317,5.17-8.578,6.007s12.725-4.044,12.725-4.044,9.123,3.749,7.315,9.421-5.478,6.724-6.88,6.247-9.084-5.575-9.532-4.44,3.745,6.121,7.247,7.1c0,0-8.347,5.871-12.312,2.742s-3.586-6.588-6.072-8.477-4.852-2.418-4-.87,5.586,3.931,6.54,7.09,1.95,5.369-2.493,3.643-11.161-6.773-10.622-10.7Z" transform="translate(-1734.569 -378.844)" fill="#599dad"/>
      <path id="Path_1529" data-name="Path 1529" d="M1896.059,536.916s-25.541-6.789-32.888-.7a19.1,19.1,0,0,1-6.75,6.046l-.974,1.509s5.523-3.7,7.185-3.628c0,0-.445-9.691,33.427-3.226" transform="translate(-1676.841 -482.307)" fill="#599dad"/>
      <path id="Path_1530" data-name="Path 1530" d="M1785.963,619.561a16.584,16.584,0,0,0-8.479,10.067l.984.316s3.466-7.159,7.323-9.4.172-.987.172-.987" transform="translate(-1606.383 -559.607)" fill="#599dad"/>
      <path id="Path_1531" data-name="Path 1531" d="M1515.768,37.5s-14.272-7.443-8.039-18.307c0,0,5.046-6.707,10.611-8.559,0,0-2.521,16,.485,16.284s1.524-18.03,1.524-18.03,14.575-7.553,20.394-7.164c0,0-8.709,15.809-5.725,15.345S1547.828.577,1547.828.577s15.078-3.259,17.778,5.653-1.1,13.521-3.325,14.15-16.647.871-16.217,2.731,10.252,4.566,15.63,2.719c0,0-5.549,14.965-13.433,14.451s-10.462-5.309-15.34-5.538-8.4,1.187-5.923,2.425,10.682.112,14.712,3.336,7.274,5.189.018,6.9-20.386,1.169-23.173-4.368Z" transform="translate(-1361.171 0.005)" fill="#86d1cd"/>
      <path id="Path_1532" data-name="Path 1532" d="M1617.708,96.072s-38.928,13.9-43,28.258a29.875,29.875,0,0,1-3.336,13.775l.083,2.808s3.834-9.669,6.041-11.046c0,0-9.165-12.092,40.209-33.8" transform="translate(-1420.114 -86.824)" fill="#6bb7bf"/>
      <path id="Path_1533" data-name="Path 1533" d="M1540.535,515.832a25.936,25.936,0,0,0-2,20.488l1.547-.465s-1.881-12.3,1.105-18.6-.654-1.424-.654-1.424" transform="translate(-1389.274 -464.551)" fill="#6bb7bf"/>
      <rect id="Rectangle_2056" data-name="Rectangle 2056" width="100.092" height="130.534" transform="translate(89.953 57.208)" fill="#9abcef"/>
      <rect id="Rectangle_2057" data-name="Rectangle 2057" width="98.41" height="130.534" transform="translate(93.225 57.208)" fill="#e9f3fe"/>
      <path id="Path_1534" data-name="Path 1534" d="M2522.508,1740.388h-19.831c-1.063-.9.735-2.949,2.614-3.086a11.59,11.59,0,0,1,3.027.358c.273-3.625,1.831-19.918,7.7-19.264,6.6.733,0,7.175-1.867,10.99a90.577,90.577,0,0,0-3.508,8.788c.536.116,1.091.23,1.658.334.875-2.688,4.132-11.728,8.273-11.2,4.863.617,2.908,4.241-.538,6.393-2.529,1.582-5.634,3.831-7.109,4.917a21.051,21.051,0,0,0,3.878.311c3.4-.081,5.055.92,5.7,1.459" transform="translate(-2261.482 -1552.965)" fill="#a8d29f"/>
      <path id="Path_1535" data-name="Path 1535" d="M987.418,349.462H889.006c.544-7.442-.276-12.846-1.59-16.732-2.524-7.472-6.873-9.347-6.873-9.347h92.81c7.921,0,14.063,4.772,15.735,11.106.062.238.12.476.171.713,1.587,7.247-1.776,14.126-1.842,14.258" transform="translate(-795.782 -292.255)" fill="#e9f3fe"/>
      <path id="Path_1536" data-name="Path 1536" d="M1051.949,437.215H953.538c.544-7.442-.276-12.846-1.59-16.732,10.057,1.842,34.966,5.766,61.627,5.1,17.248-.428,30.878-1.582,40.216-2.633,1.587,7.247-1.776,14.126-1.842,14.258" transform="translate(-860.313 -380.009)" fill="#d8e8fd"/>
      <path id="Path_1537" data-name="Path 1537" d="M1221.865,884.01H1169.2a.739.739,0,0,1-.737-.737V882.3a.739.739,0,0,1,.737-.737h52.663a.739.739,0,0,1,.737.737v.974a.739.739,0,0,1-.737.737" transform="translate(-1055.988 -796.702)" fill="#bbd5fc"/>
      <path id="Path_1538" data-name="Path 1538" d="M1201.616,926.8h-32.569a.584.584,0,0,1-.582-.582V924.93a.584.584,0,0,1,.582-.582h32.569a.584.584,0,0,1,.582.582v1.284a.584.584,0,0,1-.582.582" transform="translate(-1055.988 -835.37)" fill="#bbd5fc"/>
      <path id="Path_1539" data-name="Path 1539" d="M1102.633,887.733v-5h-.66q-.6,0-.6-.5,0-.36.47-.51a3.486,3.486,0,0,1,.765-.12q.525-.04.845-.04t.39.125a1.491,1.491,0,0,1,.08.635v5.41h.68q.66,0,.66.57,0,.6-.66.6h-2.74a.755.755,0,0,1-.485-.155.524.524,0,0,1-.2-.435q0-.58.67-.58Z" transform="translate(-995.183 -796.703)" fill="#bbd5fc"/>
      <path id="Path_1540" data-name="Path 1540" d="M1221.865,1151.828H1169.2a.739.739,0,0,1-.737-.737v-.974a.739.739,0,0,1,.737-.737h52.663a.739.739,0,0,1,.737.737v.974a.739.739,0,0,1-.737.737" transform="translate(-1055.988 -1038.74)" fill="#d2e4fd"/>
      <path id="Path_1541" data-name="Path 1541" d="M1201.616,1194.614h-32.569a.584.584,0,0,1-.582-.582v-1.284a.584.584,0,0,1,.582-.582h32.569a.584.584,0,0,1,.582.582v1.284a.583.583,0,0,1-.582.582" transform="translate(-1055.988 -1077.407)" fill="#d2e4fd"/>
      <path id="Path_1542" data-name="Path 1542" d="M1104.981,1155.448q0,.5-.7.5h-2.9q-.628,0-.628-.5a.636.636,0,0,1,.168-.371q.247-.283.724-.849.724-.911,1.211-1.573.168-.22.477-.672a1.624,1.624,0,0,0,.256-.76.782.782,0,0,0-.221-.57.757.757,0,0,0-.566-.225.866.866,0,0,0-.583.212,1,1,0,0,0-.265.53q-.124.5-.159.583a.448.448,0,0,1-.433.283.5.5,0,0,1-.416-.194.664.664,0,0,1-.141-.442,2.135,2.135,0,0,1,.1-.627,1.886,1.886,0,0,1,.751-1.043,2.182,2.182,0,0,1,1.246-.344,1.93,1.93,0,0,1,1.343.487,1.7,1.7,0,0,1,.557,1.31,2.284,2.284,0,0,1-.4,1.221q-.221.346-.91,1.222-.354.452-1.114,1.31h1.909q.689,0,.689.517" transform="translate(-994.797 -1038.741)" fill="#d2e4fd"/>
      <path id="Path_1543" data-name="Path 1543" d="M1221.865,1375.236H1169.2a.739.739,0,0,1-.737-.737v-.974a.74.74,0,0,1,.737-.737h52.663a.739.739,0,0,1,.737.737v.974a.739.739,0,0,1-.737.737" transform="translate(-1055.988 -1240.642)" fill="#d2e4fd"/>
      <path id="Path_1544" data-name="Path 1544" d="M1201.616,1418.022h-32.569a.584.584,0,0,1-.582-.582v-1.284a.584.584,0,0,1,.582-.582h32.569a.584.584,0,0,1,.582.582v1.284a.584.584,0,0,1-.582.582" transform="translate(-1055.988 -1279.31)" fill="#d2e4fd"/>
      <path id="Path_1545" data-name="Path 1545" d="M1103.932,1374.752a1.9,1.9,0,0,1-.66,1.509,2.322,2.322,0,0,1-1.581.542,2.213,2.213,0,0,1-1.265-.352,1.61,1.61,0,0,1-.831-1.346.564.564,0,0,1,.145-.388.473.473,0,0,1,.37-.163.566.566,0,0,1,.443.316q.334.524.389.578a1.007,1.007,0,0,0,.768.316.959.959,0,0,0,.9-.47,1.251,1.251,0,0,0,.126-.6q0-.885-1.039-.984-.587-.054-.587-.5a.472.472,0,0,1,.341-.461q.637-.235.646-.244a.872.872,0,0,0,.341-.786.707.707,0,0,0-.2-.528.726.726,0,0,0-.531-.194.971.971,0,0,0-.648.2,1.3,1.3,0,0,0-.333.587.412.412,0,0,1-.414.316.424.424,0,0,1-.356-.19.687.687,0,0,1-.14-.416,1.154,1.154,0,0,1,.154-.56,1.732,1.732,0,0,1,.777-.732,2.273,2.273,0,0,1,1.048-.244,1.825,1.825,0,0,1,1.278.465,1.578,1.578,0,0,1,.51,1.224,1.677,1.677,0,0,1-.759,1.446,1.637,1.637,0,0,1,1.1,1.653" transform="translate(-993.748 -1238.09)" fill="#d2e4fd"/>
      <path id="Path_1546" data-name="Path 1546" d="M1343.111,657.671h-33a.768.768,0,0,1-.766-.765v-1.313a.768.768,0,0,1,.766-.766h33a.768.768,0,0,1,.766.766v1.312a.768.768,0,0,1-.766.766" transform="translate(-1183.304 -591.793)" fill="#bbd5fc"/>
      <path id="Path_1547" data-name="Path 1547" d="M1269.9,703.223h-50.07a.942.942,0,0,1-.939-.939v-.966a.942.942,0,0,1,.939-.939h50.07a.942.942,0,0,1,.939.939v.966a.942.942,0,0,1-.939.939" transform="translate(-1101.559 -632.96)" fill="#bbd5fc"/>
      <path id="Path_1548" data-name="Path 1548" d="M1071.061,807.013a120.516,120.516,0,0,1-28.478-3.268c-7.662-1.943-11.789-5.118-11.789-7.934,0-2.552,3.364-4.9,9.727-6.789-6.1,1.81-9.36,4.468-9.36,6.789,0,2.575,4.227,5.124,11.6,6.993,7.557,1.916,17.608,2.971,28.3,2.971s20.744-1.055,28.3-2.971c7.371-1.869,11.6-4.418,11.6-6.993,0-2.727-4.452-6.116-11.618-8.844-8.148-3.1-18.192-4.254-28.282-4.254-18.943,0-26.741,2.211-33.507,4.982,6.8-2.783,14.5-5.937,33.507-5.937a81.947,81.947,0,0,1,28.4,4.834c7.317,2.786,11.863,6.319,11.863,9.22,0,2.816-4.22,5.437-11.882,7.38a117.441,117.441,0,0,1-28.385,3.822" transform="translate(-931.569 -706.505)" fill="#c65447"/>
      <path id="Path_1549" data-name="Path 1549" d="M2084.813,1298.594a21.3,21.3,0,0,1-.74,4.081,14.6,14.6,0,0,1-2.739,3.131c-.7.407.429-2.733.286-3.344s-.578,1.115-.888,1.156-.23-1.513-.241-2.079,1.507-1.961,2.042-3.165,2.28.221,2.28.221" transform="translate(-1880.221 -1172.954)" fill="#ffb27d"/>
      <path id="Path_1550" data-name="Path 1550" d="M1633.371,920.591l-.789-1.488s.391-2.652-2.931-4.33a1.622,1.622,0,0,0-1.9.5c-.631.912,1.2.747,1.1,2.308a2.87,2.87,0,0,0,1.674,2.985l.852.987Z" transform="translate(-1470.943 -826.605)" fill="#ffb27d"/>
      <path id="Path_1551" data-name="Path 1551" d="M1688.813,934.589a26.323,26.323,0,0,1-18.557,18.582c-4.9,1.429-16.038-14.71-16.038-14.71s.391-1.488,2.844-1.146c0,0,10.843,7.179,12.208,7.958,1.211.692,9.177-8.895,12.809-10.442a9.269,9.269,0,0,1,6.734-.243" transform="translate(-1494.982 -844.16)" fill="#e58638"/>
      <rect id="Rectangle_2058" data-name="Rectangle 2058" width="2.933" height="14.754" transform="matrix(0.152, -0.988, 0.988, 0.152, 151.6, 90.573)" fill="#c65447"/>
      <path id="Path_1552" data-name="Path 1552" d="M1541.985,911.724l3.168,1.97.445-2.9Z" transform="translate(-1393.552 -823.122)" fill="#ffb27d"/>
      <path id="Path_1553" data-name="Path 1553" d="M1728.377,935.286l-.141.917a1.033,1.033,0,0,1-1.178.864l-.675-.1.445-2.9.734.113a.973.973,0,0,1,.814,1.109" transform="translate(-1560.202 -844.15)" fill="#ffb27d"/>
      <path id="Path_1554" data-name="Path 1554" d="M2142.11,1846.158s1.948,1.778,1.568,3.041-2.138,2.105-2.376,3.649-1.187,2.386-2.043,2.386h-4.078s-.629-1.086.891-1.414,2.093-2.142,2-3.826a29.745,29.745,0,0,1,.143-3.93l3.231-.748Z" transform="translate(-1929.532 -1667.685)" fill="#233862"/>
      <path id="Path_1555" data-name="Path 1555" d="M1852.582,1887.13s.35,4.046-.505,4.467l-10.945-.022s0-1.263,1.758-1.544,4.846-1.31,5.369-3.6,4.324.7,4.324.7" transform="translate(-1663.903 -1704.058)" fill="#233862"/>
      <path id="Path_1556" data-name="Path 1556" d="M1864.089,1298.873s.577,7.092,1.256,15.617c.922,11.581,2.031,25.806,2.141,28.5.189,4.68.951,12.165.951,12.165s1.8,1.778,5.417,1.029a120.8,120.8,0,0,0,4.138-21.991c.014-.185.029-.372.043-.559.855-11.509,2.185-35.744,2.185-35.744Z" transform="translate(-1684.651 -1172.954)" fill="#2b478b"/>
      <path id="Path_1557" data-name="Path 1557" d="M1864.089,1298.873s.577,7.092,1.256,15.617l12.646,19.7c.014-.185.029-.372.043-.559.855-11.509,2.185-35.744,2.185-35.744Z" transform="translate(-1684.651 -1172.954)" fill="#233862"/>
      <path id="Path_1558" data-name="Path 1558" d="M1891.478,1273.36s10.406,25.685,17.248,37.756,8.98,15.439,8.98,15.439,3.92-1.544,4.276-2.6c0,0-2.616-23.3-7.2-28.984-2.589-3.21-5.631-12.842-5.773-16.211s-.927-10.035-.927-10.035Z" transform="translate(-1709.404 -1146.599)" fill="#2b478b"/>
      <path id="Path_1559" data-name="Path 1559" d="M1929.5,825.546s-7.041,3.4-11.1,2.137a9.581,9.581,0,0,1,2.748-2.2c-.141-.815-.25-1.522-.312-2.121a19.634,19.634,0,0,1-.171-2.167l2.716-2.137,2.576-2.044a10.379,10.379,0,0,0,3.543,8.531" transform="translate(-1733.731 -738.368)" fill="#ffb27d"/>
      <path id="Path_1560" data-name="Path 1560" d="M1878.633,926.915c.016.43-.905.922-1.311,1.107a28.756,28.756,0,0,1-9.008,2.552c-3.762.384-8.211-.461-9.741-.431a.635.635,0,0,1-.421-.169c-.109-.077-.188-4.611-.109-10.314,0-.231,0-.461.015-.692v-.077c.031-2.229.109-4.565.219-6.9a76.671,76.671,0,0,1,1.312-12.82,13.9,13.9,0,0,1,4.4-6.917l1.405-1.23a6.751,6.751,0,0,0,4.371-.522c1.624-.784,3.372-1.63,3.653-1.415,2.123,1.553,3.559,5.042,4.324,9.5a49.433,49.433,0,0,1,.64,8.454c0,1.107-.031,2.244-.094,3.367a106.138,106.138,0,0,0,.219,14.434c.063.892.109,1.583.125,2.075" transform="translate(-1679.158 -803.47)" fill="#ee9849"/>
      <path id="Path_1561" data-name="Path 1561" d="M1955.71,1016.144c-24.654-.049-4.547-26.753-4.547-26.753l3.994-1.3a77.617,77.617,0,0,1,.463,9.032c0,1.182-.022,2.4-.068,3.6-.271,6.5,0,12.153.158,15.421" transform="translate(-1756.359 -892.979)" fill="#e58638"/>
      <path id="Path_1562" data-name="Path 1562" d="M1947.253,838.408a9.331,9.331,0,0,1-5.167,4.15,19.608,19.608,0,0,1-.172-2.168l2.716-2.136Z" transform="translate(-1754.985 -757.563)" fill="#ed985f"/>
      <path id="Path_1563" data-name="Path 1563" d="M1916.742,756.755s6.716,1.1,7.347-3.03,1.922-6.768-2.34-7.644-5.337.576-5.888,1.9-.85,8.379.881,8.771" transform="translate(-1731.052 -674.021)" fill="#ffb27d"/>
      <path id="Path_1564" data-name="Path 1564" d="M1906.152,722.037c.061-.07.2-.126.514-.143a1.269,1.269,0,0,0-.584-.165,1.575,1.575,0,0,0-1.046-1.393.939.939,0,0,1,.455.677c-.867-.891-2.726-1.54-7.874-1.133-6.784.535-4.548,4.879-3.67,5.4s3.089-.9,4.725-.772,1.948,2.494,2.5,2.819.337-.249,1.088-.589.823.905.606,1.714.815,1.877.815,1.877l1.043-1.123c1.043-1.123,2.026-5.88,1.552-6.894l-.126-.272" transform="translate(-1710.673 -650.472)" fill="#2c3a64"/>
      <path id="Path_1565" data-name="Path 1565" d="M1987.85,889.051s4.25,2.012,6.287,5.106c3.161,4.8,6.824,22.288,6.892,23.907s-2.674,13.053-2.674,13.053-2.781-.183-3.5-1.587c0,0,.556-11.748.2-12.5s-11.592-15.758-10.328-18.96,3.118-9.017,3.118-9.017" transform="translate(-1793.592 -803.47)" fill="#ee9849"/>
      <path id="Path_1566" data-name="Path 1566" d="M1659.572,934.713s.231-.913-.4-1.323-1.216-1.526-1.483-1.375c-.553.313.3,1.287.146,2.5-.055.425.935,1.54,1.739.2" transform="translate(-1497.947 -842.286)" fill="#ffb27d"/>
      <path id="Path_1567" data-name="Path 1567" d="M434.851,1652.347s-9.982-25.561-16.983-21.49,16.983,21.49,16.983,21.49" transform="translate(-376.487 -1473.473)" fill="#a8d29f"/>
      <path id="Path_1568" data-name="Path 1568" d="M365.961,1768.647s-13.187-11.4-19.211-9.28,19.211,9.28,19.211,9.28" transform="translate(-312.532 -1589.773)" fill="#a8d29f"/>
      <path id="Path_1569" data-name="Path 1569" d="M2005.6,1808.019s3.039-10.567,6.6-9.32-6.6,9.32-6.6,9.32" transform="translate(-1812.542 -1625.463)" fill="#a8d29f"/>
      <path id="Path_1570" data-name="Path 1570" d="M2034.411,1854.624s7.758-5.092,9.463-3.518-9.463,3.518-9.463,3.518" transform="translate(-1838.578 -1672.644)" fill="#a8d29f"/>
      <path id="Path_1571" data-name="Path 1571" d="M1183.95,1641.624h-60.514a.736.736,0,0,1,0-1.473h60.514a.736.736,0,0,1,0,1.473" transform="translate(-1014.628 -1482.269)" fill="#d2e4fd"/>
      <path id="Path_1572" data-name="Path 1572" d="M1183.95,1672.245h-60.514a.737.737,0,0,1,0-1.473h60.514a.737.737,0,0,1,0,1.473" transform="translate(-1014.628 -1509.942)" fill="#d2e4fd"/>
      <path id="Path_1573" data-name="Path 1573" d="M1183.95,1706.179h-60.514a.736.736,0,0,1,0-1.473h60.514a.736.736,0,0,1,0,1.473" transform="translate(-1014.628 -1540.61)" fill="#d2e4fd"/>
      <path id="Path_1574" data-name="Path 1574" d="M1176.173,1740.114H1123.22a.522.522,0,0,1-.52-.52v-.433a.522.522,0,0,1,.52-.52h52.953a.522.522,0,0,1,.52.52v.432a.522.522,0,0,1-.52.52" transform="translate(-1014.628 -1571.278)" fill="#d2e4fd"/>
    </g>
  </g>
</svg>
