<svg width="360" height="248" viewBox="0 0 360 248" fill="none" xmlns="http://www.w3.org/2000/svg">
<rect width="360" height="248" fill="#E5E4F0"/>
<path d="M179.941 74C178.12 74 176.321 74.3124 174.613 74.915L111.555 97.5222C109.42 98.3033 108.003 100.312 108.003 102.566C108.003 104.82 109.42 106.828 111.555 107.609L124.571 112.274C120.885 118.032 118.794 124.838 118.794 132.002V138.273C118.794 144.611 116.366 151.15 113.781 156.305C112.32 159.207 110.656 162.063 108.723 164.697C108.003 165.656 107.801 166.906 108.206 168.044C108.61 169.182 109.555 170.03 110.724 170.32L125.111 173.891C126.055 174.137 127.067 173.958 127.899 173.445C128.73 172.932 129.315 172.083 129.495 171.124C131.428 161.572 130.461 153.002 129.023 146.865C128.303 143.696 127.337 140.46 125.988 137.492V132.002C125.988 125.262 128.281 118.902 132.26 113.814C135.16 110.354 138.914 107.565 143.32 105.846L178.614 92.0768C180.458 91.3627 182.548 92.2554 183.268 94.0854C183.987 95.9153 183.088 97.9908 181.244 98.705L145.95 112.475C143.163 113.568 140.712 115.242 138.712 117.295L174.59 130.15C176.299 130.752 178.097 131.065 179.918 131.065C181.739 131.065 183.537 130.752 185.246 130.15L248.326 107.609C250.461 106.851 251.878 104.82 251.878 102.566C251.878 100.312 250.461 98.3033 248.326 97.5222L185.268 74.915C183.56 74.3124 181.761 74 179.941 74ZM136.778 157.912C136.778 165.79 156.111 173.98 179.941 173.98C203.77 173.98 223.103 165.79 223.103 157.912L219.663 125.463L187.696 136.934C185.201 137.827 182.571 138.273 179.941 138.273C177.31 138.273 174.658 137.827 172.185 136.934L140.218 125.463L136.778 157.912Z" fill="#B4B3D3"/>
</svg>
