<svg width="435" height="300" viewBox="0 0 435 300" fill="none" xmlns="http://www.w3.org/2000/svg">
<rect width="435" height="300" fill="#F2F1FA"/>
<path opacity="0.6" d="M324.826 243.251C324.155 243.251 323.491 243.255 322.83 243.263C318.425 241.346 308.094 240 296.052 240C280.007 240 267 242.389 267 245.335C267 247.921 277.017 250.077 290.312 250.566C291.182 254.264 306.3 257.209 324.826 257.209C343.91 257.209 359.381 254.084 359.381 250.23C359.382 246.376 343.91 243.251 324.826 243.251Z" fill="#B4B3D3"/>
<path d="M172 167C172 172.523 167.523 177 162 177H85C79.4772 177 75 172.523 75 167V126C75 120.477 79.4772 116 85 116H162C167.523 116 172 120.477 172 126V167Z" fill="#B4B3D3"/>
<path d="M276.788 167.444C276.788 172.967 272.311 177.444 266.788 177.444H190.298C184.775 177.444 180.298 172.967 180.298 167.444V125.785C180.298 120.263 184.775 115.785 190.298 115.785H266.788C272.311 115.785 276.788 120.263 276.788 125.785V167.444Z" fill="#7B79B4"/>
<path d="M172 95C172 100.523 167.523 105 162 105H85C79.4772 105 75 100.523 75 95V53C75 47.4772 79.4772 43 85 43H162C167.523 43 172 47.4772 172 53V95Z" fill="#7B79B4"/>
<path d="M276.787 94.9597C276.787 100.483 272.31 104.96 266.787 104.96H190.297C184.775 104.96 180.297 100.483 180.297 94.9597V53.2993C180.297 47.7764 184.775 43.2993 190.297 43.2993H266.788C272.31 43.2993 276.787 47.7764 276.787 53.2993V94.9597Z" fill="#B4B3D3"/>
<path d="M312.5 119.5C312.5 119.5 324.649 131.426 325.187 135.883C325.729 140.337 319.718 147.296 319.718 147.296L312.5 119.5Z" fill="#398183"/>
<path d="M308.069 242.291C308.069 242.291 307.664 248.571 306.449 248.66C306.287 248.672 300.288 248.657 300.288 248.657L292.626 248.596C292.626 248.596 292.678 246.751 294.92 246.366C297.159 245.981 300.911 244.414 302.277 241.457C303.709 238.347 308.069 242.291 308.069 242.291Z" fill="#163560"/>
<path d="M325.133 242.326C325.133 242.326 324.732 248.606 323.516 248.695C323.357 248.707 317.351 248.692 317.351 248.692L309.69 248.634C309.69 248.634 309.747 246.786 311.985 246.401C314.223 246.016 317.98 244.449 319.343 241.492C320.774 238.382 325.133 242.326 325.133 242.326Z" fill="#163560"/>
<path d="M299.733 174.766C299.733 174.766 301.708 187.587 309.133 210.354C316.562 233.118 317.555 242.973 317.555 242.973L325.579 242.765C325.579 242.765 325.701 217.902 322.278 206.456C318.863 195.007 321.626 165.211 321.626 165.211L299.733 174.766Z" fill="#0F2C48"/>
<path d="M295.849 165.854C295.849 165.854 295.527 185.166 298.815 208.886C302.108 232.606 300.953 242.669 300.953 242.669L308.951 242.953C308.951 242.953 313.788 219.242 312.442 207.371C311.096 195.497 319.079 166.657 319.079 166.657L295.849 165.854Z" fill="#1A436D"/>
<path d="M311.439 120.698L307.169 123.484L301.008 122.324C301.097 121.826 301.508 119.767 301.882 117.897C301.904 117.787 301.926 117.677 301.948 117.57C302.267 115.982 302.544 114.618 302.544 114.618L308.306 112.091L310.454 111.149C310.45 111.182 310.283 112.912 310.261 113.165C309.85 117.65 311.439 120.698 311.439 120.698Z" fill="#FFB27D"/>
<path d="M302.597 119.269C302.715 119.22 310.018 117.082 310.811 117.344C311.604 117.607 312.071 119.144 312.071 119.144L300.125 121.817C300.125 121.817 301.07 119.908 302.597 119.269Z" fill="#398183"/>
<path d="M322 166C320 169.5 300 170 294.88 168.329C294.279 167.965 294.781 148.03 295.02 145.755C295.473 141.315 296.92 134.636 296.992 131.223C297.022 129.574 297.392 127.889 297.884 126.358C298.923 123.096 300.502 120.538 300.502 120.538C300.502 120.538 310.519 118.534 312.389 118.879C321 130 321 158 322 166Z" fill="#65A6A8"/>
<path d="M294.613 162.46C295.071 155.303 296.525 144.538 296.595 139.036C296.628 136.379 297.001 133.663 297.492 131.195L303.544 130.141C303.544 130.141 309.408 154.32 294.613 162.46Z" fill="#398183"/>
<path d="M297.911 152.494C297.911 152.494 298.323 153.48 297.455 154.14C296.588 154.8 296.02 155.872 296.217 156.657C296.417 157.439 298.312 158.722 298.971 158.518C299.63 158.313 300.975 157.283 300.829 156.871C300.687 156.456 301.74 153.245 300.137 152.005C298.534 150.762 297.911 152.494 297.911 152.494Z" fill="#FFB27D"/>
<path d="M304.747 120.375C304.747 120.375 298.848 121.469 294.127 128.388C289.413 135.307 286.303 140.455 287.166 142.953C288.029 145.452 295.907 154.134 297.266 154.137C298.628 154.14 300.827 153.153 300.955 150.926C300.955 150.926 295.415 142.581 296.509 141.337C296.979 140.803 303.742 135.338 304.7 137.815C306.286 141.915 304.747 120.375 304.747 120.375Z" fill="#65A6A8"/>
<path d="M309.833 113.24C308.565 115.378 303.849 117.22 301.882 117.895C301.908 117.785 301.93 117.675 301.949 117.568C302.27 115.98 302.548 114.616 302.548 114.616L308.31 112.089C309.581 112.074 310.354 112.36 309.833 113.24Z" fill="#FCA56B"/>
<path d="M300.38 114.262C300.38 114.262 309.646 117.175 311.368 111.377C313.094 105.58 315.454 102.051 309.609 99.9466C303.768 97.8421 301.953 99.711 300.909 101.506C299.862 103.301 298.013 113.356 300.38 114.262Z" fill="#FFB27D"/>
<path d="M301.271 100.948C301.271 100.948 301.848 107.7 303.241 107.41C304.638 107.12 305.907 106.906 305.698 108.94C305.488 110.975 303.548 113.32 307.847 113.69C312.151 114.059 318.36 102.977 317.181 100.873C313.784 94.8043 296.357 93.5429 301.271 100.948Z" fill="#163560"/>
</svg>
