<svg xmlns="http://www.w3.org/2000/svg" width="349.168" height="262.745" viewBox="0 0 349.168 262.745">
  <g id="Group_5307" data-name="Group 5307" transform="translate(-364.501 -257.255)">
    <g id="Group_5072" data-name="Group 5072" transform="translate(418.465 351.308)">
      <rect id="Rectangle_1466" data-name="Rectangle 1466" width="11.036" height="19.461" fill="#9abfe2"/>
    </g>
    <g id="Group_5073" data-name="Group 5073" transform="translate(395.156 318.126)">
      <rect id="Rectangle_1467" data-name="Rectangle 1467" width="63.969" height="37.729" rx="3.583" fill="#bad4f4"/>
    </g>
    <g id="Group_5074" data-name="Group 5074" transform="translate(535.579 343.966)">
      <path id="Path_738" data-name="Path 738" d="M603.523,209l6.339,29.083s4.575,16.438,4.576,20.379-7.183,9.42-7.183,9.42l-1.374-6.493a16.859,16.859,0,0,0-.275-6.439c-.858-2.817-2.434.608-2.434.608l-6.422-7.625-11.125-33.413Z" transform="translate(-585.626 -209.001)" fill="#f48462"/>
    </g>
    <g id="Group_5075" data-name="Group 5075" transform="translate(509.403 480.455)">
      <path id="Path_739" data-name="Path 739" d="M645.071,327.177v23.56H624.145l-.473-22.073Z" transform="translate(-623.672 -327.177)" fill="#f48462"/>
    </g>
    <g id="Group_5076" data-name="Group 5076" transform="translate(454.143 474.196)">
      <path id="Path_740" data-name="Path 740" d="M604.851,328.756l-9.794,22.823-19.231-8.253,8.742-21.569Z" transform="translate(-575.826 -321.758)" fill="#f48462"/>
    </g>
    <g id="Group_5077" data-name="Group 5077" transform="translate(491.82 357.587)">
      <path id="Path_741" data-name="Path 741" d="M629.821,220.8,659.7,339.248s-30.418,13.974-31.869,13.623S614.413,295.7,614.413,295.7s-.709,56.877-.586,57.175-35.292.468-37.48-.576,4.882-129.055,4.882-129.055Z" transform="translate(-575.928 -220.795)" fill="#445584"/>
    </g>
    <g id="Group_5078" data-name="Group 5078" transform="translate(474.261 291.9)">
      <path id="Path_742" data-name="Path 742" d="M591.951,206.05s6.708-25.349,21-35.265,40.775-7.679,47.245-2.115c6.139,5.281,14.582,33.9,14.582,33.9l-11.082,11.083,1.8,16.9-51.766,3.354.1-27.3Z" transform="translate(-591.951 -163.922)" fill="#6373ad"/>
    </g>
    <g id="Group_5080" data-name="Group 5080" transform="translate(419.362 481.022)">
      <g id="Group_5079" data-name="Group 5079">
        <path id="Path_743" data-name="Path 743" d="M595.865,360.224a2.984,2.984,0,0,0,3.564-2.045c2.044-6.153,7.378-19.695,6.255-20.066-1.432-.475-17.111-1.322-17.111-1.322s2.42-8.662-4.022-9.1c-4.941-.336-12.015,3.336-15.04,5.062a5.4,5.4,0,0,1-3.1.716c-4.592-.348-17.414-.738-19.658,5.465-2.743,7.584.617,7.727,2.049,8.2C550.035,347.544,585.77,357.432,595.865,360.224Z" transform="translate(-545.712 -327.668)" fill="#a37b90"/>
      </g>
    </g>
    <g id="Group_5082" data-name="Group 5082" transform="translate(475.754 489.632)">
      <g id="Group_5081" data-name="Group 5081">
        <path id="Path_744" data-name="Path 744" d="M647.826,362.807a2.986,2.986,0,0,0,2.766-3.04c.059-6.483.988-21.008-.2-21.018-1.508-.013-16.693,3.985-16.693,3.985s-.351-8.987-6.616-7.43c-4.807,1.194-10.415,6.858-12.766,9.428a5.4,5.4,0,0,1-2.729,1.631c-4.478,1.076-16.8,4.633-17.037,11.225-.286,8.059,2.954,7.168,4.463,7.18C600.314,364.779,637.36,363.242,647.826,362.807Z" transform="translate(-594.538 -335.122)" fill="#a37b90"/>
      </g>
    </g>
    <g id="Group_5083" data-name="Group 5083" transform="translate(506.252 257.255)">
      <path id="Path_745" data-name="Path 745" d="M635.306,148.237s6.354-7.858,3.688-10.977-6.789,0-6.789,0a3.637,3.637,0,0,0-4.338-3.308c-4.11.381-6.588,4.762-6.588,4.762s-3.617-3.62-6.094,0-.762,9.523-.762,9.523-2.857-.423-2.1,2.931,5.255,6.812,5.255,6.812Z" transform="translate(-612.198 -133.925)"/>
    </g>
    <g id="Group_5085" data-name="Group 5085" transform="translate(515.333 283.939)">
      <g id="Group_5084" data-name="Group 5084" transform="translate(0)">
        <path id="Path_746" data-name="Path 746" d="M618.012,157.029l-.119,8.863s1.564,2.569,6.743,3.06c3.858.366,5.048-2.16,5.048-2.16l-.3-2.824-.472-4.384-9.333-2.185Z" transform="translate(-617.893 -157.029)" fill="#f48462"/>
      </g>
    </g>
    <g id="Group_5087" data-name="Group 5087" transform="translate(517.018 284.309)">
      <g id="Group_5086" data-name="Group 5086" transform="translate(0)">
        <path id="Path_747" data-name="Path 747" d="M618.153,157.349a2.935,2.935,0,0,0,.246.858c1.923,4.454,7.332,5.481,9.56,5.711l-.472-4.384Z" transform="translate(-618.153 -157.349)"/>
      </g>
    </g>
    <g id="Group_5089" data-name="Group 5089" transform="translate(509.239 262.962)">
      <g id="Group_5088" data-name="Group 5088" transform="translate(0)">
        <path id="Path_748" data-name="Path 748" d="M633.326,142.225s4.5,11.174,2.585,17.323-7.536,5.009-10.881,3.712a11.185,11.185,0,0,1-4.853-3.414,4.764,4.764,0,0,1-5.214-2.018c-2.026-3-.628-6.329,1.2-7.05s3.93.643,3.93.643l-1.587-3.256S626.043,132.075,633.326,142.225Z" transform="translate(-613.965 -138.866)" fill="#f48462"/>
      </g>
    </g>
    <g id="Group_5090" data-name="Group 5090" transform="translate(510.644 276.641)">
      <path id="Path_749" data-name="Path 749" d="M632.415,154.392a.378.378,0,0,0,.225-.683l-3.953-2.926a.379.379,0,1,0-.45.609l3.953,2.926A.378.378,0,0,0,632.415,154.392Z" transform="translate(-628.083 -150.71)"/>
    </g>
    <g id="Group_5091" data-name="Group 5091" transform="translate(510.959 278.826)">
      <path id="Path_750" data-name="Path 750" d="M629.328,154a.4.4,0,0,0,.089-.01l2.638-.642a.378.378,0,0,0-.178-.736l-2.639.641a.379.379,0,0,0,.09.747Z" transform="translate(-628.948 -152.602)"/>
    </g>
    <g id="Group_5092" data-name="Group 5092" transform="translate(520.969 268.896)">
      <path id="Path_751" data-name="Path 751" d="M620.661,146.5a.379.379,0,0,0,.357-.252,1.992,1.992,0,0,1,2.212-1.463.379.379,0,1,0,.137-.745,2.763,2.763,0,0,0-3.062,1.954.378.378,0,0,0,.356.506Z" transform="translate(-620.282 -144.004)"/>
    </g>
    <g id="Group_5093" data-name="Group 5093" transform="translate(528.003 269.104)">
      <path id="Path_752" data-name="Path 752" d="M617.035,145.7a.378.378,0,0,0,.244-.668c-.387-.329-1.41-1.2-1.868-.69a.379.379,0,0,0,.4.611,3.142,3.142,0,0,1,.977.656A.376.376,0,0,0,617.035,145.7Z" transform="translate(-615.316 -144.185)"/>
    </g>
    <g id="Group_5094" data-name="Group 5094" transform="translate(526.317 273.807)">
      <path id="Path_753" data-name="Path 753" d="M618.219,153.48a.377.377,0,0,0,.3-.149c1.423-1.866-1.327-4.831-1.444-4.957a.38.38,0,0,0-.553.52c.679.724,2.253,2.85,1.394,3.978a.379.379,0,0,0,.3.609Z" transform="translate(-616.421 -148.256)"/>
    </g>
    <g id="Group_5095" data-name="Group 5095" transform="translate(528.717 272.079)">
      <path id="Path_754" data-name="Path 754" d="M616.307,149.558a.34.34,0,0,0,.095-.013.378.378,0,0,0,.271-.461l-.527-2.04a.379.379,0,1,0-.733.189l.527,2.04A.378.378,0,0,0,616.307,149.558Z" transform="translate(-615.401 -146.761)"/>
    </g>
    <g id="Group_5096" data-name="Group 5096" transform="translate(523.107 272.113)">
      <path id="Path_755" data-name="Path 755" d="M621.165,149.587a.377.377,0,0,0,.366-.474l-.528-2.04a.378.378,0,1,0-.732.189l.528,2.04A.378.378,0,0,0,621.165,149.587Z" transform="translate(-620.258 -146.79)"/>
    </g>
    <g id="Group_5097" data-name="Group 5097" transform="translate(511.637 260.59)">
      <path id="Path_756" data-name="Path 756" d="M632.946,145.059a3.741,3.741,0,0,0-3.148-1.84,4.785,4.785,0,0,0-3.523,1.495s.919,3.736-2.114,5.673a7.347,7.347,0,0,1-5.351,1.352l-2.17-.806-1.557-3.209,6.4-6.713,8.222-4.2,4.111,3.833Z" transform="translate(-615.083 -136.813)"/>
    </g>
    <g id="Group_5098" data-name="Group 5098" transform="translate(522.596 280.088)">
      <path id="Path_757" data-name="Path 757" d="M621.748,156.144c.075,0,.143,0,.208-.009a.378.378,0,0,0-.061-.754,2.615,2.615,0,0,1-2.52-1.463.379.379,0,1,0-.691.312A3.35,3.35,0,0,0,621.748,156.144Z" transform="translate(-618.651 -153.694)"/>
    </g>
    <g id="Group_5099" data-name="Group 5099" transform="translate(538.124 309.259)">
      <path id="Path_758" data-name="Path 758" d="M608.432,201.369a.387.387,0,0,0,.377-.423l-2.538-21.66a.379.379,0,0,0-.753.088l2.537,21.66A.381.381,0,0,0,608.432,201.369Z" transform="translate(-605.516 -178.951)" fill="#fff"/>
    </g>
    <g id="Group_5100" data-name="Group 5100" transform="translate(515.673 317.73)">
      <path id="Path_759" data-name="Path 759" d="M584.461,216.287l20.053,12.238a2.177,2.177,0,0,0,2.534-.417L634.141,200.8a1.239,1.239,0,0,0-.106-2.029l-20.053-12.239a2.175,2.175,0,0,0-2.533.417l-27.094,27.313A1.239,1.239,0,0,0,584.461,216.287Z" transform="translate(-583.881 -186.286)" fill="#f49f38"/>
    </g>
    <g id="Group_5101" data-name="Group 5101" transform="translate(518.019 319.154)">
      <path id="Path_760" data-name="Path 760" d="M582.431,217.519l20.051,12.239a2.179,2.179,0,0,0,2.534-.418l27.094-27.312A1.239,1.239,0,0,0,632,200L611.952,187.76a2.179,2.179,0,0,0-2.534.418L582.323,215.49A1.239,1.239,0,0,0,582.431,217.519Z" transform="translate(-581.85 -187.519)" fill="#ffb655"/>
    </g>
    <g id="Group_5102" data-name="Group 5102" transform="translate(549.845 321.79)">
      <path id="Path_761" data-name="Path 761" d="M595.035,199.689a3.414,3.414,0,0,0,2.415-1.012l2.384-2.38a.378.378,0,1,0-.534-.536l-2.385,2.382a2.6,2.6,0,0,1-3.188.424l-4.883-2.964a2.087,2.087,0,0,1-.981-1.511,2.238,2.238,0,0,1,.594-1.842l1.7-1.811a.379.379,0,0,0-.553-.519l-1.7,1.811a2.991,2.991,0,0,0-.791,2.464,2.836,2.836,0,0,0,1.339,2.055l4.883,2.965A3.274,3.274,0,0,0,595.035,199.689Z" transform="translate(-587.086 -189.801)" fill="#fff"/>
    </g>
    <g id="Group_5103" data-name="Group 5103" transform="translate(513.04 323.878)">
      <path id="Path_762" data-name="Path 762" d="M607.644,193.477a5.109,5.109,0,0,1,4.255-1.858c2.671.164,6.706.477,7.637.909a37.261,37.261,0,0,1,4.652,3.258l-1.33,1.884s12.283,6.414,11.29,8.942c-.677,1.722-6.126-.744-6.126-.744s5.449,3.02,4.5,4.909-7.97-1.085-7.97-1.085,5.417,3.474,2.543,4.329-22.446-4.525-23.472-10.288C602.95,199.942,605.69,195.841,607.644,193.477Z" transform="translate(-603.521 -191.609)" fill="#f48462"/>
    </g>
    <g id="Group_5104" data-name="Group 5104" transform="translate(529.337 327.446)">
      <path id="Path_763" data-name="Path 763" d="M616.119,197.4a.379.379,0,0,0,.2-.7l-3.129-1.945a.378.378,0,1,0-.4.642l3.129,1.946A.368.368,0,0,0,616.119,197.4Z" transform="translate(-612.611 -194.698)"/>
    </g>
    <g id="Group_5105" data-name="Group 5105" transform="translate(529.926 333.697)">
      <path id="Path_764" data-name="Path 764" d="M616.29,205.266a.379.379,0,0,0,.179-.713l-8.2-4.4a.379.379,0,1,0-.359.668l8.2,4.4A.385.385,0,0,0,616.29,205.266Z" transform="translate(-607.713 -200.111)"/>
    </g>
    <g id="Group_5106" data-name="Group 5106" transform="translate(503.141 320.799)">
      <path id="Path_765" data-name="Path 765" d="M637.006,200.13a.378.378,0,0,0,.374-.322l1.588-10.428a.379.379,0,0,0-.316-.432.369.369,0,0,0-.432.318l-1.588,10.429a.377.377,0,0,0,.316.431A.531.531,0,0,0,637.006,200.13Z" transform="translate(-636.627 -188.943)" fill="#fff"/>
    </g>
    <g id="Group_5107" data-name="Group 5107" transform="translate(526.343 337.692)">
      <path id="Path_766" data-name="Path 766" d="M619.409,208.852a.379.379,0,0,0,.18-.713l-8.323-4.523a.378.378,0,0,0-.36.665l8.323,4.524A.373.373,0,0,0,619.409,208.852Z" transform="translate(-610.707 -203.57)"/>
    </g>
    <g id="Group_5108" data-name="Group 5108" transform="translate(515.333 290.878)">
      <path id="Path_767" data-name="Path 767" d="M617.739,164.961s5.293,5,8.653,7.629l3.316-8.287-7.325-1.266Z" transform="translate(-617.739 -163.037)" fill="#f48462"/>
    </g>
    <g id="Group_5109" data-name="Group 5109" transform="translate(514.953 292.424)">
      <path id="Path_768" data-name="Path 768" d="M630.449,177.218a.379.379,0,0,0,.128-.736,42.472,42.472,0,0,1-16.942-11.965.379.379,0,0,0-.593.471A43.268,43.268,0,0,0,630.32,177.2.384.384,0,0,0,630.449,177.218Z" transform="translate(-612.96 -164.375)" fill="#fff"/>
    </g>
    <g id="Group_5110" data-name="Group 5110" transform="translate(523.607 291.767)">
      <path id="Path_769" data-name="Path 769" d="M617.791,172.849a.378.378,0,0,0,.32-.177c1.667-2.63,3.292-8.148,3.359-8.383a.378.378,0,1,0-.727-.211c-.016.055-1.662,5.649-3.273,8.189a.38.38,0,0,0,.118.522A.375.375,0,0,0,617.791,172.849Z" transform="translate(-617.412 -163.806)" fill="#fff"/>
    </g>
    <g id="Group_5111" data-name="Group 5111" transform="translate(475.266 324.35)">
      <path id="Path_770" data-name="Path 770" d="M625.546,201.736s-4.524,17.191,11.224,19.524S666.7,207.866,666.7,207.866l1.962-15.849L637.5,202.042Z" transform="translate(-624.944 -192.017)" fill="#f48462"/>
    </g>
    <g id="Group_5112" data-name="Group 5112" transform="translate(485.55 368.982)">
      <path id="Path_771" data-name="Path 771" d="M617.017,294.547a.381.381,0,0,1-.38-.38l.143-53.883-13.591-8.927a.379.379,0,0,1,.415-.634l13.761,9.04a.38.38,0,0,1,.172.318l-.142,54.087A.38.38,0,0,1,617.017,294.547Z" transform="translate(-603.019 -230.661)" fill="#68b6d8"/>
    </g>
    <g id="Group_5113" data-name="Group 5113" transform="translate(439.685 486.443)">
      <path id="Path_772" data-name="Path 772" d="M571.542,335.262a.36.36,0,0,1-.1-.014l-7.855-2.141a.379.379,0,1,1,.2-.731l7.854,2.141a.379.379,0,0,1-.1.745Z" transform="translate(-563.308 -332.362)" fill="#ffb655"/>
    </g>
    <g id="Group_5114" data-name="Group 5114" transform="translate(492.43 500.172)">
      <path id="Path_773" data-name="Path 773" d="M609.355,345.328a.38.38,0,0,1-.014-.759l8.662-.321a.392.392,0,0,1,.393.366.38.38,0,0,1-.366.392l-8.662.322Z" transform="translate(-608.976 -344.248)" fill="#ffb655"/>
    </g>
    <g id="Group_5115" data-name="Group 5115" transform="translate(473.185 378.002)">
      <path id="Path_774" data-name="Path 774" d="M593.422,250.763a.378.378,0,0,1-.365-.278c-.1-.363-2.39-8.929,1.6-11.938a.378.378,0,1,1,.455.6c-3.582,2.7-1.347,11.05-1.322,11.133a.38.38,0,0,1-.266.467A.428.428,0,0,1,593.422,250.763Z" transform="translate(-592.313 -238.47)"/>
    </g>
    <g id="Group_5119" data-name="Group 5119" transform="translate(365 366.311)">
      <g id="Group_5118" data-name="Group 5118">
        <path id="Rectangle_1469" data-name="Rectangle 1469" d="M21.62,0H257.066a3.153,3.153,0,0,1,3.153,3.153V150.536a3.153,3.153,0,0,1-3.153,3.153H3.12A3.12,3.12,0,0,1,0,150.569V21.62A21.62,21.62,0,0,1,21.62,0Z" fill="#f3e9f4"/>
      </g>
    </g>
    <g id="Group_5120" data-name="Group 5120" transform="translate(364.501 402.7)">
      <path id="Path_775" data-name="Path 775" d="M759.009,261.879l-260.222-.869a.577.577,0,0,1,0-1.155l260.222.869a.577.577,0,0,1,0,1.155Z" transform="translate(-498.212 -259.855)" fill="#fff"/>
    </g>
    <g id="Group_5128" data-name="Group 5128" transform="translate(-321 116.155)">
      <path id="Path_17" data-name="Path 17" d="M586.234,937.132s-10.36-12.087-.639-19.764c0,0,7.1-4.3,12.891-3.95,0,0-8.2,13.757-5.55,15.126s8.037-15.989,8.037-15.989,16.159-1.567,21.358.932c0,0-13.814,11.3-10.9,11.978s17.83-10.423,17.83-10.423,15.04,2.559,14.238,11.734-5.984,12.008-8.262,11.764-15.6-5.33-15.891-3.464,7.73,7.966,13.346,8.251c0,0-10.6,11.694-17.65,8.319s-7.649-8.725-12.041-10.731-8.143-2-6.329.044,9.764,4.035,12.276,8.479,4.766,7.441-2.525,6.343-19.142-6.432-19.663-12.541Z" transform="translate(378.755 -595.692)" fill="#daf2f2"/>
      <path id="Path_18" data-name="Path 18" d="M627.48,956.928s-40.849-1.574-49.87,10.108a29.544,29.544,0,0,1-8.134,11.416l-.957,2.608s7.079-7.464,9.612-7.915c0,0-3.961-14.474,49.35-16.217" transform="translate(387.378 -625.596)" fill="#daf2f2"/>
      <path id="Path_19" data-name="Path 19" d="M552.558,1019.777a25.651,25.651,0,0,0-9.377,18.07l1.591.142s2.8-11.98,7.862-16.665-.076-1.548-.076-1.548" transform="translate(404.294 -666.921)" fill="#daf2f2"/>
      <path id="Path_20" data-name="Path 20" d="M365.408,855.994s16.481-9.229,8.789-21.754c0,0-6.153-7.691-12.745-9.669,0,0,3.516,18.678,0,19.118s-2.417-21.1-2.417-21.1-17.359-8.35-24.171-7.691c0,0,10.767,18.238,7.252,17.8s-15.6-18.9-15.6-18.9-17.8-3.3-20.656,7.252,1.758,15.821,4.4,16.481,19.557.439,19.117,2.637-11.866,5.713-18.238,3.735c0,0,7.032,17.36,16.261,16.481s12.086-6.592,17.8-7.032,9.888,1.1,7.032,2.637-12.525.5-17.14,4.427-8.35,6.34.22,8.1,23.952.66,27.028-5.933Z" transform="translate(563.356 -529.754)" fill="#85cacb"/>
      <path id="Path_21" data-name="Path 21" d="M332.136,846.524s46.145,14.942,51.419,31.643a35.054,35.054,0,0,0,4.395,16.041v3.3s-4.834-11.207-7.471-12.745c0,0,10.328-14.5-48.343-38.235" transform="translate(545.208 -551.927)" fill="#85cacb"/>
      <path id="Path_22" data-name="Path 22" d="M495.667,985.9s7.116,10.807,3.06,23.961l-1.831-.491s1.777-14.489-1.946-21.776.717-1.693.717-1.693" transform="translate(437.493 -643.616)" fill="#85cacb"/>
      <path id="Path_23" data-name="Path 23" d="M537.076,790.407s-21.724-12.166-11.586-28.676c0,0,8.111-10.138,16.8-12.745,0,0-4.634,24.621,0,25.2s3.186-27.808,3.186-27.808,22.883-11.007,31.862-10.138c0,0-14.193,24.042-9.559,23.462s20.566-24.911,20.566-24.911,23.462-4.345,27.228,9.558-2.317,20.856-5.793,21.725-25.78.579-25.2,3.476,15.642,7.531,24.042,4.924c0,0-9.269,22.883-21.435,21.725s-15.931-8.69-23.462-9.269-13.035,1.448-9.269,3.476,16.51.664,22.594,5.836,11.007,8.358-.29,10.675-31.573.869-35.628-7.821Z" transform="translate(417.907 -476.895)" fill="#008182"/>
      <path id="Path_24" data-name="Path 24" d="M621.913,777.923s-60.829,19.7-67.781,41.711a46.2,46.2,0,0,1-5.793,21.145v4.345s6.373-14.773,9.849-16.8c0,0-13.614-19.118,63.725-50.4" transform="translate(400.853 -506.123)" fill="#008182"/>
      <path id="Path_25" data-name="Path 25" d="M536.926,961.642s-9.381,14.245-4.033,31.585l2.413-.648s-2.342-19.1,2.565-28.7-.946-2.232-.946-2.232" transform="translate(412.265 -626.985)" fill="#008182"/>
      <path id="Path_26" data-name="Path 26" d="M478.066,1089.779a42.554,42.554,0,0,0,42.555-42.554H435.511a42.554,42.554,0,0,0,42.555,42.554" transform="translate(476.185 -685.934)" fill="#c4b3c6"/>
      <rect id="Rectangle_3" data-name="Rectangle 3" width="87.476" height="1.305" transform="translate(910.299 361.29)" fill="#c2afc5"/>
    </g>
  </g>
</svg>
