<svg width="709" height="675" viewBox="0 0 709 675" fill="none" xmlns="http://www.w3.org/2000/svg">
<path d="M356.256 674.906C551.071 674.906 709 592.623 709 491.121C709 389.619 551.071 307.336 356.256 307.336C161.441 307.336 3.5127 389.619 3.5127 491.121C3.5127 592.623 161.441 674.906 356.256 674.906Z" fill="#E9E9E9"/>
<path d="M582.359 515.057C634.304 515.057 676.414 490.717 676.414 460.693C676.414 430.669 634.304 406.33 582.359 406.33C530.414 406.33 488.305 430.669 488.305 460.693C488.305 490.717 530.414 515.057 582.359 515.057Z" fill="#E6E6E6"/>
<path d="M203.361 428.416C239.345 449.265 240.89 483.551 204.75 504.246C168.766 525.096 108.843 524.478 72.8577 503.629C36.8729 482.779 36.8729 449.111 72.8577 428.416C108.997 407.721 167.376 407.721 203.361 428.416Z" fill="#E6E6E6"/>
<path d="M496.953 540.541L378.806 472.278C375.099 470.116 369.076 470.116 365.369 472.278L247.222 540.541C243.515 542.703 243.515 546.101 247.222 548.263L301.122 579.306L250.928 608.341C240.735 614.209 224.056 614.209 213.862 608.341L134.788 562.626C130.464 560.155 127.993 556.912 127.993 553.668C127.993 550.425 130.464 547.336 134.788 544.711L204.905 504.247C206.449 503.321 206.913 501.467 205.986 500.077C205.059 498.533 203.206 498.07 201.816 498.996L131.7 539.46C125.368 543.166 121.815 548.263 121.815 553.668C121.815 559.228 125.368 564.325 131.7 567.877L210.774 613.592C216.797 617.144 224.673 618.843 232.395 618.843C240.117 618.843 247.994 617.144 254.017 613.592L307.454 582.858L365.678 616.371C369.385 618.534 375.408 618.534 379.114 616.371L497.262 548.109C500.66 546.101 500.66 542.549 496.953 540.541Z" fill="#E6E6E6"/>
<path d="M632.089 435.211C632.089 435.211 636.414 371.582 635.178 348.106C634.251 329.574 631.626 321.851 631.162 317.682C631.162 317.682 626.684 274.284 626.22 237.527C626.066 219.766 624.367 207.256 614.637 186.098L552.243 201.078C551.008 210.499 546.683 272.739 545.602 328.029C544.675 376.524 546.065 418.841 546.065 418.841V421.466C546.065 424.246 545.448 426.254 543.594 430.887C541.741 435.52 538.343 442.007 533.865 446.949C532.629 448.339 523.671 456.061 522.436 457.76C518.575 462.239 526.606 464.71 532.475 463.937C538.652 463.165 548.382 460.694 551.008 456.988C552.861 454.516 554.251 445.713 556.104 443.088C562.436 434.439 565.062 430.732 565.062 427.953C565.216 423.01 563.363 421.003 562.899 418.223C563.363 412.354 576.027 364.014 576.336 347.025C576.49 338.84 575.873 327.72 575.873 327.72L585.757 271.349C589.618 285.403 596.259 320.461 598.421 333.898C601.201 350.269 608.305 392.431 612.475 417.451C614.174 427.18 614.792 431.968 615.564 436.447L615.718 438.3C615.873 440.771 617.572 466.872 618.653 472.277C620.66 483.706 630.854 482.316 632.398 473.049C633.788 465.173 632.089 440.926 632.089 437.837V435.211Z" fill="#FFA8A7"/>
<path d="M632.089 435.211C635.024 435.211 633.016 446.331 633.788 453.435C634.56 461.003 637.031 466.717 637.804 472.895C638.576 479.999 637.958 483.088 635.487 488.956C633.479 493.59 623.441 499.767 619.58 493.281C615.719 486.64 614.946 479.227 615.41 472.122C615.873 464.709 615.41 460.23 615.564 454.516C615.719 449.574 612.012 436.91 615.719 436.292L615.873 438.145C617.263 440.771 630.699 441.389 632.089 437.682V435.211Z" fill="#37474F"/>
<path d="M565.833 433.973C566.76 437.525 565.833 447.409 565.833 447.409C565.833 447.409 564.289 450.807 558.729 452.969L556.258 439.378L565.833 433.973Z" fill="#263238"/>
<path d="M558.729 452.969L546.528 448.953L543.748 438.143L557.339 445.092L558.729 452.969Z" fill="black"/>
<path d="M546.065 421.463V418.837C544.366 419.609 540.814 432.891 535.872 442.003C531.393 450.343 522.435 454.976 519.655 458.529C515.794 463.316 523.362 469.648 535.408 467.023C541.432 465.787 550.389 461.926 552.86 457.911C555.331 453.895 556.103 446.482 558.111 443.548C560.119 440.613 564.907 437.216 565.833 433.818C566.451 431.965 566.76 427.795 565.833 424.552C564.907 421.463 564.134 417.756 563.053 418.065V420.382C562.281 422.08 559.347 423.934 553.324 424.243C550.235 424.551 547.455 424.088 546.065 421.463Z" fill="#37474F"/>
<path d="M551.007 200.306C551.007 200.306 546.837 246.175 545.602 286.638C544.212 327.256 545.447 379.612 545.447 379.612C545.447 379.612 549.617 382.546 558.884 383.01C568.15 383.473 571.239 380.384 571.239 380.384C571.239 380.384 576.799 362.006 577.726 349.032C578.652 336.059 577.726 328.029 577.726 328.029L585.911 273.82C585.911 273.82 596.413 327.102 597.494 333.588C598.73 340.075 608.614 397.064 608.614 397.064C608.614 397.064 612.475 400.616 622.668 400.461C631.626 400.307 634.097 397.064 634.097 397.064C634.097 397.064 636.259 362.16 635.796 347.179C635.332 334.052 632.398 323.55 631.78 315.055C631.162 306.561 630.853 257.912 630.236 239.379C629.618 220.846 627.919 204.784 612.166 182.545L551.007 200.306Z" fill="#455A64"/>
<path d="M585.911 273.975L579.116 239.998C579.116 239.998 567.224 236.909 561.664 229.65C561.664 229.65 563.208 237.681 575.564 242.932L582.823 276.755L580.197 311.504L585.911 273.975Z" fill="#37474F"/>
<path d="M463.748 191.81C470.08 193.046 476.875 190.884 476.875 190.884C474.559 189.494 472.705 188.413 471.624 187.486C469.616 185.478 470.234 183.316 471.006 182.544C471.624 181.926 473.014 183.316 476.257 184.243C480.427 185.478 483.362 185.633 487.377 187.949C488.922 188.876 490.62 189.185 492.319 188.876C501.895 187.023 524.443 176.521 534.791 170.961C536.953 162.467 540.505 149.802 544.984 134.049C549.154 119.532 555.795 113.2 566.451 113.509L565.061 145.015C565.061 145.015 559.965 166.791 553.787 184.552C552.706 187.641 548.227 191.193 540.196 194.282C529.694 198.143 517.184 201.849 501.74 206.019C496.026 207.563 488.304 209.262 482.589 209.726C466.373 211.116 460.041 206.637 457.879 203.394C451.392 194.436 455.099 190.112 463.748 191.81Z" fill="#FFA8A7"/>
<path d="M593.633 113.201L608.459 114.283C604.444 135.904 619.579 147.487 619.579 147.487L612.938 174.206C613.092 177.449 618.652 188.569 623.903 200.615C613.865 213.897 565.061 218.53 549.154 206.793C551.625 194.283 553.478 184.708 553.941 179.92L553.169 162.623C533.246 146.252 557.339 121.232 566.142 113.356L577.262 112.893L593.633 113.201Z" fill="#A19ADC"/>
<path d="M656.182 246.174C654.02 244.629 652.784 241.541 652.939 239.069C653.248 236.598 653.711 233.51 654.792 232.274C655.873 231.039 662.36 222.235 665.14 227.332C668.228 232.892 667.611 235.208 667.611 235.208L656.182 246.174Z" fill="#F28F8F"/>
<path d="M636.259 364.014C630.081 364.014 623.44 362.007 616.49 357.991L539.424 313.512C527.532 306.562 517.803 289.883 517.803 276.137V211.426C517.803 206.948 515.486 202.932 511.625 200.77C507.764 198.608 503.131 198.608 499.27 200.77L472.242 216.369C470.698 217.295 468.845 216.677 468.072 215.287C467.146 213.743 467.764 211.89 469.154 211.118L496.181 195.519C501.895 192.121 508.845 192.121 514.714 195.519C520.428 198.917 523.98 204.785 523.98 211.581V276.292C523.98 287.875 532.474 302.547 542.513 308.415L619.579 352.895C629.464 358.609 638.576 359.536 645.371 355.674C652.166 351.813 655.873 343.319 655.873 332.045V249.419C655.873 235.365 664.831 219.303 676.259 212.662L695.101 201.851C696.645 200.924 698.499 201.542 699.271 202.932C700.198 204.477 699.58 206.33 698.19 207.102L679.348 217.913C669.927 223.318 662.051 237.681 662.051 249.265V331.891C662.051 345.636 657.263 355.829 648.46 360.925C644.753 362.933 640.583 364.014 636.259 364.014Z" fill="#37474F"/>
<path d="M502.976 220.846V225.943C502.976 233.974 497.262 243.858 490.312 247.873L443.516 274.9L395.948 247.41V206.174L442.126 184.861C449.539 181.464 461.122 181.927 468.072 186.097L490.312 198.915C497.262 202.931 502.976 212.815 502.976 220.846Z" fill="#37474F"/>
<path d="M442.126 184.861C449.539 181.464 461.122 181.927 468.072 186.097L490.312 198.915C497.262 202.931 497.107 208.954 489.694 212.352L443.516 233.665L395.948 206.174L442.126 184.861Z" fill="#455A64"/>
<path opacity="0.15" d="M447.995 223.78C451.547 225.787 454.327 230.729 454.327 234.745V268.568L443.516 274.745L395.948 247.255V206.019L407.995 200.459L447.995 223.78Z" fill="black"/>
<path d="M391.933 199.07C393.014 198.452 394.713 198.452 396.412 199.533L443.208 226.56C446.76 228.568 449.54 233.51 449.54 237.526V277.835C449.54 279.842 448.768 281.232 447.686 281.85C446.605 282.468 442.744 284.63 441.663 285.248C440.582 285.866 438.883 285.866 437.184 284.785L390.389 257.757C386.837 255.75 384.057 250.808 384.057 246.792V206.483C384.057 204.475 384.829 203.085 385.91 202.313C386.991 202.004 390.852 199.688 391.933 199.07Z" fill="#37474F"/>
<path d="M437.184 229.959L390.389 202.932C386.837 200.924 384.057 202.623 384.057 206.638V246.947C384.057 250.963 386.837 255.905 390.389 257.913L437.184 284.94C440.737 286.948 443.516 285.249 443.516 281.233V240.924C443.516 236.909 440.582 231.966 437.184 229.959Z" fill="#455A64"/>
<path d="M381.739 276.908V283.858C381.739 286.638 382.666 288.646 384.365 289.573C385.137 290.036 387.917 291.58 388.535 292.044C390.079 292.97 392.396 292.816 394.867 291.426L433.477 269.032V241.541L429.307 239.07L390.697 261.464C385.755 264.399 381.739 271.194 381.739 276.908ZM399.191 268.26C399.346 268.723 399.346 269.341 399.346 269.959C399.346 273.82 396.72 278.298 393.477 280.306C393.013 280.615 392.396 280.769 391.932 280.924C391.778 280.461 391.778 279.843 391.778 279.225C391.778 275.364 394.403 270.885 397.647 268.877C398.264 268.569 398.728 268.26 399.191 268.26Z" fill="#A19ADC"/>
<path opacity="0.2" d="M388.38 291.891C388.535 291.891 388.535 292.046 388.689 292.046C388.535 291.891 388.38 291.891 388.38 291.891C387.608 291.428 384.983 290.038 384.365 289.575C382.82 288.648 381.739 286.64 381.739 283.86V276.911C381.739 274.131 382.666 270.887 384.365 268.107L388.535 270.578C386.99 273.358 385.909 276.447 385.909 279.382V286.331C385.909 288.494 386.527 290.193 387.608 291.274C387.762 291.428 388.071 291.737 388.38 291.891Z" fill="black"/>
<path opacity="0.5" d="M433.478 241.541L394.867 263.935C392.396 265.325 390.234 267.796 388.535 270.576L384.365 268.105C385.91 265.325 388.226 262.854 390.697 261.464L429.462 239.07L433.478 241.541Z" fill="white"/>
<path opacity="0.2" d="M399.5 269.804C399.5 269.186 399.346 268.569 399.346 268.105C401.817 267.333 403.824 269.032 403.824 272.121C403.824 275.982 401.199 280.461 397.956 282.468C395.176 284.013 392.859 283.241 392.241 280.615C392.705 280.461 393.168 280.306 393.786 279.997C396.874 278.298 399.5 273.665 399.5 269.804Z" fill="black"/>
<path d="M346.063 256.213V263.163C346.063 265.943 346.99 267.951 348.689 268.877C349.461 269.341 352.241 270.885 352.859 271.348C354.403 272.275 356.72 272.121 359.191 270.731L397.801 248.337V220.846L393.631 218.375L355.021 240.769C350.079 243.703 346.063 250.653 346.063 256.213ZM363.515 247.564C363.67 248.028 363.67 248.645 363.67 249.263C363.67 253.124 361.044 257.603 357.801 259.611C357.338 259.92 356.72 260.074 356.257 260.229C356.102 259.765 356.102 259.147 356.102 258.53C356.102 254.669 358.728 250.19 361.971 248.182C362.589 248.028 363.052 247.719 363.515 247.564Z" fill="#A19ADC"/>
<path opacity="0.2" d="M353.013 271.505C352.859 271.505 352.859 271.35 352.859 271.35C352.087 270.887 349.307 269.343 348.689 268.879C347.145 267.953 346.063 265.945 346.063 263.165V256.215C346.063 254.825 346.372 253.281 346.681 251.891C347.145 250.346 347.762 248.956 348.535 247.566L352.704 250.037C352.241 250.655 351.932 251.427 351.623 252.2C350.697 254.362 350.079 256.678 350.079 258.841V265.79C350.079 267.953 350.697 269.651 351.778 270.733C352.241 271.041 352.704 271.35 353.013 271.505Z" fill="black"/>
<path opacity="0.5" d="M397.802 221L359.191 243.394C356.72 244.784 354.558 247.255 352.859 250.035L348.689 247.564C350.234 244.784 352.55 242.313 355.022 240.923L393.632 218.529L397.802 221Z" fill="white"/>
<path opacity="0.2" d="M363.824 249.263C363.824 248.645 363.67 248.028 363.67 247.564C366.141 246.792 368.149 248.491 368.149 251.58C368.149 255.441 365.523 259.92 362.28 261.927C359.5 263.472 357.183 262.699 356.565 260.074C357.029 259.92 357.492 259.765 358.11 259.456C361.199 257.603 363.824 253.124 363.824 249.263Z" fill="black"/>
<path d="M357.801 228.107L351.623 204.014" stroke="#E0E0E0" stroke-width="3" stroke-miterlimit="10" stroke-linecap="round" stroke-linejoin="round"/>
<path d="M340.35 238.3L317.338 220.076" stroke="#E0E0E0" stroke-width="3" stroke-miterlimit="10" stroke-linecap="round" stroke-linejoin="round"/>
<path d="M335.562 258.377L308.689 260.539" stroke="#E0E0E0" stroke-width="3" stroke-miterlimit="10" stroke-linecap="round" stroke-linejoin="round"/>
<path d="M677.186 221.002C676.568 216.369 676.105 209.728 674.715 204.013C671.163 189.496 663.286 170.654 660.661 165.712C658.035 160.77 652.321 153.666 648.151 147.488C642.282 138.839 638.267 134.052 633.788 128.337C624.058 115.519 619.888 114.901 608.46 114.438C606.915 118.453 603.363 135.133 614.792 148.569L639.194 174.361C640.584 176.523 655.564 202.16 658.035 211.581C658.499 213.28 658.19 214.979 657.418 216.523C655.255 220.693 654.02 225.79 653.093 230.114C652.321 233.357 650.468 235.983 651.086 236.446C651.858 237.064 654.02 237.836 656.491 235.983C657.727 235.056 659.425 232.122 660.661 229.651C662.669 229.651 664.059 230.886 664.213 233.048C664.367 234.902 663.441 237.527 662.823 240.925C662.669 241.543 662.514 242.315 662.205 244.168C662.051 245.095 661.742 246.485 661.742 247.875C664.831 248.492 668.074 246.485 673.171 241.697C678.267 237.064 678.576 231.041 677.186 221.002Z" fill="#FFA8A7"/>
<path d="M596.258 105.634C596.413 102.545 606.451 95.286 611.394 87.564C616.027 80.4597 622.668 60.8456 607.069 54.5135C607.069 54.5135 610.467 45.0926 604.289 39.5328C598.112 33.9729 589.926 37.3706 588.691 39.6872C588.691 39.6872 586.374 29.9574 575.563 29.4941C564.752 29.0308 562.745 39.0694 562.745 39.0694C562.745 39.0694 554.25 35.2084 548.536 43.0849C542.822 50.9614 550.389 58.2201 550.389 58.2201C550.389 58.2201 546.992 60.3823 547.455 64.2433C547.918 67.641 551.161 68.4132 551.47 70.1121C551.779 71.811 549.772 72.7376 548.69 71.5021C548.69 71.5021 548.999 74.4365 552.706 74.1276C556.258 73.9731 559.501 69.031 559.501 69.031L596.258 105.634Z" fill="#263238"/>
<path d="M563.517 53.7422C558.884 55.7499 554.56 62.8542 554.56 82.4682C554.56 99.1479 559.811 103.472 562.282 104.708C564.907 105.943 570.004 105.326 574.791 104.553V114.129C574.791 114.129 565.834 125.248 573.865 130.654C594.405 127.102 595.95 113.511 595.95 113.511L596.259 92.5069C596.259 92.5069 599.039 95.4413 604.135 91.117C608.305 87.5648 609.695 81.3872 606.606 77.9895C603.517 74.5918 599.502 74.2829 595.95 78.1439C595.95 78.1439 589.309 78.6072 579.579 72.4296C569.695 66.0975 566.297 59.9198 563.517 53.7422Z" fill="#FFA8A7"/>
<path d="M575.409 92.9691C575.409 94.3591 574.482 95.4402 573.092 95.5946C571.702 95.5946 570.621 94.5135 570.621 93.1235C570.621 91.7336 571.548 90.6525 572.938 90.498C574.328 90.498 575.409 91.5791 575.409 92.9691Z" fill="#B16668"/>
<path d="M562.744 76.7531C562.744 77.9886 561.818 79.0697 560.582 79.0697C559.347 79.0697 558.266 78.1431 558.266 76.9075C558.266 75.672 559.192 74.5909 560.428 74.5909C561.663 74.4365 562.59 75.5176 562.744 76.7531Z" fill="#263238"/>
<path d="M579.887 77.8363C579.887 79.2263 578.961 80.3074 577.571 80.4618C576.181 80.6162 575.1 79.3807 575.1 77.9907C575.1 76.6008 576.026 75.5197 577.416 75.3652C578.652 75.3652 579.733 76.4463 579.887 77.8363Z" fill="#263238"/>
<path d="M561.2 67.9492L556.566 70.7292C557.184 72.1191 559.037 72.428 560.273 71.8102C561.509 70.8836 561.817 69.3392 561.2 67.9492Z" fill="#263238"/>
<path d="M596.258 75.5195V84.786C593.787 84.9404 591.779 82.9327 591.779 80.3072C591.625 77.6817 593.787 75.5195 596.258 75.5195Z" fill="#263238"/>
<path d="M568.768 74.5938L567.841 87.8757L560.892 86.1768L568.768 74.5938Z" fill="#F28F8F"/>
<path d="M574.945 104.552C580.196 103.935 590.853 101 592.552 96.6758C592.552 96.6758 591.934 99.4557 588.691 102.236C585.447 105.016 574.945 107.95 574.945 107.95V104.552Z" fill="#F28F8F"/>
<path d="M637.185 1.38997C639.193 2.16218 641.046 3.08882 642.591 4.32435C644.29 5.55988 645.68 6.94986 646.606 8.64871C647.687 10.3476 648.305 12.0464 648.614 13.8997C648.923 15.753 648.614 17.7607 647.842 19.9229C647.224 21.6218 646.452 23.0117 645.371 24.0928C644.444 25.1739 643.209 25.9461 642.128 26.7183C640.892 27.3361 639.656 27.9538 638.421 28.4172C637.185 28.8805 635.95 29.3438 634.714 29.6527C633.633 30.116 632.552 30.5794 631.625 31.0427C630.699 31.6604 629.927 32.2782 629.463 33.2049C629.154 33.6682 628.846 33.9771 628.382 34.1315C627.919 34.2859 627.456 34.4404 626.992 34.2859L622.205 32.4327C621.741 32.2782 621.432 31.9693 621.124 31.506C620.969 31.0427 620.815 30.5794 621.124 30.116C621.896 28.5716 622.668 27.1816 623.749 26.1006C624.83 25.0195 626.066 24.2473 627.301 23.6295C628.537 23.0117 629.772 22.394 631.162 21.9306C632.398 21.4673 633.633 21.004 634.714 20.6951C635.795 20.2318 636.877 19.7685 637.649 19.3051C638.421 18.8418 639.039 18.0696 639.348 17.143C639.965 15.5986 639.811 13.8997 638.884 12.3553C637.958 10.8109 636.259 9.57535 634.097 8.80315C630.544 7.41318 627.147 8.18538 624.212 11.2742C623.903 11.5831 623.44 11.892 623.131 12.0464C622.822 12.2009 622.359 12.2009 621.896 11.892L616.799 10.0387C616.49 9.88424 616.181 9.57535 616.027 9.26647C615.873 8.95759 615.873 8.49427 616.027 8.03094C616.645 6.64097 617.571 5.251 619.116 4.01547C620.506 2.77994 622.205 1.8533 624.212 1.08109C626.066 0.308884 628.228 0 630.544 0C632.707 0.154441 635.023 0.463326 637.185 1.38997ZM626.22 38.3014C626.683 38.4559 626.992 38.7647 627.301 39.2281C627.456 39.6914 627.456 40.1547 627.301 40.618L625.139 46.1779C624.985 46.6412 624.676 46.9501 624.212 47.259C623.749 47.4134 623.286 47.4134 622.822 47.259L617.417 45.2513C616.954 45.0968 616.645 44.7879 616.336 44.3246C616.181 43.8613 616.181 43.398 616.336 42.9346L618.498 37.3748C618.652 36.9114 618.961 36.6026 619.425 36.2937C619.888 36.1392 620.351 36.1392 620.815 36.2937L626.22 38.3014Z" fill="#A19ADC"/>
<path d="M639.811 67.9518C640.12 68.2607 640.274 68.724 640.274 69.1873C640.274 69.6506 640.12 70.114 639.811 70.4228L635.95 74.4383C635.641 74.7472 635.178 74.9016 634.714 74.9016C634.251 74.9016 633.788 74.7472 633.479 74.4383L629.463 70.7317C629.154 70.4228 629 69.9595 629 69.4962C629 69.0329 629.154 68.5695 629.463 68.2607L633.324 64.2452C633.633 63.9363 634.097 63.7819 634.56 63.7819C635.023 63.7819 635.487 63.9363 635.795 64.2452L639.811 67.9518ZM662.977 39.8435C664.367 41.2334 665.603 42.7779 666.684 44.4767C667.61 46.1756 668.382 47.8744 668.691 49.7277C669 51.581 669 53.2799 668.537 55.1332C668.074 56.832 667.147 58.5309 665.757 60.0753C664.521 61.3108 663.44 62.2375 662.205 62.7008C660.969 63.3185 659.734 63.6274 658.344 63.7819C657.108 63.9363 655.718 63.9363 654.483 63.9363C653.247 63.9363 652.012 63.7819 650.776 63.7819C649.695 63.7819 648.614 63.7819 647.533 63.9363C646.452 64.0907 645.68 64.3996 644.907 65.0174C644.599 65.3263 644.135 65.4807 643.672 65.4807C643.209 65.4807 642.9 65.3263 642.436 65.0174L638.884 61.6197C638.575 61.3108 638.421 60.8475 638.266 60.3842C638.266 59.9208 638.421 59.4575 638.73 59.1486C639.965 58.0675 641.201 57.1409 642.436 56.6776C643.672 56.2142 645.062 55.9054 646.452 55.7509C647.842 55.5965 649.077 55.5965 650.313 55.7509C651.548 55.9054 652.784 55.9054 653.865 55.9054C654.946 55.9054 656.027 55.9054 656.954 55.7509C657.881 55.5965 658.653 55.1332 659.27 54.5154C660.352 53.2799 660.815 51.8899 660.506 50.191C660.197 48.4922 659.27 46.9478 657.726 45.4034C655.101 42.9323 652.012 42.469 648.151 43.8589C647.687 44.0134 647.224 44.1678 646.915 44.1678C646.606 44.1678 646.143 44.0134 645.834 43.5501L642.128 39.9979C641.819 39.689 641.664 39.3802 641.664 39.0713C641.664 38.7624 641.819 38.2991 642.128 37.9902C643.209 36.9091 644.599 36.1369 646.297 35.6736C647.996 35.2102 649.85 34.9014 651.703 35.0558C653.556 35.2102 655.564 35.5191 657.572 36.4458C659.579 37.218 661.278 38.2991 662.977 39.8435Z" fill="#A19ADC"/>
<g opacity="0.6">
<path d="M639.811 67.9518C640.12 68.2607 640.274 68.724 640.274 69.1873C640.274 69.6506 640.12 70.114 639.811 70.4228L635.95 74.4383C635.641 74.7472 635.178 74.9016 634.714 74.9016C634.251 74.9016 633.788 74.7472 633.479 74.4383L629.463 70.7317C629.154 70.4228 629 69.9595 629 69.4962C629 69.0329 629.154 68.5695 629.463 68.2607L633.324 64.2452C633.633 63.9363 634.097 63.7819 634.56 63.7819C635.023 63.7819 635.487 63.9363 635.795 64.2452L639.811 67.9518ZM662.977 39.8435C664.367 41.2334 665.603 42.7779 666.684 44.4767C667.61 46.1756 668.382 47.8744 668.691 49.7277C669 51.581 669 53.2799 668.537 55.1332C668.074 56.832 667.147 58.5309 665.757 60.0753C664.521 61.3108 663.44 62.2375 662.205 62.7008C660.969 63.3185 659.734 63.6274 658.344 63.7819C657.108 63.9363 655.718 63.9363 654.483 63.9363C653.247 63.9363 652.012 63.7819 650.776 63.7819C649.695 63.7819 648.614 63.7819 647.533 63.9363C646.452 64.0907 645.68 64.3996 644.907 65.0174C644.599 65.3263 644.135 65.4807 643.672 65.4807C643.209 65.4807 642.9 65.3263 642.436 65.0174L638.884 61.6197C638.575 61.3108 638.421 60.8475 638.266 60.3842C638.266 59.9208 638.421 59.4575 638.73 59.1486C639.965 58.0675 641.201 57.1409 642.436 56.6776C643.672 56.2142 645.062 55.9054 646.452 55.7509C647.842 55.5965 649.077 55.5965 650.313 55.7509C651.548 55.9054 652.784 55.9054 653.865 55.9054C654.946 55.9054 656.027 55.9054 656.954 55.7509C657.881 55.5965 658.653 55.1332 659.27 54.5154C660.352 53.2799 660.815 51.8899 660.506 50.191C660.197 48.4922 659.27 46.9478 657.726 45.4034C655.101 42.9323 652.012 42.469 648.151 43.8589C647.687 44.0134 647.224 44.1678 646.915 44.1678C646.606 44.1678 646.143 44.0134 645.834 43.5501L642.128 39.9979C641.819 39.689 641.664 39.3802 641.664 39.0713C641.664 38.7624 641.819 38.2991 642.128 37.9902C643.209 36.9091 644.599 36.1369 646.297 35.6736C647.996 35.2102 649.85 34.9014 651.703 35.0558C653.556 35.2102 655.564 35.5191 657.572 36.4458C659.579 37.218 661.278 38.2991 662.977 39.8435Z" fill="white"/>
</g>
<path d="M90.3086 456.214C95.2507 459.149 101.737 459.303 107.915 457.141L112.548 424.708L90.7719 419.148L90.3086 456.214Z" fill="#FFA8A7"/>
<path d="M125.213 487.255C125.676 487.873 125.367 491.888 124.75 492.815C123.977 493.741 120.425 496.83 113.475 496.985C106.989 497.139 101.12 495.903 97.4134 493.278C93.7068 490.652 92.008 487.873 91.8536 484.166C91.6991 480.459 92.3169 476.907 90.618 473.973C89.0736 471.193 87.0659 468.567 86.6026 467.177C85.5215 463.934 86.6026 459.146 86.6026 459.146L125.213 487.255Z" fill="#263238"/>
<path d="M109.305 455.75C109.305 457.14 109.46 458.53 109.923 459.92C110.695 462.854 111.931 465.634 113.475 468.26C114.247 469.65 115.02 471.04 115.946 472.275C117.8 474.746 120.116 476.754 122.124 479.071C124.132 481.387 125.676 484.322 125.676 487.256C125.676 492.353 120.116 493.743 115.792 494.36C111.159 494.978 106.371 494.36 101.892 492.97C96.95 491.272 93.7067 487.256 93.0889 482.314C92.9345 480.924 93.0889 479.38 92.9345 477.99C92.7801 474.746 91.2356 471.658 89.3823 468.878C88.3013 467.179 87.2202 465.634 86.6024 463.781C85.3669 460.538 86.7569 456.986 87.6835 453.897C88.6101 451.271 89.2279 448.028 90.1546 448.337C90.1546 448.955 90.1546 450.036 90.1546 450.036C90.4634 450.654 91.0812 451.117 91.2357 451.735C91.3901 452.507 91.5445 453.125 91.8534 453.897C92.3167 454.978 92.9345 455.905 94.0156 456.522C94.17 454.669 94.3245 452.661 94.4789 450.808C94.4789 450.19 94.6334 449.572 94.9422 449.109C95.4056 448.646 96.0233 448.491 96.6411 448.491C100.348 448.028 104.054 447.565 107.606 448.183C108.224 448.337 108.688 448.491 108.996 448.955C109.305 449.264 109.151 449.881 109.151 450.345C109.46 452.198 109.305 454.051 109.305 455.75Z" fill="#A19ADC"/>
<path opacity="0.2" d="M109.305 455.75C109.305 457.14 109.46 458.53 109.923 459.92C110.695 462.854 111.931 465.634 113.475 468.26C114.247 469.65 115.02 471.04 115.946 472.275C117.8 474.746 120.116 476.754 122.124 479.071C124.132 481.387 125.676 484.322 125.676 487.256C125.676 492.353 120.116 493.743 115.792 494.36C111.159 494.978 106.371 494.36 101.892 492.97C96.95 491.272 93.7067 487.256 93.0889 482.314C92.9345 480.924 93.0889 479.38 92.9345 477.99C92.7801 474.746 91.2356 471.658 89.3823 468.878C88.3013 467.179 87.2202 465.634 86.6024 463.781C85.3669 460.538 86.7569 456.986 87.6835 453.897C88.6101 451.271 89.2279 448.028 90.1546 448.337C90.1546 448.955 90.1546 450.036 90.1546 450.036C90.4634 450.654 91.0812 451.117 91.2357 451.735C91.3901 452.507 91.5445 453.125 91.8534 453.897C92.3167 454.978 92.9345 455.905 94.0156 456.522C94.17 454.669 94.3245 452.661 94.4789 450.808C94.4789 450.19 94.6334 449.572 94.9422 449.109C95.4056 448.646 96.0233 448.491 96.6411 448.491C100.348 448.028 104.054 447.565 107.606 448.183C108.224 448.337 108.688 448.491 108.996 448.955C109.305 449.264 109.151 449.881 109.151 450.345C109.46 452.198 109.305 454.051 109.305 455.75Z" fill="black"/>
<path d="M114.094 469.496C112.24 467.951 108.07 467.797 105.599 467.797C102.665 467.951 100.194 468.878 98.804 469.805C98.1862 470.268 97.414 470.114 96.7962 469.496C96.1785 468.878 96.3329 467.797 97.1051 467.334C98.6495 466.407 101.275 465.017 104.673 465.017C110.387 464.863 112.086 465.944 112.086 465.944C112.086 465.944 114.711 467.797 114.094 469.496Z" fill="#455A64"/>
<path d="M118.263 474.9C115.947 473.356 111.313 473.356 108.842 473.51C105.908 473.665 103.591 474.746 102.201 475.672C101.584 476.136 100.811 475.981 100.194 475.364C99.5759 474.746 99.7304 473.665 100.503 473.201C102.047 472.275 104.827 470.73 108.225 470.576C113.939 470.421 115.483 471.657 115.483 471.657C115.483 471.657 117.954 472.738 118.263 474.9Z" fill="#455A64"/>
<path d="M102.818 459.456C106.834 459.301 108.533 459.765 109.923 460.382C110.849 461 111.467 462.699 110.849 463.008C109.614 462.236 107.297 461.772 104.517 461.772C102.664 461.772 100.193 462.39 98.185 463.162C97.7217 463.317 97.104 463.626 96.4862 463.935C95.714 464.243 94.9418 463.935 94.6329 463.317C94.324 462.699 94.6329 462.081 95.2507 461.772C96.7951 460.846 99.575 459.61 102.818 459.456Z" fill="#455A64"/>
<path d="M151.312 444.012C155.019 453.433 161.042 450.498 170 445.093L171.39 412.815L148.532 410.652L151.312 444.012Z" fill="#FFA8A7"/>
<path d="M204.44 466.714C204.904 467.795 204.595 469.957 203.977 471.193C203.205 472.428 196.101 475.98 186.834 474.899C177.568 473.818 171.236 469.648 167.838 467.023C164.44 464.397 160.734 463.779 156.1 463.316C151.467 462.853 147.915 461.154 147.143 458.992C146.216 456.83 147.606 453.123 147.606 453.123L204.44 466.714Z" fill="#263238"/>
<path d="M167.992 437.063C168.919 436.908 169.536 436.599 170.463 436.29C170.926 436.136 171.39 435.981 171.853 436.136C172.471 436.445 172.625 437.063 172.78 437.68C173.089 438.916 173.089 440.615 173.552 441.85C174.015 442.931 175.251 444.012 176.023 444.785C178.185 446.792 180.656 448.491 183.282 450.036C186.216 451.889 189.151 453.279 192.239 454.823C195.328 456.522 199.653 457.603 202.124 459.456C205.676 462.082 205.83 468.414 201.506 470.576C197.799 472.43 188.069 474.283 178.34 470.885C172.934 469.032 167.22 462.854 160.116 461.928C155.637 461.31 149.614 460.692 146.834 456.985C145.907 455.441 146.679 450.962 147.451 445.711C148.224 441.078 148.841 433.665 150.386 434.128L150.54 435.518C150.54 435.518 151.93 437.217 152.394 437.68C152.857 438.144 153.166 438.453 153.629 438.916C154.247 439.534 154.556 439.997 155.173 440.615C155.946 441.232 156.872 441.696 157.799 441.696C158.262 441.696 158.726 441.696 159.189 441.387C159.961 440.924 160.116 439.997 160.733 439.379C161.506 438.607 162.278 438.144 163.204 437.68C164.44 437.217 165.984 436.908 167.374 436.908C167.529 437.063 167.838 437.063 167.992 437.063Z" fill="#A19ADC"/>
<path opacity="0.2" d="M167.992 437.063C168.919 436.908 169.536 436.599 170.463 436.29C170.926 436.136 171.39 435.981 171.853 436.136C172.471 436.445 172.625 437.063 172.78 437.68C173.089 438.916 173.089 440.615 173.552 441.85C174.015 442.931 175.251 444.012 176.023 444.785C178.185 446.792 180.656 448.491 183.282 450.036C186.216 451.889 189.151 453.279 192.239 454.823C195.328 456.522 199.653 457.603 202.124 459.456C205.676 462.082 205.83 468.414 201.506 470.576C197.799 472.43 188.069 474.283 178.34 470.885C172.934 469.032 167.22 462.854 160.116 461.928C155.637 461.31 149.614 460.692 146.834 456.985C145.907 455.441 146.679 450.962 147.451 445.711C148.224 441.078 148.841 433.665 150.386 434.128L150.54 435.518C150.54 435.518 151.93 437.217 152.394 437.68C152.857 438.144 153.166 438.453 153.629 438.916C154.247 439.534 154.556 439.997 155.173 440.615C155.946 441.232 156.872 441.696 157.799 441.696C158.262 441.696 158.726 441.696 159.189 441.387C159.961 440.924 160.116 439.997 160.733 439.379C161.506 438.607 162.278 438.144 163.204 437.68C164.44 437.217 165.984 436.908 167.374 436.908C167.529 437.063 167.838 437.063 167.992 437.063Z" fill="black"/>
<path d="M179.267 447.409C179.267 447.409 178.649 445.71 176.023 444.938C174.016 444.474 170.309 445.71 167.838 447.563C166.911 448.335 166.911 449.725 167.992 450.343C168.61 450.652 169.382 450.652 170 450.189C171.545 449.107 174.942 446.945 179.267 447.409Z" fill="#455A64"/>
<path d="M185.445 451.425C185.445 451.425 184.209 449.263 181.584 449.109C181.584 449.109 176.178 448.954 172.626 451.889C171.699 452.661 171.699 454.051 172.78 454.669C173.398 454.978 174.17 454.978 174.634 454.514C176.178 453.279 179.421 450.653 185.445 451.425Z" fill="#455A64"/>
<path d="M192.394 454.978C192.394 454.978 191.004 452.97 188.378 452.97C188.378 452.97 183.282 452.816 179.884 455.75C178.957 456.522 178.957 457.912 180.038 458.53C180.656 458.839 181.428 458.839 181.892 458.376C183.282 457.14 186.216 454.206 192.394 454.978Z" fill="#455A64"/>
<path d="M89.6906 369.262C90.4628 353.664 93.7061 345.633 94.1694 341.308C94.1694 341.308 95.4049 255.748 97.5671 229.802L174.17 226.559C175.251 254.358 176.332 329.108 175.714 338.992C175.097 348.413 171.236 430.575 171.236 430.575C160.425 433.973 148.842 429.031 148.842 429.031C148.842 429.031 142.355 382.39 141.428 372.042C140.038 358.76 142.201 344.243 142.201 344.243L137.258 277.679C137.258 277.679 131.39 329.262 128.455 348.722C125.058 370.961 110.695 439.842 110.695 439.842C100.347 442.467 90.3084 437.989 90.3084 437.989C90.3084 437.989 88.764 391.811 89.6906 369.262Z" fill="#455A64"/>
<path d="M137.258 277.678L138.648 268.566C143.127 267.948 154.401 260.844 161.042 254.666C161.042 254.666 155.019 264.859 142.2 271.963L142.045 344.242L137.258 277.678Z" fill="#37474F"/>
<path d="M168.764 181.457C163.513 169.565 154.556 149.642 154.556 149.642L152.239 117.209C152.239 117.209 157.336 117.363 162.123 118.136C166.911 118.908 174.633 123.541 178.031 132.19C180.656 138.676 194.247 177.904 194.247 177.904L217.877 165.395C223.9 161.534 226.062 155.202 229.923 151.495C233.784 147.943 237.645 147.325 241.97 144.391C246.139 141.456 247.993 139.14 249.074 142.074C250.155 145.008 245.367 149.487 244.441 150.723C243.514 151.804 238.881 154.275 244.75 154.584C250.618 154.893 262.665 149.178 265.599 148.097C268.533 147.171 268.225 150.568 266.68 152.576C265.136 154.738 264.981 160.916 262.51 164.314C259.885 168.02 258.495 169.565 252.78 171.881C247.529 173.889 236.564 174.507 230.85 177.75C225.135 180.993 211.545 193.349 202.433 199.681C190.232 208.175 183.282 208.793 178.494 201.997C173.707 195.047 170.463 185.626 168.764 181.457Z" fill="#FFA8A7"/>
<path d="M148.996 116.437C157.027 115.819 166.448 116.283 171.699 121.07C175.869 124.931 177.413 127.248 182.046 140.375C185.135 149.179 191.776 169.565 191.776 169.565C191.776 169.565 177.877 172.036 168.61 183.773L153.629 149.951L148.996 116.437Z" fill="#E0E0E0"/>
<path d="M194.247 177.748C188.996 179.601 185.444 183.308 184.208 185.47C184.208 185.47 184.826 179.293 193.474 175.586L194.247 177.748Z" fill="#F28F8F"/>
<path d="M129.846 115.046C129.846 115.046 124.749 114.583 118.571 116.282C111.467 118.135 98.8029 121.687 98.8029 121.687C94.7875 123.849 93.2431 130.799 92.3164 134.66C89.382 147.479 96.9497 176.359 98.1852 187.633C99.2663 198.908 96.9496 233.348 96.9496 233.348C105.598 243.387 152.394 250.028 175.097 233.348C175.097 233.348 176.024 154.12 173.861 142.845C170.464 125.702 165.367 117.517 147.606 116.436L129.846 115.046Z" fill="#F5F5F5"/>
<path d="M139.884 72.5711L134.788 75.351C134.015 73.9611 134.633 72.1078 136.023 71.3356C137.259 70.5634 139.112 71.0267 139.884 72.5711Z" fill="#263238"/>
<path d="M161.969 74.5801L157.336 71.028C158.263 69.638 160.116 69.4836 161.351 70.4102C162.587 71.3369 162.896 73.1902 161.969 74.5801Z" fill="#263238"/>
<path d="M116.409 56.3535C116.409 56.3535 111.003 57.1257 108.996 61.2956C107.297 64.8478 107.915 73.4965 110.231 82.9174C112.548 92.3383 114.71 98.0526 116.1 100.678C117.49 103.304 120.27 104.076 120.27 104.076L119.961 92.9561L119.498 85.234C119.498 85.234 124.44 78.4386 125.058 72.8787C125.83 65.62 124.285 62.6856 124.285 62.6856L116.409 56.3535Z" fill="#263238"/>
<path d="M125.367 67.164C125.367 78.7471 134.788 88.0136 146.371 88.0136C157.954 88.0136 166.603 78.5926 166.448 67.0096C166.448 55.4265 157.645 46.3145 146.217 46.3145C134.634 46.3145 125.213 55.5809 125.367 67.164Z" fill="#263238"/>
<path d="M119.807 83.689C117.953 85.3879 116.409 81.0635 114.865 79.5191C113.32 77.8203 108.069 75.6581 105.598 81.0635C102.973 86.6234 107.915 94.3455 111.776 95.8899C116.1 97.5887 118.571 93.8822 118.571 93.8822V118.593C124.44 129.249 134.942 128.94 140.656 128.323C146.216 127.705 147.452 121.836 143.436 117.203V109.481C143.436 109.481 149.768 110.407 152.857 109.944C157.954 109.172 160.734 105.311 162.278 99.7509C164.749 90.7933 165.676 75.8125 162.278 58.5151C156.564 54.0363 136.641 54.8085 124.594 62.3761C125.212 77.8203 121.814 82.1446 119.807 83.689Z" fill="#FFA8A7"/>
<path d="M163.05 49.7118C163.822 46.4686 164.131 43.2253 164.131 39.8276C164.131 38.5921 163.822 36.8932 162.587 36.4299C161.351 35.9666 160.116 36.8932 159.189 37.511C154.71 40.4454 149.151 41.372 143.9 41.6809C134.633 42.1442 120.424 41.5265 115.791 51.7196C114.556 54.4995 114.247 57.4339 116.872 59.4416C119.034 61.1405 121.969 61.9127 124.594 62.376C129.228 63.1482 133.861 64.2293 138.649 64.8471C143.436 65.4649 148.996 66.0826 153.784 64.6926C157.799 63.4571 161.815 62.376 164.749 59.2872C167.22 56.5073 168.765 52.9551 168.765 49.2485C168.765 48.7852 168.61 48.013 168.147 47.8586C167.838 47.8586 167.683 47.8586 167.375 48.013C165.676 48.4763 164.44 49.0941 163.05 49.7118Z" fill="#263238"/>
<path d="M143.281 109.482C143.281 109.482 131.853 107.165 127.837 105.157C125.212 103.767 122.895 101.296 122.277 99.752C122.277 99.752 123.05 103.15 125.521 106.238C128.455 109.945 143.436 112.725 143.436 112.725L143.281 109.482Z" fill="#F28F8F"/>
<path d="M140.964 80.1333C140.964 81.6777 139.883 82.7588 138.338 82.7588C136.948 82.7588 135.713 81.5233 135.713 80.1333C135.713 78.5889 136.794 77.5078 138.338 77.5078C139.728 77.5078 140.964 78.5889 140.964 80.1333Z" fill="#263238"/>
<path d="M144.672 97.8988C144.672 99.2888 143.591 100.37 142.201 100.37C140.811 100.37 139.729 99.2888 139.729 97.8988C139.729 96.5088 140.811 95.4277 142.201 95.4277C143.591 95.4277 144.672 96.5088 144.672 97.8988Z" fill="#B16668"/>
<path d="M137.722 71.9511L132.471 75.3488C131.544 73.8044 132.007 71.7966 133.552 70.87C134.942 69.9433 136.795 70.4067 137.722 71.9511Z" fill="#263238"/>
<path d="M156.41 68.707L161.97 71.1781C161.352 72.7225 159.498 73.4947 157.954 72.7225C156.564 72.1047 155.792 70.2514 156.41 68.707Z" fill="#263238"/>
<path d="M159.498 79.3618C159.498 80.7518 158.417 81.9873 157.027 81.9873C155.637 81.9873 154.556 80.9062 154.556 79.3618C154.556 77.9719 155.637 76.7363 157.027 76.7363C158.262 76.7363 159.343 77.9719 159.498 79.3618Z" fill="#263238"/>
<path d="M146.834 75.0391L147.761 92.182L155.792 90.0199L146.834 75.0391Z" fill="#F28F8F"/>
<path d="M2.58596 145.783C5.21146 147.173 16.1768 154.895 22.0455 155.513C24.5166 155.822 25.2888 155.359 25.1344 154.741C24.9799 153.814 23.4355 152.424 22.9722 151.806C22.3544 150.571 18.339 145.32 19.8834 142.54C21.4278 139.76 22.8178 142.386 26.5243 146.092C30.2309 149.644 33.9375 150.88 37.1808 155.204C40.4241 159.374 41.5051 166.015 46.7561 170.803L68.069 185.32C68.069 185.32 77.9533 139.297 82.2776 133.891C86.9108 128.177 106.834 140.687 102.664 158.756C98.4939 176.826 89.073 208.332 82.432 214.51C78.1077 218.525 69.1501 214.664 58.0303 204.78C49.2272 196.903 37.0263 185.011 31.9298 180.841C26.8332 176.671 16.1768 174.355 11.2347 171.575C5.98367 168.486 4.74814 166.633 2.7404 162.617C0.88711 158.756 1.65932 152.579 0.578228 150.262C-0.50286 147.637 -0.193979 144.239 2.58596 145.783Z" fill="#FFA8A7"/>
<path d="M98.8031 121.689C105.599 126.014 105.907 132.191 106.371 139.296C106.68 145.782 105.444 154.894 102.51 163.697C99.5753 172.655 95.0965 189.026 95.0965 189.026C95.0965 189.026 77.3358 189.489 68.0693 181.458C68.0693 181.458 72.2392 163.852 75.1736 150.57C78.108 137.442 81.6602 123.234 98.8031 121.689Z" fill="#E0E0E0"/>
<path d="M68.0693 185.164C72.857 187.79 75.7914 193.659 76.718 195.975C76.718 195.975 76.5636 187.79 68.6871 182.848L68.0693 185.164Z" fill="#F28F8F"/>
<path d="M252.936 518.914L372.164 587.795V613.123L252.936 544.397V518.914Z" fill="#A19ADC"/>
<path opacity="0.35" d="M252.936 518.914L372.164 587.795V613.123L252.936 544.397V518.914Z" fill="black"/>
<path d="M491.393 518.914L372.164 587.795V613.123L491.393 544.397V518.914Z" fill="#A19ADC"/>
<path opacity="0.2" d="M491.393 518.914L372.164 587.795V613.123L491.393 544.397V518.914Z" fill="black"/>
<path d="M491.393 518.914L372.164 450.188L252.936 518.914L372.164 587.795L491.393 518.914Z" fill="#A19ADC"/>
<path opacity="0.15" d="M491.393 518.914L372.164 450.188L252.936 518.914L372.164 587.795L491.393 518.914Z" fill="black"/>
<path opacity="0.1" d="M372.164 587.795V580.536L265.445 518.914H252.936L372.164 587.795Z" fill="black"/>
<path opacity="0.1" d="M372.164 450.188V457.446L478.728 518.914H491.393L372.164 450.188Z" fill="black"/>
<path d="M491.393 518.914H478.728L372.164 580.536V587.795L491.393 518.914Z" fill="#A19ADC"/>
<path d="M372.164 450.188V457.446L265.445 518.914H252.936L372.164 450.188Z" fill="#A19ADC"/>
<path d="M372.628 489.107L423.903 518.605C427.764 520.767 427.764 524.474 423.903 526.636L385.601 548.875C381.74 551.038 375.563 551.038 371.701 548.875L320.427 519.377C316.566 517.215 316.566 513.508 320.427 511.346L358.574 489.261C362.589 486.945 368.767 486.945 372.628 489.107Z" fill="#37474F"/>
<path d="M385.601 548.876L422.512 527.563L372.628 498.682C368.767 496.52 362.589 496.52 358.728 498.682L321.816 519.995L371.701 548.876C375.562 551.038 381.74 551.038 385.601 548.876Z" fill="#455A64"/>
<path d="M341.585 519.069L363.979 506.096C364.752 505.632 365.987 505.632 366.605 506.096L369.385 507.64C370.157 508.103 370.157 508.721 369.385 509.184L346.991 522.157C346.219 522.621 344.983 522.621 344.365 522.157L341.585 520.613C340.968 520.15 340.968 519.377 341.585 519.069Z" fill="#263238"/>
<path d="M375.1 538.375L397.494 525.402C398.266 524.939 399.501 524.939 400.119 525.402L402.899 526.947C403.671 527.41 403.671 528.028 402.899 528.491L380.505 541.464C379.733 541.927 378.497 541.927 377.88 541.464L375.1 539.92C374.327 539.456 374.327 538.839 375.1 538.375Z" fill="#263238"/>
<path d="M320.427 569.105C320.427 564.781 317.338 559.53 313.631 557.368C311.778 556.287 310.079 556.132 308.843 556.904C308.535 557.059 306.218 558.449 305.909 558.603C304.674 559.376 303.901 560.766 303.901 562.928C303.901 567.252 306.99 572.503 310.697 574.665C312.55 575.746 314.249 575.901 315.484 575.129C315.793 574.974 318.11 573.584 318.419 573.43C319.654 572.658 320.427 571.268 320.427 569.105Z" fill="#A19ADC"/>
<path opacity="0.1" d="M310.697 559.066C314.403 561.228 317.492 566.479 317.492 570.804C317.492 575.128 314.403 576.827 310.697 574.665C306.99 572.503 303.901 567.252 303.901 562.927C303.901 558.603 306.99 556.904 310.697 559.066Z" fill="black"/>
<path d="M232.394 608.49C224.672 608.49 216.796 606.791 210.773 603.239L131.699 557.524C125.367 553.818 121.814 548.721 121.814 543.316C121.814 537.756 125.367 532.659 131.699 529.107L223.282 476.288C233.321 470.42 241.815 455.748 241.815 444.164V154.124C241.815 152.425 243.205 151.035 244.904 151.035C246.603 151.035 247.993 152.425 247.993 154.124V444.01C247.993 458.064 238.572 474.435 226.371 481.385L134.788 534.204C130.463 536.675 127.992 539.918 127.992 543.161C127.992 546.405 130.463 549.493 134.788 552.119L213.861 597.833C224.055 603.702 240.734 603.702 250.927 597.833L309.306 564.165C310.85 563.239 312.704 563.856 313.476 565.246C314.403 566.791 313.785 568.644 312.395 569.416L254.016 603.084C247.838 606.637 240.116 608.49 232.394 608.49Z" fill="#37474F"/>
<path d="M93.5517 43.2347C93.3973 42.7714 93.5517 42.4625 93.8606 41.9992C94.1695 41.6903 94.4784 41.3814 94.9417 41.3814L102.509 39.9914C102.973 39.837 103.282 39.9914 103.745 40.3003C104.054 40.6092 104.363 40.9181 104.517 41.3814L105.753 47.4046C105.907 47.8679 105.753 48.1768 105.444 48.6401C105.135 48.949 104.826 49.2579 104.363 49.4123L96.795 50.8023C96.3317 50.9568 96.0228 50.8023 95.5594 50.4934C95.2506 50.1846 94.9417 49.8757 94.9417 49.4123L93.5517 43.2347ZM87.3741 10.802C87.2196 10.3387 87.3741 10.0298 87.6829 9.56652C87.9918 9.25763 88.3007 8.94875 88.764 8.79431L96.3316 7.40434C96.795 7.2499 97.1039 7.40434 97.5672 7.71322C97.8761 8.0221 98.1849 8.33099 98.3394 8.79431L102.973 34.4315C103.127 34.8949 102.973 35.2038 102.664 35.6671C102.355 35.976 102.046 36.2848 101.583 36.4393L94.015 37.8293C93.5517 37.9837 93.2428 37.8293 92.7795 37.5204C92.4706 37.2115 92.1617 36.9026 92.0073 36.4393L87.3741 10.802Z" fill="#A19ADC"/>
<path d="M81.0426 68.4092C80.7337 68.1003 80.5792 67.637 80.5792 67.1737C80.5792 66.7104 80.7337 66.4015 81.0426 66.0926L86.7569 60.996C87.0658 60.6872 87.5291 60.5327 87.9924 60.5327C88.4557 60.5327 88.7646 60.6872 89.0735 60.996L93.2434 65.6293C93.5523 65.9382 93.7067 66.4015 93.7067 66.8648C93.7067 67.3281 93.5523 67.637 93.2434 67.9459L87.5291 73.0424C87.2202 73.3513 86.7569 73.5058 86.2935 73.5058C85.8302 73.5058 85.5213 73.3513 85.2125 73.0424L81.0426 68.4092ZM58.9575 43.8531C58.6486 43.5442 58.4941 43.0809 58.4941 42.6175C58.4941 42.1542 58.6486 41.8453 58.9575 41.5364L64.6718 36.4399C64.9807 36.131 65.444 35.9766 65.9073 35.9766C66.3706 35.9766 66.6795 36.131 66.9884 36.4399L84.4403 55.8995C84.7491 56.2084 84.9036 56.6717 84.9036 57.135C84.9036 57.5983 84.7491 57.9072 84.4403 58.2161L78.7259 63.3127C78.4171 63.6215 77.9537 63.776 77.4904 63.776C77.0271 63.776 76.7182 63.6215 76.4093 63.3127L58.9575 43.8531Z" fill="#A19ADC"/>
<g opacity="0.6">
<path d="M81.0426 68.4092C80.7337 68.1003 80.5792 67.637 80.5792 67.1737C80.5792 66.7104 80.7337 66.4015 81.0426 66.0926L86.7569 60.996C87.0658 60.6872 87.5291 60.5327 87.9924 60.5327C88.4557 60.5327 88.7646 60.6872 89.0735 60.996L93.2434 65.6293C93.5523 65.9382 93.7067 66.4015 93.7067 66.8648C93.7067 67.3281 93.5523 67.637 93.2434 67.9459L87.5291 73.0424C87.2202 73.3513 86.7569 73.5058 86.2935 73.5058C85.8302 73.5058 85.5213 73.3513 85.2125 73.0424L81.0426 68.4092ZM58.9575 43.8531C58.6486 43.5442 58.4941 43.0809 58.4941 42.6175C58.4941 42.1542 58.6486 41.8453 58.9575 41.5364L64.6718 36.4399C64.9807 36.131 65.444 35.9766 65.9073 35.9766C66.3706 35.9766 66.6795 36.131 66.9884 36.4399L84.4403 55.8995C84.7491 56.2084 84.9036 56.6717 84.9036 57.135C84.9036 57.5983 84.7491 57.9072 84.4403 58.2161L78.7259 63.3127C78.4171 63.6215 77.9537 63.776 77.4904 63.776C77.0271 63.776 76.7182 63.6215 76.4093 63.3127L58.9575 43.8531Z" fill="white"/>
</g>
</svg>
