<svg xmlns="http://www.w3.org/2000/svg" xmlns:xlink="http://www.w3.org/1999/xlink" width="248.946" height="188.464" viewBox="0 0 248.946 188.464">
  <defs>
    <clipPath id="clip-path">
      <rect id="Rectangle_1966" data-name="Rectangle 1966" width="248.946" height="188.464" fill="none"/>
    </clipPath>
  </defs>
  <g id="Group_6495" data-name="Group 6495" transform="translate(0 0.002)">
    <g id="Group_6494" data-name="Group 6494" transform="translate(0 -0.002)" clip-path="url(#clip-path)">
      <path id="Path_1182" data-name="Path 1182" d="M376,188.144c9.071-31.362,12.964-77.624.02-107.6C367.3,60.34,353.83,54.2,339.11,48.363c-12.507-4.956-19.249-20.115-29.22-30.8C295.745,2.414,277.156.035,260.2,0c-20.559-.044-44.3,2.84-61.363,21.55-9.7,10.63-17.713,26.2-17.232,44.769.422,16.294,5.683,30.455-5.378,41.47-9.194,9.155-17.494,16.672-21.116,33.263-3.41,15.619-1.939,35.779,6.974,46.974Z" transform="translate(-135.387 0.002)" fill="#ebf3fa"/>
      <path id="Path_1183" data-name="Path 1183" d="M66.378,1297.467s4.227-4.931.261-8.063c0,0-2.9-1.754-5.259-1.611,0,0,3.347,5.612,2.264,6.171s-3.279-6.523-3.279-6.523-6.592-.639-8.713.38c0,0,5.636,4.612,4.449,4.886s-7.274-4.252-7.274-4.252-6.135,1.044-5.808,4.787,2.441,4.9,3.37,4.8,6.365-2.175,6.483-1.413-3.153,3.25-5.445,3.366c0,0,4.326,4.771,7.2,3.394s3.12-3.559,4.912-4.378,3.322-.817,2.582.018-3.983,1.646-5.008,3.459-1.944,3.036,1.03,2.588,7.809-2.624,8.021-5.116Z" transform="translate(-37.951 -1135.939)" fill="#c8dbf4"/>
      <path id="Path_1184" data-name="Path 1184" d="M68.762,1338.926s16.665-.642,20.345,4.124a12.052,12.052,0,0,0,3.318,4.657l.39,1.064s-2.888-3.045-3.921-3.229c0,0,1.616-5.9-20.133-6.616" transform="translate(-60.68 -1181.522)" fill="#c8dbf4"/>
      <path id="Path_1185" data-name="Path 1185" d="M263.02,1410.7a10.465,10.465,0,0,1,3.825,7.372l-.649.058s-1.142-4.887-3.207-6.8.031-.632.031-.632" transform="translate(-231.274 -1244.516)" fill="#c8dbf4"/>
      <path id="Path_1186" data-name="Path 1186" d="M334.389,1190.754s-6.723-3.765-3.586-8.875c0,0,2.51-3.138,5.2-3.944,0,0-1.434,7.62,0,7.8s.986-8.606.986-8.606,7.082-3.406,9.861-3.138c0,0-4.393,7.441-2.958,7.261s6.365-7.709,6.365-7.709,7.261-1.345,8.427,2.958-.717,6.454-1.793,6.723-7.978.179-7.8,1.076,4.841,2.331,7.44,1.524c0,0-2.869,7.082-6.634,6.723s-4.931-2.689-7.261-2.869-4.034.448-2.869,1.076,5.11.206,6.992,1.806,3.407,2.586-.09,3.3-9.771.269-11.026-2.421Z" transform="translate(-291.185 -1035.428)" fill="#c8dbf4"/>
      <path id="Path_1187" data-name="Path 1187" d="M375.09,1211.645s-18.825,6.1-20.977,12.909a14.3,14.3,0,0,1-1.793,6.544v1.345s1.972-4.572,3.048-5.2c0,0-4.213-5.917,19.722-15.6" transform="translate(-310.908 -1069.228)" fill="#c8dbf4"/>
      <path id="Path_1188" data-name="Path 1188" d="M339.12,1370.862a12.416,12.416,0,0,0-1.248,9.775l.747-.2s-.725-5.911.794-8.884-.293-.691-.293-.691" transform="translate(-297.709 -1208.991)" fill="#c8dbf4"/>
      <path id="Path_1189" data-name="Path 1189" d="M32.509,1104.986s8.863-4.963,4.727-11.7c0,0-3.309-4.136-6.854-5.2,0,0,1.891,10.044,0,10.281s-1.3-11.344-1.3-11.344-9.335-4.49-13-4.136c0,0,5.79,9.808,3.9,9.572s-8.39-10.162-8.39-10.162-9.572-1.772-11.108,3.9.945,8.508,2.363,8.863,10.517.236,10.281,1.418-6.381,3.073-9.808,2.009c0,0,3.781,9.335,8.744,8.863s6.5-3.545,9.572-3.781,5.318.591,3.782,1.418-6.736.271-9.217,2.381-4.49,3.409.118,4.355,12.88.355,14.535-3.191Z" transform="translate(0 -954.852)" fill="#d4e4f8"/>
      <path id="Path_1190" data-name="Path 1190" d="M41.322,1132.523s24.815,8.036,27.651,17.016a18.85,18.85,0,0,0,2.363,8.626v1.773s-2.6-6.027-4.018-6.854c0,0,5.554-7.8-26-20.561" transform="translate(-36.465 -999.406)" fill="#d4e4f8"/>
      <path id="Path_1191" data-name="Path 1191" d="M287.776,1342.4a16.367,16.367,0,0,1,1.645,12.885l-.985-.264s.956-7.792-1.047-11.71.386-.911.386-.911" transform="translate(-252.905 -1183.641)" fill="#d4e4f8"/>
      <path id="Path_1192" data-name="Path 1192" d="M148.774,1460.485a17.361,17.361,0,0,1-17.361-17.361h34.721a17.361,17.361,0,0,1-17.36,17.361" transform="translate(-115.967 -1273.499)" fill="#d4e4f8"/>
      <path id="Path_1193" data-name="Path 1193" d="M129.375,1582.257h35.2a2.142,2.142,0,0,0-2.142-2.142H131.517a2.142,2.142,0,0,0-2.142,2.142" transform="translate(-114.168 -1394.388)" fill="#d4e4f8"/>
      <rect id="Rectangle_1965" data-name="Rectangle 1965" width="35.687" height="0.533" transform="translate(15.052 169.625)" fill="#9fc1f4"/>
      <path id="Path_1194" data-name="Path 1194" d="M610.87,856.6a150.28,150.28,0,0,0-2-19.759c-1.434-7.716-2.725-12.155-2.74-12.2-.189-.679-2.918-3.424-8.985-3.339s-5.491,3.685-5.491,3.685a1.092,1.092,0,0,0,.043.32,161.569,161.569,0,0,1,5.386,43.236c0,.341-.044.93-.019,1.321,0,0,14.059.338,14.063,0,.49-2.12.251-8-.258-13.262" transform="translate(-522.098 -724.763)" fill="#b7d3f3"/>
      <path id="Path_1195" data-name="Path 1195" d="M624.417,868.422c0,.338-.2.609-.43.609h-.006c-.234-.005-.42-.276-.423-.609H611.51c0,.338-.2.609-.43.609h-.006c-.238-.005-.427-.285-.424-.627a157.7,157.7,0,0,0-1-19.153,141.24,141.24,0,0,0-4.6-23.945,1.115,1.115,0,0,1-.043-.32s-.575-3.6,5.491-3.685,8.8,2.661,8.986,3.34c.011.036.742,2.549,1.714,7.068.322,1.5.669,3.214,1.026,5.133a150.413,150.413,0,0,1,2,19.76c.51,5.267.689,9.7.2,11.822" transform="translate(-533.877 -724.763)" fill="#d2e3fc"/>
      <path id="Path_1196" data-name="Path 1196" d="M645.572,1200.459H692.81s-1.1-4.142-28.457-3.526c-19.36.437-18.781,3.526-18.781,3.526" transform="translate(-569.69 -1056.191)" fill="#c5dcf8"/>
      <path id="Path_1197" data-name="Path 1197" d="M612.875,1275.482c5.477-25.8,4.069-41.633,4.062-41.832-.014-.4.773-.758,1.2-.771s2.319-.117,2.538.223c.287.445,1.39,19.952-6.773,42.38Z" transform="translate(-540.838 -1087.946)" fill="#b7d3f3"/>
      <path id="Path_1198" data-name="Path 1198" d="M927.989,1275.482c-5.477-25.8-4.069-41.633-4.062-41.832.014-.4-.773-.758-1.2-.771s-2.319-.117-2.538.223c-.286.445-1.39,19.952,6.773,42.38Z" transform="translate(-811.846 -1087.946)" fill="#b7d3f3"/>
      <path id="Path_1199" data-name="Path 1199" d="M1002.352,1275.482c-5.477-25.8-4.069-41.633-4.062-41.832.014-.4-.773-.758-1.2-.771s-2.319-.117-2.538.223c-.287.445-1.39,19.952,6.773,42.38Z" transform="translate(-877.469 -1087.946)" fill="#b7d3f3"/>
      <path id="Path_1200" data-name="Path 1200" d="M687.739,1275.482c5.477-25.8,4.069-41.633,4.062-41.832-.014-.4.773-.758,1.2-.771s2.319-.117,2.538.223c.287.445,1.39,19.952-6.773,42.38Z" transform="translate(-606.902 -1087.946)" fill="#b7d3f3"/>
      <path id="Path_1201" data-name="Path 1201" d="M685.831,1220.682H638.525a.936.936,0,0,1-.934-.933v-.526a.936.936,0,0,1,.934-.933h47.306a.936.936,0,0,1,.933.933v.526a.936.936,0,0,1-.933.933" transform="translate(-562.648 -1075.091)" fill="#b7d3f3"/>
      <path id="Path_1202" data-name="Path 1202" d="M678.838,497.918c-.137-.322-1.737-3.745-7.169-1.877,0,0,2.757-.695,3.656.29,0,0-2.343-.745-3.629.275s-1.164,3.91-.85,4.756,2.165,3.251,3.182,3.126a3.03,3.03,0,0,0,1.124-.429,13.493,13.493,0,0,0-.228,1.561c-.458,5.211,3.391,8.658,5.02,7.491,1.045-.749,2.132,1.108,2.132,1.108l7.788-13.456s-7.428-6.99-11.027-2.845" transform="translate(-591.811 -437.247)" fill="#2c3a64"/>
      <path id="Path_1203" data-name="Path 1203" d="M771.083,661.592c-7.377,3.3-12.922-8.34-12.44-8.459.737-.834,1.5-3.807.958-8.085l.383.026,6.415.475s.1,1.99.321,3.846a11,11,0,0,0,.607,2.891,6.091,6.091,0,0,0,1.47.354c.108.118,4.254,8.072,2.286,8.951" transform="translate(-669.445 -569.229)" fill="#d17b34"/>
      <path id="Path_1204" data-name="Path 1204" d="M1167.722,1544.27h-12.927a7.1,7.1,0,0,1,.365-3.465c.647-1.434,1.06-1.827.357-3.486.821.846,3.221,1.457,5.09,1.206a14.177,14.177,0,0,0,2.243,2.908c.845.607,4.612.391,4.872,2.837" transform="translate(-1018.997 -1356.622)" fill="#233862"/>
      <path id="Path_1205" data-name="Path 1205" d="M974.065,1539.1H961.138a7.1,7.1,0,0,1,.365-3.465c.647-1.434,1.908-2.393,2.278-4.048.821.846,1.3,2.019,3.169,1.768a14.172,14.172,0,0,0,2.243,2.908c.845.607,4.612.391,4.872,2.837" transform="translate(-848.103 -1351.565)" fill="#233862"/>
      <path id="Path_1206" data-name="Path 1206" d="M907.151,784.037l-.006,2.577s-.866.073-2.245.186c-.414.031-.654.035-.654.035-1.105.08-2.437.139-3.887.209l-.02.005c-2.5.073-5.3.11-7.718-.041-.217-.016-.431-.032-.64-.05a18.613,18.613,0,0,1-3.647-.619,2.413,2.413,0,0,1-.313-.115,55.41,55.41,0,0,1-18.662-18.554c-1.438-5.446,3.281-6.257,16.005,7.879,3.7,4.113,5.907,3.958,7.275,4.473.362.138.749.276,1.153.417,2.246.774,5.049,1.554,7.521,2.182,1.213.315,2.354.59,3.3.816,1.529.37,2.538.6,2.538.6" transform="translate(-766.954 -674.216)" fill="#d17b34"/>
      <path id="Path_1207" data-name="Path 1207" d="M686.657,1052.377s-2.9,9.041,3.572,13.328c8.672,5.746,32.718.848,35.462,3.783.7.743-1.407,1.119-2.592,11.743-1.705,15.28-3.087,23.827-3.087,23.827a3.943,3.943,0,0,0,2.118,2.649,4.556,4.556,0,0,0,2.709.226s17.661-38.776,15.9-44.156c-3.047-9.317-19.914-8.4-39.466-13.908-11.939-3.362-14.618,2.508-14.618,2.508" transform="translate(-605.375 -925.55)" fill="#93312c"/>
      <path id="Path_1208" data-name="Path 1208" d="M691.677,1065.38c8.586-.794,32.014-1.2,37.081,2.283,6.236,4.284,14.711,53.278,14.711,53.278a4.157,4.157,0,0,1-2.069.657,16.363,16.363,0,0,1-4.182-.715s-13.931-22.066-14.769-27.587-.407-10.43-2.763-10.6-34.735,3.567-37.5-5.3a22.933,22.933,0,0,1,.429-13.619s1.141,2.325,9.062,1.593" transform="translate(-601.243 -938.749)" fill="#b5453c"/>
      <path id="Path_1209" data-name="Path 1209" d="M696.432,730.309c1.508,9.16.912,20.992.912,20.992-8.769,13.537-33.18,9.466-33.18,9.466-.538-5.132,1.523-16.545,2.774-26.7.307-2.489.565-4.9.725-7.127a44.833,44.833,0,0,1,.661-5.2c2.081-10.854,7.434-12.046,7.434-12.046,2.5,4.86,10.4,6.169,10.4,6.169a26.725,26.725,0,0,0-.787-6.219,48.35,48.35,0,0,1,5.283.973c3.074,1.005,11.614,12.507,11.614,12.507a15.493,15.493,0,0,1-5.836,7.183" transform="translate(-586.021 -626.234)" fill="#abddda"/>
      <path id="Path_1210" data-name="Path 1210" d="M776.678,645.758s.1,1.989.321,3.846c-3.517.33-5.761-2.641-6.737-4.321Z" transform="translate(-679.726 -569.436)" fill="#b56321"/>
      <path id="Path_1211" data-name="Path 1211" d="M764.5,560.034s-8.276,1.151-8.913-4.015-2.134-8.5,3.123-9.448,6.529.891,7.161,2.563.766,10.467-1.37,10.9" transform="translate(-666.164 -482.097)" fill="#d17b34"/>
      <path id="Path_1212" data-name="Path 1212" d="M747.8,539.173c-1.472-1.4-2.4-.938-2.885-.4a5.84,5.84,0,0,0-7.308,2.1,9.941,9.941,0,0,1-2.515,6.224s1.626.749,5-.573a5.967,5.967,0,0,0,2.584-2.293,19.491,19.491,0,0,1-2.833,4.474c3.927-2.433,4.891-8.426,4.983-9.059a6.545,6.545,0,0,1,2.1,2.189c.574,1.265,1.091,3.95,1.869,3.762,0,0,1.207-4.328-1-6.424" transform="translate(-648.691 -474.978)" fill="#2c3a64"/>
      <path id="Path_1213" data-name="Path 1213" d="M1192.715,923.666a7.964,7.964,0,0,0,1.672-.359,4.992,4.992,0,0,1,2.19-.653c.97.026,2.528-.616,2.482-.337s-1.4,1.221-1.469,1.383a6.36,6.36,0,0,0,2.287,2.162c.825.3,2.928.988,2.646,1.305a13.013,13.013,0,0,1-4.3.84c-.828-.079-2.5-1.442-3.351-1.7a6.228,6.228,0,0,0-2.159-.066Z" transform="translate(-1052.518 -813.845)" fill="#d17b34"/>
      <path id="Path_1214" data-name="Path 1214" d="M1241.478,947.141s2.814-.149,3.456.594l-2.181.329Z" transform="translate(-1095.554 -835.803)" fill="#d17b34"/>
      <path id="Path_1215" data-name="Path 1215" d="M1245.4,964.733l3.988.146a2.066,2.066,0,0,0-1.042-.754c-.682-.208-2.947.608-2.947.608" transform="translate(-1099.012 -850.772)" fill="#d17b34"/>
      <path id="Path_1216" data-name="Path 1216" d="M707.461,842.086c-.142-.079-16.963,1.758-19.037-17.371.307-2.489.565-4.9.725-7.127a44.79,44.79,0,0,1,.661-5.2c1.514-.234,3.331,1.395,4.145,3.813,1.676,4.978,13.462,25.675,13.505,25.882" transform="translate(-607.506 -716.882)" fill="#91cecf"/>
      <path id="Path_1217" data-name="Path 1217" d="M739.193,794.6l-.931,2.4s-.834-.243-2.162-.633c-.4-.12-.623-.2-.623-.2-1.06-.323-2.324-.746-3.7-1.2l-.021,0c-2.355-.828-4.988-1.8-7.188-2.811-.2-.093-.391-.185-.579-.277a18.63,18.63,0,0,1-3.181-1.888,2.43,2.43,0,0,1-.251-.221c-2.09-1.876-4.278-6.982-5.832-12.376-.216-.744-.413-1.487-.611-2.211a53.05,53.05,0,0,1-1.446-7.57,20.934,20.934,0,0,1-.161-3.551,8.445,8.445,0,0,1,.083-.987c.615-5.6,4.637-5.77,5.093-5.079a17.707,17.707,0,0,1,1.691,3.865c.844,2.6,1.67,5.952,2.421,9.271.419,1.82.817,3.639,1.229,5.321.227,1.019.461,1.98.681,2.862a26.863,26.863,0,0,0,1.234,3.935,9.409,9.409,0,0,0,2.156,2.39c.288.259.6.527.926.8,1.818,1.529,4.153,3.265,6.235,4.738,1.018.73,1.985,1.4,2.787,1.948,1.294.895,2.152,1.472,2.152,1.472" transform="translate(-628.736 -668.651)" fill="#d17b34"/>
      <path id="Path_1218" data-name="Path 1218" d="M928.458,1065.1s4.194-1.187,5.193-.909,4.422,2.544,3.941,3.16-3.5-.369-4.885-.182-2.461.871-3.46.723a11.58,11.58,0,0,1-2.044-.541Z" transform="translate(-818.22 -939.067)" fill="#d17b34"/>
      <path id="Path_1219" data-name="Path 1219" d="M937.87,1059.46a15.73,15.73,0,0,0,2.636-1.655.163.163,0,0,1,.255.03c.156.247.3.723-.417,1.2a3.872,3.872,0,0,1-2.474.428" transform="translate(-827.633 -933.428)" fill="#d17b34"/>
      <path id="Path_1220" data-name="Path 1220" d="M705.167,744.268s-3.911,1.9-5.276,4.5-1.533,10.9.581,21.7a15.621,15.621,0,0,0,10.539-5.944s-1.547-21.812-5.844-20.252" transform="translate(-616.727 -656.716)" fill="#abddda"/>
      <path id="Path_1221" data-name="Path 1221" d="M755.349,695.557a3.062,3.062,0,0,0-1.429,2.2s1.685,4.6,11.521,5.672c0,0-9.054-4.453-10.092-7.875" transform="translate(-665.304 -613.801)" fill="#91cecf"/>
      <path id="Path_1222" data-name="Path 1222" d="M829.806,696.652s2.482,4.559,2.411,6.78c0,0,.169-5.047-.183-6.219s-2.444-1.656-2.444-1.656Z" transform="translate(-732.08 -613.801)" fill="#91cecf"/>
      <path id="Path_1223" data-name="Path 1223" d="M815.912,635.481a2.769,2.769,0,0,0,1.911.506c1.04-.2,1.03-1.012,1.03-1.012a4.652,4.652,0,0,0-1.334,0,10.9,10.9,0,0,0-1.608.506" transform="translate(-720.01 -560.296)" fill="#fff"/>
      <path id="Path_1224" data-name="Path 1224" d="M1324.264,1222.823h-78.943a2.008,2.008,0,0,1-2-2v-2.648a2.008,2.008,0,0,1,2-2h78.943a2.008,2.008,0,0,1,2,2v2.648a2.008,2.008,0,0,1-2,2" transform="translate(-1097.18 -1073.223)" fill="#b0d4ff"/>
      <path id="Path_1225" data-name="Path 1225" d="M1818.332,1310.666h-.847l-6.565-24.853v0l-1.492-5.651,0,0-1.935-7.33,3.866-.066,1.318,7.158.986,5.361c0,.027.011.052.016.077Z" transform="translate(-1595.037 -1123.158)" fill="#d2e3fc"/>
      <path id="Path_1226" data-name="Path 1226" d="M1812.674,1279.917a10.671,10.671,0,0,0-1.754,5.892l-1.492-5.651,0,0-1.935-7.33,3.866-.066Z" transform="translate(-1595.037 -1123.158)" fill="#b0d4ff"/>
      <path id="Path_1227" data-name="Path 1227" d="M1279.473,1310.666h.847l6.565-24.853v0l1.492-5.651,0,0,1.935-7.33-3.866-.066-1.317,7.158-.986,5.361c0,.027-.011.052-.016.077Z" transform="translate(-1129.083 -1123.158)" fill="#d2e3fc"/>
      <path id="Path_1228" data-name="Path 1228" d="M1327.614,1279.917a10.673,10.673,0,0,1,1.753,5.892l1.492-5.651,0,0,1.935-7.33-3.866-.066Z" transform="translate(-1171.566 -1123.158)" fill="#b0d4ff"/>
      <path id="Path_1229" data-name="Path 1229" d="M1233.9,936.693a1.527,1.527,0,0,0-1.2-.331,4.421,4.421,0,0,1-2,.28c-.846-.151-2.3.2-2.219-.035s1.392-.883,1.47-1.016a5.631,5.631,0,0,0-1.715-2.2c-.682-.371-2.432-1.255-2.144-1.495a11.53,11.53,0,0,1,3.88-.164c.714.179,1.994,1.595,2.709,1.932a18.4,18.4,0,0,1,1.967,1.222Z" transform="translate(-1081.95 -822.141)" fill="#ffb27d"/>
      <path id="Path_1230" data-name="Path 1230" d="M1232.366,945.847s-2.484-.244-2.948-.979l1.954,0Z" transform="translate(-1084.912 -833.808)" fill="#ffb27d"/>
      <path id="Path_1231" data-name="Path 1231" d="M1227.957,928.192l-3.474-.658a1.832,1.832,0,0,0,.812.8,7.7,7.7,0,0,0,2.662-.14" transform="translate(-1080.558 -818.511)" fill="#ffb27d"/>
      <path id="Path_1232" data-name="Path 1232" d="M1324.11,801.552s-2.127-.967-8.77,5.039-11.192,12.284-14.74,12.557-12.711.291-12.711.291l-1.02,2.143s-.172.827,5.451,2.616a49.247,49.247,0,0,0,11.344,1.956c4.55-.546,15.455-7.832,17.114-10.016s3.333-14.586,3.333-14.586" transform="translate(-1135.609 -707.286)" fill="#b0d0ff"/>
      <path id="Path_1233" data-name="Path 1233" d="M1592.741,589.736s-.123-4.328,5.585-5.178,7.286.485,8.256,1.941,2.79,7.4,2.608,9.766-6.693,5.291-6.587,6.671-9.863-13.2-9.863-13.2" transform="translate(-1405.53 -515.615)" fill="#163560"/>
      <path id="Path_1234" data-name="Path 1234" d="M1288.07,1496.846c.114,1.444-1.9,1.769-4.226,1.854s-1.631.571-4.826,1.107-4.461-.353-4.687-.787c-.2-.385,1.289-.963,2.878-1.618.2-.082.4-.166.6-.25a7.459,7.459,0,0,0,3.848-3.848c.611-1.224,1.131-5.9,1.131-5.9l5.551-.769s-.981,3.636-1.426,5.353c-.262,1.01.464,2.53.778,3.4a5.665,5.665,0,0,1,.38,1.463" transform="translate(-1124.53 -1311.894)" fill="#ffb27d"/>
      <path id="Path_1235" data-name="Path 1235" d="M1283.844,1564.387c-2.328.085-1.631.571-4.826,1.107s-4.461-.354-4.687-.787c-.2-.385,1.289-.963,2.878-1.618l.024.027a9.08,9.08,0,0,0,4.828.121c2.116-.545,4.172-1.779,5.63-2.167a5.669,5.669,0,0,1,.38,1.463c.114,1.444-1.9,1.769-4.226,1.854" transform="translate(-1124.53 -1377.581)" fill="#b24940"/>
      <path id="Path_1236" data-name="Path 1236" d="M1376.5,1084.34s-28.83,1.513-33.771,5.595-4.035,43.428-4.035,43.428a3.934,3.934,0,0,0,2.457.891,22.916,22.916,0,0,0,2.821.155s5.649-19.689,5.95-24.256,1.655-12.273,3.629-12.635,25.071,3.34,27.972-3.742a15.335,15.335,0,0,0-1.035-13.22Z" transform="translate(-1181.29 -953.548)" fill="#163560"/>
      <path id="Path_1237" data-name="Path 1237" d="M1573.714,842.291c-1.239.83-4.442,1.288-8.16,1.421-6.653.242-14.955-.551-16.589-2.095a2.812,2.812,0,0,1-.69-1.9c-.18-2.553,1.039-6.753,1.858-10.229.531-2.259.894-4.209.6-5.207-.9-3.036-3.707-9.221-3.949-11.254s2.184-12.924,5.538-14.273,16.3,0,16.3,0c5.057,1.026,5.27,11.809,3.59,20.986-.044.236-.087.471-.133.7-1.82,9.319,5.1,19.525,1.638,21.841" transform="translate(-1364.957 -704.343)" fill="#b0d0ff"/>
      <path id="Path_1238" data-name="Path 1238" d="M1612.834,742.153c.091.591,1.71,1.551,5.17.638,3.316-.874,3.714-1.954,3.713-2.667,0-.844-1.441-1.981-1.422-7.174l-.4.078-6.685,1.324s.152,2.1.157,4.086c0,1.664-.686,2.731-.535,3.715" transform="translate(-1423.242 -646.799)" fill="#ffb27d"/>
      <path id="Path_1239" data-name="Path 1239" d="M1616.214,734.94s.152,2.1.157,4.086c3.741-.105,5.718-3.518,6.528-5.409Z" transform="translate(-1426.244 -647.386)" fill="#ed975d"/>
      <path id="Path_1240" data-name="Path 1240" d="M1583.456,648.722s8.85.146,8.856-5.367,1.153-9.207-4.5-9.533-6.751,1.776-7.2,3.616.54,11.1,2.842,11.285" transform="translate(-1394.735 -559.292)" fill="#ffb27d"/>
      <path id="Path_1241" data-name="Path 1241" d="M1608.374,622.848s2.423,6.468,6.142,7.424,5.332-.04,5.332-.04a27.676,27.676,0,0,1-2.239-7.283s-7.407-3.18-9.235-.1" transform="translate(-1419.325 -548.453)" fill="#163560"/>
      <path id="Path_1242" data-name="Path 1242" d="M1579.839,629.475a7.816,7.816,0,0,0-2.251,2.848c-.441,1.4-.64,4.294-1.482,4.2,0,0-1.826-4.4.226-6.883,2.176-2.637,3.507-.16,3.507-.16" transform="translate(-1390.19 -554.555)" fill="#163560"/>
      <path id="Path_1243" data-name="Path 1243" d="M1597.352,729.05s-.165.7-1.907.592c0,0-1.463-.09-1.418-.86a4.707,4.707,0,0,1,3.325.268" transform="translate(-1406.663 -642.962)" fill="#fff"/>
      <path id="Path_1244" data-name="Path 1244" d="M1434.019,1484.984c-.05,1.448-2.087,1.543-4.409,1.364s-1.685.383-4.92.553-4.393-.856-4.568-1.312c-.155-.4,1.39-.811,3.042-1.282.208-.058.416-.12.625-.181,1.862-.551,3.053-2.007,4.615-3.3,1.479-1.223-1.337-7.632-1.337-7.632l4.193-1.79s.557,4.5,1.365,8.46c.209,1.022.969,2.726,1.183,3.623a5.674,5.674,0,0,1,.212,1.5" transform="translate(-1253.191 -1298.456)" fill="#ffb27d"/>
      <path id="Path_1245" data-name="Path 1245" d="M1584.922,967.766c-1.239.83-4.442,1.288-8.16,1.421-6.136-1.4-13.123-3.021-17.279-3.991-.18-2.553,1.039-6.753,1.858-10.229,4.846,1.479,12.058-3.561,14.482-5.554,2.548-2.093,2.468-9.066,2.468-9.066l5.126,4.873c-.044.237-.087.471-.133.7-1.82,9.319,5.1,19.525,1.638,21.841" transform="translate(-1376.165 -829.818)" fill="#98baf4"/>
      <path id="Path_1246" data-name="Path 1246" d="M1429.61,1577.058c-2.322-.178-1.685.383-4.921.553s-4.393-.856-4.567-1.313c-.156-.4,1.39-.811,3.042-1.282l.021.03a9.077,9.077,0,0,0,4.783.667c2.164-.3,4.346-1.295,5.839-1.516a5.675,5.675,0,0,1,.212,1.5c-.05,1.448-2.087,1.543-4.409,1.364" transform="translate(-1253.192 -1389.166)" fill="#c65447"/>
      <path id="Path_1247" data-name="Path 1247" d="M1451.98,1119.529c-7.273-.562-29.11.073-33.441,2.964-5.331,3.557,7.522,44.313,7.522,44.313h4.125s2.4-23.665.91-28.389c-1.376-4.365-2.273-5.929-.273-6.087s26.654,4.172,29.086-3.085a17.957,17.957,0,0,0-.228-11.1s-.991,1.908-7.7,1.39" transform="translate(-1250.661 -986.713)" fill="#1c468a"/>
      <path id="Path_1248" data-name="Path 1248" d="M1614.287,803.145s5.065.43,5.459,4.433c.3,3.04,2.5,24.6.916,26.478-4.465,5.277-19.352,6.4-21.544,7.2l-.6-2.5s15.893-8.007,15.65-9.827-4.737-26.506.121-25.786" transform="translate(-1410.625 -708.729)" fill="#b0d0ff"/>
      <path id="Path_1249" data-name="Path 1249" d="M1686.958,582.976s-.363-2.309,2.839-2.906,3.263,6.207,3.606,7.848-.512,2.623-1.734,2.723-4.712-7.665-4.712-7.665" transform="translate(-1488.661 -511.856)" fill="#163560"/>
      <path id="Path_1250" data-name="Path 1250" d="M1522.667,1097.6s-4.526-1.281-5.6-.981-4.772,2.745-4.252,3.41,3.773-.4,5.271-.2,2.656.94,3.734.78a12.493,12.493,0,0,0,2.205-.583Z" transform="translate(-1334.95 -967.685)" fill="#ffb27d"/>
      <path id="Path_1251" data-name="Path 1251" d="M1572.585,1091.517a16.963,16.963,0,0,1-2.844-1.785.176.176,0,0,0-.275.032c-.169.266-.327.78.45,1.291a4.178,4.178,0,0,0,2.669.462" transform="translate(-1384.868 -961.598)" fill="#ffb27d"/>
      <path id="Path_1252" data-name="Path 1252" d="M954.98,227.084c0,7.529-8.426,13.633-18.819,13.633s-18.819-6.1-18.819-13.633,8.426-13.633,18.819-13.633,18.819,6.1,18.819,13.633" transform="translate(-809.517 -188.362)" fill="#98baf4"/>
      <path id="Path_1253" data-name="Path 1253" d="M934.085,397.39l-4.57,6.927,9.29-4.286Z" transform="translate(-820.26 -350.68)" fill="#98baf4"/>
      <path id="Path_1254" data-name="Path 1254" d="M1216.8,456.849c0,6.248,6.992,11.314,15.617,11.314s15.617-5.065,15.617-11.314-6.992-11.313-15.617-11.313S1216.8,450.6,1216.8,456.849" transform="translate(-1073.774 -393.167)" fill="#98baf4"/>
      <path id="Path_1255" data-name="Path 1255" d="M1410.758,598.179l3.792,5.748-7.709-3.556Z" transform="translate(-1241.481 -527.869)" fill="#98baf4"/>
    </g>
  </g>
</svg>
