<svg xmlns="http://www.w3.org/2000/svg" width="80%" height="80%" viewBox="0 0 326.875 248.255">
  <g id="Group_5113" data-name="Group 5113" transform="translate(-35.125 -474.828)">
    <path id="Path_784" data-name="Path 784" d="M414.415,191.852l-1.008-2.349L410.9,189a.351.351,0,0,1-.163-.608l1.922-1.685-.3-2.539a.351.351,0,0,1,.529-.343l2.2,1.307,2.322-1.068a.351.351,0,0,1,.489.4l-.565,2.493,1.734,1.878a.351.351,0,0,1-.226.588l-2.545.233-1.251,2.229a.351.351,0,0,1-.629-.033" transform="translate(-313.759 337.843)" fill="#f47458"/>
    <g id="Group_5061" data-name="Group 5061" transform="translate(68.725 474.828)">
      <path id="Path_786" data-name="Path 786" d="M509.943,6.86A6.235,6.235,0,1,1,504.365.029a6.235,6.235,0,0,1,5.578,6.831" transform="translate(-497.503 0.003)" fill="#f7cc7f"/>
      <path id="Path_787" data-name="Path 787" d="M515.04,43.033a3.334,3.334,0,1,0,6.634.67Z" transform="translate(-512.22 -36.148)" fill="#efefef"/>
    </g>
    <g id="Group_5062" data-name="Group 5062" transform="translate(173.12 588.462)">
      <path id="Path_789" data-name="Path 789" d="M818.041,58.35a5.333,5.333,0,0,1,3.918-2.357,4.129,4.129,0,0,1,4.6,3.744c.294,2.62-1.655,5.978-7.317,9.342-6.267-2.025-8.912-4.867-9.206-7.487a4.129,4.129,0,0,1,3.658-4.671,5.334,5.334,0,0,1,4.343,1.429" transform="translate(-797.136 -47.471)" fill="#f48c7f"/>
      <path id="Path_790" data-name="Path 790" d="M730.338,82.487a54.98,54.98,0,0,0,6.285-.026c.632-.039,1.739.081,2.143-.488a.666.666,0,0,0-.047-.911c-.5-.5-1.436-.232-2.073-.193-1.94.118-4.141.159-6.368.072a.78.78,0,0,0-.743.8.79.79,0,0,0,.8.743" transform="translate(-729.535 -68.303)" fill="#f48c7f"/>
      <path id="Path_791" data-name="Path 791" d="M934.833,100.617c.929-.041,1.857-.1,2.785-.154a8.524,8.524,0,0,0,2.77-.313.67.67,0,0,0-.052-1.284,8.423,8.423,0,0,0-2.779.019c-.928.058-1.857.113-2.784.186a.774.774,0,0,0,.06,1.546" transform="translate(-901.339 -83.408)" fill="#f48c7f"/>
      <path id="Path_792" data-name="Path 792" d="M784.888,139.9a9.677,9.677,0,0,1,3.475-3.521.626.626,0,0,0-.518-1.12c-1.928.419-3.478,2.258-4.328,3.938a.771.771,0,0,0,1.371.7" transform="translate(-774.807 -114.063)" fill="#f48c7f"/>
      <path id="Path_793" data-name="Path 793" d="M852.839,163.777a6.841,6.841,0,0,1,.3-2.818c.185-.56,1.2-2.15.1-2.374-1.042-.211-1.5,1.509-1.7,2.237a8.083,8.083,0,0,0-.247,3.015c.1.989,1.648.938,1.552-.06" transform="translate(-831.772 -133.66)" fill="#f48c7f"/>
      <path id="Path_794" data-name="Path 794" d="M906.1,143.939l1.613,1.036c.536.344,1.061.86,1.733.683a.685.685,0,0,0,.442-.835c-.115-.622-.96-.946-1.451-1.258l-1.618-1.025a.793.793,0,0,0-1.059.341.8.8,0,0,0,.341,1.059" transform="translate(-877.496 -120.118)" fill="#f48c7f"/>
      <path id="Path_795" data-name="Path 795" d="M798.536,10.338c-2.242-4.631-2.2-4.657-2.625-5.025a.685.685,0,0,0-1.131.529c.031.585.036.488,2.414,5.351a.8.8,0,0,0,1.1.243.815.815,0,0,0,.243-1.1" transform="translate(-784.342 -4.785)" fill="#f48c7f"/>
      <path id="Path_796" data-name="Path 796" d="M863.165,7.886a11.8,11.8,0,0,0,.526-2.474c.081-.784.31-1.975-.442-2.474a.585.585,0,0,0-.6.028c-.634.485-.437,1.534-.514,2.257a13.961,13.961,0,0,1-.471,2.33.778.778,0,0,0,.586.918.788.788,0,0,0,.919-.586" transform="translate(-840.504 -2.868)" fill="#f48c7f"/>
      <path id="Path_797" data-name="Path 797" d="M923.178,30.418a.684.684,0,0,0-.51-.8c-.654-.217-1.459.451-1.978.8a13.529,13.529,0,0,0-1.7,1.363.784.784,0,0,0,.056,1.1.8.8,0,0,0,1.1-.056c2.075-1.8,2.74-1.492,3.031-2.4" transform="translate(-888.518 -25.303)" fill="#f48c7f"/>
    </g>
    <path id="Path_799" data-name="Path 799" d="M190.843,176.434c-1.962,2.748-.151,6.744,2.681,8.03a7.636,7.636,0,0,0,9.066-2.406c2.208-2.956,1.661-6.564-1.2-8.407a4.232,4.232,0,0,0-6.6,2.856c-.406,2.2.927,3.814,2.066,3.761a.972.972,0,0,0,.678-1.7.954.954,0,0,0-1.028-.089,2.786,2.786,0,0,1,.673-3.475c1.547-1.47,3.86-.357,4.813,1.231,1.214,2.021.266,4.454-1.368,5.921a6.236,6.236,0,0,1-6.52,1.08,4.859,4.859,0,0,1-2.427-6.353.474.474,0,0,0-.833-.452" transform="translate(-154.896 342.629)" fill="#96d9c9"/>
    <g id="Group_5064" data-name="Group 5064" transform="translate(49.851 531.079)">
      <path id="Path_800" data-name="Path 800" d="M327.412,1445.312s-.347,6.433-.349,6.446c-.132.817-.656,2.836-.654,3.579.008,2.788,12.469-2.421,9.67-3.644-.253-.111-1.977-1.581-2.063-2.53-.132-1.462-.072-3.789-.072-3.789Z" transform="translate(-274.193 -1266.833)" fill="#f7a491"/>
      <path id="Path_801" data-name="Path 801" d="M333.116,1484.623a45.3,45.3,0,0,1-4.426,1.085c-1.5.22-3.483-1.568-4.542-1.078-1.167.539-1.228,6.688-1.228,6.688s15.361,1.1,19.288-.047c1.765-.516-3.1-4.688-9.091-6.649" transform="translate(-271.261 -1299.79)" fill="#184655"/>
      <path id="Path_802" data-name="Path 802" d="M477.781,1444.664s-.347,6.433-.349,6.446c-.132.817-.656,2.837-.654,3.579.008,2.789,12.469-2.421,9.67-3.644-.254-.111-1.977-1.581-2.063-2.529-.133-1.462-.072-3.789-.072-3.789Z" transform="translate(-400.507 -1266.288)" fill="#f7a491"/>
      <path id="Path_803" data-name="Path 803" d="M483.484,1483.974a45.334,45.334,0,0,1-4.426,1.086c-1.5.219-3.483-1.568-4.543-1.078-1.167.539-1.228,6.688-1.228,6.688s15.361,1.1,19.288-.047c1.764-.516-3.1-4.688-9.091-6.649" transform="translate(-397.575 -1299.245)" fill="#184655"/>
      <path id="Path_804" data-name="Path 804" d="M411.417,339.259c.412,3.139.908,2.938.95,3.342.05.478-2.821,6.253-2.821,6.253s-8.351,17.078-8.834,17.985l-14.908,12.6,3.9,9.24s15.868-14.14,16.573-15.026,9.383-25.273,10.215-27.4c0,0,1.9-2.173,3.051-3.577a15.749,15.749,0,0,0,1.9-3.693,16.587,16.587,0,0,0,1.334-3.748c.427-1.851-.8-.282-.8-.282s-1.392,3.294-1.626,3.142c-.18-.118.683-1.873,1.177-3.916.127-.526.25-1.045.36-1.522.287-1.254-.381-1.78-.886-.514a13.23,13.23,0,0,0-.582,1.759,10.9,10.9,0,0,1-.64,1.618,14.255,14.255,0,0,1-.67,1.663c-.04-.048-.248.094-.131-.467.142-.675.752-2.047.885-3.056.075-.572.3-1.758.3-1.758a11.506,11.506,0,0,0-.087-1.89c-.573-.194-.935,1.073-.938,1.863a8.865,8.865,0,0,0-.461,1.76s-.973,2.45-1.312,2.32a29.871,29.871,0,0,1,.455-3.233c.165-1.49.093-3.019-.19-3.092-.48-.125-.835,1.513-.835,1.513s-.189,1.159-.281,1.54c-.107.446-.528,1.759-.528,1.759s-1.673,4.5-1.983,4.352-.95-.867-.941-1.181.322-.885.332-1.2a.766.766,0,0,0-.618-.764c-.377-.036-.992,1.473-.992,1.473a5.287,5.287,0,0,0-.372,2.137" transform="translate(-324.087 -329.624)" fill="#f8a492"/>
      <path id="Path_805" data-name="Path 805" d="M12.134,386.177c.186,3.16-.339,3.056-.3,3.461.041.479,3.947,5.609,3.947,5.609s11.415,15.2,12.059,16l17.01,9.559-2.092,9.81s-18.244-10.892-19.1-11.629S9.681,395.934,8.465,394.005c0,0-2.275-1.775-3.669-2.937A15.765,15.765,0,0,1,2.233,387.8a16.606,16.606,0,0,1-2.015-3.429c-.768-1.738.737-.429.737-.429s1.987,2.973,2.187,2.779c.155-.15-1.024-1.71-1.893-3.624-.223-.492-.442-.979-.64-1.427-.518-1.177.039-1.82.773-.672a13.2,13.2,0,0,1,.9,1.618,10.87,10.87,0,0,0,.933,1.468,14.361,14.361,0,0,0,.971,1.507c.03-.055.262.046.04-.484-.266-.637-1.124-1.869-1.444-2.834-.182-.547-.63-1.669-.63-1.669a11.487,11.487,0,0,1-.27-1.872c.526-.3,1.12.878,1.272,1.652a8.84,8.84,0,0,1,.784,1.641s1.416,2.223,1.725,2.031a29.909,29.909,0,0,0-1.055-3.089c-.442-1.432-.66-2.947-.4-3.073.448-.213,1.1,1.328,1.1,1.328s.4,1.1.565,1.46c.189.418.85,1.628.85,1.628s2.49,4.107,2.766,3.9a2.226,2.226,0,0,0,.7-1.338c-.068-.307-.483-.808-.552-1.115a.767.767,0,0,1,.464-.867c.363-.106,1.251,1.259,1.251,1.259a5.288,5.288,0,0,1,.768,2.028" transform="translate(0 -370.155)" fill="#f8a492"/>
      <path id="Path_806" data-name="Path 806" d="M353.723,925.753s19.036,44.643,19.748,48.67c.519,2.939-.043,36.4-.043,36.4l8.937-.181,3.024-38.234-11.906-48.154Z" transform="translate(-297.137 -829.129)" fill="#b75742"/>
      <path id="Path_807" data-name="Path 807" d="M301.845,922.471l8.761,49.637-5.531,33.256,10.179-.044,7.888-35.771.984-39.165L319.964,917.8Z" transform="translate(-253.559 -823.705)" fill="#f47458"/>
      <path id="Path_808" data-name="Path 808" d="M233.469,577.756s2.263,9.995,3.836,11.548c0,0-7.972,5.342-7.6,7.443s8.972,41.385,8.972,41.385-17.428,9.119-28.286,7.707c0,0-8.307-44.75-10.428-46.843s-8.7-5.4-8.7-5.4,4.881-9.394,4.876-11.053c0,0,11.668,5.338,13.641,7.286s5.78-.548,6.7-.939c0,0,15.585-10.281,16.983-11.137" transform="translate(-160.675 -538.061)" fill="#466eb6"/>
      <path id="Path_809" data-name="Path 809" d="M308.846,593.265l-1.453,9.2s3.9,6.4,7,5.433c2.6-.815,2.363-5.883,2.363-5.883s-1.435-5.239-1.017-7.865-6.891-.882-6.891-.882" transform="translate(-258.219 -550.613)" fill="#f7a491"/>
      <path id="Path_810" data-name="Path 810" d="M322.758,594.148c.418-2.626-6.891-.882-6.891-.882l-.116.769a4.248,4.248,0,0,0,.8,1.289,9.669,9.669,0,0,0,6.4,2.831,14.143,14.143,0,0,1-.194-4.007" transform="translate(-265.24 -550.613)" fill="#f47458"/>
      <path id="Path_811" data-name="Path 811" d="M305.851,498.959c-.207-.073-1.626,10.565,1.135,13.479s8.126,3.848,10.042,1.536c2.12-2.558,1.979-13.984-2.309-16.975s-8.869,1.961-8.869,1.961" transform="translate(-256.463 -469.416)" fill="#f7a491"/>
      <path id="Path_812" data-name="Path 812" d="M272.63,467.979c-1.5.182-4.12,2.259-6.217,5.715-2.579,4.25.694,9.441,3.718,11.732s2.969,4.959,2.969,4.959l.494-1.384a7.61,7.61,0,0,0,.368-3.244,6.265,6.265,0,0,0-.494-1.948c-.73-1.536,1.551-2.568,2.187-3.851.49-.988.508-3.243,1.28-4.876l.924-1.248a6.452,6.452,0,0,0,4.232-1.2c4.622-4.06-2.47-9.379-9.461-4.656" transform="translate(-223.011 -444.289)" fill="#f7cc7f"/>
      <path id="Path_813" data-name="Path 813" d="M313.82,552.245c.026,1.3-.568,2.362-1.326,2.378s-1.394-1.022-1.419-2.32.568-2.362,1.326-2.378,1.393,1.022,1.419,2.319" transform="translate(-261.311 -514.684)" fill="#f7a491"/>
    </g>
    <path id="Path_785" data-name="Path 785" d="M1171.58,10.57l.784-1,2.444,1.914,2.068-3.632,1.1.629-2.8,4.913Z" transform="translate(-864.769 475.956)" fill="#50bfa5"/>
    <path id="Path_788" data-name="Path 788" d="M1263.77,127.49l1.886-2.02-1.047-.693a.5.5,0,0,1,.549-.83l1.207.8,1.689-1.815-1.118-.74a.5.5,0,0,1,.549-.83l1.279.846,1.954-2.074a.5.5,0,0,1,.637-.074l.2.129a.5.5,0,0,1,.09.754l-1.824,1.961,1.854,1.227,1.954-2.074a.5.5,0,0,1,.637-.074l.213.141a.5.5,0,0,1,.09.754l-1.824,1.961,1.047.693a.5.5,0,0,1-.549.83l-1.208-.8-1.67,1.827,1.118.74a.5.5,0,0,1-.549.83l-1.279-.846-2,2.142a.5.5,0,0,1-.638.076l-.228-.151a.5.5,0,0,1-.089-.755l1.886-2.02-1.854-1.227-2,2.142a.5.5,0,0,1-.638.075l-.228-.151a.5.5,0,0,1-.089-.754m5.52-.808,1.688-1.815-1.854-1.227-1.688,1.815Z" transform="translate(-945.595 390.84)" fill="#f48c7f"/>
    <path id="Path_798" data-name="Path 798" d="M1437.138,233.984l-1.372,1.573-2.381-.858-2.246,2.173-2.023-.317-.6,1.06,2.705.424,2.129-2.059,2.477.893,2.065-2.367Z" transform="translate(-1075.892 308.46)" fill="#466eb6"/>
    <g id="Group_5063" data-name="Group 5063" transform="translate(224.154 527.716)">
      <path id="Path_814" data-name="Path 814" d="M1179.972,443.9a10.317,10.317,0,0,0-13.254,2.585,10.712,10.712,0,0,0-8.359.913c-4.878,2.815-7.872,10.7-3.917,14.986.963,4.408,2.726,7.889,7.109,7.945,2.588,4.758,10.65,6.147,15.312,1.686,4.069,1.286,8.419-1.041,11.245-4.274.667-.763,1.231-1.963,1.485-2.123,0,0,10.494-1.93,9.542-12.094-1-10.637-12.05-17.975-19.162-9.624" transform="translate(-1126.122 -419.22)" fill="#13375b"/>
      <path id="Path_815" data-name="Path 815" d="M1040.6,1258.024a59.46,59.46,0,0,0,1.236,9.229c.062.236.814,1.168.883,1.41-1.136,5.421-4.881,8.228-8.305,10.129,1.022-2.673,2.93-5.641,2.81-6.283a82.052,82.052,0,0,0-2.741-11.614c2.65.042,3.785-1.492,6.117-2.871" transform="translate(-1026.829 -1106.142)" fill="#f8a492"/>
      <path id="Path_816" data-name="Path 816" d="M1013.584,844.818l16.31,13.206s-8.218,8.1-11.3,11.114S1000,883,999.728,883.695a23.908,23.908,0,0,1,1.014,3.856c.68,5.573,1.448,16.41,1.678,25.7-1.755,1.84-5.556,2.276-7.828,2.854-5.587-11.42-7.607-33.34-7.581-35.973.041-4.288,26.572-35.319,26.572-35.319" transform="translate(-987.011 -759.038)" fill="#355389"/>
      <path id="Path_817" data-name="Path 817" d="M1385.95,985.185a77.9,77.9,0,0,0-7.812,10.148c-1.66-1.735-2.5-3.532-4.48-4.9,2.271-2.179,6.956-7.607,7.552-9.022,1.414-3.357,2.289-3.693,2.289-3.693s10.393,6.65,10.9,7.943-5.878-2.119-8.45-.472" transform="translate(-1311.805 -870.674)" fill="#f8a492"/>
      <path id="Path_818" data-name="Path 818" d="M1417.768,972.874c-.874-.2.973-4.106,1.381-5.009.458-1.016,1.121-1.2,1.276-1.2.422-.008,11.972,7.382,13.741,9.472a2.752,2.752,0,0,1,.325.629c.667,2.533-9.744.517-11.013-.821-1.129-1.19-1.777-2.15-5.709-3.071" transform="translate(-1348.664 -861.393)" fill="#184655"/>
      <path id="Path_819" data-name="Path 819" d="M1130.933,834.157l15.521-6.575c-.057.026.073.614.092.656,2.308,5.263,7.729,5.1,10.249,13.639,1.993,6.749.882,29.347.882,29.347s6.718-4.9,13.77-10.123c.643-.477,5.69,5.138,5.69,5.138-9.6,16.084-24.445,22.283-26.325,21.54-6.417-2.535-15.953-45.684-15.936-45.681-1.238-2.583-3.942-7.942-3.942-7.942" transform="translate(-1107.909 -744.559)" fill="#466eb6"/>
      <path id="Path_820" data-name="Path 820" d="M1276.838,557.582s17.658-3.533,21.587-4.078,17.637-4.939,18.164-5.128,2.668-7.342,3.419-6.8-1.279,3.6-.333,4.054,9.222-2.929,9.259-2.238c.069,1.292-4.985,2.274-4.844,2.873s5.176-1.53,5.758-.614-4.954,1.553-5.07,2.047,5.3.12,4.973,1.169c-.176.569-4.822.212-4.645.893s3.7,1.523,3.434,2.157-2.867-1.112-4.71-.722-3.387-.313-6.13,1.194-11.783,7.992-18.111,9.1-20.305,3.61-20.305,3.61Z" transform="translate(-1230.474 -504.283)" fill="#f8a492"/>
      <path id="Path_821" data-name="Path 821" d="M1026.077,360s-6.685-16.721-8.374-20.311-5.494-17.472-5.624-18.017,4.693-6.245,3.827-6.576-2.314,3.036-3.214,2.493-2.583-9.325-3.181-8.978c-1.12.648.818,5.417.238,5.626s-1.545-5.171-2.63-5.159,1.4,5,1.054,5.365-2.994-4.372-3.695-3.528c-.381.458,2.456,4.155,1.789,4.379s-3.3-2.266-3.683-1.7,2.5,1.793,3.178,3.551,2.112,2.667,2.347,5.787-.26,14.235,2.264,20.144,8.065,18.98,8.065,18.98Z" transform="translate(-1000.063 -308.6)" fill="#f8a492"/>
      <path id="Path_822" data-name="Path 822" d="M1089.141,613.345c-.215-3.105-.548-11.481-.4-12.509-.867-3.231-4.1-8.041-4.771-9.4,0,0,4.5-5.219,7.792-5.143,0,0,3.461,4.661,6.05,6.105a6.265,6.265,0,0,0,1.3.421c2.513.006,11.3-.187,12.929.34l-1.066,14.169c-.48.808-1.212,17.1-2.2,18.437s-15.177,7.3-17.5,5.7c-.093-.063-1.7-11.849-2.135-18.126" transform="translate(-1068.456 -541.87)" fill="#f47458"/>
      <path id="Path_823" data-name="Path 823" d="M1231.465,627.469a7.065,7.065,0,0,1,2.671-.413c3.984-.031,10.691-.131,10.691-.131s1.555,8.544.212,10.581c0,0-10.495,1.528-10.205,2.429Z" transform="translate(-1192.359 -576.002)" fill="#f47458"/>
      <path id="Path_824" data-name="Path 824" d="M1175.821,581.065a39.419,39.419,0,0,0-.794,6.851c.163,1.942-.773,8.186-4.7,8.168s-.669-7.957-.28-9.854a76.041,76.041,0,0,0,.534-7.782Z" transform="translate(-1139.387 -535.28)" fill="#f8a492"/>
      <path id="Path_825" data-name="Path 825" d="M1181.293,581.4c.077-1.609.111-2.952.111-2.952l5.244,2.616s-.2,1-.4,2.284a4.509,4.509,0,0,1-4.96-1.948" transform="translate(-1150.213 -535.28)" fill="#f47458"/>
      <path id="Path_826" data-name="Path 826" d="M1178.477,506.514a6.751,6.751,0,0,1,2.737,3.756c.718,2.559-.192,9.134-5.452,10.672s-7.483-3.7-6.362-7.763,3.52-9.2,9.078-6.665" transform="translate(-1139.984 -474.285)" fill="#f8a492"/>
      <path id="Path_827" data-name="Path 827" d="M1166.813,530.842c.092,1.1.662,1.938,1.273,1.881s1.031-.991.939-2.086-.662-1.938-1.273-1.882-1.031.99-.939,2.086" transform="translate(-1138.039 -493.534)" fill="#f8a492"/>
      <path id="Path_828" data-name="Path 828" d="M1034.454,1315.891c.435-.818,3.413,2.376,4.127,3.038a1.861,1.861,0,0,1,.74,1.617c-.109.415-9.894,10.149-12.549,11.32a1.37,1.37,0,0,1-.879-.028c-1.3-.736,2.028-9.329,4.045-10.843a11.3,11.3,0,0,0,4.516-5.1" transform="translate(-1019.426 -1154.64)" fill="#184655"/>
      <path id="Path_829" data-name="Path 829" d="M1223.809,507.951s.88,7.354,3.139,8.7,1.276,4.6,1.276,4.6,2.135-7.546.362-9.993a9.935,9.935,0,0,0-4.777-3.305" transform="translate(-1185.928 -476.06)" fill="#13375b"/>
      <path id="Path_830" data-name="Path 830" d="M1232.461,563.078c-.625.951-.634,2.079-.019,2.521s1.62.028,2.245-.923.634-2.079.02-2.521-1.62-.028-2.246.923" transform="translate(-1192.797 -521.445)" fill="#f8a492"/>
    </g>
  </g>
</svg>
