<svg xmlns="http://www.w3.org/2000/svg" width="796.823" height="605.172" viewBox="0 0 796.823 605.172">
  <g id="Group_5143" data-name="Group 5143" transform="translate(-914.125 -270.124)">
    <path id="Path_784" data-name="Path 784" d="M419.874,203.46l-2.458-5.725-6.11-1.221a.856.856,0,0,1-.4-1.483l4.685-4.107-.727-6.188a.857.857,0,0,1,1.288-.836l5.354,3.187,5.661-2.6a.856.856,0,0,1,1.193.967l-1.377,6.077,4.226,4.579a.856.856,0,0,1-.551,1.433l-6.205.569-3.049,5.433a.856.856,0,0,1-1.533-.081" transform="translate(653.996 200.411)" fill="#f47458"/>
    <path id="Path_785" data-name="Path 785" d="M1171.58,14.479l1.911-2.44,5.959,4.667,5.04-8.855,2.693,1.533-6.817,11.975Z" transform="translate(404.836 284.158)" fill="#50bfa5"/>
    <g id="Group_5061" data-name="Group 5061" transform="translate(-188 -8.581)">
      <path id="Path_786" data-name="Path 786" d="M527.827,16.727A15.2,15.2,0,1,1,514.23.075a15.2,15.2,0,0,1,13.6,16.653" transform="translate(686.528 278.708)" fill="#f7cc7f"/>
      <path id="Path_787" data-name="Path 787" d="M515.065,43.033a8.127,8.127,0,1,0,16.171,1.633Z" transform="translate(675.841 252.454)" fill="#efefef"/>
    </g>
    <path id="Path_788" data-name="Path 788" d="M1263.962,138.291l4.6-4.924-2.552-1.689a1.213,1.213,0,1,1,1.339-2.023l2.943,1.948,4.116-4.425-2.726-1.8a1.213,1.213,0,0,1,1.339-2.023l3.117,2.063,4.764-5.057a1.213,1.213,0,0,1,1.552-.18l.476.315a1.213,1.213,0,0,1,.219,1.837l-4.446,4.781,4.52,2.992,4.763-5.057a1.213,1.213,0,0,1,1.552-.179l.52.344a1.213,1.213,0,0,1,.219,1.837l-4.447,4.781,2.553,1.689a1.213,1.213,0,0,1-1.339,2.023l-2.944-1.948-4.072,4.453,2.726,1.8a1.213,1.213,0,1,1-1.339,2.022l-3.118-2.063-4.877,5.222a1.212,1.212,0,0,1-1.556.184l-.557-.368a1.213,1.213,0,0,1-.216-1.839l4.6-4.924-4.52-2.991-4.877,5.222a1.214,1.214,0,0,1-1.556.183l-.556-.368a1.213,1.213,0,0,1-.217-1.839m13.456-1.97,4.116-4.425-4.52-2.991-4.116,4.424Z" transform="translate(340.152 237.876)" fill="#f48c7f"/>
    <g id="Group_5062" data-name="Group 5062" transform="translate(-24 267.304)">
      <path id="Path_789" data-name="Path 789" d="M829.586,61.78a13,13,0,0,1,9.551-5.746,10.065,10.065,0,0,1,11.221,9.126c.717,6.386-4.034,14.573-17.836,22.773C817.246,83,810.8,76.069,810.08,69.682A10.066,10.066,0,0,1,819,58.3a13,13,0,0,1,10.588,3.484" transform="translate(495.888 244.565)" fill="#f48c7f"/>
      <path id="Path_790" data-name="Path 790" d="M731.493,84.964a134.027,134.027,0,0,0,15.321-.062c1.54-.094,4.238.2,5.224-1.189a1.623,1.623,0,0,0-.114-2.221c-1.212-1.21-3.5-.565-5.052-.47-4.73.287-10.1.388-15.524.175a1.9,1.9,0,0,0-1.811,1.957,1.925,1.925,0,0,0,1.957,1.811" transform="translate(544.98 229.437)" fill="#f48c7f"/>
      <path id="Path_791" data-name="Path 791" d="M935.949,103.306c2.265-.1,4.527-.241,6.79-.376,2.166-.128,4.747.1,6.753-.762a1.634,1.634,0,0,0-.127-3.129c-2.1-.615-4.6-.09-6.774.046-2.263.142-4.526.276-6.787.453-2.414.188-2.288,3.875.146,3.769" transform="translate(420.215 218.467)" fill="#f48c7f"/>
      <path id="Path_792" data-name="Path 792" d="M786.987,146.6c2.562-4.931,5.935-6.6,8.472-8.583a1.526,1.526,0,0,0-1.262-2.731c-4.7,1.022-8.478,5.5-10.55,9.6a1.879,1.879,0,0,0,3.341,1.715" transform="translate(512.104 196.205)" fill="#f48c7f"/>
      <path id="Path_793" data-name="Path 793" d="M855.136,171.266a16.675,16.675,0,0,1,.734-6.868c.45-1.364,2.932-5.242.234-5.787-2.541-.513-3.652,3.679-4.15,5.452a19.7,19.7,0,0,0-.6,7.35c.255,2.412,4.018,2.287,3.784-.147" transform="translate(470.735 181.974)" fill="#f48c7f"/>
      <path id="Path_794" data-name="Path 794" d="M906.715,146.086l3.931,2.524c1.307.839,2.586,2.1,4.224,1.664a1.669,1.669,0,0,0,1.077-2.035c-.281-1.517-2.339-2.306-3.537-3.066l-3.944-2.5a1.933,1.933,0,0,0-2.581.83,1.961,1.961,0,0,0,.83,2.581" transform="translate(437.53 191.809)" fill="#f48c7f"/>
      <path id="Path_795" data-name="Path 795" d="M803.937,17.8c-5.465-11.288-5.375-11.352-6.4-12.248a1.67,1.67,0,0,0-2.756,1.29c.077,1.425.089,1.189,5.883,13.045a1.951,1.951,0,0,0,2.679.592,1.986,1.986,0,0,0,.593-2.679" transform="translate(505.179 275.564)" fill="#f48c7f"/>
      <path id="Path_796" data-name="Path 796" d="M865.361,15.1a28.777,28.777,0,0,0,1.282-6.03c.2-1.911.756-4.814-1.078-6.031a1.426,1.426,0,0,0-1.47.069c-1.545,1.182-1.065,3.74-1.253,5.5a34.046,34.046,0,0,1-1.148,5.679,1.9,1.9,0,0,0,1.427,2.239,1.92,1.92,0,0,0,2.239-1.428" transform="translate(464.394 276.956)" fill="#f48c7f"/>
      <path id="Path_797" data-name="Path 797" d="M929.48,31.629a1.668,1.668,0,0,0-1.243-1.95c-1.594-.529-3.556,1.1-4.822,1.948a32.975,32.975,0,0,0-4.135,3.324,1.911,1.911,0,0,0,.137,2.674,1.942,1.942,0,0,0,2.675-.137c5.058-4.4,6.68-3.637,7.388-5.859" transform="translate(429.525 260.663)" fill="#f48c7f"/>
    </g>
    <path id="Path_798" data-name="Path 798" d="M1449.533,233.984l-3.345,3.835-5.8-2.091-5.475,5.3-4.931-.773-1.461,2.584,6.595,1.033,5.189-5.02,6.037,2.176,5.035-5.771Z" transform="translate(259.576 200.967)" fill="#466eb6"/>
    <path id="Path_799" data-name="Path 799" d="M192.026,181.52c-4.784,6.7-.367,16.439,6.536,19.575a18.615,18.615,0,0,0,22.1-5.866c5.381-7.2,4.048-16-2.924-20.495-6.786-4.374-14.715-.507-16.095,6.961-.989,5.353,2.261,9.3,5.037,9.168a2.368,2.368,0,0,0,1.653-4.132,2.324,2.324,0,0,0-2.505-.218c-1.363-1.622-1.314-5.666,1.641-8.47,3.772-3.583,9.409-.869,11.734,3,2.959,4.926.648,10.857-3.335,14.433a15.2,15.2,0,0,1-15.894,2.632,11.845,11.845,0,0,1-5.916-15.487,1.156,1.156,0,0,0-2.031-1.1" transform="translate(724.104 196.434)" fill="#96d9c9"/>
    <g id="Group_5064" data-name="Group 5064" transform="translate(-40)">
      <path id="Path_800" data-name="Path 800" d="M328.853,1445.312s-.845,15.681-.85,15.714c-.322,1.991-1.6,6.914-1.594,8.724.02,6.8,30.4-5.9,23.571-8.884-.618-.27-4.819-3.854-5.029-6.166-.323-3.563-.175-9.236-.175-9.236Z" transform="translate(790.902 -602.987)" fill="#f7a491"/>
      <path id="Path_801" data-name="Path 801" d="M347.776,1484.734a110.42,110.42,0,0,1-10.79,2.646c-3.656.535-8.49-3.821-11.073-2.627-2.844,1.313-2.994,16.3-2.994,16.3s37.445,2.684,47.018-.114c4.3-1.257-7.549-11.428-22.161-16.208" transform="translate(793.031 -626.921)" fill="#184655"/>
      <path id="Path_802" data-name="Path 802" d="M479.222,1444.664s-.845,15.681-.851,15.713c-.323,1.992-1.6,6.915-1.594,8.724.02,6.8,30.4-5.9,23.571-8.884-.618-.271-4.819-3.853-5.029-6.166-.323-3.563-.175-9.236-.175-9.236Z" transform="translate(699.172 -602.592)" fill="#f7a491"/>
      <path id="Path_803" data-name="Path 803" d="M498.144,1484.085a110.439,110.439,0,0,1-10.789,2.647c-3.656.535-8.491-3.821-11.073-2.628-2.844,1.314-2.994,16.3-2.994,16.3s37.446,2.686,47.018-.113c4.3-1.258-7.549-11.428-22.162-16.208" transform="translate(701.301 -626.525)" fill="#184655"/>
      <path id="Path_804" data-name="Path 804" d="M448.24,353.111c1,7.652,2.214,7.161,2.317,8.146.122,1.165-6.877,15.244-6.877,15.244s-20.358,41.631-21.534,43.842L385.8,451.052l9.507,22.524s38.681-34.47,40.4-36.628,22.874-61.607,24.9-66.782c0,0,4.634-5.3,7.437-8.719s3.991-7.919,4.637-9a40.438,40.438,0,0,0,3.252-9.136c1.042-4.513-1.961-.687-1.961-.687s-3.393,8.031-3.963,7.659c-.438-.287,1.666-4.565,2.869-9.547.309-1.281.61-2.547.878-3.711.7-3.056-.928-4.34-2.159-1.253a32.25,32.25,0,0,0-1.419,4.289A26.566,26.566,0,0,1,468.625,344a34.75,34.75,0,0,1-1.633,4.054c-.1-.118-.605.23-.318-1.139.345-1.646,1.833-4.991,2.158-7.449.184-1.394.741-4.286.741-4.286s.046-4.52-.211-4.607c-1.4-.473-2.279,2.617-2.288,4.541a21.611,21.611,0,0,0-1.123,4.29s-2.372,5.973-3.2,5.656c-.353-.135.675-3.969,1.108-7.881.4-3.632.227-7.359-.462-7.538-1.169-.3-2.036,3.688-2.036,3.688s-.461,2.826-.684,3.755c-.261,1.088-1.287,4.287-1.287,4.287s-4.078,10.978-4.834,10.608-2.317-2.113-2.294-2.879.786-2.158.809-2.924a1.868,1.868,0,0,0-1.507-1.863c-.918-.087-2.419,3.592-2.419,3.592a12.889,12.889,0,0,0-.907,5.208" transform="translate(754.668 77.623)" fill="#f8a492"/>
      <path id="Path_805" data-name="Path 805" d="M29.58,398.114c.454,7.7-.827,7.451-.743,8.437.1,1.167,9.621,13.674,9.621,13.674s27.825,37.044,29.4,38.992l41.466,23.3-5.1,23.914S59.748,479.88,57.653,478.085,23.6,421.9,20.636,417.2c0,0-5.546-4.327-8.943-7.159s-5.41-7.024-6.249-7.968a40.48,40.48,0,0,1-4.911-8.358c-1.872-4.236,1.8-1.045,1.8-1.045s4.843,7.247,5.332,6.773c.377-.365-2.495-4.169-4.614-8.835-.544-1.2-1.078-2.385-1.559-3.478-1.264-2.869.094-4.437,1.884-1.638a32.181,32.181,0,0,1,2.2,3.944,26.5,26.5,0,0,0,2.273,3.578,35,35,0,0,0,2.366,3.674c.074-.135.638.112.1-1.179-.649-1.552-2.739-4.555-3.521-6.909-.443-1.334-1.535-4.069-1.535-4.069s-.9-4.43-.659-4.565c1.281-.728,2.731,2.141,3.1,4.028a21.55,21.55,0,0,1,1.91,4s3.453,5.419,4.205,4.951c.321-.2-1.41-3.77-2.571-7.531-1.078-3.491-1.608-7.184-.964-7.491,1.092-.518,2.693,3.237,2.693,3.237s.984,2.689,1.377,3.558c.462,1.019,2.071,3.968,2.071,3.968s6.07,10.011,6.744,9.506,1.878-2.513,1.711-3.261-1.178-1.97-1.345-2.719a1.869,1.869,0,0,1,1.13-2.114c.885-.259,3.051,3.07,3.051,3.07a12.889,12.889,0,0,1,1.871,4.944" transform="translate(990.023 48.188)" fill="#f8a492"/>
      <path id="Path_806" data-name="Path 806" d="M353.723,927.91s46.4,108.826,48.139,118.642c1.265,7.164-.105,88.73-.105,88.73l21.786-.442,7.371-93.2L401.892,924.253Z" transform="translate(774.239 -285.122)" fill="#b75742"/>
      <path id="Path_807" data-name="Path 807" d="M301.845,929.19l21.356,121-13.482,81.068,24.813-.107,19.228-87.2,2.4-95.473L346.013,917.8Z" transform="translate(805.887 -281.184)" fill="#f47458"/>
      <path id="Path_808" data-name="Path 808" d="M294.134,577.756s5.516,24.364,9.352,28.15c0,0-19.433,13.022-18.515,18.145s21.872,100.885,21.872,100.885-42.483,22.228-68.952,18.786c0,0-20.249-109.086-25.42-114.19s-21.2-13.157-21.2-13.157,11.9-22.9,11.886-26.944c0,0,28.442,13.013,33.253,17.762s14.089-1.335,16.324-2.288c0,0,37.991-25.061,41.4-27.149" transform="translate(873.34 -73.746)" fill="#466eb6"/>
      <path id="Path_809" data-name="Path 809" d="M310.934,594.082,307.393,616.5s9.5,15.611,17.059,13.245c6.344-1.986,5.76-14.341,5.76-14.341s-3.5-12.771-2.48-19.173-16.8-2.15-16.8-2.15" transform="translate(802.503 -82.861)" fill="#f7a491"/>
      <path id="Path_810" data-name="Path 810" d="M332.831,596.232c1.019-6.4-16.8-2.15-16.8-2.15l-.282,1.875a10.356,10.356,0,0,0,1.943,3.142A23.569,23.569,0,0,0,333.3,606a34.475,34.475,0,0,1-.473-9.769" transform="translate(797.404 -82.861)" fill="#f47458"/>
      <path id="Path_811" data-name="Path 811" d="M306.639,503.159c-.5-.179-3.964,25.755,2.768,32.857s19.808,9.38,24.48,3.743c5.168-6.235,4.824-34.09-5.628-41.381s-21.62,4.781-21.62,4.781" transform="translate(803.777 -23.896)" fill="#f7a491"/>
      <path id="Path_812" data-name="Path 812" d="M282.908,470.644c-3.659.443-10.042,5.507-15.154,13.933-6.287,10.36,1.692,23.014,9.063,28.6s7.237,12.088,7.237,12.088l1.2-3.375a18.549,18.549,0,0,0,.9-7.908,15.273,15.273,0,0,0-1.2-4.747c-1.781-3.743,3.781-6.26,5.332-9.387,1.2-2.408,1.238-7.906,3.12-11.886l2.253-3.042s6.393.523,10.316-2.924c11.266-9.9-6.021-22.863-23.064-11.349" transform="translate(828.07 -5.647)" fill="#f7cc7f"/>
      <path id="Path_813" data-name="Path 813" d="M317.769,555.58c.062,3.162-1.385,5.757-3.233,5.8s-3.4-2.492-3.46-5.654,1.385-5.757,3.233-5.8,3.4,2.492,3.46,5.654" transform="translate(800.257 -56.77)" fill="#f7a491"/>
    </g>
    <g id="Group_5063" data-name="Group 5063">
      <path id="Path_814" data-name="Path 814" d="M1219.3,449.1c-11.165-6.046-24.653-3.631-32.31,6.3a26.112,26.112,0,0,0-20.376,2.225c-11.89,6.863-19.19,26.091-9.549,36.532,2.347,10.745,6.645,19.231,17.329,19.367,6.309,11.6,25.961,14.984,37.326,4.11,9.918,3.136,20.523-2.538,27.413-10.42,1.625-1.859,3-4.786,3.619-5.176.009-.005,25.582-4.706,23.26-29.481-2.43-25.93-29.375-43.818-46.712-23.461" transform="translate(286.887 10.115)" fill="#13375b"/>
      <path id="Path_815" data-name="Path 815" d="M1049.492,1258.024a144.945,144.945,0,0,0,3.012,22.5c.15.574,1.984,2.846,2.153,3.436-2.769,13.214-11.9,20.058-20.246,24.691,2.493-6.516,7.142-13.752,6.85-15.315a200,200,0,0,0-6.681-28.312c6.46.1,9.227-3.636,14.911-7" transform="translate(358.994 -488.734)" fill="#f8a492"/>
      <path id="Path_816" data-name="Path 816" d="M1051.786,844.818l39.758,32.193S1071.512,896.762,1064,904.1s-45.322,33.793-45.987,35.484c-.133.339,1.858,4.374,2.472,9.4,1.659,13.585,3.531,40,4.09,62.659-4.279,4.485-13.543,5.549-19.081,6.957-13.62-27.837-18.543-81.272-18.479-87.69.1-10.453,64.774-86.1,64.774-86.1" transform="translate(387.91 -236.664)" fill="#355389"/>
      <path id="Path_817" data-name="Path 817" d="M1403.622,995.926c-1.561,1-13.8,16.257-19.043,24.737-4.047-4.229-6.1-8.61-10.921-11.953,5.535-5.312,16.957-18.542,18.41-21.992,3.448-8.183,5.58-9,5.58-9s25.336,16.21,26.572,19.362-14.328-5.164-20.6-1.151" transform="translate(152.042 -317.735)" fill="#f8a492"/>
      <path id="Path_818" data-name="Path 818" d="M1418.1,981.8c-2.131-.5,2.373-10.01,3.366-12.212,1.117-2.477,2.732-2.915,3.112-2.924,1.029-.02,29.185,17.995,33.5,23.089a6.691,6.691,0,0,1,.792,1.533c1.625,6.174-23.752,1.261-26.847-2-2.753-2.9-4.332-5.242-13.917-7.485" transform="translate(125.275 -310.995)" fill="#184655"/>
      <path id="Path_819" data-name="Path 819" d="M1130.933,843.61l37.835-16.028c-.14.064.178,1.5.223,1.6,5.626,12.83,18.84,12.44,24.985,33.249,4.858,16.452,2.15,71.539,2.15,71.539s16.377-11.94,33.567-24.677c1.567-1.162,13.87,12.525,13.87,12.525-23.4,39.209-59.589,54.318-64.172,52.507-15.643-6.18-38.887-111.364-38.847-111.356-3.017-6.3-9.61-19.36-9.61-19.36" transform="translate(300.113 -226.149)" fill="#466eb6"/>
      <path id="Path_820" data-name="Path 820" d="M1276.838,580.633s43.045-8.611,52.622-9.941,42.994-12.041,44.279-12.5,6.505-17.9,8.334-16.57-3.118,8.768-.812,9.882,22.481-7.139,22.57-5.456c.169,3.15-12.152,5.543-11.807,7s12.616-3.73,14.035-1.5-12.078,3.786-12.358,4.99,12.913.292,12.123,2.849c-.428,1.388-11.754.516-11.323,2.176s9.016,3.712,8.372,5.259-6.988-2.711-11.482-1.761-8.257-.762-14.942,2.912-28.723,19.483-44.15,22.194-49.5,8.8-49.5,8.8Z" transform="translate(211.105 -51.659)" fill="#f8a492"/>
      <path id="Path_821" data-name="Path 821" d="M1059.9,433.894s-16.3-40.761-20.413-49.511-13.394-42.592-13.71-43.92,11.441-15.225,9.328-16.031-5.641,7.4-7.834,6.078-6.3-22.731-7.755-21.886c-2.731,1.579,1.994,13.206.581,13.715s-3.766-12.606-6.411-12.576,3.424,12.186,2.569,13.077-7.3-10.657-9.007-8.6c-.928,1.117,5.987,10.128,4.361,10.674s-8.033-5.525-8.978-4.14,6.088,4.372,7.746,8.656,5.148,6.5,5.721,14.107-.634,34.7,5.52,49.106,19.661,46.269,19.661,46.269Z" transform="translate(378.433 90.448)" fill="#f8a492"/>
      <path id="Path_822" data-name="Path 822" d="M1096.582,652.236c-.525-7.569-1.337-27.987-.986-30.493-2.113-7.877-9.988-19.6-11.63-22.911,0,0,10.96-12.722,18.994-12.536,0,0,8.438,11.363,14.748,14.883a15.271,15.271,0,0,0,3.18,1.026c6.127.014,27.536-.455,31.518.829l-2.6,34.539c-1.171,1.97-2.953,41.7-5.353,44.943s-37,17.8-42.668,13.906c-.226-.155-4.144-28.885-5.2-44.186" transform="translate(328.765 -78.955)" fill="#f47458"/>
      <path id="Path_823" data-name="Path 823" d="M1231.465,628.25a17.221,17.221,0,0,1,6.512-1.006c9.71-.075,26.06-.32,26.06-.32s3.79,20.828.517,25.794c0,0-25.583,3.724-24.878,5.92Z" transform="translate(238.785 -103.741)" fill="#f47458"/>
      <path id="Path_824" data-name="Path 824" d="M1186.484,584.826s-2.334,11.968-1.936,16.7-1.885,19.955-11.466,19.912-1.63-19.4-.683-24.022,1.3-18.969,1.3-18.969Z" transform="translate(277.254 -74.169)" fill="#f8a492"/>
      <path id="Path_825" data-name="Path 825" d="M1181.293,585.645c.188-3.923.27-7.2.27-7.2l12.784,6.378s-.477,2.448-.963,5.568c-5.634,1.125-9.688-1.089-12.09-4.749" transform="translate(269.392 -74.169)" fill="#f47458"/>
      <path id="Path_826" data-name="Path 826" d="M1191.936,507.487a16.456,16.456,0,0,1,6.671,9.156c1.749,6.238-.467,22.267-13.291,26.015s-18.24-9.015-15.51-18.925,8.581-22.437,22.13-16.247" transform="translate(276.82 -29.874)" fill="#f8a492"/>
      <path id="Path_827" data-name="Path 827" d="M1166.832,533.846c.224,2.672,1.613,4.725,3.1,4.586s2.514-2.415,2.289-5.086-1.613-4.725-3.1-4.587-2.514,2.415-2.289,5.086" transform="translate(278.232 -43.853)" fill="#f8a492"/>
      <path id="Path_828" data-name="Path 828" d="M1047.186,1316.082c1.061-1.995,8.32,5.792,10.06,7.407,1.958,1.816,1.9,3.559,1.8,3.942-.265,1.011-24.12,24.741-30.59,27.594a3.338,3.338,0,0,1-2.143-.069c-3.177-1.794,4.943-22.74,9.861-26.432,3.178-2.386,6.236-3.464,11.008-12.442" transform="translate(364.371 -523.954)" fill="#184655"/>
      <path id="Path_829" data-name="Path 829" d="M1223.809,507.951s2.144,17.927,7.652,21.212,3.112,11.2,3.112,11.2,5.2-18.394.882-24.36-11.645-8.057-11.645-8.057" transform="translate(243.455 -31.163)" fill="#13375b"/>
      <path id="Path_830" data-name="Path 830" d="M1233.144,564.659c-1.525,2.318-1.546,5.069-.047,6.145s3.95.069,5.474-2.25,1.546-5.069.048-6.144-3.949-.068-5.474,2.25" transform="translate(238.467 -64.122)" fill="#f8a492"/>
    </g>
  </g>
</svg>
