<svg xmlns="http://www.w3.org/2000/svg" width="731.933" height="491.456" viewBox="0 0 731.933 491.456">
  <g id="Group_5138" data-name="Group 5138" transform="translate(-924.066 -484.487)">
    <path id="Path_2" data-name="Path 2" d="M1388.365,256.385H1337.63a4.247,4.247,0,0,1-4.235-4.235V203.183a4.247,4.247,0,0,1,4.235-4.235h50.735a4.247,4.247,0,0,1,4.235,4.235v48.968a4.247,4.247,0,0,1-4.235,4.235" transform="translate(-54.473 285.539)" fill="#c0d8fb"/>
    <path id="Path_3" data-name="Path 3" d="M1391.32,258.9h-46.34a3.879,3.879,0,0,1-3.868-3.868V210.3a3.879,3.879,0,0,1,3.868-3.868h46.34a3.879,3.879,0,0,1,3.868,3.868v44.725a3.879,3.879,0,0,1-3.868,3.868" transform="translate(-59.627 280.54)" fill="#dfebfd"/>
    <path id="Path_4" data-name="Path 4" d="M1418.786,219.747a1.226,1.226,0,1,1,1.226,1.226,1.226,1.226,0,0,1-1.226-1.226" transform="translate(-111.488 272.472)" fill="#b7d3f3"/>
    <path id="Path_5" data-name="Path 5" d="M1448.254,226.159a1.226,1.226,0,1,1,.477,1.668,1.227,1.227,0,0,1-.477-1.668" transform="translate(-131.061 267.793)" fill="#b7d3f3"/>
    <path id="Path_6" data-name="Path 6" d="M1472.95,247.3a1.226,1.226,0,1,1-.366,1.7,1.226,1.226,0,0,1,.366-1.7" transform="translate(-147.277 253.385)" fill="#b7d3f3"/>
    <path id="Path_7" data-name="Path 7" d="M1484.252,279.069a1.226,1.226,0,1,1-1.226,1.226,1.226,1.226,0,0,1,1.226-1.226" transform="translate(-154.381 232.044)" fill="#b7d3f3"/>
    <path id="Path_8" data-name="Path 8" d="M1476.057,314.755a1.227,1.227,0,1,1-1.735,0,1.227,1.227,0,0,1,1.735,0" transform="translate(-148.328 208.455)" fill="#b7d3f3"/>
    <path id="Path_9" data-name="Path 9" d="M1452.882,337.991a1.226,1.226,0,1,1-1.735,0,1.227,1.227,0,0,1,1.735,0" transform="translate(-132.855 192.94)" fill="#b7d3f3"/>
    <path id="Path_10" data-name="Path 10" d="M1418.786,348.225a1.226,1.226,0,1,1,1.226,1.226,1.226,1.226,0,0,1-1.226-1.226" transform="translate(-111.488 186.687)" fill="#b7d3f3"/>
    <path id="Path_11" data-name="Path 11" d="M1391.651,226.159a1.226,1.226,0,1,0-.476,1.668,1.227,1.227,0,0,0,.476-1.668" transform="translate(-91.836 267.793)" fill="#b7d3f3"/>
    <path id="Path_12" data-name="Path 12" d="M1366.957,247.3a1.226,1.226,0,1,0,.366,1.7,1.227,1.227,0,0,0-.366-1.7" transform="translate(-75.619 253.385)" fill="#b7d3f3"/>
    <path id="Path_13" data-name="Path 13" d="M1355.656,279.069a1.226,1.226,0,1,0,1.226,1.226,1.226,1.226,0,0,0-1.226-1.226" transform="translate(-68.518 232.044)" fill="#b7d3f3"/>
    <path id="Path_14" data-name="Path 14" d="M1363.85,314.755a1.226,1.226,0,1,0,1.734,0,1.227,1.227,0,0,0-1.734,0" transform="translate(-74.568 208.455)" fill="#b7d3f3"/>
    <path id="Path_15" data-name="Path 15" d="M1387.025,337.991a1.226,1.226,0,1,0,1.735,0,1.227,1.227,0,0,0-1.735,0" transform="translate(-90.041 192.94)" fill="#b7d3f3"/>
    <path id="Path_16" data-name="Path 16" d="M1421.481,280.3a1.226,1.226,0,1,1,1.227,1.227,1.226,1.226,0,0,1-1.227-1.227" transform="translate(-113.287 232.044)" fill="#b7d3f3"/>
    <rect id="Rectangle_1" data-name="Rectangle 1" width="0.335" height="15.321" transform="translate(1309.253 497.018)" fill="#b7d3f3"/>
    <rect id="Rectangle_2" data-name="Rectangle 2" width="10.326" height="1.005" transform="matrix(0.787, -0.618, 0.618, 0.787, 1308.956, 511.923)" fill="#b7d3f3"/>
    <path id="Path_17" data-name="Path 17" d="M586.234,937.132s-10.36-12.087-.639-19.764c0,0,7.1-4.3,12.891-3.95,0,0-8.2,13.757-5.55,15.126s8.037-15.989,8.037-15.989,16.159-1.567,21.358.932c0,0-13.814,11.3-10.9,11.978s17.83-10.423,17.83-10.423,15.04,2.559,14.238,11.734-5.984,12.008-8.262,11.764-15.6-5.33-15.891-3.464,7.73,7.966,13.346,8.251c0,0-10.6,11.694-17.65,8.319s-7.649-8.725-12.041-10.731-8.143-2-6.329.044,9.764,4.035,12.276,8.479,4.766,7.441-2.525,6.343-19.142-6.432-19.663-12.541Z" transform="translate(447.609 -190.609)" fill="#c8dbf4"/>
    <path id="Path_18" data-name="Path 18" d="M627.48,956.928s-40.849-1.574-49.87,10.108a29.544,29.544,0,0,1-8.134,11.416l-.957,2.608s7.079-7.464,9.612-7.915c0,0-3.961-14.474,49.35-16.217" transform="translate(456.232 -220.513)" fill="#c8dbf4"/>
    <path id="Path_19" data-name="Path 19" d="M552.558,1019.777a25.651,25.651,0,0,0-9.377,18.07l1.591.142s2.8-11.98,7.862-16.665-.076-1.548-.076-1.548" transform="translate(473.148 -261.838)" fill="#c8dbf4"/>
    <path id="Path_20" data-name="Path 20" d="M365.408,855.994s16.481-9.229,8.789-21.754c0,0-6.153-7.691-12.745-9.669,0,0,3.516,18.678,0,19.118s-2.417-21.1-2.417-21.1-17.359-8.35-24.171-7.691c0,0,10.767,18.238,7.252,17.8s-15.6-18.9-15.6-18.9-17.8-3.3-20.656,7.252,1.758,15.821,4.4,16.481,19.557.439,19.117,2.637-11.866,5.713-18.238,3.735c0,0,7.032,17.36,16.261,16.481s12.086-6.592,17.8-7.032,9.888,1.1,7.032,2.637-12.525.5-17.14,4.427-8.35,6.34.22,8.1,23.952.66,27.028-5.933Z" transform="translate(632.211 -124.671)" fill="#c8dbf4"/>
    <path id="Path_21" data-name="Path 21" d="M332.136,846.524s46.145,14.942,51.419,31.643a35.054,35.054,0,0,0,4.395,16.041v3.3s-4.834-11.207-7.471-12.745c0,0,10.328-14.5-48.343-38.235" transform="translate(614.063 -146.844)" fill="#c8dbf4"/>
    <path id="Path_22" data-name="Path 22" d="M495.667,985.9s7.116,10.807,3.06,23.961l-1.831-.491s1.777-14.489-1.946-21.776.717-1.693.717-1.693" transform="translate(506.348 -238.533)" fill="#c8dbf4"/>
    <path id="Path_23" data-name="Path 23" d="M537.076,790.407s-21.724-12.166-11.586-28.676c0,0,8.111-10.138,16.8-12.745,0,0-4.634,24.621,0,25.2s3.186-27.808,3.186-27.808,22.883-11.007,31.862-10.138c0,0-14.193,24.042-9.559,23.462s20.566-24.911,20.566-24.911,23.462-4.345,27.228,9.558-2.317,20.856-5.793,21.725-25.78.579-25.2,3.476,15.642,7.531,24.042,4.924c0,0-9.269,22.883-21.435,21.725s-15.931-8.69-23.462-9.269-13.035,1.448-9.269,3.476,16.51.664,22.594,5.836,11.007,8.358-.29,10.675-31.573.869-35.628-7.821Z" transform="translate(486.762 -71.812)" fill="#d4e4f8"/>
    <path id="Path_24" data-name="Path 24" d="M621.913,777.923s-60.829,19.7-67.781,41.711a46.2,46.2,0,0,1-5.793,21.145v4.345s6.373-14.773,9.849-16.8c0,0-13.614-19.118,63.725-50.4" transform="translate(469.707 -101.04)" fill="#d4e4f8"/>
    <path id="Path_25" data-name="Path 25" d="M536.926,961.642s-9.381,14.245-4.033,31.585l2.413-.648s-2.342-19.1,2.565-28.7-.946-2.232-.946-2.232" transform="translate(481.119 -221.902)" fill="#d4e4f8"/>
    <path id="Path_26" data-name="Path 26" d="M478.066,1089.779a42.554,42.554,0,0,0,42.555-42.554H435.511a42.554,42.554,0,0,0,42.555,42.554" transform="translate(545.039 -280.851)" fill="#d4e4f8"/>
    <path id="Path_27" data-name="Path 27" d="M520.027,1171.251H433.742a5.25,5.25,0,0,1,5.25-5.25h75.785a5.25,5.25,0,0,1,5.25,5.25" transform="translate(546.221 -360.157)" fill="#d4e4f8"/>
    <rect id="Rectangle_3" data-name="Rectangle 3" width="87.476" height="1.305" transform="translate(979.153 766.373)" fill="#9fc1f4"/>
    <path id="Path_28" data-name="Path 28" d="M416.615,1184.4v4.084c0,1.431-.463,2.6-1.028,2.6H266.559c-.565,0-1.028-1.167-1.028-2.6V1184.4c0-1.427.463-2.6,1.028-2.6H415.588c.565,0,1.028,1.17,1.028,2.6" transform="translate(658.535 -370.707)" fill="#9abfe2"/>
    <path id="Path_29" data-name="Path 29" d="M478.672,1184.4v4.084c0,1.431-.425,2.6-.943,2.6H359.416c-.518,0-.943-1.167-.943-2.6V1184.4c0-1.427.425-2.6.943-2.6H477.729c.518,0,.943,1.17.943,2.6" transform="translate(596.479 -370.707)" fill="#bad4f4"/>
    <rect id="Rectangle_4" data-name="Rectangle 4" width="105.801" height="154.21" transform="translate(931.631 820.373)" fill="#c8dbf4"/>
    <rect id="Rectangle_5" data-name="Rectangle 5" width="105.802" height="154.21" transform="translate(961.28 820.373)" fill="#dfebfd"/>
    <path id="Path_30" data-name="Path 30" d="M489.062,1364.175H394.631v-141.34h94.431Zm-93.411-1.02h92.392v-139.3H395.65Z" transform="translate(572.336 -398.105)" fill="#b7d3f3"/>
    <rect id="Rectangle_6" data-name="Rectangle 6" width="93.411" height="1.02" transform="translate(967.478 871.486)" fill="#b7d3f3"/>
    <rect id="Rectangle_7" data-name="Rectangle 7" width="93.411" height="1.02" transform="translate(967.478 919.154)" fill="#b7d3f3"/>
    <path id="Path_31" data-name="Path 31" d="M527.618,1244.119H510.284a1.529,1.529,0,0,1,0-3.059h17.334a1.529,1.529,0,0,1,0,3.059" transform="translate(496.137 -410.274)" fill="#b7d3f3"/>
    <path id="Path_32" data-name="Path 32" d="M527.618,1384.394H510.284a1.529,1.529,0,0,1,0-3.059h17.334a1.529,1.529,0,0,1,0,3.059" transform="translate(496.137 -503.935)" fill="#b7d3f3"/>
    <path id="Path_33" data-name="Path 33" d="M527.618,1530.621H510.284a1.529,1.529,0,0,1,0-3.059h17.334a1.529,1.529,0,0,1,0,3.059" transform="translate(496.137 -601.57)" fill="#b7d3f3"/>
    <path id="Path_34" data-name="Path 34" d="M315.4,1092.045v21.426H293.8v-21.494a5.59,5.59,0,0,1,.032-.616,6.589,6.589,0,0,1,3.988-5.452,4.362,4.362,0,0,0,2.733-3.766l.159-3.1h7.93l.05,3.086a4.214,4.214,0,0,0,2.646,3.779,6.657,6.657,0,0,1,4.029,5.447c.023.227.036.453.036.685" transform="translate(639.66 -302.099)" fill="#c8dbf4"/>
    <path id="Path_35" data-name="Path 35" d="M321.577,1078.284h-9.253l.246-2.417h8.762Z" transform="translate(627.293 -299.976)" fill="#b7d3f3"/>
    <path id="Path_36" data-name="Path 36" d="M315.4,1116.786V1130.6H293.8v-13.886a5.592,5.592,0,0,1,.032-.616h21.535c.023.227.036.454.036.685" transform="translate(639.66 -326.84)" fill="#fff"/>
    <path id="Path_37" data-name="Path 37" d="M387.938,1131.964v11.985H375.854v-12.023a3.1,3.1,0,0,1,.018-.344,3.686,3.686,0,0,1,2.231-3.05,2.441,2.441,0,0,0,1.529-2.107l.089-1.731h4.436l.028,1.726a2.356,2.356,0,0,0,1.48,2.114,3.724,3.724,0,0,1,2.254,3.048,3.806,3.806,0,0,1,.02.382" transform="translate(584.875 -332.577)" fill="#c8dbf4"/>
    <path id="Path_38" data-name="Path 38" d="M391.391,1124.267h-5.176l.137-1.352h4.9Z" transform="translate(577.955 -331.39)" fill="#b7d3f3"/>
    <path id="Path_39" data-name="Path 39" d="M387.938,1145.8v7.729H375.854v-7.767a3.1,3.1,0,0,1,.018-.344h12.046a3.808,3.808,0,0,1,.02.382" transform="translate(584.875 -346.417)" fill="#fff"/>
    <rect id="Rectangle_8" data-name="Rectangle 8" width="247.498" height="452.424" transform="translate(1408.501 523.519)" fill="#d3e3f7"/>
    <rect id="Rectangle_9" data-name="Rectangle 9" width="226.071" height="444.477" transform="translate(1419.365 531.466)" fill="#e5effb"/>
    <path id="Path_40" data-name="Path 40" d="M2320.948,979.874a9.994,9.994,0,1,1,9.994,9.993,9.994,9.994,0,0,1-9.994-9.993" transform="translate(-713.857 -229.208)" fill="#d3e3f7"/>
    <rect id="Rectangle_10" data-name="Rectangle 10" width="93.32" height="29.459" transform="translate(1486.071 598.823)" fill="#f5f9fd"/>
    <rect id="Rectangle_11" data-name="Rectangle 11" width="58.683" height="3.031" transform="translate(1503.391 607.956)" fill="#d3e3f7"/>
    <rect id="Rectangle_12" data-name="Rectangle 12" width="42.255" height="3.031" transform="translate(1511.604 616.119)" fill="#d3e3f7"/>
    <path id="Path_41" data-name="Path 41" d="M2048.957,571.346H1953.4v-31.7h95.56Zm-93.32-2.239h91.081v-27.22h-91.081Z" transform="translate(-468.445 58.056)" fill="#bad4f4"/>
    <path id="Path_42" data-name="Path 42" d="M1650.37,444.406c-7.747-4.019-13.954-1.493-13.954-1.493-23.7-2.784-30.619,24.86-30.3,34.372s1.407,19.728-9.179,32.084c-30.577,35.693,33.461,37.268,33.461,37.268.542-28.518,34.727-18.112,33.228-15.223,43.823,10.517,4.358-77.868-13.26-87.008" transform="translate(-224.918 123.169)" fill="#163560"/>
    <path id="Path_43" data-name="Path 43" d="M1448.81,791.608s-4.169-6.346-7.528-6.47-9.581-1.866-9.083-.622,4.355,1.369,4.728,2.115-5.723,1.866-7.466,1.991-5.848,0-5.724.871,7.4,4.479,12.535,3.982,11.48,1.493,11.48,1.493Z" transform="translate(-114.793 -105.144)" fill="#ffb27d"/>
    <path id="Path_44" data-name="Path 44" d="M1554.391,711.116a62.46,62.46,0,0,1-6.376,9.642c-4.953,6.2-12.59,13.371-22.18,14.785a23.806,23.806,0,0,1-13.177-2.139.053.053,0,0,0-.015,0c-11.646-5.17-20.4-17.059-20.4-17.059a9.574,9.574,0,0,1,1.306-9.4s23.517,5.289,25.757,4.169,15.3-38.758,18.414-43.487,13.714-7.185,13.714-7.185Z" transform="translate(-160.09 -22.599)" fill="#f9ddbf"/>
    <path id="Path_45" data-name="Path 45" d="M1590.378,816.906c-4.953,6.2-12.591,13.371-22.18,14.786a23.8,23.8,0,0,1-13.177-2.139c.455.06,12.087,1.5,16.723-6.8,4.729-8.462,9.843-21.9,16.869-17.421,3.031,1.933,2.9,6.738,1.765,11.572" transform="translate(-202.451 -118.747)" fill="#f2ccaa"/>
    <path id="Path_46" data-name="Path 46" d="M1892.4,1570.607s7.176,6.549,5.776,11.2-7.876,7.755-8.751,13.442-4.376,8.789-7.526,8.789h-15.02s-2.319-4,3.282-5.208,7.712-7.889,7.362-14.093a109.372,109.372,0,0,1,.525-14.476l11.9-2.757Z" transform="translate(-410.357 -628.24)" fill="#233862"/>
    <path id="Path_47" data-name="Path 47" d="M1679.706,1585.206s2.582,27.742-.569,29.293l-40.317-.082s0-4.653,6.476-5.687,17.852-4.825,19.777-13.27,14.633-10.254,14.633-10.254" transform="translate(-258.404 -640.059)" fill="#233862"/>
    <path id="Path_48" data-name="Path 48" d="M1712.009,716.581c-8.3-18.606-13.373-23.947-12.4-29.722.721-4.3-2.2-80.139-2.2-80.139-.984-.3-2.957-.578-4.037-.818a10.123,10.123,0,0,1-7.392-6.429,51.591,51.591,0,0,1-2.509-17.112l-1.063.209-17.87,3.538s.407,5.624.418,10.921c0,.044,0,.088,0,.132a10.278,10.278,0,0,1-7.417,9.938c-2.257.651-4.221,1.209-4.221,1.209s-6.562,18.734-7.815,37.979,11.932,27.606-.1,66.064c-12.283,39.279,71.188,14.51,66.6,4.229" transform="translate(-261.975 29.537)" fill="#ffb27d"/>
    <path id="Path_49" data-name="Path 49" d="M1705.466,586.529s.407,5.624.419,10.922c10-.282,15.286-9.4,17.451-14.46Z" transform="translate(-302.902 29.116)" fill="#e8945b"/>
    <path id="Path_50" data-name="Path 50" d="M1679.584,528.52s23.659.39,23.675-14.347,3.081-24.612-12.024-25.485-18.046,4.748-19.248,9.666,1.443,29.685,7.6,30.166" transform="translate(-280.361 92.141)" fill="#ffb27d"/>
    <path id="Path_51" data-name="Path 51" d="M1698.052,481.765s6.478,17.29,16.419,19.846,14.254-.107,14.254-.107a28.15,28.15,0,0,1-9.208-16.631s-16.578-11.336-21.465-3.107" transform="translate(-297.953 98.704)" fill="#163560"/>
    <path id="Path_52" data-name="Path 52" d="M1678.814,486.343s-4.8,1.8-6.781,5.3a23.821,23.821,0,0,0-3.2,13.53s-4.88-11.752.6-18.4c5.816-7.049,9.375-.429,9.375-.429" transform="translate(-277.109 95.529)" fill="#163560"/>
    <path id="Path_53" data-name="Path 53" d="M1693.74,579.562a5.945,5.945,0,0,1-4.9,1.993,4.349,4.349,0,0,1-3.645-2.407s4.833-1.162,8.544.414" transform="translate(-289.369 31.956)" fill="#fff"/>
    <path id="Path_54" data-name="Path 54" d="M1703.322,689.207s-.09,11.221-.691,21.385c-.4,6.738-1.019,13.013-1.986,15.245-2.426,5.6-5.162,6.51-5.162,6.51l-21.169,5.189-7.443,1.821-23.472-7.01s-10.691-29.84-6.4-46.637a129.114,129.114,0,0,1,10.851-28.463s19.153,18.754,44.092-1.59Z" transform="translate(-256.512 -19.402)" fill="#f9ddbf"/>
    <path id="Path_55" data-name="Path 55" d="M1761.174,807.279c-.4,6.737-1.019,13.012-1.986,15.244-2.426,5.6-5.162,6.51-5.162,6.51l-21.169,5.189-9.194-2.7s30.691-4.651,27.29-31.057Z" transform="translate(-315.055 -116.09)" fill="#f2ccaa"/>
    <path id="Path_56" data-name="Path 56" d="M1637.9,900.072s-11.624,36.181-12.37,48.5,22.22,174.992,23.144,180.667c.871,5.35,7.514,8.761,7.514,8.761a10.054,10.054,0,0,0,7.417.571c6.051-1.709,7.963-3.754,7.963-3.754s9.048-116.018,3.449-157.462a656.362,656.362,0,0,1-5.665-77.283Z" transform="translate(-249.516 -182.598)" fill="#ed7d2b"/>
    <path id="Path_57" data-name="Path 57" d="M1719.727,896.826s17.731,23.79,19.384,39.872,2.593,72.572,6.115,88.249,16.461,45.849,16.461,94.748a9.756,9.756,0,0,1-5.5,4.3,45.149,45.149,0,0,1-4.835,1.337,7.6,7.6,0,0,1-8.5-4.036c-8.748-17.612-36.612-74.417-38.041-86.208-1.011-8.344-9.809-63.572-29-95.979-4.608-7.78,2.827-38.72,2.827-38.72Z" transform="translate(-282.098 -180.432)" fill="#f99746"/>
    <path id="Path_58" data-name="Path 58" d="M1655.877,883.264s4.667,3.691,13.936,3.878c11.073.223,38.51-2.823,38.51-2.823a22.693,22.693,0,0,1,1.17,7s-33.511,8.453-52.926,1.234c0,0-2.5-4.712-.69-9.292" transform="translate(-269.354 -171.375)" fill="#233862"/>
    <path id="Path_59" data-name="Path 59" d="M1680.995,900.668c-2.786,0-5.053-2.565-5.053-5.718s2.266-5.719,5.053-5.719,5.052,2.565,5.052,5.719-2.266,5.718-5.052,5.718m0-9.762c-1.863,0-3.378,1.814-3.378,4.044s1.516,4.044,3.378,4.044,3.378-1.814,3.378-4.044-1.516-4.044-3.378-4.044" transform="translate(-283.189 -175.359)" fill="#fff"/>
    <rect id="Rectangle_13" data-name="Rectangle 13" width="53.946" height="30.235" transform="matrix(0.978, -0.211, 0.211, 0.978, 1422.699, 755.387)" fill="#163560"/>
    <path id="Path_60" data-name="Path 60" d="M1766.061,991.315s14.742,12.35,31.127,8.054,21.607-19.424,21.607-19.424Z" transform="translate(-343.361 -235.93)" fill="#17467f"/>
    <path id="Path_61" data-name="Path 61" d="M1782.374,1005.381a2.929,2.929,0,1,1,2.929-2.929,2.933,2.933,0,0,1-2.929,2.929m0-4.885a1.956,1.956,0,1,0,1.956,1.956,1.958,1.958,0,0,0-1.956-1.956" transform="translate(-352.299 -249.001)" fill="#17467f"/>
    <path id="Path_62" data-name="Path 62" d="M1917.437,1011.784s.021,4.284.834,6.35,3.25,4.821,4.062,4.821-.745-4.3-.338-4.218,2.366,7.164,3.788,7.336,2.712-7.939,1.967-11.124-3.961-7.006-3.961-7.006Z" transform="translate(-444.436 -254.622)" fill="#ffb27d"/>
    <path id="Path_63" data-name="Path 63" d="M1782.016,655.663a28.812,28.812,0,0,1,20.132,15.654c5.444,10.725,9.179,44.462,13.019,55.085,3.675,10.165,8.749,29.817,11.577,45.563a2.607,2.607,0,0,1-1.607,2.883l-4.813,1.909a2.273,2.273,0,0,1-2.792-.949c-4.277-7.181-21.139-35.938-26.995-52.576a86.946,86.946,0,0,0-19.652-31.53Z" transform="translate(-346.582 -19.407)" fill="#f9ddbf"/>
    <path id="Path_64" data-name="Path 64" d="M1780.2,770.585c-.031-.483-3.075-48.591-2.493-75.64.306-14.2,2.5-24.208,4.286-30.1,1.949-6.43,4.861-9.062,4.939-9.187l.993.294c-.073.119-8.15,12.269-8.726,39.026-.581,26.986,2.459,75.031,2.49,75.513Z" transform="translate(-351.09 -19.402)" fill="#0c2442"/>
    <path id="Path_65" data-name="Path 65" d="M1029.516,1642.335h24.865a60.106,60.106,0,0,0-1.984-8.925,25.288,25.288,0,0,0-1.408-3.582c-2.418-4.827-17.778-1.757-17.778-1.757s-1.427,1.223-2.54,5.891a49.459,49.459,0,0,0-1.155,8.373" transform="translate(148.426 -668.037)" fill="#233862"/>
    <path id="Path_66" data-name="Path 66" d="M1161.285,529.985s19.813,3.479,24.293,15.174,29.786,200.6,29.786,200.6-12.531,9.929-39.431,6.365-14.648-222.142-14.648-222.142" transform="translate(62.303 64.507)" fill="#91cecf"/>
    <path id="Path_67" data-name="Path 67" d="M1255.605,1614.152c.068,3.383.494,6.584,1.721,7.847h49.182c-.625-1.779-2.4-4.456-7.445-5.275-5.737-.928-14.681-3.691-19.9-9.211a14.813,14.813,0,0,1-3.854-6.978c-2.314-10.3-19.132,3.156-19.132,3.156a83.314,83.314,0,0,0-.571,10.461" transform="translate(-2.523 -647.702)" fill="#233862"/>
    <path id="Path_68" data-name="Path 68" d="M1161.4,1168.485c-5.5,1.752-16,7.106-22.674,4.587-4.312-1.625-28.418-71.356-29.982-101.856a78.07,78.07,0,0,0-1.234-9.085c-1.428-7.87-3.926-18.687-6.8-30.623-7.714-31.981-18.149-71.99-17.922-84.777.35-19.848,59.149-4.16,59.149-4.16s4.044,16.281,4.851,39.852c1.6,46.789,5.986,125.823,17.926,180.71a4.713,4.713,0,0,1-3.312,5.353" transform="translate(112.859 -207.043)" fill="#af4138"/>
    <path id="Path_69" data-name="Path 69" d="M1064.028,952.722l-31.084,225.285s-13.651,3.292-24.267.659c0,0-9.1-119.817-8.342-148.784s-6.531-77.51,1.663-82.863,62.029,5.7,62.029,5.7" transform="translate(169.424 -212.967)" fill="#c65447"/>
    <path id="Path_70" data-name="Path 70" d="M998.07,534.125s32.666-21.122,56.1-10.32c3.733,1.721,7.993,6.525,11.042,9.884,8.469,9.332,25.018,157.577,25.018,157.577s-46.977,15.91-92.155-5.4Z" transform="translate(169.424 70.688)" fill="#fff"/>
    <path id="Path_71" data-name="Path 71" d="M1172.472,528.373s33.069,13.553,37.549,23.966,19.036,74.361,19.036,81.859-25.347,1.677-29.427-10.418c-3.388-10.043-14.818-40.9-20.844-60.409Z" transform="translate(52.977 65.584)" fill="#abddda"/>
    <path id="Path_72" data-name="Path 72" d="M1100.389,500.085a37.2,37.2,0,0,1-25.588-5.211,73.634,73.634,0,0,0,5.454-19.261c.03-.228.052-.448.075-.661a19.66,19.66,0,0,0,.09-4.412h18.664s5.1,2.333,5.1,3.945q0,1.294.022,2.475c.038,2.147.123,4.02.235,5.63a51.118,51.118,0,0,0,.956,7.7s2.28,8.361-5.009,9.791" transform="translate(118.189 104.199)" fill="#ffb27d"/>
    <path id="Path_73" data-name="Path 73" d="M1114.606,489.5c-14.14,2.733-22.348-4.995-24.189-6.977-.261-.284-.4-.452-.4-.452.149-.075.306-.142.47-.209,5.263-2.131,17.208-.437,23.879,2.008.037,2.146.123,4.02.235,5.629" transform="translate(108.027 97.286)" fill="#e2915a"/>
    <path id="Path_74" data-name="Path 74" d="M1070.165,392.49c2.527,13.6,20.074,13.153,27.657,12.3,2.134-.238,3.477-.51,3.477-.51,2.406-.643,3.749-4.433,4.373-9.4,1.238-9.825-.326-24.247-1.985-27.936-2.5-5.551-7.2-11.554-24.874-7.222s-11.889,15.344-8.647,32.767" transform="translate(123.66 179.18)" fill="#ffb27d"/>
    <path id="Path_75" data-name="Path 75" d="M1080.818,336.885c-2.415-3.344-7.536-7.429-12.187-9.946-9.992-5.406-22.78.17-22.833.193-14.434,6.346-18.2,17.389-10.551,34.591,8.092,18.19,15.8,16.143,15.8,16.143s-1.635-1.018-1.487-6.687c.008-.322.021-.591.036-.823a3.813,3.813,0,0,0-1.2-3.1c-1.793-1.6-2.667-6.439-1.165-7.787,1.811-1.625,4.356.349,5.169,1.868a2.217,2.217,0,0,0,3.167.7c4.492-2.84,1.574-8.52,5.867-12s13-.557,19.443-3.327c8.429-3.141,1.769-7.308-.051-9.828" transform="translate(147.188 201.655)" fill="#233862"/>
    <path id="Path_76" data-name="Path 76" d="M1041.852,758.674q-4.267,1.1-8.459,1.8c-2.475.422-4.938.735-7.406.944-13.979,1.217-28.022-.75-44.435-5.457q-5.543-1.59-11.478-3.595c-.422-.142,1.079-43.543,2.811-88.311.175-4.621.358-9.261.537-13.867q.118-2.928.231-5.831c1.572-39.594,3.128-75.35,3.457-77.276.75-4.356,1.452-8.07,2.218-11.288,2.236-9.38,5.013-14.524,11.068-18.948.59-.448,5.431-2.889,9.7-5.013,3.539-1.758,6.682-3.292,6.682-3.292h0c1.407.69,3.1,3.916,4.868,8.443,3.251,8.346,6.76,21.128,9.2,30.672a.265.265,0,0,1,.011.049v0c1.571,6.163,2.7,10.963,3.02,12.341.545,2.326,1.265,6.828,2.113,12.93,1.15,8.306,2.523,19.579,3.975,32.371q.224,1.971.448,3.99.258,2.3.519,4.655c.056.5.112,1.008.164,1.512.56,5.065,1.124,10.3,1.684,15.61.467,4.394,7.13,7.57,7.589,12.038.265,2.624.819,26.834,1.532,34.561.511,5.517.147,58.367-.054,60.962" transform="translate(188.164 65.476)" fill="#abddda"/>
    <path id="Path_77" data-name="Path 77" d="M1003.96,692.551c-.021.09-1.133,40.038,28.916,44.891s10.084,6.135,10.084,6.135-56.538-2.4-57.471-3.9,18.47-47.13,18.47-47.13" transform="translate(177.846 -44.037)" fill="#91cecf"/>
    <path id="Path_78" data-name="Path 78" d="M1010.938,862.991s-.564.4-1.646,1.1a.521.521,0,0,0-.056.034,141.114,141.114,0,0,1-38,16.253q-3.119.845-6.443,1.59c.175-4.621.358-9.261.537-13.867a58.123,58.123,0,0,1-7.447-1.03c.078-.608.161-1.217.239-1.825,2.52-1.034,5.024-2.031,7.44-2.975,1.967-.769,3.871-1.5,5.674-2.18,8.137-3.091,14.17-5.185,14.17-5.185l24.088,7.63Z" transform="translate(196.254 -152.438)" fill="#91cecf"/>
    <path id="Path_79" data-name="Path 79" d="M979.865,644.409s-3.094.773-8.022,1.766a.132.132,0,0,0-.052.011c-9.086,1.825-24.36,4.386-38,4.248-2.012-.022-3.99-.1-5.905-.25a58.067,58.067,0,0,1-7.447-1.03c-4.987-1.053-9.164-2.834-11.9-5.618-20.3-20.672,11.075-94.865,17.671-102.085,7.7-8.429,21.755-11.385,29.515-12.4.325-.041.634-.082.937-.119,2.729-.325,4.479-.392,4.576-.4h0s-.608,1.956-1.627,5.274c-.4,1.284-.855,2.773-1.359,4.435-4.767,15.611-13.964,46.29-18.018,63.592-1.486,6.331-2.281,10.87-1.919,12.225,1.583,5.909,17.981,8.948,28.369,10.291,4.334.56,7.622.825,8.358.881a1.028,1.028,0,0,1,.153.011l.6,2.464,1.437,5.909,1.415,5.8Z" transform="translate(233.703 65.476)" fill="#abddda"/>
    <path id="Path_80" data-name="Path 80" d="M1167.015,803.817l-69.7-2.937,14.141-86.865,69.7,2.937Z" transform="translate(103.158 -58.369)" fill="#233862"/>
    <path id="Path_81" data-name="Path 81" d="M1114.889,819.3s13.568-.946,14.249,2.216c1.586,7.372-11.665,13.426-15.958,13.012s-1.414-15.721,1.709-15.229" transform="translate(94.014 -128.578)" fill="#ffb27d"/>
    <path id="Path_82" data-name="Path 82" d="M1308.124,771.523s-12.981-4.059-14.375-1.14c-3.249,6.806,8.243,15.76,12.515,16.35s5.012-14.967,1.86-15.211" transform="translate(-27.619 -95.3)" fill="#ffb27d"/>
    <path id="Path_83" data-name="Path 83" d="M1067.7,515.41s-5.708,2.721-8.57,6.826c0,0,21.337,37.046,21.242,36.7s-7.213-38.78-12.672-43.525" transform="translate(128.652 74.24)" fill="#91cecf"/>
    <path id="Path_84" data-name="Path 84" d="M1164.893,516.981c1.88.709,5.484,4.4,6.3,6.443l2.537,32.341s-5.416-23.735-8.173-34.463a18.157,18.157,0,0,1-.66-4.321" transform="translate(58.035 73.19)" fill="#91cecf"/>
    <path id="Path_85" data-name="Path 85" d="M1209.4,712.62s.551-2.41,3.724-2.13,21,1.157,21,1.157,3.438-.057,3.119,2.146Z" transform="translate(28.318 -55.999)" fill="#c65447"/>
    <path id="Path_86" data-name="Path 86" d="M1147.872,466.688a7.441,7.441,0,0,0,6.047,1.456c2.214-.387,3.453-3.266,3.453-3.266a16.716,16.716,0,0,0-9.5,1.81" transform="translate(69.4 108.05)" fill="#fff"/>
  </g>
</svg>
