<svg xmlns="http://www.w3.org/2000/svg" xmlns:xlink="http://www.w3.org/1999/xlink" width="260" height="364" viewBox="0 0 260 364">
  <defs>
    <clipPath id="clip-path">
      <rect id="Rectangle_2009" data-name="Rectangle 2009" width="144.259" height="147.722" transform="translate(0 0)" fill="none"/>
    </clipPath>
  </defs>
  <g id="Group_6585" data-name="Group 6585" transform="translate(-640 -266)">
    <rect id="Rectangle_2040" data-name="Rectangle 2040" width="260" height="364" rx="24" transform="translate(640 266)" fill="#ebf3fa"/>
    <g id="Group_6566" data-name="Group 6566" transform="translate(698 373.999)">
      <g id="Group_6563" data-name="Group 6563" transform="translate(0 0.001)" clip-path="url(#clip-path)">
        <path id="Path_1294" data-name="Path 1294" d="M17.387,639.768A135.882,135.882,0,0,0,15.579,621.9c-1.3-6.976-2.464-10.99-2.477-11.033-.171-.614-2.638-3.1-8.124-3.019S.013,611.182.013,611.182a.987.987,0,0,0,.039.289,146.085,146.085,0,0,1,4.87,39.094c0,.308-.04.84-.017,1.195,0,0,12.712.305,12.715,0,.443-1.917.227-7.229-.234-11.992" transform="translate(0 -543.247)" fill="#b7d3f3"/>
        <path id="Path_1295" data-name="Path 1295" d="M30.914,650.458c0,.306-.177.55-.389.55h0c-.211,0-.38-.249-.382-.55H19.244c0,.306-.177.55-.389.55h0c-.215,0-.386-.257-.384-.566a142.585,142.585,0,0,0-.9-17.318A127.707,127.707,0,0,0,13.4,611.472a1,1,0,0,1-.039-.29s-.52-3.255,4.965-3.332,7.954,2.406,8.125,3.02c.01.032.671,2.3,1.549,6.391.291,1.353.605,2.906.928,4.641a136.015,136.015,0,0,1,1.808,17.866c.461,4.763.623,8.773.18,10.69" transform="translate(-11.928 -543.247)" fill="#d2e3fc"/>
        <path id="Path_1296" data-name="Path 1296" d="M53.932,986.666H96.644s-.995-3.745-25.731-3.188c-17.505.395-16.981,3.188-16.981,3.188" transform="translate(-48.199 -878.905)" fill="#c5dcf8"/>
        <path id="Path_1297" data-name="Path 1297" d="M21.235,1057.949c4.952-23.329,3.679-37.644,3.673-37.824-.012-.359.7-.685,1.082-.7s2.1-.106,2.294.2c.259.4,1.256,18.04-6.124,38.32Z" transform="translate(-18.978 -911.066)" fill="#b7d3f3"/>
        <path id="Path_1298" data-name="Path 1298" d="M335.582,1057.949c-4.952-23.329-3.679-37.644-3.673-37.824.013-.359-.7-.685-1.082-.7s-2.1-.106-2.295.2c-.259.4-1.256,18.04,6.124,38.32Z" transform="translate(-293.445 -911.066)" fill="#b7d3f3"/>
        <path id="Path_1299" data-name="Path 1299" d="M409.945,1057.949c-4.952-23.329-3.679-37.644-3.673-37.824.013-.359-.7-.685-1.082-.7s-2.1-.106-2.295.2c-.259.4-1.256,18.04,6.124,38.32Z" transform="translate(-359.905 -911.066)" fill="#b7d3f3"/>
        <path id="Path_1300" data-name="Path 1300" d="M96.1,1057.949c4.952-23.329,3.679-37.644,3.673-37.824-.012-.359.7-.685,1.082-.7s2.1-.106,2.295.2c.259.4,1.256,18.04-6.124,38.32Z" transform="translate(-85.886 -911.066)" fill="#b7d3f3"/>
        <path id="Path_1301" data-name="Path 1301" d="M89.57,1007H46.8a.847.847,0,0,1-.844-.844v-.475a.847.847,0,0,1,.844-.844H89.57a.847.847,0,0,1,.844.844v.475a.847.847,0,0,1-.844.844" transform="translate(-41.068 -898.045)" fill="#b7d3f3"/>
        <path id="Path_1302" data-name="Path 1302" d="M86.413,284.235c-.124-.291-1.571-3.386-6.482-1.7,0,0,2.493-.628,3.306.262,0,0-2.119-.674-3.281.249s-1.052,3.536-.769,4.3,1.958,2.939,2.877,2.827a2.741,2.741,0,0,0,1.017-.388,12.217,12.217,0,0,0-.206,1.412c-.414,4.711,3.066,7.828,4.539,6.773.945-.677,1.928,1,1.928,1l7.042-12.166s-6.716-6.321-9.97-2.573" transform="translate(-70.603 -252.062)" fill="#2c3a64"/>
        <path id="Path_1303" data-name="Path 1303" d="M178.248,446.556c-6.67,2.981-11.684-7.541-11.248-7.649.667-.754,1.354-3.442.866-7.31l.346.024,5.8.429s.09,1.8.29,3.478a9.948,9.948,0,0,0,.549,2.614,5.5,5.5,0,0,0,1.329.32c.1.107,3.847,7.3,2.067,8.094" transform="translate(-149.227 -385.728)" fill="#ffb27d"/>
        <path id="Path_1304" data-name="Path 1304" d="M574.837,1330.154H563.148a6.42,6.42,0,0,1,.33-3.133c.585-1.3.958-1.652.323-3.152.743.765,2.912,1.317,4.6,1.09a12.819,12.819,0,0,0,2.028,2.629c.764.549,4.17.353,4.405,2.566" transform="translate(-503.24 -1183.17)" fill="#233862"/>
        <path id="Path_1305" data-name="Path 1305" d="M381.18,1324.931H369.491a6.418,6.418,0,0,1,.33-3.133c.585-1.3,1.725-2.164,2.06-3.66.743.765,1.175,1.826,2.865,1.6a12.826,12.826,0,0,0,2.028,2.629c.764.549,4.17.353,4.405,2.566" transform="translate(-330.165 -1178.048)" fill="#233862"/>
        <path id="Path_1306" data-name="Path 1306" d="M311.866,568.669l-.005,2.33s-.783.066-2.03.168c-.375.028-.592.032-.592.032-1,.072-2.2.126-3.515.189l-.018.005c-2.256.066-4.794.1-6.979-.037-.2-.014-.39-.029-.579-.045a16.839,16.839,0,0,1-3.3-.56,2.176,2.176,0,0,1-.283-.1,50.1,50.1,0,0,1-16.874-16.776c-1.3-4.925,2.967-5.658,14.472,7.124,3.347,3.719,5.341,3.579,6.578,4.044.327.125.678.25,1.043.377,2.031.7,4.565,1.405,6.8,1.973,1.1.285,2.128.534,2.985.738,1.383.335,2.295.543,2.295.543" transform="translate(-247.98 -492.055)" fill="#ffb27d"/>
        <path id="Path_1307" data-name="Path 1307" d="M94.955,838.587s-2.623,8.174,3.23,12.051c7.841,5.2,29.583.767,32.064,3.421.628.672-1.272,1.012-2.344,10.618-1.542,13.816-2.791,21.544-2.791,21.544a3.565,3.565,0,0,0,1.915,2.4,4.119,4.119,0,0,0,2.45.2s15.969-35.061,14.378-39.925c-2.755-8.424-18.006-7.6-35.684-12.576-10.8-3.04-13.217,2.268-13.217,2.268" transform="translate(-84.34 -746.597)" fill="#93312c"/>
        <path id="Path_1308" data-name="Path 1308" d="M99.045,851.777c7.763-.718,28.947-1.083,33.528,2.065,5.638,3.874,13.3,48.173,13.3,48.173a3.757,3.757,0,0,1-1.871.594,14.787,14.787,0,0,1-3.781-.647s-12.6-19.952-13.354-24.943-.368-9.431-2.5-9.581-31.407,3.225-33.906-4.788a20.736,20.736,0,0,1,.388-12.314s1.032,2.1,8.194,1.44" transform="translate(-80.155 -759.964)" fill="#b5453c"/>
        <path id="Path_1309" data-name="Path 1309" d="M101.692,514.88c1.363,8.283.824,18.981.824,18.981-7.929,12.24-30,8.559-30,8.559-.486-4.64,1.377-14.96,2.508-24.142.277-2.251.511-4.431.656-6.444a40.535,40.535,0,0,1,.6-4.7C78.159,497.32,83,496.242,83,496.242c2.263,4.395,9.4,5.578,9.4,5.578a24.166,24.166,0,0,0-.712-5.624,43.734,43.734,0,0,1,4.777.88c2.779.909,10.5,11.309,10.5,11.309a14.008,14.008,0,0,1-5.277,6.495" transform="translate(-64.738 -443.461)" fill="#abddda"/>
        <path id="Path_1310" data-name="Path 1310" d="M184.425,432.262s.089,1.8.29,3.478c-3.18.3-5.209-2.388-6.091-3.907Z" transform="translate(-159.64 -385.939)" fill="#ed975d"/>
        <path id="Path_1311" data-name="Path 1311" d="M171.941,345.269s-7.483,1.04-8.059-3.63-1.93-7.681,2.824-8.543,5.9.806,6.475,2.318.693,9.464-1.239,9.855" transform="translate(-145.904 -297.485)" fill="#ffb27d"/>
        <path id="Path_1312" data-name="Path 1312" d="M154.944,325.634c-1.331-1.263-2.169-.848-2.608-.366a5.28,5.28,0,0,0-6.608,1.9,8.989,8.989,0,0,1-2.274,5.628s1.47.677,4.522-.518a5.4,5.4,0,0,0,2.337-2.073,17.623,17.623,0,0,1-2.561,4.045c3.551-2.2,4.422-7.619,4.505-8.191a5.919,5.919,0,0,1,1.9,1.979c.519,1.144.987,3.572,1.69,3.4,0,0,1.092-3.914-.9-5.808" transform="translate(-128.208 -290.274)" fill="#2c3a64"/>
        <path id="Path_1313" data-name="Path 1313" d="M601.074,710.08a7.2,7.2,0,0,0,1.512-.325,4.513,4.513,0,0,1,1.98-.59c.877.023,2.286-.557,2.244-.3s-1.27,1.1-1.328,1.25a5.749,5.749,0,0,0,2.068,1.954c.746.27,2.647.894,2.393,1.18a11.763,11.763,0,0,1-3.891.76c-.748-.071-2.256-1.3-3.03-1.535a5.633,5.633,0,0,0-1.952-.06Z" transform="translate(-537.188 -633.466)" fill="#ffb27d"/>
        <path id="Path_1314" data-name="Path 1314" d="M649.838,733.689s2.544-.135,3.125.537l-1.972.3Z" transform="translate(-580.774 -655.704)" fill="#ffb27d"/>
        <path id="Path_1315" data-name="Path 1315" d="M653.755,751.222l3.606.132a1.869,1.869,0,0,0-.942-.682,7.86,7.86,0,0,0-2.664.55" transform="translate(-584.275 -670.864)" fill="#ffb27d"/>
        <path id="Path_1316" data-name="Path 1316" d="M114,625.789c-.128-.072-15.337,1.59-17.213-15.707.277-2.251.511-4.431.656-6.444a40.505,40.505,0,0,1,.6-4.7c1.369-.212,3.012,1.261,3.748,3.448,1.516,4.5,12.172,23.215,12.211,23.4" transform="translate(-86.498 -535.266)" fill="#91cecf"/>
        <path id="Path_1317" data-name="Path 1317" d="M144.993,577.619l-.842,2.173s-.754-.219-1.955-.572c-.359-.109-.563-.183-.563-.183-.959-.292-2.1-.674-3.348-1.086l-.018,0c-2.129-.749-4.51-1.63-6.5-2.542-.178-.084-.353-.167-.524-.25a16.845,16.845,0,0,1-2.876-1.707,2.177,2.177,0,0,1-.227-.2c-1.89-1.7-3.868-6.313-5.273-11.19-.2-.673-.374-1.345-.552-2a47.963,47.963,0,0,1-1.308-6.845,18.925,18.925,0,0,1-.146-3.21,7.643,7.643,0,0,1,.075-.892c.556-5.063,4.193-5.217,4.6-4.592a16.008,16.008,0,0,1,1.529,3.495c.763,2.355,1.51,5.382,2.189,8.382.378,1.646.738,3.29,1.111,4.811.206.921.416,1.79.616,2.588a24.293,24.293,0,0,0,1.116,3.558,8.509,8.509,0,0,0,1.95,2.161c.261.234.543.476.838.726,1.643,1.383,3.755,2.952,5.638,4.284.921.66,1.795,1.263,2.52,1.761,1.17.809,1.946,1.331,1.946,1.331" transform="translate(-107.998 -486.42)" fill="#ffb27d"/>
        <path id="Path_1318" data-name="Path 1318" d="M336.7,851.558s3.793-1.073,4.7-.822,4,2.3,3.563,2.857-3.162-.333-4.417-.165-2.225.787-3.128.654a10.477,10.477,0,0,1-1.848-.489Z" transform="translate(-299.901 -760.286)" fill="#ffb27d"/>
        <path id="Path_1319" data-name="Path 1319" d="M346.23,845.847a14.227,14.227,0,0,0,2.383-1.5.148.148,0,0,1,.23.027c.141.223.274.654-.377,1.082a3.5,3.5,0,0,1-2.237.387" transform="translate(-309.433 -754.575)" fill="#ffb27d"/>
        <path id="Path_1320" data-name="Path 1320" d="M112.924,530.81s-3.536,1.717-4.771,4.069-1.386,9.858.525,19.617a14.125,14.125,0,0,0,9.529-5.374s-1.4-19.723-5.284-18.311" transform="translate(-95.836 -474.332)" fill="#abddda"/>
        <path id="Path_1321" data-name="Path 1321" d="M163.572,482.107a2.768,2.768,0,0,0-1.292,1.992s1.523,4.162,10.417,5.129c0,0-8.186-4.026-9.125-7.121" transform="translate(-145.033 -430.869)" fill="#91cecf"/>
        <path id="Path_1322" data-name="Path 1322" d="M238.146,483.1s2.244,4.122,2.18,6.13a36.12,36.12,0,0,0-.165-5.623c-.318-1.06-2.21-1.5-2.21-1.5Z" transform="translate(-212.661 -430.869)" fill="#91cecf"/>
        <path id="Path_1323" data-name="Path 1323" d="M224.272,421.978a2.5,2.5,0,0,0,1.728.457c.94-.178.932-.915.932-.915a4.209,4.209,0,0,0-1.206,0,9.864,9.864,0,0,0-1.454.457" transform="translate(-200.437 -376.681)" fill="#fff"/>
        <path id="Path_1324" data-name="Path 1324" d="M724.869,1008.736H653.49a1.815,1.815,0,0,1-1.81-1.81v-2.394a1.815,1.815,0,0,1,1.81-1.81h71.379a1.815,1.815,0,0,1,1.81,1.81v2.394a1.815,1.815,0,0,1-1.81,1.81" transform="translate(-582.42 -896.154)" fill="#b0d4ff"/>
        <path id="Path_1325" data-name="Path 1325" d="M1225.653,1093.584h-.766l-5.936-22.472v0L1217.6,1066l0,0-1.75-6.628,3.5-.059,1.191,6.472.891,4.847c0,.024.01.047.014.07Z" transform="translate(-1086.631 -946.727)" fill="#d2e3fc"/>
        <path id="Path_1326" data-name="Path 1326" d="M1220.537,1065.781a9.648,9.648,0,0,0-1.586,5.328L1217.6,1066l0,0-1.75-6.628,3.5-.059Z" transform="translate(-1086.631 -946.727)" fill="#b0d4ff"/>
        <path id="Path_1327" data-name="Path 1327" d="M687.833,1093.584h.766l5.936-22.472v0l1.349-5.11,0,0,1.75-6.628-3.5-.059-1.191,6.472-.891,4.847c0,.024-.01.047-.014.07Z" transform="translate(-614.731 -946.727)" fill="#d2e3fc"/>
        <path id="Path_1328" data-name="Path 1328" d="M735.974,1065.781a9.648,9.648,0,0,1,1.586,5.328l1.349-5.11,0,0,1.75-6.628-3.5-.059Z" transform="translate(-657.756 -946.727)" fill="#b0d4ff"/>
        <path id="Path_1329" data-name="Path 1329" d="M641.511,722.76a1.38,1.38,0,0,0-1.083-.3,4,4,0,0,1-1.812.253c-.765-.137-2.076.184-2.006-.031s1.259-.8,1.33-.918a5.093,5.093,0,0,0-1.551-1.987c-.617-.336-2.2-1.135-1.938-1.352a10.425,10.425,0,0,1,3.509-.148c.646.162,1.8,1.442,2.45,1.747a16.643,16.643,0,0,1,1.779,1.1Z" transform="translate(-566.996 -641.868)" fill="#f29b5f"/>
        <path id="Path_1330" data-name="Path 1330" d="M640.444,732.3s-2.246-.221-2.666-.886h1.767Z" transform="translate(-569.996 -653.684)" fill="#ffb27d"/>
        <path id="Path_1331" data-name="Path 1331" d="M635.985,714.679l-3.141-.6a1.656,1.656,0,0,0,.734.722,6.963,6.963,0,0,0,2.406-.127" transform="translate(-565.586 -638.192)" fill="#ffb27d"/>
        <path id="Path_1332" data-name="Path 1332" d="M728.9,588.1s-1.923-.874-7.93,4.556S710.853,603.758,707.644,604s-11.493.263-11.493.263l-.922,1.938s-.156.748,4.929,2.366a44.53,44.53,0,0,0,10.257,1.769c4.114-.494,13.974-7.082,15.474-9.056S728.9,588.1,728.9,588.1" transform="translate(-621.34 -525.547)" fill="#b0d0ff"/>
        <path id="Path_1333" data-name="Path 1333" d="M1001.1,375.764s-.111-3.914,5.05-4.681,6.588.439,7.465,1.755,2.523,6.691,2.358,8.831-6.052,4.784-5.956,6.032-8.918-11.937-8.918-11.937" transform="translate(-894.706 -331.43)" fill="#163560"/>
        <path id="Path_1334" data-name="Path 1334" d="M695.112,1282.417c.1,1.306-1.717,1.6-3.821,1.677s-1.475.516-4.364,1-4.034-.319-4.237-.712c-.181-.348,1.166-.871,2.6-1.463.181-.074.362-.15.543-.227a6.743,6.743,0,0,0,3.479-3.479,28.713,28.713,0,0,0,1.022-5.336l5.019-.7s-.887,3.288-1.289,4.84c-.236.913.419,2.288.7,3.071a5.124,5.124,0,0,1,.343,1.322" transform="translate(-610.119 -1137.872)" fill="#f29b5f"/>
        <path id="Path_1335" data-name="Path 1335" d="M691.291,1350.618c-2.1.077-1.475.516-4.364,1s-4.034-.32-4.237-.712c-.181-.348,1.166-.871,2.6-1.463l.022.025a8.209,8.209,0,0,0,4.365.109c1.914-.493,3.772-1.608,5.09-1.959a5.125,5.125,0,0,1,.343,1.322c.1,1.306-1.717,1.6-3.821,1.677" transform="translate(-610.119 -1204.396)" fill="#b24940"/>
        <path id="Path_1336" data-name="Path 1336" d="M781.235,870.528s-26.068,1.368-30.535,5.059-3.649,39.267-3.649,39.267a3.557,3.557,0,0,0,2.222.806,20.716,20.716,0,0,0,2.551.14s5.108-17.8,5.38-21.932,1.5-11.1,3.281-11.424,22.669,3.02,25.292-3.384a13.866,13.866,0,0,0-.936-11.953Z" transform="translate(-667.603 -774.952)" fill="#163560"/>
        <path id="Path_1337" data-name="Path 1337" d="M979.492,624.612c-1.121.75-4.017,1.165-7.378,1.285-6.016.219-13.522-.5-15-1.894a2.543,2.543,0,0,1-.624-1.715c-.163-2.308.94-6.106,1.68-9.249.481-2.042.808-3.806.54-4.708-.816-2.745-3.352-8.337-3.571-10.175s1.975-11.686,5.007-12.905,14.738,0,14.738,0c4.573.928,4.765,10.677,3.247,18.976-.04.214-.079.426-.12.637-1.646,8.426,4.607,17.654,1.481,19.749" transform="translate(-853.615 -522.567)" fill="#b0d0ff"/>
        <path id="Path_1338" data-name="Path 1338" d="M1021.192,527.821c.082.535,1.546,1.4,4.675.577,3-.79,3.358-1.767,3.357-2.411,0-.763-1.3-1.791-1.286-6.487l-.359.071-6.044,1.2s.137,1.9.142,3.694c0,1.5-.62,2.469-.484,3.359" transform="translate(-912.644 -464.288)" fill="#f29b5f"/>
        <path id="Path_1339" data-name="Path 1339" d="M1024.574,521.363s.138,1.9.142,3.694c3.382-.1,5.17-3.181,5.9-4.891Z" transform="translate(-915.684 -464.884)" fill="#d68147"/>
        <path id="Path_1340" data-name="Path 1340" d="M991.534,433.841s8,.132,8.008-4.853,1.042-8.325-4.067-8.62-6.1,1.606-6.511,3.269.488,10.041,2.57,10.2" transform="translate(-883.773 -375.665)" fill="#f29b5f"/>
        <path id="Path_1341" data-name="Path 1341" d="M1016.734,409.269s2.191,5.848,5.554,6.713,4.821-.036,4.821-.036a25.026,25.026,0,0,1-2.024-6.585s-6.7-2.875-8.35-.092" transform="translate(-908.677 -364.688)" fill="#163560"/>
        <path id="Path_1342" data-name="Path 1342" d="M987.77,415.924a7.067,7.067,0,0,0-2.035,2.575c-.4,1.269-.578,3.882-1.34,3.794,0,0-1.651-3.975.2-6.224,1.967-2.384,3.171-.145,3.171-.145" transform="translate(-879.17 -370.868)" fill="#163560"/>
        <path id="Path_1343" data-name="Path 1343" d="M1005.393,515.557s-.149.633-1.725.536c0,0-1.323-.082-1.282-.778a4.255,4.255,0,0,1,3.007.242" transform="translate(-895.853 -460.402)" fill="#fff"/>
        <path id="Path_1344" data-name="Path 1344" d="M841.047,1270.234c-.045,1.309-1.887,1.395-3.987,1.234s-1.523.346-4.449.5-3.972-.774-4.13-1.187c-.141-.366,1.257-.733,2.751-1.159.188-.053.377-.108.565-.163,1.684-.5,2.76-1.815,4.172-2.983,1.337-1.106-1.209-6.9-1.209-6.9l3.792-1.618s.5,4.073,1.234,7.649c.189.924.876,2.465,1.07,3.276a5.136,5.136,0,0,1,.191,1.353" transform="translate(-740.423 -1124.262)" fill="#f29b5f"/>
        <path id="Path_1345" data-name="Path 1345" d="M990.843,751.689c-1.121.75-4.017,1.165-7.378,1.285-5.549-1.262-11.865-2.731-15.624-3.609-.163-2.308.94-6.106,1.68-9.249,4.382,1.338,10.9-3.22,13.095-5.022,2.3-1.892,2.231-8.2,2.231-8.2l4.635,4.406c-.04.214-.079.426-.12.637-1.646,8.426,4.607,17.654,1.481,19.749" transform="translate(-864.965 -649.643)" fill="#98baf4"/>
        <path id="Path_1346" data-name="Path 1346" d="M837.06,1363.334c-2.1-.161-1.523.346-4.449.5s-3.972-.774-4.13-1.187c-.141-.366,1.257-.733,2.751-1.159l.019.027a8.208,8.208,0,0,0,4.325.6c1.957-.273,3.93-1.171,5.28-1.37a5.127,5.127,0,0,1,.191,1.353c-.045,1.309-1.887,1.395-3.987,1.233" transform="translate(-740.423 -1216.13)" fill="#c65447"/>
        <path id="Path_1347" data-name="Path 1347" d="M857.012,905.946c-6.576-.508-26.321.066-30.237,2.68-4.82,3.216,6.8,40.067,6.8,40.067h3.73s2.169-21.4.823-25.669c-1.244-3.947-2.055-5.361-.247-5.5s24.1,3.772,26.3-2.789a16.235,16.235,0,0,0-.206-10.041s-.9,1.725-6.963,1.257" transform="translate(-737.86 -808.54)" fill="#1c468a"/>
        <path id="Path_1348" data-name="Path 1348" d="M1021.136,589.693s4.58.389,4.936,4.009c.271,2.749,2.263,22.246.828,23.941-4.037,4.772-17.5,5.783-19.48,6.507l-.545-2.257s14.37-7.24,14.151-8.885-4.283-23.967.11-23.315" transform="translate(-899.866 -527.009)" fill="#b0d0ff"/>
        <path id="Path_1349" data-name="Path 1349" d="M1095.316,369.243s-.329-2.088,2.568-2.627,2.95,5.613,3.26,7.1-.463,2.371-1.568,2.462-4.26-6.93-4.26-6.93" transform="translate(-978.898 -327.623)" fill="#163560"/>
        <path id="Path_1350" data-name="Path 1350" d="M930.078,884.055s-4.093-1.158-5.068-.887-4.315,2.482-3.845,3.083,3.412-.36,4.766-.178,2.4.85,3.376.705a11.3,11.3,0,0,0,1.994-.528Z" transform="translate(-823.225 -789.269)" fill="#f29b5f"/>
        <path id="Path_1351" data-name="Path 1351" d="M980.633,877.891a15.341,15.341,0,0,1-2.572-1.614.159.159,0,0,0-.249.028c-.153.241-.3.706.407,1.168a3.777,3.777,0,0,0,2.414.418" transform="translate(-873.78 -783.105)" fill="#f29b5f"/>
        <path id="Path_1352" data-name="Path 1352" d="M359.734,12.328c0,6.808-7.618,12.327-17.016,12.327S325.7,19.136,325.7,12.328,333.32,0,342.718,0s17.016,5.519,17.016,12.327" transform="translate(-291.087 -0.001)" fill="#ffb27d"/>
        <path id="Path_1353" data-name="Path 1353" d="M342.007,183.94l-4.132,6.263,8.4-3.875Z" transform="translate(-301.966 -164.391)" fill="#ffb27d"/>
        <path id="Path_1354" data-name="Path 1354" d="M625.157,242.315c0,5.65,6.322,10.23,14.121,10.23s14.121-4.58,14.121-10.23-6.322-10.23-14.121-10.23-14.121,4.58-14.121,10.23" transform="translate(-558.716 -207.419)" fill="#98baf4"/>
        <path id="Path_1355" data-name="Path 1355" d="M818.743,384.729l3.429,5.2-6.971-3.216Z" transform="translate(-728.563 -343.841)" fill="#98baf4"/>
      </g>
    </g>
  </g>
</svg>
