<svg width="725" height="633" viewBox="0 0 725 633" fill="none" xmlns="http://www.w3.org/2000/svg">
<path d="M617.438 79.125V73.125H611.438H57.5625H51.5625V79.125V158.25V164.25H57.5625H97.125H571.875H611.438H617.438V158.25V79.125ZM611.438 191.812H571.875H97.125H57.5625C38.9932 191.812 24 176.819 24 158.25V79.125C24 60.5557 38.9932 45.5625 57.5625 45.5625H611.438C630.007 45.5625 645 60.5557 645 79.125V158.25C645 176.819 630.007 191.812 611.438 191.812ZM221.812 296.719C221.812 289.153 228.028 282.938 235.594 282.938H433.406C440.972 282.938 447.188 289.153 447.188 296.719C447.188 304.285 440.972 310.5 433.406 310.5H235.594C228.028 310.5 221.812 304.285 221.812 296.719ZM577.875 243.375H605.438V514.312C605.438 554.641 572.641 587.438 532.312 587.438H136.688C96.3588 587.438 63.5625 554.641 63.5625 514.312V243.375H91.125V514.312C91.125 539.509 111.491 559.875 136.688 559.875H532.312C557.509 559.875 577.875 539.509 577.875 514.312V243.375Z" fill="white" stroke="#F2F1FA" stroke-width="12"/>
<rect x="83" y="20" width="348" height="192" rx="24" fill="white"/>
<path d="M128 97.5H130.5V100H128C125.242 100 123 97.7578 123 95V65C123 62.2422 125.242 60 128 60H140.195C141.188 60 142.141 60.3984 142.844 61.1016L151.898 70.1484C152.602 70.8516 153 71.8047 153 72.7969V82.5H150.5V75H141.75C139.68 75 138 73.3203 138 71.25V62.5H128C126.617 62.5 125.5 63.6172 125.5 65V95C125.5 96.3828 126.617 97.5 128 97.5ZM150.461 72.5C150.406 72.2812 150.297 72.0781 150.133 71.9219L141.078 62.8672C140.914 62.7031 140.719 62.5938 140.5 62.5391V71.25C140.5 71.9375 141.062 72.5 141.75 72.5H150.461ZM136.75 87.5H139.25C141.664 87.5 143.625 89.4609 143.625 91.875C143.625 94.2891 141.664 96.25 139.25 96.25H138V98.75C138 99.4375 137.438 100 136.75 100C136.062 100 135.5 99.4375 135.5 98.75V95V88.75C135.5 88.0625 136.062 87.5 136.75 87.5ZM139.25 93.75C140.289 93.75 141.125 92.9141 141.125 91.875C141.125 90.8359 140.289 90 139.25 90H138V93.75H139.25ZM146.75 87.5H149.25C151.32 87.5 153 89.1797 153 91.25V96.25C153 98.3203 151.32 100 149.25 100H146.75C146.062 100 145.5 99.4375 145.5 98.75V88.75C145.5 88.0625 146.062 87.5 146.75 87.5ZM149.25 97.5C149.938 97.5 150.5 96.9375 150.5 96.25V91.25C150.5 90.5625 149.938 90 149.25 90H148V97.5H149.25ZM155.5 88.75C155.5 88.0625 156.062 87.5 156.75 87.5H160.5C161.188 87.5 161.75 88.0625 161.75 88.75C161.75 89.4375 161.188 90 160.5 90H158V92.5H160.5C161.188 92.5 161.75 93.0625 161.75 93.75C161.75 94.4375 161.188 95 160.5 95H158V98.75C158 99.4375 157.438 100 156.75 100C156.062 100 155.5 99.4375 155.5 98.75V93.75V88.75Z" fill="#615C84"/>
<rect x="175" y="64" width="216" height="12" fill="#D9D7F1"/>
<rect x="175" y="84" width="160" height="12" fill="#D9D7F1"/>
<rect x="123" y="132" width="130" height="40" rx="20" fill="#D9D7F1"/>
<rect x="261" y="132" width="130" height="40" rx="20" fill="#D9D7F1"/>
<rect x="326" y="247" width="348" height="192" rx="24" fill="white"/>
<path d="M398.19 322V302H389.857C387.885 302 386.286 300.32 386.286 298.25V289.5H376.762C375.445 289.5 374.381 290.617 374.381 292V322C374.381 323.383 375.445 324.5 376.762 324.5H395.81C397.126 324.5 398.19 323.383 398.19 322ZM398.153 299.5C398.101 299.281 397.997 299.078 397.841 298.922L389.217 289.867C389.061 289.703 388.875 289.594 388.667 289.539V298.25C388.667 298.938 389.202 299.5 389.857 299.5H398.153ZM372 292C372 289.242 374.135 287 376.762 287H388.376C389.321 287 390.229 287.398 390.899 288.102L399.522 297.148C400.192 297.852 400.571 298.805 400.571 299.797V322C400.571 324.758 398.436 327 395.81 327H376.762C374.135 327 372 324.758 372 322V292ZM377.357 307C377.357 306.503 377.545 306.026 377.88 305.674C378.215 305.323 378.669 305.125 379.143 305.125C379.616 305.125 380.071 305.323 380.406 305.674C380.74 306.026 380.929 306.503 380.929 307C380.929 307.497 380.74 307.974 380.406 308.326C380.071 308.677 379.616 308.875 379.143 308.875C378.669 308.875 378.215 308.677 377.88 308.326C377.545 307.974 377.357 307.497 377.357 307ZM385.49 315.82C385.274 316.156 384.917 316.367 384.53 316.375C384.143 316.383 383.778 316.203 383.548 315.875L382.476 314.367L379.366 319.5H393.213L388.347 311.32L385.49 315.82ZM388.362 308.25C388.957 308.25 389.515 308.57 389.835 309.109L395.49 318.602C395.698 318.953 395.81 319.359 395.81 319.781C395.81 321.008 394.865 322 393.696 322H378.875C377.707 322 376.762 321.008 376.762 319.781C376.762 319.359 376.874 318.945 377.089 318.594L380.943 312.234C381.263 311.703 381.829 311.383 382.424 311.383C382.975 311.383 383.496 311.656 383.83 312.117L384.433 312.969L386.911 309.07C387.231 308.562 387.774 308.258 388.354 308.258L388.362 308.25Z" fill="#615C84"/>
<rect x="418" y="291" width="216" height="12" fill="#D9D7F1"/>
<rect x="418" y="311" width="160" height="12" fill="#D9D7F1"/>
<rect x="366" y="359" width="130" height="40" rx="20" fill="#D9D7F1"/>
<rect x="504" y="359" width="130" height="40" rx="20" fill="#D9D7F1"/>
<rect x="551" y="116" width="174" height="96" rx="12" fill="white"/>
<path d="M586 154.75H576C575.309 154.75 574.75 154.191 574.75 153.5V138.5C574.75 137.809 575.309 137.25 576 137.25H581V141.625C581 142.66 581.84 143.5 582.875 143.5H587.25V153.5C587.25 154.191 586.691 154.75 586 154.75ZM582.875 142.25C582.531 142.25 582.25 141.969 582.25 141.625V137.27C582.359 137.297 582.461 137.352 582.539 137.434L587.066 141.961C587.148 142.043 587.203 142.141 587.23 142.25H582.875ZM576 136C574.621 136 573.5 137.121 573.5 138.5V153.5C573.5 154.879 574.621 156 576 156H586C587.379 156 588.5 154.879 588.5 153.5V142.402C588.5 141.906 588.301 141.43 587.949 141.078L583.426 136.551C583.074 136.199 582.598 136 582.102 136H576ZM577.875 146C577.531 146 577.25 146.281 577.25 146.625C577.25 146.969 577.531 147.25 577.875 147.25H584.125C584.469 147.25 584.75 146.969 584.75 146.625C584.75 146.281 584.469 146 584.125 146H577.875ZM577.875 148.5C577.531 148.5 577.25 148.781 577.25 149.125C577.25 149.469 577.531 149.75 577.875 149.75H584.125C584.469 149.75 584.75 149.469 584.75 149.125C584.75 148.781 584.469 148.5 584.125 148.5H577.875ZM577.875 151C577.531 151 577.25 151.281 577.25 151.625C577.25 151.969 577.531 152.25 577.875 152.25H584.125C584.469 152.25 584.75 151.969 584.75 151.625C584.75 151.281 584.469 151 584.125 151H577.875Z" fill="#615C84"/>
<rect x="597" y="138" width="108" height="6" fill="#D9D7F1"/>
<rect x="597" y="148" width="80" height="6" fill="#D9D7F1"/>
<rect x="571" y="172" width="65" height="20" rx="10" fill="#D9D7F1"/>
<rect x="640" y="172" width="65" height="20" rx="10" fill="#D9D7F1"/>
<rect y="399" width="261" height="144" rx="18" fill="white"/>
<path d="M52.9808 457.125H37.5962C36.5325 457.125 35.6731 456.287 35.6731 455.25V432.75C35.6731 431.713 36.5325 430.875 37.5962 430.875H45.2885V437.438C45.2885 438.99 46.5805 440.25 48.1731 440.25H54.9038V455.25C54.9038 456.287 54.0445 457.125 52.9808 457.125ZM48.1731 438.375C47.6442 438.375 47.2115 437.953 47.2115 437.438V430.904C47.3798 430.945 47.5361 431.027 47.6562 431.15L54.6214 437.941C54.7476 438.064 54.8317 438.211 54.8738 438.375H48.1731ZM37.5962 429C35.4748 429 33.75 430.682 33.75 432.75V455.25C33.75 457.318 35.4748 459 37.5962 459H52.9808C55.1022 459 56.8269 457.318 56.8269 455.25V438.604C56.8269 437.859 56.5204 437.145 55.9796 436.617L49.0204 429.826C48.4796 429.299 47.7464 429 46.9832 429H37.5962ZM42.7103 443.461C42.4038 443.039 41.8089 442.934 41.3702 443.232C40.9315 443.531 40.8293 444.111 41.1358 444.539L44.1166 448.688L41.1358 452.836C40.8293 453.258 40.9375 453.844 41.3702 454.143C41.8029 454.441 42.4038 454.336 42.7103 453.914L45.2885 450.322L47.8666 453.914C48.1731 454.336 48.768 454.441 49.2067 454.143C49.6454 453.844 49.7476 453.264 49.4411 452.836L46.4603 448.688L49.4411 444.539C49.7476 444.117 49.6394 443.531 49.2067 443.232C48.774 442.934 48.1731 443.039 47.8666 443.461L45.2885 447.053L42.7103 443.461Z" fill="#615C84"/>
<rect x="69" y="432" width="162" height="9" fill="#D9D7F1"/>
<rect x="69" y="447" width="120" height="9" fill="#D9D7F1"/>
<rect x="30" y="483" width="97.5" height="30" rx="15" fill="#D9D7F1"/>
<rect x="133.5" y="483" width="97.5" height="30" rx="15" fill="#D9D7F1"/>
</svg>
