<svg width="706" height="627" viewBox="0 0 706 627" fill="none" xmlns="http://www.w3.org/2000/svg">
<path d="M639.53 498.431L639.523 498.428L639.516 498.424L515.889 430.453V399.451L652.589 474.639C652.593 474.641 652.597 474.643 652.601 474.645C654.483 475.687 656.698 476.372 659.178 476.372C666.654 476.372 672.778 470.262 672.778 462.78V164.343C672.778 156.86 666.654 150.75 659.178 150.75C656.871 150.75 654.534 151.408 652.605 152.475C652.6 152.478 652.595 152.481 652.589 152.484L515.889 227.556V196.547L639.516 128.576L639.523 128.572L639.53 128.569C645.476 125.28 652.316 123.562 659.178 123.562C681.732 123.562 700 141.822 700 164.343V462.657C700 485.178 681.732 503.438 659.178 503.438C652.316 503.438 645.476 501.72 639.53 498.431ZM78.4444 111.562C53.441 111.562 33.2222 131.756 33.2222 156.75V470.25C33.2222 495.244 53.441 515.438 78.4444 515.438H392.222C417.226 515.438 437.444 495.244 437.444 470.25V156.75C437.444 131.756 417.226 111.562 392.222 111.562H78.4444ZM6 156.75C6 116.84 38.4861 84.375 78.4444 84.375H392.222C432.181 84.375 464.667 116.84 464.667 156.75V214.552V412.448V470.25C464.667 510.16 432.181 542.625 392.222 542.625H78.4444C38.4861 542.625 6 510.16 6 470.25V156.75Z" fill="white" stroke="#DFEDEE" stroke-width="12"/>
</svg>
