<svg width="1188" height="735" viewBox="0 0 1188 735" fill="none" xmlns="http://www.w3.org/2000/svg">
<g clip-path="url(#clip0_112_3333)">
<path d="M1155.15 567.721C1181.5 523.77 1186.2 475.972 1187.19 425.913C1188.2 373.107 1174.85 323.565 1144.81 279.881C1118.84 242.128 1073.08 200.953 1026.5 179.774C984.034 160.427 944.683 157.908 909.866 161.118C863.253 165.407 824.87 179.965 797.947 178.219C781.464 177.139 768.024 167.111 753.583 152.327C714.668 112.4 668.966 39.2549 538.833 11.9189C457.845 -5.09111 350.427 -6.5354 274.246 25.2054C251.445 34.6965 165.548 77.1712 140.346 149.021C132.385 171.703 130.477 197.302 138.501 225.717C166.909 326.266 123.661 338.785 69.5425 386.706C31.6963 420.222 7.29475 459.87 0.982258 496.381C0.977464 496.385 0.977467 496.39 0.977467 496.395C-4.8653 529.921 -1.63728 563.937 14.4992 607.5C42.5 678.5 243.8 770 569 722C826.958 779.178 1074.54 629.119 1133.29 590.067C1142.09 584.216 1149.72 576.786 1155.15 567.721Z" fill="#EBF3FA"/>
<g opacity="0.5">
<path d="M1105.51 243.328H856.338V550.569H1105.51V243.328Z" fill="#98BAF4"/>
<path d="M1105.51 258.352H881.189V291.82H1105.51V258.352Z" fill="#EDF4FF"/>
<path d="M977.89 313.465H696.479V551.62H977.89V313.465Z" fill="#EBF3FF"/>
<path d="M982.291 304.809H689.52V313.465H982.291V304.809Z" fill="white"/>
<path d="M1110.14 239H851.314V247.656H1110.14V239Z" fill="white"/>
<path d="M878.553 334.99H696.479V379.255H878.553V334.99Z" fill="#AFCDFB"/>
<path d="M696.479 341.679H526.627V435.99H696.479V341.679Z" fill="#AFCDFB"/>
<path d="M696.479 455.61H526.627V549.921H696.479V455.61Z" fill="#AFCDFB"/>
<path d="M696.475 435.985H550.166V455.605H696.475V435.985Z" fill="#7FA8E5"/>
<path d="M749.82 349.424H753.204V355.517H759.445V349.424H762.829V364.821H759.445V358.641H753.204V364.821H749.82V349.424Z" fill="white"/>
<path d="M765.838 357.125C765.838 352.749 769.289 349.165 774.034 349.165C778.779 349.165 782.187 352.706 782.187 357.125C782.187 361.544 778.736 365.085 773.991 365.085C769.246 365.085 765.838 361.544 765.838 357.125ZM778.645 357.125C778.645 354.486 776.713 352.288 773.986 352.288C771.259 352.288 769.37 354.443 769.37 357.125C769.37 359.807 771.302 361.966 774.029 361.966C776.757 361.966 778.645 359.812 778.645 357.125Z" fill="white"/>
<path d="M784.033 362.576L786.032 360.177C787.417 361.319 788.865 362.048 790.624 362.048C792.009 362.048 792.843 361.496 792.843 360.551C792.843 359.692 792.316 359.255 789.747 358.593C786.65 357.801 784.652 356.943 784.652 353.843C784.652 351.05 786.89 349.203 790.034 349.203C792.273 349.203 794.185 349.908 795.747 351.161L793.988 353.713C792.627 352.768 791.285 352.197 789.991 352.197C788.697 352.197 788.011 352.792 788.011 353.584C788.011 354.596 788.673 354.927 791.328 355.609C794.449 356.424 796.208 357.542 796.208 360.273C796.208 363.329 793.878 365.047 790.561 365.047C788.232 365.047 785.883 364.231 784.033 362.585V362.576Z" fill="white"/>
<path d="M799.15 349.424H805.434C809.106 349.424 811.325 351.602 811.325 354.788C811.325 358.353 808.554 360.201 805.108 360.201H802.539V364.821H799.155V349.424H799.15ZM805.214 357.187C806.906 357.187 807.893 356.175 807.893 354.812C807.893 353.296 806.838 352.48 805.146 352.48H802.529V357.187H805.209H805.214Z" fill="white"/>
<path d="M813.98 349.424H817.364V364.821H813.98V349.424Z" fill="white"/>
<path d="M824.789 352.547H820.111V349.424H832.856V352.547H828.178V364.821H824.794V352.547H824.789Z" fill="white"/>
<path d="M838.741 349.313H841.861L848.452 364.821H844.914L843.51 361.367H837.006L835.601 364.821H832.15L838.741 349.313ZM842.302 358.377L840.26 353.382L838.218 358.377H842.307H842.302Z" fill="white"/>
<path d="M850.83 349.424H854.214V361.741H861.883V364.821H850.83V349.424Z" fill="white"/>
<path d="M1105.51 437.727H992.029V512.701H1105.51V437.727Z" fill="#AFCDFB"/>
<path d="M1105.51 327.332H992.029V402.306H1105.51V327.332Z" fill="#AFCDFB"/>
<path d="M1105.51 260.132H883.553V289.67H1105.51V260.132Z" fill="#AFCDFB"/>
<path d="M696.479 316.435L977.89 324.928V313.465H696.479V316.435Z" fill="#DFEBFD"/>
<path d="M696.479 341.113H516V350.451H696.479V341.113Z" fill="white"/>
<path d="M938.012 445.755H740.273V549.168H938.012V445.755Z" fill="#98BAF4"/>
<path d="M932.284 452.986H746.916V549.513H932.284V452.986Z" fill="white"/>
<path d="M925.647 459.089H753.939V481.267H925.647V459.089Z" fill="#AFCDFB"/>
<path d="M804.152 487.294H753.939V549.096H804.152V487.294Z" fill="#AFCDFB"/>
<path d="M870.654 487.294H808.924V549.096H870.654V487.294Z" fill="#AFCDFB"/>
<path d="M925.647 487.294H874.902V549.096H925.647V487.294Z" fill="#AFCDFB"/>
<path d="M829.151 487.294H870.655V510.167L863.259 549.096H817.408L829.151 487.294Z" fill="#CCE1FF"/>
<path d="M863.197 499.054H817.016V549.168H863.197V499.054Z" fill="white"/>
<path d="M860.997 501.319H819.221V549.163H860.997V501.319Z" fill="#98BAF4"/>
<path d="M840.89 501.319H839.332V549.163H840.89V501.319Z" fill="white"/>
<path d="M835.607 525.244C835.607 524.697 836.048 524.255 836.595 524.255C837.141 524.255 837.582 524.697 837.582 525.244C837.582 525.791 837.141 526.232 836.595 526.232C836.048 526.232 835.607 525.791 835.607 525.244Z" fill="white"/>
<path d="M842.635 525.244C842.635 524.697 843.076 524.255 843.622 524.255C844.169 524.255 844.61 524.697 844.61 525.244C844.61 525.791 844.169 526.232 843.622 526.232C843.076 526.232 842.635 525.791 842.635 525.244Z" fill="white"/>
<path d="M769.91 487.294H795.332L787.217 549.096H761.795L769.91 487.294Z" fill="#CCE1FF"/>
<path d="M799.031 459.089L796.122 481.267H770.699L773.609 459.089H799.031Z" fill="#CCE1FF"/>
<path d="M886.914 487.294H912.331L904.217 549.096H878.799L886.914 487.294Z" fill="#CCE1FF"/>
<path d="M916.036 459.089L913.122 481.267H887.699L890.613 459.089H916.036Z" fill="#CCE1FF"/>
<path d="M880.361 459.089L876.147 481.267H830.297L834.51 459.089H880.361Z" fill="#CCE1FF"/>
<path d="M874.939 491.847H875.035L874.939 492.341V491.847Z" fill="#CCE1FF"/>
<path d="M1045.07 402.306H1007.52L1023.95 327.337H1061.5L1045.07 402.306Z" fill="#BDD7FD"/>
<path d="M1078.34 512.701H1040.79L1057.22 437.727H1094.76L1078.34 512.701Z" fill="#CCE1FF"/>
<path d="M1024.94 437.727L1008.51 512.701H992.029V437.727H1024.94Z" fill="#CCE1FF"/>
<path d="M1105.51 327.332V402.306H1064.23L1082.57 327.332H1105.51Z" fill="#CCE1FF"/>
<path d="M941.032 260.132H937.902V289.67H941.032V260.132Z" fill="#EDF4FF"/>
<path d="M1004.2 260.132H1001.07V289.67H1004.2V260.132Z" fill="#EDF4FF"/>
<path d="M1065.8 260.132H1062.67V289.67H1065.8V260.132Z" fill="#EDF4FF"/>
<g opacity="0.5">
<path d="M565.345 375.526H546.527V405.257H565.345V375.526Z" fill="#98BAF4"/>
<path d="M566.117 406.216H545.387V374.567H566.117V406.216ZM547.299 404.302H564.2V376.486H547.299V404.302Z" fill="white"/>
<path d="M564.444 385.469H547.064V386.903H564.444V385.469Z" fill="white"/>
<path d="M564.444 395.363H547.064V396.797H564.444V395.363Z" fill="white"/>
<path d="M556.473 405.262V375.387H555.04V405.262H556.473Z" fill="white"/>
<path d="M619.675 375.526H600.857V405.257H619.675V375.526Z" fill="#98BAF4"/>
<path d="M620.451 406.216H599.721V374.567H620.451V406.216ZM601.633 404.302H618.534V376.486H601.633V404.302Z" fill="white"/>
<path d="M618.772 385.469H601.393V386.903H618.772V385.469Z" fill="white"/>
<path d="M618.772 395.363H601.393V396.797H618.772V395.363Z" fill="white"/>
<path d="M610.803 405.257V375.382H609.37V405.257H610.803Z" fill="white"/>
<path d="M674.005 375.526H655.188V405.257H674.005V375.526Z" fill="#98BAF4"/>
<path d="M674.781 406.216H654.051V374.567H674.781V406.216ZM655.963 404.302H672.864V376.486H655.963V404.302Z" fill="white"/>
<path d="M673.102 385.469H655.723V386.903H673.102V385.469Z" fill="white"/>
<path d="M673.102 395.363H655.723V396.797H673.102V395.363Z" fill="white"/>
<path d="M665.133 405.262V375.387H663.695V405.262H665.133Z" fill="white"/>
</g>
<g opacity="0.5">
<path d="M565.345 477.476H546.527V507.207H565.345V477.476Z" fill="#98BAF4"/>
<path d="M566.117 508.166H545.387V476.517H566.117V508.166ZM547.299 506.252H564.2V478.436H547.299V506.252Z" fill="white"/>
<path d="M564.444 487.418H547.064V488.853H564.444V487.418Z" fill="white"/>
<path d="M564.444 497.312H547.064V498.752H564.444V497.312Z" fill="white"/>
<path d="M556.473 507.202V477.332H555.04V507.202H556.473Z" fill="white"/>
<path d="M619.675 477.476H600.857V507.207H619.675V477.476Z" fill="#98BAF4"/>
<path d="M620.451 508.166H599.721V476.517H620.451V508.166ZM601.633 506.252H618.534V478.436H601.633V506.252Z" fill="white"/>
<path d="M618.772 487.418H601.393V488.853H618.772V487.418Z" fill="white"/>
<path d="M618.772 497.312H601.393V498.752H618.772V497.312Z" fill="white"/>
<path d="M610.797 507.202V477.332H609.364V507.202H610.797Z" fill="white"/>
<path d="M674.005 477.476H655.188V507.207H674.005V477.476Z" fill="#98BAF4"/>
<path d="M674.781 508.166H654.051V476.517H674.781V508.166ZM655.963 506.252H672.864V478.436H655.963V506.252Z" fill="white"/>
<path d="M673.102 487.418H655.723V488.853H673.102V487.418Z" fill="white"/>
<path d="M673.102 497.312H655.723V498.752H673.102V497.312Z" fill="white"/>
<path d="M665.137 507.207V477.337H663.699V507.207H665.137Z" fill="white"/>
</g>
<path d="M986.178 414.469H692.104V424.829H986.178V414.469Z" fill="#D4E6FF"/>
<path d="M951.58 547.023H731.875V551.62H951.58V547.023Z" fill="#7FA8E5"/>
<path d="M726.349 551.62C726.349 551.62 725.127 540.804 736.079 538.065C747.031 535.325 751.326 525.536 764.042 533.756C776.758 541.98 772.732 551.615 772.732 551.615H726.349V551.62Z" fill="#ACD29A"/>
</g>
<path d="M464.351 428.402C464.351 428.402 467.85 440.71 467.025 443.79C466.196 446.866 462.51 452.61 460.871 452.408C459.232 452.202 460.871 432.711 460.871 432.711L464.356 428.402H464.351Z" fill="#FFB27D"/>
<path d="M404.936 333.06C403.661 330.598 432.75 321.736 433.21 346.025C433.21 346.025 487.703 344.686 461.681 314.279C452.675 303.752 453.6 295.052 453.873 286.948C454.147 278.844 448.261 255.298 428.096 257.669C428.096 257.669 422.814 255.514 416.224 258.94C401.231 266.728 367.651 342.013 404.941 333.055L404.936 333.06Z" fill="#163560"/>
<path d="M467.011 432.097C467.011 432.097 466.704 433.575 463.641 434.319C462.227 434.664 460.224 434.846 457.396 434.664C456.792 434.621 456.15 434.563 455.464 434.487C454.165 434.343 452.727 434.131 451.131 433.829L452.258 367.041L447.561 314.922C447.561 314.922 457.588 319.668 462.505 335.056C466.282 346.874 466.915 397.77 467.006 420.754C467.035 427.702 467.011 432.097 467.011 432.097Z" fill="#B4B3D3"/>
<g opacity="0.3">
<path d="M467.011 432.097C467.011 432.097 466.705 433.575 463.642 434.319C462.228 434.664 460.224 434.846 457.396 434.664L458.302 384.91C458.302 384.91 459.045 412.078 467.007 420.759C467.035 427.707 467.011 432.102 467.011 432.102V432.097Z" fill="#7B79B4"/>
</g>
<path d="M368.068 573.34C368.068 573.34 361.961 578.916 363.155 582.884C364.348 586.847 369.855 589.491 370.603 594.333C371.346 599.179 374.327 601.818 377.007 601.818H389.785C389.785 601.818 391.76 598.406 386.991 597.38C382.226 596.353 380.429 590.657 380.726 585.374C381.023 580.091 380.28 573.043 380.28 573.043L370.153 570.691L368.068 573.335V573.34Z" fill="#23417C"/>
<path d="M419.747 575.706C419.747 575.706 417.552 599.337 420.231 600.657L454.535 600.585C454.535 600.585 454.535 596.622 449.023 595.739C443.511 594.856 433.834 591.627 432.195 584.434C430.555 577.241 419.742 575.701 419.742 575.701L419.747 575.706Z" fill="#23417C"/>
<path d="M447.761 381.772C447.761 381.772 457.654 412.592 458.287 423.086C458.925 433.58 439.378 572.15 438.592 576.982C437.849 581.54 432.198 584.443 432.198 584.443C432.198 584.443 429.6 585.979 425.886 584.928C420.738 583.474 419.108 581.732 419.108 581.732C419.108 581.732 411.411 482.906 416.175 447.605C420.939 412.304 420.997 381.772 420.997 381.772H447.757H447.761Z" fill="#1B1A3B"/>
<path d="M405.856 380.851C405.856 380.851 390.767 401.114 389.363 414.813C387.959 428.512 387.158 476.63 384.158 489.988C381.162 503.342 370.152 529.042 370.152 570.696C370.152 570.696 371.298 573.086 374.83 574.357C375.962 574.765 377.476 575.159 378.943 575.494C381.857 576.161 384.848 574.736 386.176 572.059C393.619 557.055 417.331 508.668 418.543 498.625C419.401 491.519 424.453 448.853 440.783 421.248C444.704 414.621 444.469 385.731 444.469 385.731L405.851 380.856L405.856 380.851Z" fill="#282659"/>
<path d="M393.357 341.164C393.357 341.164 392.844 348.381 393.357 357.037C393.697 362.776 399.497 370.463 400.316 372.368C402.382 377.137 404.712 377.914 404.712 377.914L422.724 382.334L424.234 391.988C424.234 391.988 439.346 398.451 449.834 388.447C458.96 379.743 458.126 352.498 454.473 338.189C450.821 323.881 445.242 313.943 445.242 313.943C445.242 313.943 431.702 308.593 407.727 312.59L393.362 341.169L393.357 341.164Z" fill="#282659"/>
<path d="M414.205 311.103C414.205 311.103 406.637 312.369 402.021 313.9L398.623 355.468H429.912L418.155 324.591L414.201 311.103H414.205Z" fill="#B4B3D3"/>
<path d="M429.922 355.468L426.485 483.535C426.485 483.535 409.34 491.682 376.594 483.535L385.039 347.2L429.922 355.468Z" fill="#B4B3D3"/>
<path d="M377.05 385.227L400.205 405.409C401.878 406.867 404.414 406.69 405.871 405.015L435.415 371.048C436.872 369.373 436.695 366.835 435.022 365.376L411.867 345.195C410.194 343.736 407.654 343.913 406.201 345.588L376.657 379.555C375.2 381.23 375.377 383.768 377.05 385.227Z" fill="#C65447"/>
<path d="M411.302 382.679C411.633 382.765 423.601 384.176 423.601 386.652C423.601 389.517 420.092 393.35 416.785 393.168C415.443 393.096 409.27 387.41 409.27 387.41L411.302 382.679Z" fill="#FFB27D"/>
<path d="M417.451 311.275C418.812 307.969 419.608 302.931 419.584 296.698L420.489 296.876L435.693 299.889C435.693 299.889 435.348 304.678 435.338 309.193C435.338 309.231 435.338 309.27 435.338 309.303C435.319 313.223 437.984 317.153 431.705 318.708C429.764 319.188 414.594 318.214 417.451 311.27V311.275Z" fill="#FFB27D"/>
<path d="M435.694 299.889C435.694 299.889 435.349 304.678 435.339 309.193C426.832 308.953 422.331 301.185 420.49 296.876L435.694 299.889Z" fill="#E8945B"/>
<path d="M438.536 304.164C438.536 304.164 418.405 304.495 418.39 291.943C418.376 279.391 415.769 270.979 428.624 270.235C441.479 269.492 443.981 274.28 445.002 278.469C446.023 282.658 443.775 303.756 438.536 304.164Z" fill="#FFB27D"/>
<path d="M437.788 269.928C437.788 269.928 432.276 284.654 423.816 286.833C415.356 289.011 411.689 286.742 411.689 286.742C411.689 286.742 418.179 281.584 419.526 272.572C419.526 272.572 433.632 262.918 437.788 269.924V269.928Z" fill="#163560"/>
<path d="M436.422 271.123C436.422 271.123 440.51 272.654 442.193 275.638C443.837 278.556 445.241 282.423 444.915 287.164C444.915 287.164 449.066 277.155 444.402 271.493C439.451 265.485 436.427 271.128 436.427 271.128L436.422 271.123Z" fill="#163560"/>
<path d="M411.301 382.679C411.301 382.679 414.172 381.758 416.089 382.026C418.006 382.295 419.425 381.988 419.425 382.525C419.425 383.063 416.952 383.312 416.425 383.571C415.897 383.831 411.306 382.679 411.306 382.679H411.301Z" fill="#FFB27D"/>
<path d="M407.726 312.585C407.726 312.585 393.433 313.588 387.96 326.918C382.481 340.247 372.09 362.632 372.09 366.398C372.09 370.165 377.894 381.772 409.073 388.447C409.073 388.447 412.299 385.049 412.102 382.367C412.102 382.367 392.638 365.631 392.691 363.673C392.791 359.973 395.883 355.089 412.97 337.978C417.615 333.324 407.726 312.59 407.726 312.59V312.585Z" fill="#B4B3D3"/>
<path d="M422.853 333.516C422.853 333.516 417.489 318.818 418.539 307.758C418.539 307.758 414.355 308.814 412.188 311.933C412.188 311.933 411.206 328.847 414.283 336.697C414.283 336.697 418.86 336.903 419.862 336.361C419.862 336.361 417.863 339.749 418.17 340.133C418.477 340.516 429.927 355.468 429.927 355.468L422.858 333.516H422.853Z" fill="#7B79B4"/>
<path d="M446.521 348.904L449.9 480.617C449.9 480.617 457.895 480.924 462.506 476.001L458.302 333.29C458.302 333.29 453.902 316.117 445.241 313.943L436.58 311.77L446.521 348.904Z" fill="#B4B3D3"/>
<path d="M435.338 309.193C435.338 309.193 435.343 311.237 435.87 314.898C437.289 324.816 447.843 344.7 446.645 353.572C446.645 353.572 447.757 338.127 447.757 334.845L444.684 332.69L448.682 331.049C448.682 331.049 441.224 312.413 435.347 309.193H435.338Z" fill="#7B79B4"/>
<path d="M419.498 432.771L389.701 430.606L389.481 433.65L419.278 435.815L419.498 432.771Z" fill="#7B79B4"/>
<g opacity="0.3">
<path d="M389.479 433.652C389.479 433.652 387.307 452.149 389.479 453.843C391.65 455.537 414.331 457.691 416.44 455.997C418.549 454.304 419.277 435.816 419.277 435.816L389.479 433.652Z" fill="#7B79B4"/>
</g>
<path d="M221.292 130.065C221.292 130.065 233.462 109.586 262.556 111.86C262.556 111.86 304.802 77.7299 349.847 107.312C349.847 107.312 397.735 99.9797 433.199 113.655C456.843 122.772 464.651 132.34 464.651 132.34L221.287 130.065H221.292Z" fill="#F8FCFF"/>
<path d="M469.387 109.754C469.387 109.754 478.268 87.3025 499.511 89.7977C499.511 89.7977 530.35 52.3756 563.24 84.8074C563.24 84.8074 598.201 76.7702 624.088 91.765C641.348 101.765 647.052 112.249 647.052 112.249L469.387 109.754Z" fill="#F8FCFF"/>
<path d="M746.877 249.49C746.877 249.49 752.983 234.385 767.583 236.065C767.583 236.065 788.783 210.888 811.387 232.706C811.387 232.706 835.415 227.298 853.211 237.389C865.074 244.116 868.995 251.17 868.995 251.17L746.877 249.49Z" fill="#F8FCFF"/>
<path d="M402.297 186.258C402.297 186.258 409.362 173.773 426.262 175.16C426.262 175.16 450.798 154.349 476.964 172.386C476.964 172.386 504.778 167.919 525.374 176.254C539.106 181.815 543.645 187.645 543.645 187.645L402.297 186.258Z" fill="#F8FCFF"/>
<path d="M529.876 259.506C529.876 259.506 524.431 247.923 525.529 241.815C526.627 235.706 526.373 227.597 534.511 224.464C542.65 221.331 543.369 224.349 552.212 223.408C560.782 222.497 563.845 233.36 564.655 237.976C566.371 247.726 563.437 253.835 560.854 257.126C558.62 259.972 557.609 261.397 557.609 261.397L529.881 259.506H529.876Z" fill="#1B1A3B"/>
<path d="M507.262 586.838C507.262 586.838 507.262 581.123 508.077 579.223C508.891 577.323 511.873 569.588 511.873 569.588H523.529C523.529 569.588 525.701 576.646 525.835 578.949C525.969 581.257 525.835 586.833 525.835 586.833H507.262V586.838Z" fill="#1B1A3B"/>
<path d="M581.287 586.838C581.287 586.838 581.287 581.123 580.472 579.223C579.658 577.323 576.676 569.588 576.676 569.588H565.019C565.019 569.588 562.848 576.646 562.714 578.949C562.58 581.257 562.714 586.833 562.714 586.833H581.287V586.838Z" fill="#1B1A3B"/>
<path d="M508.725 388.965C508.725 388.965 510.762 451.319 507.713 486.898C504.665 522.478 507.732 571.987 507.732 571.987C507.732 571.987 517.486 577.37 528.06 571.987C528.06 571.987 539.654 503.256 539.582 486.898C539.506 469.48 552.203 391.685 552.203 391.685L508.72 388.969L508.725 388.965Z" fill="#65A6A8"/>
<path d="M580.865 571.987C580.865 571.987 571.111 577.37 560.537 571.987C560.537 571.987 548.943 503.256 549.015 486.898C549.048 479.542 546.8 461.41 544.198 442.927C540.632 417.639 536.395 391.685 536.395 391.685L581.565 388.859C581.565 388.859 577.84 451.319 580.889 486.898C583.937 522.478 580.865 571.987 580.865 571.987Z" fill="#65A6A8"/>
<path d="M517.501 287.572C517.501 287.572 500.696 289.568 497.01 304.682C493.32 319.797 478.811 358.203 493.32 366.878C493.32 366.878 508.691 346.26 514.529 329.643C520.372 313.027 517.501 287.572 517.501 287.572Z" fill="#B4B3D3"/>
<path d="M574.624 295.637C574.624 295.637 591.529 293.507 595.22 308.622C598.91 323.736 610.701 357.483 596.193 366.163C596.193 366.163 579.786 346.264 573.948 329.643C568.105 313.027 574.624 295.637 574.624 295.637Z" fill="#B4B3D3"/>
<path d="M534.579 266.142C534.579 266.142 534.167 278.867 532.542 284.563L519.668 293.555L568.131 300.815L556.575 284.827C556.575 284.827 553.085 267.769 554.916 261.459C556.747 255.149 534.584 266.142 534.584 266.142H534.579Z" fill="#FFB27D"/>
<path d="M534.506 267.898C534.506 267.898 538.34 277.135 545.559 276.929C552.777 276.727 554.421 268.551 554.421 268.551L534.511 267.894L534.506 267.898Z" fill="#ED985F"/>
<path d="M544.73 273.364C539.5 273.272 529.871 266.3 529.871 257.663V244.19C529.871 241.037 532.066 238.456 534.75 238.456H554.704C557.388 238.456 559.583 241.037 559.583 244.19V256.901C559.583 265.955 550.726 273.469 544.725 273.364H544.73Z" fill="#FFB27D"/>
<path d="M582.237 416.737C544.812 423.201 504.689 417.966 504.689 417.966L508.414 342.253C508.313 341.159 508.241 340.032 508.212 338.88C508.169 337.364 508.198 335.574 508.294 333.583C509.042 317.695 513.839 289.107 517.497 287.572C517.497 287.572 522.932 285.551 532.542 284.563C532.542 284.755 538.116 292.917 544.736 293.824C548.848 292.197 552.079 290.806 556.579 284.827C559.216 285.134 561.991 285.518 564.934 286.074C565.149 286.113 565.37 286.156 565.59 286.199C568.816 286.833 572.253 287.677 575.934 288.857C575.934 288.857 580.684 290.705 579.634 323.871L582.242 416.737H582.237Z" fill="#A4CCCD"/>
<path d="M540.564 264.683C540.564 264.683 542.194 266.891 545.036 266.809C547.883 266.732 549.221 264.683 549.221 264.683C549.221 264.683 544.418 263.897 540.564 264.683Z" fill="white"/>
<path d="M504.689 358.687L502.599 471.424C502.599 471.424 519.471 475.79 533.975 476.716L537.732 338.904L532.57 292.259L527.878 284.568C527.878 284.568 512.363 285.782 503.074 293.358C496.737 298.526 493.809 316.155 493.809 316.155L508.413 331.514L504.694 358.697L504.689 358.687Z" fill="#B4B3D3"/>
<path d="M584.546 358.687L586.636 471.424C586.636 471.424 569.764 475.79 555.26 476.716L552.207 343.011L556.665 292.255L561.357 284.563C561.357 284.563 576.829 285.835 586.161 293.354C596.174 301.419 598.182 321.28 598.182 321.28L580.822 331.51L584.541 358.692L584.546 358.687Z" fill="#B4B3D3"/>
<path d="M493.315 366.883C510.297 371.46 519.85 359.633 559.589 343.275L558.386 336.927C558.386 336.927 512.698 337.46 504.694 341.797C494.283 347.44 491.925 366.504 493.32 366.878L493.315 366.883Z" fill="#FFB27D"/>
<path d="M526.459 332.589C526.459 332.589 509.299 331.615 509.117 340.377L524.982 339.657L526.463 332.589H526.459Z" fill="#FFB27D"/>
<path d="M571.873 337.061C571.873 337.061 584.713 333.803 586.865 342.411C589.017 351.02 568.402 342.411 568.402 342.411L571.873 337.061Z" fill="#ED985F"/>
<path d="M539.684 352.114C539.684 352.114 534.799 346.231 522.984 338.779L543.043 342.57L549.164 347.594L546.375 349.014L539.684 352.114Z" fill="#ED985F"/>
<path d="M559.967 337.709L577.069 336.457L575.875 341.346L559.967 337.709Z" fill="#ED985F"/>
<path d="M509.117 340.377C509.117 340.377 520.851 338.366 520.645 338.213C520.438 338.059 516.379 336.826 515.449 337.292C514.519 337.752 509.117 340.377 509.117 340.377Z" fill="#ED985F"/>
<path d="M533.711 277.975C533.711 277.975 526.607 281.909 525.361 285.595C525.361 285.595 521.92 300.599 526.459 310.699L533.711 308.938L529.986 313.521C529.986 313.521 531.908 334.365 537.732 338.899C537.732 338.899 533.188 283.555 533.711 277.975Z" fill="#7B79B4"/>
<path d="M555.391 277.975C555.391 277.975 562.494 281.909 563.74 285.594C563.74 285.594 568.279 299.538 563.74 309.644L555.391 308.938L561.363 313.871C561.363 313.871 558.036 338.472 552.213 343.006C552.213 343.006 555.913 283.555 555.391 277.97V277.975Z" fill="#7B79B4"/>
<path d="M596.193 366.163C596.193 366.163 560.945 362.334 519.662 336.26L526.454 332.589C526.454 332.589 580.592 338.472 587.379 343.578C598.024 351.586 604.174 364.301 596.193 366.163Z" fill="#FFB27D"/>
<path d="M526.458 315.282H514.883V320.373H526.458V315.282Z" fill="#EBF3FA"/>
<path d="M538.044 238.456C538.044 238.456 543.365 243.293 550.171 242.338C556.977 241.383 556.819 238.533 557.768 239.737C558.722 240.941 558.822 250.73 560.145 251.368L560.85 238.456L547.352 230.688L527.988 232.919L529.872 251.834C529.872 251.834 529.512 244.9 532.446 242.904C535.379 240.908 538.039 238.451 538.039 238.451L538.044 238.456Z" fill="#1B1A3B"/>
<path d="M105.268 602.17C105.268 602.17 105.268 596.455 106.082 594.555C106.897 592.655 109.879 584.92 109.879 584.92H121.535C121.535 584.92 123.707 591.978 123.841 594.286C123.975 596.594 123.841 602.17 123.841 602.17H105.268Z" fill="#1B1A3B"/>
<path d="M179.287 602.17C179.287 602.17 179.287 596.455 178.472 594.555C177.657 592.655 174.676 584.92 174.676 584.92H163.019C163.019 584.92 160.848 591.978 160.714 594.286C160.58 596.594 160.714 602.17 160.714 602.17H179.287Z" fill="#1B1A3B"/>
<path d="M106.729 404.297C106.729 404.297 108.771 466.651 105.718 502.231C102.669 537.81 105.742 587.324 105.742 587.324C105.742 587.324 115.496 592.708 126.069 587.324C126.069 587.324 137.664 518.593 137.592 502.231C137.515 484.813 150.212 407.018 150.212 407.018L106.729 404.302V404.297Z" fill="#282659"/>
<path d="M178.865 587.319C178.865 587.319 169.111 592.703 158.537 587.319C158.537 587.319 146.943 518.588 147.015 502.231C147.048 494.875 144.8 476.747 142.198 458.264C138.632 432.977 134.395 407.022 134.395 407.022L179.565 404.196C179.565 404.196 175.84 466.656 178.889 502.231C181.937 537.81 178.865 587.319 178.865 587.319Z" fill="#282659"/>
<path d="M147.02 502.226C147.054 494.87 144.806 476.742 142.203 458.259C144.906 447.218 151.497 436.59 151.497 436.59C159.832 460.001 147.025 502.226 147.025 502.226H147.02Z" fill="#1B1A3B"/>
<path d="M115.501 302.904C115.501 302.904 98.6961 304.9 95.0102 320.015C91.3195 335.13 76.8109 373.535 91.3195 382.215C91.3195 382.215 106.691 361.597 112.529 344.98C118.372 328.364 115.501 302.909 115.501 302.909V302.904Z" fill="#FFB27D"/>
<path d="M172.63 310.97C172.63 310.97 189.535 308.84 193.226 323.954C196.916 339.069 208.707 372.815 194.199 381.496C194.199 381.496 177.792 361.597 171.954 344.976C166.111 328.359 172.63 310.97 172.63 310.97Z" fill="#FFB27D"/>
<path d="M132.583 281.475C132.583 281.475 132.171 294.195 130.546 299.895L117.672 308.888L166.135 316.147L154.579 300.159C154.579 300.159 151.089 283.101 152.92 276.792C154.751 270.482 132.588 281.475 132.588 281.475H132.583Z" fill="#FFB27D"/>
<path d="M132.512 283.231C132.512 283.231 136.346 292.468 143.565 292.261C150.783 292.06 152.427 283.883 152.427 283.883L132.517 283.226L132.512 283.231Z" fill="#ED985F"/>
<path d="M128.203 275.755C128.203 275.755 125.873 264.105 124.244 260.578C122.619 257.051 121.262 241.308 139.289 240.492C139.289 240.492 146.201 241.308 149.997 239C149.997 239 149.997 241.308 149.048 242.119C149.048 242.119 155.284 240.627 160.163 246.054C165.042 251.48 156.908 270.482 157.316 274.959L128.198 275.75L128.203 275.755Z" fill="#2C3A64"/>
<path d="M142.736 288.696C137.506 288.605 127.877 281.633 127.877 272.996V259.522C127.877 256.37 130.072 253.788 132.756 253.788H152.71C155.394 253.788 157.589 256.37 157.589 259.522V272.233C157.589 281.287 148.732 288.802 142.731 288.696H142.736Z" fill="#FFB27D"/>
<path d="M127.876 266.715C127.876 266.715 127.904 258.62 134.308 257.373C140.711 256.13 155.048 261.317 157.085 255.415C159.117 249.513 129.376 249.614 127.876 253.381C126.38 257.147 127.876 266.715 127.876 266.715Z" fill="#2C3A64"/>
<path d="M182.311 339.453L180.241 432.07C142.816 438.533 102.693 433.303 102.693 433.303L106.418 357.59C106.322 356.496 106.245 355.369 106.216 354.217C106.173 352.701 106.202 350.911 106.298 348.92C107.045 333.033 111.843 304.444 115.5 302.904C115.5 302.904 120.936 300.884 130.546 299.896C130.546 300.087 136.12 308.249 142.74 309.156C146.852 307.53 150.083 306.138 154.583 300.159C157.219 300.467 159.995 300.85 162.938 301.407C163.153 301.445 163.374 301.489 163.594 301.532C166.82 302.165 170.261 303.01 173.938 304.19C173.938 304.19 178.692 306.037 177.638 339.203L182.316 339.448L182.311 339.453Z" fill="#A4CCCD"/>
<path d="M138.57 280.016C138.57 280.016 140.2 282.223 143.042 282.142C145.889 282.065 147.227 280.016 147.227 280.016C147.227 280.016 142.424 279.229 138.57 280.016Z" fill="white"/>
<path d="M91.319 382.215C108.301 386.793 117.854 374.965 157.593 358.608L156.39 352.26C156.39 352.26 110.702 352.792 102.698 357.135C92.2872 362.777 89.929 381.841 91.3238 382.215H91.319Z" fill="#FFB27D"/>
<path d="M123.366 300.922L119.364 312.789L119.177 313.331L119.119 313.489L118.832 314.358L113.871 329.055L113.377 330.518L107.918 346.703C107.405 346.751 106.902 346.794 106.413 346.833C92.2062 347.831 85.1699 343.589 85.1699 343.589C85.1699 343.589 88.0889 324.664 95.1587 313.892C99.784 306.843 110.425 303.465 117.231 301.968C117.451 301.925 117.662 301.877 117.868 301.834C121.128 301.153 123.356 300.917 123.356 300.917L123.366 300.922Z" fill="#A4CCCD"/>
<path d="M168.982 302.904C168.982 302.904 181.544 304.751 189.846 314.631C198.147 324.511 200.3 341.746 200.3 341.746C200.3 341.746 188.772 346.669 175.246 345.441C161.72 344.208 168.986 302.909 168.986 302.909L168.982 302.904Z" fill="#A4CCCD"/>
<path d="M171.498 329.146H154.166V335.748H171.498V329.146Z" fill="#EBF3FA"/>
<path d="M114.481 343.339L115.295 342.965C115.247 342.855 110.325 331.9 113.637 320.058C114.6 316.617 117.562 313.998 121.013 313.537C124.263 313.105 127.211 314.684 129.099 317.87C133.581 325.427 125.423 343.723 125.342 343.905L126.161 344.275C126.18 344.227 128.289 339.525 129.799 333.925C131.846 326.329 131.87 320.773 129.876 317.409C127.796 313.902 124.522 312.165 120.898 312.644C117.098 313.148 113.829 316.027 112.774 319.813C109.371 331.986 114.428 343.229 114.481 343.339Z" fill="#282659"/>
<path d="M127 344.438C127.192 343.747 126.789 343.037 126.104 342.845C125.419 342.653 124.704 343.056 124.513 343.742C124.321 344.428 124.724 345.143 125.409 345.335C126.094 345.527 126.809 345.124 127 344.438Z" fill="#282659"/>
<path d="M116.235 343.526C116.426 342.84 116.024 342.125 115.338 341.933C114.653 341.741 113.939 342.144 113.747 342.831C113.555 343.517 113.958 344.232 114.643 344.424C115.329 344.616 116.043 344.213 116.235 343.526Z" fill="#282659"/>
<path d="M122.647 313.412C122.647 313.412 122.604 313.412 122.58 313.403C122.412 313.364 122.312 313.201 122.35 313.033C122.369 312.947 124.349 304.353 128.753 299.377C128.864 299.248 129.06 299.238 129.19 299.353C129.314 299.464 129.329 299.66 129.214 299.785C124.914 304.646 122.973 313.086 122.954 313.167C122.92 313.311 122.796 313.407 122.657 313.407L122.647 313.412Z" fill="#282659"/>
<path d="M124.459 347.922C124.459 347.922 107.299 346.948 107.117 355.709L122.982 354.99L124.459 347.922Z" fill="#FFB27D"/>
<path d="M169.873 352.394C169.873 352.394 182.713 349.136 184.865 357.744C187.017 366.352 166.402 357.744 166.402 357.744L169.873 352.394Z" fill="#ED985F"/>
<path d="M164.03 314.511C163.906 314.511 163.786 314.434 163.743 314.309C160.766 306.148 155.618 300.154 155.571 300.097C155.46 299.967 155.475 299.775 155.599 299.66C155.729 299.55 155.92 299.564 156.035 299.689C156.088 299.751 161.308 305.821 164.323 314.094C164.38 314.252 164.299 314.429 164.141 314.487C164.107 314.501 164.069 314.506 164.035 314.506L164.03 314.511Z" fill="#282659"/>
<path d="M167.03 314.871C167.03 313.211 165.683 311.862 164.025 311.862C162.366 311.862 161.02 313.211 161.02 314.871C161.02 316.531 162.366 317.879 164.025 317.879C165.683 317.879 167.03 316.536 167.03 314.871Z" fill="#282659"/>
<path d="M165.396 314.871C165.396 314.113 164.783 313.503 164.03 313.503C163.278 313.503 162.664 314.118 162.664 314.871C162.664 315.624 163.278 316.238 164.03 316.238C164.783 316.238 165.396 315.624 165.396 314.871Z" fill="#7B79B4"/>
<path d="M137.687 367.451C137.687 367.451 132.803 361.568 120.988 354.116L141.047 357.907L147.168 362.931L144.379 364.351L137.687 367.451Z" fill="#ED985F"/>
<path d="M157.967 353.041L175.069 351.789L173.875 356.679L157.967 353.041Z" fill="#ED985F"/>
<path d="M194.199 381.495C194.199 381.495 158.951 377.666 117.668 351.592L124.46 347.922C124.46 347.922 178.598 353.804 185.385 358.91C196.03 366.918 202.18 379.634 194.199 381.495Z" fill="#FFB27D"/>
<path d="M107.117 355.709C107.117 355.709 118.851 353.699 118.645 353.545C118.438 353.392 114.379 352.159 113.449 352.624C112.519 353.085 107.117 355.709 107.117 355.709Z" fill="#ED985F"/>
<path d="M644.93 344.911C644.336 346.034 640.391 388.082 643.493 393.619C646.594 399.151 661.227 383.072 661.586 355.933C661.893 333.069 644.93 344.916 644.93 344.916V344.911Z" fill="#FFB27D"/>
<path d="M616 410.353L673.818 428.292L686.454 387.479L628.636 369.539L616 410.353Z" fill="#1B1A3B"/>
<path d="M643.559 587.356L649.517 589.577C649.517 589.577 675.386 553.662 678.568 522.06C679.138 516.417 678.947 510.952 677.715 505.904C677.715 505.904 677.969 504.46 678.41 501.902C678.616 500.708 678.865 499.273 679.153 497.627C679.992 492.805 681.152 486.202 682.474 478.688C685.518 461.395 689.463 439.284 692.526 423.033L690.92 422.514L673.555 416.905L669.965 405.495L657.038 402.088C657.038 402.088 654.147 407.745 651.569 434.462C651.094 437.965 650.658 441.832 650.332 446.021C649.326 458.814 649.254 474.682 651.564 492.824C652.158 497.469 652.906 502.262 653.836 507.19C654.516 510.803 654.617 515.722 654.33 521.374C653.026 547.208 643.555 587.356 643.555 587.356H643.559Z" fill="#282659"/>
<path d="M650.338 446.021L678.416 501.898C678.622 500.703 678.871 499.268 679.159 497.622C679.997 492.8 681.157 486.197 682.48 478.683C685.524 461.39 689.469 439.28 692.531 423.028L690.926 422.509L673.56 416.9L669.97 405.49L657.043 402.083C657.043 402.083 654.153 407.74 651.575 434.457C651.1 437.96 650.664 441.827 650.338 446.016V446.021Z" fill="#1B1A3B"/>
<path d="M662.689 409.256L663.341 403.676C674.231 406.569 703.325 395.586 703.325 395.586C703.325 395.586 713.875 404.871 712.49 427.12C711.814 437.979 710.577 484.129 709.288 497.785C708.823 502.732 708.415 506.259 708.248 507.665C708.248 507.67 708.248 507.675 708.248 507.679C708.195 508.106 708.348 508.514 708.564 508.889C710.462 512.113 712.034 515.472 713.324 518.912C725.982 552.678 711.373 594.265 711.373 594.265L707.581 592.734C707.581 592.734 699.27 546.455 692.517 526.009C691.371 522.54 690.269 519.814 689.262 518.188C686.324 513.442 683.602 505.688 681.128 496.471C676.455 479.038 672.688 456.357 670.186 438.852C669.841 438.867 662.699 409.261 662.699 409.261L662.689 409.256Z" fill="#282659"/>
<path d="M689.329 597.365H719.324C719.324 597.365 720.043 592.787 718.476 589.313C716.975 585.983 714.622 584.467 715.188 580.436C713.28 582.399 710.174 584.601 705.836 584.016C705.304 584.879 702.405 589.495 700.631 590.772C698.671 592.183 689.928 591.679 689.324 597.365H689.329Z" fill="#1B1A3B"/>
<path d="M624.919 597.365H654.914C654.914 597.365 656.036 592.576 654.066 589.313C652.321 586.429 652.992 584.788 654.281 582.399C652.925 582.955 651.166 583.464 649.229 583.354C647.734 583.267 646.157 582.591 644.767 581.785C643.478 583.258 637.946 589.529 636.221 590.772C634.261 592.183 625.518 591.679 624.914 597.365H624.919Z" fill="#1B1A3B"/>
<path d="M695.396 255.101C695.631 254.295 698.478 245.677 711.947 248.604C711.947 248.604 705.184 247.726 703.319 250.327C703.319 250.327 708.692 247.889 712.043 249.957C715.393 252.03 715.915 258.954 715.407 261.06C714.899 263.167 711.165 269.424 708.707 269.414C707.777 269.414 706.785 269.098 705.907 268.709C706.281 269.827 706.612 271.041 706.89 272.37C709.45 284.668 701.249 293.977 697.04 291.655C694.337 290.162 692.271 294.898 692.271 294.898L669.926 265C669.926 265 685.652 246.229 695.396 255.106V255.101Z" fill="#2C3A64"/>
<path d="M676.492 334.537C694.998 340.319 697.951 311.275 696.772 311.126C694.778 309.346 692.132 302.47 692.213 292.11L691.307 292.283L676.156 295.224C676.156 295.224 676.478 299.999 676.473 304.49C676.468 308.002 676.252 311.347 675.533 312.11C674.354 312.273 673.65 312.383 673.65 312.383C673.65 312.383 673.65 312.383 673.64 312.398C673.415 312.71 671.555 332.992 676.492 334.537Z" fill="#FFB27D"/>
<path d="M676.158 295.229C676.158 295.229 676.484 299.999 676.475 304.495C684.949 304.288 689.454 296.568 691.309 292.288L676.158 295.229Z" fill="#ED985F"/>
<path d="M673.31 299.471C673.31 299.471 693.354 299.879 693.417 287.379C693.479 274.88 696.11 266.516 683.313 265.725C670.52 264.933 668.008 269.693 666.973 273.858C665.938 278.023 668.095 299.039 673.31 299.466V299.471Z" fill="#FFB27D"/>
<path d="M667.598 266.914C670.713 263.167 673.047 264.002 674.356 265.139C685.337 259.151 692.359 268.095 692.359 268.095C693.662 277.068 700.104 282.231 700.104 282.231C700.104 282.231 696.442 284.476 688.026 282.274C685.457 281.602 683.166 279.764 681.22 277.533C684.608 283.267 689.229 287.403 689.229 287.403C679.187 282.706 675.199 268.685 674.806 267.202C673.579 268.296 671.159 270.676 670.411 273.018C669.4 276.199 668.925 282.749 667.018 282.518C667.018 282.518 662.92 272.533 667.593 266.914H667.598Z" fill="#2C3A64"/>
<path d="M694.686 307.705C694.686 307.705 697.836 308.732 698.003 310.958C698.003 310.958 689.563 326.745 680.23 327.642L694.686 307.705Z" fill="#DFEDEE"/>
<path d="M650.686 382.794L643.444 424.141C647.719 426.761 651.846 429.006 655.815 430.935C656.913 427.701 658.945 424.045 659.074 423.819C658.494 425.945 659.956 430.652 660.872 433.243C697.812 449.173 720.109 436.933 720.109 436.933C714.569 396.09 718.676 328.846 717.679 324.038C715.786 314.912 698.008 310.948 698.008 310.948C691.504 322.354 680.231 327.632 680.231 327.632C675.989 323.438 674.887 312.206 674.887 312.206L667.477 314.029C662.683 315.209 658.245 317.565 654.693 320.996C654.377 321.308 654.056 321.625 653.754 321.951C650.092 325.876 640.559 351.178 640.559 351.178C640.559 351.178 642.557 358.13 646.234 361.633C648.112 363.423 650.562 365.117 653.466 366.892L650.686 382.784V382.794Z" fill="#A4CCCD"/>
<path d="M680.232 327.637C680.232 327.637 675.606 312.311 676.143 310.325C676.143 310.325 672.519 310.776 672.203 312.873C672.203 312.873 676.301 325.665 680.232 327.637Z" fill="#DFEDEE"/>
<path d="M677.869 292.307C677.869 292.307 676.978 294.26 675.727 294.476C674.476 294.692 672.506 294.682 672.06 294.476C671.614 294.27 670.914 292.892 670.617 292.465C670.617 292.465 672.865 292.221 677.577 292.307H677.874H677.869Z" fill="white"/>
<path d="M646.233 361.643C648.179 363.361 650.561 365.126 653.466 366.902C653.466 366.902 659.016 346.12 657.363 344.671C655.709 343.222 652.67 356.892 646.229 361.643H646.233Z" fill="#DFEDEE"/>
<path d="M726.935 337.953C726.935 337.953 752.809 373.216 750.297 385.193C748.298 394.732 722.118 416.66 722.118 416.66L715.36 412.294C715.36 412.294 731.709 388.576 730.276 381.628C729.159 376.22 712.949 355.731 712.949 355.731L726.935 337.953Z" fill="#FFB27D"/>
<path d="M709.661 315.344C709.661 315.344 724.012 323.059 736.364 347.55C736.364 347.55 729.078 357.257 714.565 361.969C700.056 366.681 700.545 338.616 700.545 338.616L709.661 315.344Z" fill="#A4CCCD"/>
<path d="M679.504 342.91L661.707 342.953L661.592 357.583L669.4 361.983L679.101 358.236L679.504 342.91Z" fill="#DFEDEE"/>
<path d="M717.109 412.735C717.109 412.735 709.809 409.952 705.725 411.041C703.42 411.656 699.14 419.813 701.805 421.041C704.47 422.269 707.48 417.913 710.758 418.733C714.037 419.554 718.096 424.323 722.118 416.655L717.109 412.73V412.735Z" fill="#FFB27D"/>
<path d="M716.715 411.814C716.715 411.814 713.911 410.542 712.641 409.66C711.371 408.777 710.604 410.35 712.641 411.814C714.678 413.277 715.407 412.62 715.407 412.62L716.715 411.814Z" fill="#FFB27D"/>
<path d="M618.071 410.921C618.071 410.921 626.348 406.987 628.035 411.401C629.723 415.816 626.808 419.52 624.038 418.647C621.263 417.778 616.316 414.822 618.071 410.921Z" fill="#FFB27D"/>
<path d="M701.302 357.857L700.655 357.233C700.736 357.147 708.99 348.428 709.761 336.149C709.987 332.584 708.05 329.129 704.944 327.56C702.016 326.082 698.713 326.601 695.886 328.981C689.166 334.638 690.843 354.604 690.858 354.805L689.961 354.887C689.961 354.834 689.516 349.7 689.937 343.913C690.508 336.068 692.315 330.814 695.306 328.295C698.426 325.67 702.088 325.108 705.352 326.759C708.774 328.491 710.912 332.287 710.663 336.207C709.867 348.822 701.388 357.766 701.307 357.857H701.302Z" fill="#282659"/>
<path d="M689.118 354.767C689.161 354.052 689.78 353.51 690.489 353.558C691.203 353.601 691.745 354.215 691.697 354.93C691.654 355.645 691.035 356.187 690.326 356.139C689.612 356.096 689.07 355.477 689.118 354.767Z" fill="#282659"/>
<path d="M699.587 357.459C699.63 356.744 700.244 356.202 700.958 356.25C701.672 356.293 702.214 356.907 702.166 357.622C702.122 358.337 701.509 358.879 700.795 358.831C700.081 358.788 699.539 358.174 699.587 357.459Z" fill="#282659"/>
<path d="M703.55 326.927C703.55 326.927 703.526 326.927 703.517 326.927C703.349 326.908 703.224 326.754 703.248 326.586C703.258 326.5 704.197 317.887 701.743 311.884C701.681 311.726 701.753 311.548 701.911 311.481C702.069 311.414 702.246 311.491 702.313 311.649C704.83 317.801 703.871 326.567 703.862 326.653C703.842 326.812 703.713 326.927 703.555 326.927H703.55Z" fill="#282659"/>
<path d="M665.838 329.244H665.829C665.661 329.24 665.527 329.096 665.531 328.923C665.867 320.123 668.973 312.738 669.002 312.666C669.069 312.508 669.251 312.436 669.404 312.503C669.562 312.57 669.634 312.753 669.567 312.906C669.538 312.978 666.476 320.262 666.145 328.947C666.14 329.11 666.001 329.244 665.838 329.244Z" fill="#282659"/>
<path d="M663.182 330.492C662.674 328.913 663.542 327.22 665.119 326.706C666.696 326.198 668.388 327.066 668.9 328.645C669.409 330.223 668.541 331.917 666.964 332.431C665.387 332.939 663.695 332.071 663.182 330.492Z" fill="#282659"/>
<path d="M664.74 329.988C664.509 329.269 664.902 328.496 665.621 328.266C666.34 328.035 667.112 328.429 667.342 329.149C667.572 329.868 667.179 330.641 666.46 330.871C665.741 331.102 664.97 330.708 664.74 329.988Z" fill="#7B79B4"/>
<path d="M252.077 588.788H271.455C271.312 587.77 270.818 584.675 269.907 581.825C269.591 580.832 269.227 579.867 268.81 579.028C266.926 575.261 254.953 577.655 254.953 577.655C254.953 577.655 253.841 578.61 252.973 582.252C252.59 583.855 252.25 585.985 252.072 588.783L252.077 588.788Z" fill="#1B1A3B"/>
<path d="M287.652 291.254C287.652 291.254 303.09 293.969 306.585 303.091C310.074 312.213 329.797 459.593 329.797 459.593C329.797 459.593 320.034 467.337 299.069 464.559C278.104 461.776 287.652 291.254 287.652 291.254Z" fill="#B4B3D3"/>
<path d="M310.636 583.274C310.688 585.913 311.019 588.413 311.978 589.397H350.303C349.814 588.01 348.434 585.918 344.503 585.28C340.032 584.555 333.062 582.401 328.993 578.092C327.541 576.561 326.462 574.757 325.993 572.646C324.19 564.609 311.081 575.108 311.081 575.108C311.081 575.108 310.554 579.34 310.636 583.269V583.274Z" fill="#1B1A3B"/>
<path d="M327.138 577.526C322.853 578.893 314.671 583.068 309.466 581.105C306.106 579.839 287.317 525.435 286.1 501.641C286.009 499.908 285.668 497.495 285.136 494.553C284.024 488.412 282.078 479.976 279.835 470.663C273.825 445.711 265.691 414.498 265.868 404.523C266.141 389.039 311.963 401.279 311.963 401.279C311.963 401.279 315.117 413.98 315.745 432.372C316.991 468.873 320.409 530.531 329.717 573.351C330.11 575.17 328.912 576.964 327.133 577.526H327.138Z" fill="#59A9AD"/>
<path d="M295.336 404.58L271.112 580.338C271.112 580.338 260.476 582.905 252.198 580.851C252.198 580.851 245.109 487.375 245.699 464.775C246.288 442.175 240.609 404.307 246.998 400.127C253.382 395.953 295.336 404.575 295.336 404.575V404.58Z" fill="#65A6A8"/>
<path d="M243.934 299.3C243.934 299.3 269.39 282.823 287.651 291.249C290.561 292.592 293.878 296.34 296.255 298.96C302.855 306.239 315.753 421.893 315.753 421.893C315.753 421.893 279.144 434.306 243.938 417.68V299.3H243.934Z" fill="white"/>
<path d="M289.1 290.831C289.1 290.831 314.872 301.407 318.361 309.53C321.851 317.654 333.196 367.542 333.196 373.391C333.196 379.24 313.444 374.701 310.266 365.263C307.625 357.427 298.719 333.359 294.022 318.134L289.1 290.831Z" fill="#B4B3D3"/>
<path d="M283.745 298.888C278.118 299.991 269.854 298.816 263.801 294.824C266.533 288.293 267.654 283.135 268.052 279.795C268.076 279.618 268.091 279.445 268.11 279.282C268.292 277.55 268.263 276.379 268.182 275.842H282.729C282.729 275.842 286.707 277.66 286.707 278.917C286.707 279.589 286.712 280.232 286.726 280.846C286.755 282.521 286.822 283.984 286.908 285.237C287.186 289.325 287.651 291.249 287.651 291.249C287.651 291.249 289.429 297.77 283.75 298.888H283.745Z" fill="#FFB27D"/>
<path d="M286.904 285.241C275.885 287.372 269.486 281.345 268.053 279.8C267.852 279.579 267.746 279.45 267.746 279.45C267.861 279.392 267.986 279.339 268.11 279.287C272.213 277.622 281.521 278.946 286.717 280.851C286.746 282.525 286.813 283.989 286.899 285.241H286.904Z" fill="#E2915A"/>
<path d="M264.453 273.447C266.423 284.056 280.097 283.706 286.007 283.044C287.67 282.857 288.715 282.646 288.715 282.646C290.589 282.147 291.634 279.186 292.123 275.314C293.086 267.651 291.869 256.399 290.575 253.52C288.629 249.192 284.962 244.504 271.192 247.887C257.416 251.269 261.927 259.858 264.453 273.452V273.447Z" fill="#FFB27D"/>
<path d="M291.088 247.599C289.205 244.988 285.217 241.802 281.593 239.84C273.804 235.622 263.84 239.974 263.797 239.993C252.547 244.945 249.609 253.558 255.576 266.979C261.884 281.172 267.885 279.575 267.885 279.575C267.885 279.575 266.61 278.778 266.725 274.359C266.73 274.109 266.739 273.898 266.754 273.716C266.811 272.809 266.495 271.902 265.814 271.297C264.42 270.05 263.734 266.274 264.909 265.223C266.318 263.956 268.302 265.496 268.935 266.681C269.486 267.516 270.478 267.809 271.403 267.228C274.902 265.012 272.63 260.583 275.976 257.872C279.321 255.161 286.108 257.435 291.127 255.276C297.698 252.824 292.507 249.575 291.088 247.608V247.599Z" fill="#1B1A3B"/>
<path d="M292.656 470.418C290.442 470.989 288.246 471.459 286.065 471.819C284.139 472.15 282.217 472.395 280.295 472.558C269.4 473.508 258.457 471.973 245.665 468.302C242.784 467.477 239.807 466.536 236.721 465.5C236.39 465.389 237.559 431.528 238.911 396.606C239.05 393.002 239.189 389.379 239.328 385.785C239.39 384.264 239.448 382.748 239.51 381.237C240.732 350.345 241.945 322.452 242.204 320.951C242.789 317.553 243.335 314.655 243.934 312.146C245.674 304.828 247.841 300.812 252.562 297.362C253.022 297.012 256.794 295.107 260.12 293.451C262.877 292.079 265.326 290.884 265.326 290.884C266.423 291.422 267.741 293.941 269.117 297.472C271.653 303.984 274.385 313.955 276.288 321.402C276.292 321.421 276.297 321.435 276.297 321.44C277.519 326.253 278.401 329.995 278.651 331.07C279.077 332.884 279.638 336.396 280.299 341.156C281.196 347.634 282.265 356.429 283.396 366.41C283.511 367.437 283.631 368.473 283.746 369.524C283.88 370.719 284.014 371.933 284.148 373.156C284.191 373.55 284.234 373.943 284.278 374.337C284.714 378.29 285.155 382.369 285.591 386.515C285.955 389.941 291.146 392.421 291.506 395.905C291.712 397.954 292.143 416.84 292.699 422.867C293.097 427.171 292.814 468.403 292.656 470.428V470.418Z" fill="#B4B3D3"/>
<path d="M255.088 333.397C255.074 333.469 254.206 364.634 277.625 368.42C301.044 372.206 285.486 373.204 285.486 373.204C285.486 373.204 241.428 371.328 240.699 370.167C239.971 369.001 255.093 333.397 255.093 333.397H255.088Z" fill="#7B79B4"/>
<path d="M274.873 381.798C274.873 381.798 274.432 382.11 273.589 382.652C273.574 382.657 273.56 382.671 273.546 382.676C269.975 384.96 259.368 391.183 243.934 395.353C242.314 395.794 240.636 396.207 238.911 396.596C239.05 392.992 239.189 389.369 239.328 385.776C237.291 385.617 235.335 385.358 233.523 384.974C233.586 384.499 233.648 384.024 233.71 383.549C235.676 382.743 237.626 381.966 239.51 381.227C241.044 380.627 242.525 380.056 243.929 379.528C250.27 377.115 254.972 375.483 254.972 375.483L273.742 381.433L274.869 381.793L274.873 381.798Z" fill="#7B79B4"/>
<path d="M279.839 381.275C279.839 381.275 277.429 381.88 273.589 382.652C273.575 382.652 273.56 382.652 273.546 382.662C266.467 384.087 254.561 386.083 243.93 385.977C242.362 385.958 240.819 385.9 239.328 385.781C237.291 385.622 235.336 385.363 233.524 384.979C229.637 384.159 226.382 382.767 224.254 380.598C208.437 364.471 232.886 306.589 238.025 300.956C244.026 294.382 254.978 292.074 261.027 291.283C261.281 291.249 261.52 291.22 261.755 291.191C263.883 290.937 265.245 290.884 265.321 290.884C265.321 290.884 264.847 292.41 264.051 295.001C263.744 296.004 263.385 297.165 262.992 298.461C259.277 310.639 252.107 334.573 248.948 348.071C247.788 353.008 247.17 356.549 247.453 357.61C248.684 362.221 261.468 364.591 269.563 365.637C272.942 366.074 275.502 366.28 276.077 366.323C276.115 366.323 276.154 366.323 276.197 366.333L276.666 368.252L277.788 372.863L278.89 377.393L279.835 381.285L279.839 381.275Z" fill="#B4B3D3"/>
<path d="M323.955 409.019L269.635 406.73L280.654 338.963L334.974 341.252L323.955 409.019Z" fill="#1B1A3B"/>
<path d="M276.206 366.323C276.206 366.323 286.78 365.584 287.312 368.051C288.549 373.804 278.219 378.525 274.874 378.204C271.528 377.882 273.771 365.939 276.206 366.323Z" fill="#FFB27D"/>
<path d="M332.003 355.014C332.003 355.014 321.885 351.847 320.802 354.126C318.271 359.433 327.225 366.419 330.556 366.88C333.887 367.34 334.462 355.206 332.003 355.014Z" fill="#FFB27D"/>
<path d="M266.423 287.473C266.423 287.473 261.975 289.593 259.746 292.799C259.746 292.799 276.373 321.699 276.301 321.43C276.225 321.162 270.679 291.177 266.428 287.473H266.423Z" fill="#7B79B4"/>
<path d="M287.135 287.88C288.601 288.432 291.405 291.316 292.043 292.904L294.018 318.134C294.018 318.134 289.795 299.617 287.648 291.249C287.101 289.123 287.202 288.475 287.135 287.875V287.88Z" fill="#7B79B4"/>
<path d="M298.662 339.721C298.662 339.721 299.093 337.841 301.567 338.061C304.04 338.282 317.93 338.963 317.93 338.963C317.93 338.963 320.61 338.92 320.36 340.638L298.667 339.721H298.662Z" fill="#C65447"/>
<path d="M282.729 275.841C282.729 275.841 284.532 277.487 287.441 276.979C289.167 276.676 290.13 274.431 290.13 274.431C290.13 274.431 286.813 273.831 282.725 275.841H282.729Z" fill="white"/>
<path d="M264.784 311.296H250.721V317.611H264.784V311.296Z" fill="#EBF3FA"/>
</g>
<defs>
<clipPath id="clip0_112_3333">
<rect width="1188" height="735" fill="white"/>
</clipPath>
</defs>
</svg>
