<svg width="692" height="559" viewBox="0 0 692 559" fill="none" xmlns="http://www.w3.org/2000/svg">
<path d="M592.786 78.8646C572.082 72.1993 523.345 58.5 472 58.5C432.741 58.5 392.681 65.7181 354.352 77.7526L350.5 78.9622V83V440V450.263L359.046 444.58C378.743 431.48 420.495 409.5 480 409.5C529.183 409.5 563.479 413.673 583.492 417.024L583.511 417.028L583.531 417.031C587.556 417.675 592.321 416.567 596.036 413.595L596.059 413.576L596.083 413.557C599.365 410.871 601.5 407.185 601.5 402.5V91.1C601.5 85.2105 597.858 80.4961 592.786 78.8646ZM592.786 78.8646L591.1 84.1M592.786 78.8646C592.785 78.8644 592.784 78.8641 592.783 78.8638L591.1 84.1M591.1 84.1C593.9 85 596 87.6 596 91.1V402.5C596 405.3 594.8 407.5 592.6 409.3C590.1 411.3 586.9 412 584.4 411.6C564.1 408.2 529.5 404 480 404C424.14 404 383.508 422.93 361.5 436.481V440H356L352.954 435.42C353.921 434.778 354.936 434.116 356 433.437V83C393.9 71.1 433.4 64 472 64C522.5 64 570.6 77.5 591.1 84.1ZM338.272 59.8214L340 60.3934L341.728 59.8214C383.578 45.9704 428.091 37.5 472 37.5C526.558 37.5 577.724 51.9028 599.211 58.8344L599.217 58.8362C613.611 63.4628 622.5 76.7481 622.5 91.1V402.5C622.5 425.642 600.828 441.352 579.952 437.683L579.945 437.682L579.937 437.68C561.122 434.426 528.008 430.4 480 430.4C419.542 430.4 379.522 455.345 365.553 465.561L365.547 465.565C358.813 470.503 350.199 474.119 340.523 474.4H340.522H340.521H340.519H340.518H340.517H340.516H340.514H340.513H340.512H340.51H340.509H340.508H340.506H340.505H340.504H340.502H340.501H340.5H340.498H340.497H340.496H340.494H340.493H340.492H340.49H340.489H340.488H340.486H340.485H340.484H340.482H340.481H340.48H340.478H340.477H340.476H340.474H340.473H340.471H340.47H340.469H340.467H340.466H340.465H340.463H340.462H340.461H340.459H340.458H340.456H340.455H340.454H340.452H340.451H340.45H340.448H340.447H340.445H340.444H340.443H340.441H340.44H340.439H340.437H340.436H340.434H340.433H340.432H340.43H340.429H340.427H340.426H340.425H340.423H340.422H340.42H340.419H340.418H340.416H340.415H340.413H340.412H340.411H340.409H340.408H340.406H340.405H340.404H340.402H340.401H340.399H340.398H340.396H340.395H340.394H340.392H340.391H340.389H340.388H340.386H340.385H340.384H340.382H340.381H340.379H340.378H340.376H340.375H340.374H340.372H340.371H340.369H340.368H340.366H340.365H340.364H340.362H340.361H340.359H340.358H340.356H340.355H340.353H340.352H340.351H340.349H340.348H340.346H340.345H340.343H340.342H340.34H340.339H340.338H340.336H340.335H340.333H340.332H340.33H340.329H340.327H340.326H340.325H340.323H340.322H340.32H340.319H340.317H340.316H340.314H340.313H340.311H340.31H340.309H340.307H340.306H340.304H340.303H340.301H340.3H340.298H340.297H340.295H340.294H340.292H340.291H340.29H340.288H340.287H340.285H340.284H340.282H340.281H340.279H340.278H340.276H340.275H340.273H340.272H340.271H340.269H340.268H340.266H340.265H340.263H340.262H340.26H340.259H340.257H340.256H340.254H340.253H340.251H340.25H340.249H340.247H340.246H340.244H340.243H340.241H340.24H340.238H340.237H340.235H340.234H340.232H340.231H340.229H340.228H340.227H340.225H340.224H340.222H340.221H340.219H340.218H340.216H340.215H340.213H340.212H340.21H340.209H340.208H340.206H340.205H340.203H340.202H340.2H340.199H340.197H340.196H340.194H340.193H340.191H340.19H340.189H340.187H340.186H340.184H340.183H340.181H340.18H340.178H340.177H340.175H340.174H340.173H340.171H340.17H340.168H340.167H340.165H340.164H340.162H340.161H340.16H340.158H340.157H340.155H340.154H340.152H340.151H340.149H340.148H340.147H340.145H340.144H340.142H340.141H340.139H340.138H340.136H340.135H340.134H340.132H340.131H340.129H340.128H340.126H340.125H340.124H340.122H340.121H340.119H340.118H340.116H340.115H340.114H340.112H340.111H340.109H340.108H340.106H340.105H340.104H340.102H340.101H340.099H340.098H340.096H340.095H340.094H340.092H340.091H340.089H340.088H340.087H340.085H340.084H340.082H340.081H340.08H340.078H340.077H340.075H340.074H340.073H340.071H340.07H340.068H340.067H340.066H340.064H340.063H340.061H340.06H340.059H340.057H340.056H340.055H340.053H340.052H340.05H340.049H340.048H340.046H340.045H340.044H340.042H340.041H340.039H340.038H340.037H340.035H340.034H340.033H340.031H340.03H340.029H340.027H340.026H340.024H340.023H340.022H340.02H340.019H340.018H340.016H340.015H340.014H340.012H340.011H340.01H340.008H340.007H340.006H340.004H340.003H340.002H340H339.999H339.998H339.996H339.995H339.994H339.992H339.991H339.99H339.988H339.987H339.986H339.984H339.983H339.982H339.981H339.979H339.978H339.977H339.975H339.974H339.973H339.972H339.97H339.969H339.968H339.966H339.965H339.964H339.963H339.961H339.96H339.959H339.957H339.956H339.955H339.954H339.952H339.951H339.95H339.949H339.947H339.946H339.945H339.944H339.942H339.941H339.94H339.939H339.937H339.936H339.935H339.934H339.932H339.931H339.93H339.929H339.928H339.926H339.925H339.924H339.923H339.921H339.92H339.919H339.918H339.917H339.915H339.914H339.913H339.912H339.911H339.909H339.908H339.907H339.906H339.905H339.904H339.902H339.901H339.9H339.899H339.899H339.898H339.898H339.897H339.897H339.896H339.895H339.895H339.894H339.894H339.893H339.893H339.892H339.891H339.891H339.89H339.89H339.889H339.889H339.888H339.888H339.887H339.887H339.886H339.885H339.885H339.884H339.884H339.883H339.883H339.882H339.882H339.881H339.881H339.88H339.88H339.879H339.879H339.878H339.878H339.877H339.877H339.876H339.876H339.875H339.875H339.874H339.874H339.873H339.873H339.872H339.872H339.871H339.871H339.871H339.87H339.87H339.869H339.869H339.868H339.868H339.867H339.867H339.866H339.866H339.865H339.865H339.865H339.864H339.864H339.863H339.863H339.862H339.862H339.861H339.861H339.861H339.86H339.86H339.859H339.859H339.858H339.858H339.858H339.857H339.857H339.856H339.856H339.855H339.855H339.855H339.854H339.854H339.853H339.853H339.853H339.852H339.852H339.851H339.851H339.851H339.85H339.85H339.849H339.849H339.849H339.848H339.848H339.847H339.847H339.847H339.846H339.846H339.845H339.845H339.845H339.844H339.844H339.844H339.843H339.843H339.842H339.842H339.842H339.841H339.841H339.841H339.84H339.84H339.84H339.839H339.839H339.838H339.838H339.838H339.837H339.837H339.837H339.836H339.836H339.836H339.835H339.835H339.835H339.834H339.834H339.834H339.833H339.833H339.832H339.832H339.832H339.831H339.831H339.831H339.83H339.83H339.83H339.829H339.829H339.829H339.828H339.828H339.828H339.827H339.827H339.827H339.826H339.826H339.826H339.826H339.825H339.825H339.825H339.824H339.824H339.824H339.823H339.823H339.823H339.822H339.822H339.822H339.821H339.821H339.821H339.82H339.82H339.82H339.819H339.819H339.819H339.819H339.818H339.818H339.818H339.817H339.817H339.817H339.816H339.816H339.816H339.815H339.815H339.815H339.815H339.814H339.814H339.814H339.813H339.813H339.813H339.812H339.812H339.812H339.812H339.811H339.811H339.811H339.81H339.81H339.81H339.809H339.809H339.809H339.809H339.808H339.808H339.808H339.807H339.807H339.807H339.806H339.806H339.806H339.806H339.805H339.805H339.805H339.804H339.804H339.804H339.804H339.803H339.803H339.803H339.802H339.802H339.802H339.801H339.801H339.801H339.801H339.8H339.8H339.8H339.799H339.799H339.799H339.799H339.798H339.798H339.798H339.797H339.797H339.797H339.796H339.796H339.796H339.796H339.795H339.795H339.795H339.794H339.794H339.794H339.794H339.793H339.793H339.793H339.792H339.792H339.792H339.791H339.791H339.791H339.791H339.79H339.79H339.79H339.789H339.789H339.789H339.788H339.788H339.788H339.788H339.787H339.787H339.787H339.786H339.786H339.786H339.785H339.785H339.785H339.785H339.784H339.784H339.784H339.783H339.783H339.783H339.782H339.782H339.782H339.781H339.781H339.781H339.781H339.78H339.78H339.78H339.779H339.779H339.779H339.778H339.778H339.778H339.777H339.777H339.777H339.776H339.776H339.776H339.775H339.775H339.775H339.775H339.774H339.774H339.774H339.773H339.773H339.773H339.772H339.772H339.772H339.771H339.771H339.771H339.77H339.77H339.77H339.769H339.769H339.769H339.768H339.768H339.768H339.767H339.767H339.766H339.766H339.766H339.765H339.765H339.765H339.764H339.764H339.764H339.763H339.763H339.763H339.762H339.762H339.762H339.761H339.761H339.76H339.76H339.76H339.759H339.759H339.759H339.758H339.758H339.758H339.757H339.757H339.756H339.756H339.756H339.755H339.755H339.755H339.754H339.754H339.753H339.753H339.753H339.752H339.752H339.751H339.751H339.751H339.75H339.75H339.749H339.749H339.749H339.748H339.748H339.747H339.747H339.747H339.746H339.746H339.745H339.745H339.745H339.744H339.744H339.743H339.743H339.742H339.742H339.742H339.741H339.741H339.74H339.74H339.739H339.739H339.739H339.738H339.738H339.737H339.737H339.736H339.736H339.735H339.735H339.735H339.734H339.734H339.733H339.733H339.732H339.732H339.731H339.731H339.73H339.73H339.729H339.729H339.729H339.728H339.728H339.727H339.727H339.726H339.726H339.725H339.725H339.724H339.724H339.723H339.723H339.722H339.722H339.721H339.721H339.72H339.72H339.719H339.719H339.718H339.718H339.717H339.717H339.716H339.716H339.715H339.715H339.714H339.713H339.713H339.712H339.712H339.711H339.711H339.71H339.71H339.709H339.709H339.708H339.707H339.707H339.706H339.706H339.705H339.705H339.704H339.703H339.703H339.702H339.702H339.701H339.701H339.7H339.699H339.699H339.698H339.698H339.697H339.697H339.696H339.695H339.695H339.694H339.694H339.693H339.692H339.692H339.691H339.691H339.69H339.689H339.689H339.688H339.688H339.687H339.687H339.686H339.685H339.685H339.684H339.684H339.683H339.682H339.682H339.681H339.681H339.68H339.68H339.679H339.678H339.678H339.677H339.677H339.676H339.675H339.675H339.674H339.674H339.673H339.672H339.672H339.671H339.671H339.67H339.67H339.669H339.668H339.668H339.667H339.667H339.666H339.665H339.665H339.664H339.664H339.663H339.663H339.662H339.661H339.661H339.66H339.66H339.659H339.658H339.658H339.657H339.657H339.656H339.655H339.655H339.654H339.654H339.653H339.653H339.652H339.651H339.651H339.65H339.65H339.649H339.648H339.648H339.647H339.647H339.646H339.646H339.645H339.644H339.644H339.643H339.643H339.642H339.641H339.641H339.64H339.64H339.639H339.638H339.638H339.637H339.637H339.636H339.636H339.635H339.634H339.634H339.633H339.633H339.632H339.631H339.631H339.63H339.63H339.629H339.629H339.628H339.627H339.627H339.626H339.626H339.625H339.624H339.624H339.623H339.623H339.622H339.621H339.621H339.62H339.62H339.619H339.619H339.618H339.617H339.617H339.616H339.616H339.615H339.614H339.614H339.613H339.613H339.612H339.612H339.611H339.61H339.61H339.609H339.609H339.608H339.607H339.607H339.606H339.606H339.605H339.604H339.604H339.603H339.603H339.602H339.602H339.601H339.6H339.6H339.599H339.599H339.598H339.597H339.597H339.596H339.596H339.595H339.595H339.594H339.593H339.593H339.592H339.592H339.591H339.59H339.59H339.589H339.589H339.588H339.587H339.587H339.586H339.586H339.585H339.585H339.584H339.583H339.583H339.582H339.582H339.581H339.58H339.58H339.579H339.579H339.578H339.578H339.577H339.576H339.576H339.575H339.575H339.574H339.573H339.573H339.572H339.572H339.571H339.571H339.57H339.569H339.569H339.568H339.568H339.567H339.566H339.566H339.565H339.565H339.564H339.563H339.563H339.562H339.562H339.561H339.561H339.56H339.559H339.559H339.558H339.558H339.557H339.556H339.556H339.555H339.555H339.554H339.554H339.553H339.552H339.552H339.551H339.551H339.55H339.549H339.549H339.548H339.548H339.547H339.546H339.546H339.545H339.545H339.544H339.544H339.543H339.542H339.542H339.541H339.541H339.54H339.539H339.539H339.538H339.538H339.537H339.537H339.536H339.535H339.535H339.534H339.534H339.533H339.532H339.532H339.531H339.531H339.53H339.529H339.529H339.528H339.528H339.527H339.527H339.526H339.525H339.525H339.524H339.524H339.523H339.522H339.522H339.521H339.521H339.52H339.52H339.519H339.518H339.518H339.517H339.517H339.516H339.515H339.515H339.514H339.514H339.513H339.513H339.512H339.511H339.511H339.51H339.51H339.509H339.508H339.508H339.507H339.507H339.506H339.505H339.505H339.504H339.504H339.503H339.503H339.502H339.501H339.501H339.5H339.5H339.499H339.498H339.498H339.497H339.497H339.496H339.496H339.495H339.494H339.494H339.493H339.493H339.492H339.491H339.491H339.49H339.49H339.489H339.488H339.488H339.487H339.487H339.486H339.486H339.485H339.484H339.484H339.483H339.483H339.482H339.481H339.481H339.48H339.48H339.479H339.479H339.478H339.477H339.477H339.476H339.476H339.475H339.474H339.474H339.473H339.473H339.472H339.471H339.471H339.47H339.47H339.469H339.469H339.468H339.467H339.467H339.466H339.466H339.465H339.464H339.464H339.463H339.463H339.462H339.462H339.461H339.46H339.46H339.459H339.459H339.458H339.457H339.457H339.456H339.456H339.455H339.454H339.454H339.453H339.453H339.452H339.452H339.451H339.45H339.45H339.449H339.449H339.448H339.447H339.447H339.446H339.446H339.445H339.445H339.444H339.443H339.443H339.442H339.442H339.441H339.44H339.44H339.439H339.439H339.438H339.438H339.437H339.436H339.436H339.435H339.435H339.434H339.433H339.433H339.432H339.432H339.431H339.43H339.43H339.429H339.429H339.428H339.428H339.427H339.426H339.426H339.425H339.425H339.424H339.423H339.423H339.422H339.422H339.421H339.421H339.42H339.419H339.419H339.418H339.418H339.417H339.416H339.416H339.415H339.415H339.414H339.413H339.413H339.412H339.412H339.411H339.411H339.41H339.409H339.409H339.408H339.408H339.407H339.406H339.406H339.405H339.405H339.404H339.404H339.403H339.402H339.402H339.401H339.401H339.4C330.42 474.4 322.077 471.401 315.479 466.943L315.472 466.938L315.465 466.933C300.213 456.697 255.609 430.5 200 430.5C154.447 430.5 119.242 434.934 99.1002 438.274L99.0958 438.275C78.1977 441.758 57.5 425.952 57.5 403.5V91.1C57.5 76.7481 66.3891 63.4628 80.7831 58.8362L80.7885 58.8344C102.276 51.9028 153.442 37.5 208 37.5C251.909 37.5 296.422 45.9704 338.272 59.8214ZM329.5 83V78.9723L325.66 77.7565C287.314 65.6153 247.251 58.5 208 58.5C156.655 58.5 107.918 72.2001 87.2377 78.7572L87.2273 78.7605L87.2169 78.7638C82.1012 80.4082 78.5 85.2545 78.5 91V403.5C78.5 407.874 80.3616 411.642 83.6406 414.276C87.072 417.072 91.5497 418.174 95.5689 417.531L95.5928 417.527L95.6166 417.523C116.66 413.966 153.051 409.4 200 409.4C255.339 409.4 300.305 432.525 321.093 445.469L329.5 450.704V440.8V83Z" fill="white" stroke="#DEEAF4" stroke-width="11"/>
<g clip-path="url(#clip0_136_167)">
<rect x="155" y="299" width="90" height="90" rx="45" fill="#306FB4"/>
<path d="M208.709 340.734C208.709 339.161 208.399 337.604 207.798 336.151C207.196 334.698 206.314 333.378 205.201 332.266C204.089 331.154 202.769 330.272 201.316 329.67C199.863 329.068 198.306 328.758 196.733 328.758C195.161 328.758 193.603 329.068 192.15 329.67C190.697 330.272 189.377 331.154 188.265 332.266C187.153 333.378 186.271 334.698 185.669 336.151C185.067 337.604 184.757 339.161 184.757 340.734C184.757 342.307 185.067 343.864 185.669 345.317C186.271 346.77 187.153 348.09 188.265 349.202C189.377 350.314 190.697 351.196 192.15 351.798C193.603 352.4 195.161 352.71 196.733 352.71C198.306 352.71 199.863 352.4 201.316 351.798C202.769 351.196 204.089 350.314 205.201 349.202C206.314 348.09 207.196 346.77 207.798 345.317C208.399 343.864 208.709 342.307 208.709 340.734ZM205.94 351.485C203.47 353.608 200.251 354.887 196.733 354.887C188.915 354.887 182.58 348.552 182.58 340.734C182.58 332.916 188.915 326.581 196.733 326.581C204.552 326.581 210.887 332.916 210.887 340.734C210.887 344.252 209.607 347.47 207.484 349.94L217.099 359.562C217.521 359.984 217.521 360.678 217.099 361.1C216.677 361.521 215.983 361.521 215.561 361.1L205.94 351.485Z" fill="white"/>
</g>
<g clip-path="url(#clip1_136_167)">
<rect x="366" y="80" width="90" height="90" rx="45" fill="#306FB4"/>
<path d="M408.817 110.55C408.817 109.911 409.07 109.299 409.522 108.847C409.974 108.395 410.586 108.142 411.225 108.142C411.864 108.142 412.476 108.395 412.928 108.847C413.38 109.299 413.633 109.911 413.633 110.55C413.633 111.189 413.38 111.801 412.928 112.253C412.476 112.705 411.864 112.958 411.225 112.958C410.586 112.958 409.974 112.705 409.522 112.253C409.07 111.801 408.817 111.189 408.817 110.55ZM405.204 118.979C405.204 118.317 405.746 117.775 406.408 117.775H411.225C411.887 117.775 412.429 118.317 412.429 118.979V139.45H417.246C417.908 139.45 418.45 139.992 418.45 140.654C418.45 141.317 417.908 141.858 417.246 141.858H405.204C404.542 141.858 404 141.317 404 140.654C404 139.992 404.542 139.45 405.204 139.45H410.021V120.183H406.408C405.746 120.183 405.204 119.642 405.204 118.979Z" fill="white"/>
</g>
<rect x="399" y="248" width="293" height="311" rx="24" fill="white"/>
<rect x="428" y="423" width="235" height="12" fill="#A2C5E0"/>
<rect x="469" y="494" width="153" height="40" rx="20" fill="#619ACA"/>
<rect x="407" y="257" width="277" height="133" rx="24" fill="#DEEAF4"/>
<rect x="457" y="452" width="177" height="12" fill="#A2C5E0"/>
<rect y="18" width="202.556" height="215" rx="24" fill="white"/>
<rect x="20.0488" y="138.981" width="162.46" height="8.29582" fill="#A2C5E0"/>
<rect x="48.3926" y="188.064" width="105.772" height="27.6527" rx="13.8264" fill="#619ACA"/>
<rect x="5.53125" y="24.2219" width="191.495" height="91.9453" rx="24" fill="#DEEAF4"/>
<rect x="40.0957" y="159.029" width="122.363" height="8.29582" fill="#A2C5E0"/>
<defs>
<clipPath id="clip0_136_167">
<rect width="90" height="90" fill="white" transform="translate(155 299)"/>
</clipPath>
<clipPath id="clip1_136_167">
<rect width="90" height="90" fill="white" transform="translate(366 80)"/>
</clipPath>
</defs>
</svg>
