<svg width="701" height="451" viewBox="0 0 701 451" fill="none" xmlns="http://www.w3.org/2000/svg">
<rect x="108" y="4" width="485" height="443" rx="24" stroke="white" stroke-width="8"/>
<path d="M44 273H401C414.255 273 425 283.745 425 297V359C425 372.255 414.255 383 401 383H68C54.7452 383 44 372.255 44 359V273Z" fill="white"/>
<rect x="71" y="307" width="317" height="15" fill="#7B79B4"/>
<rect x="71" y="335" width="232" height="15" fill="#7B79B4"/>
<circle cx="44" cy="263" r="44" fill="#7B79B4"/>
<g clip-path="url(#clip0_136_168)">
<path d="M44 246.375C44.9568 246.375 45.9042 246.559 46.7881 246.917C47.6721 247.275 48.4752 247.8 49.1518 248.462C49.8283 249.123 50.365 249.909 50.7311 250.773C51.0973 251.638 51.2857 252.564 51.2857 253.5C51.2857 254.436 51.0973 255.362 50.7311 256.227C50.365 257.091 49.8283 257.877 49.1518 258.538C48.4752 259.2 47.6721 259.725 46.7881 260.083C45.9042 260.441 44.9568 260.625 44 260.625C43.0432 260.625 42.0958 260.441 41.2119 260.083C40.3279 259.725 39.5248 259.2 38.8482 258.538C38.1717 257.877 37.635 257.091 37.2689 256.227C36.9027 255.362 36.7143 254.436 36.7143 253.5C36.7143 252.564 36.9027 251.638 37.2689 250.773C37.635 249.909 38.1717 249.123 38.8482 248.462C39.5248 247.8 40.3279 247.275 41.2119 246.917C42.0958 246.559 43.0432 246.375 44 246.375ZM34.2857 253.5C34.2857 256.02 35.3092 258.436 37.131 260.218C38.9527 261.999 41.4236 263 44 263C46.5764 263 49.0473 261.999 50.869 260.218C52.6908 258.436 53.7143 256.02 53.7143 253.5C53.7143 250.98 52.6908 248.564 50.869 246.782C49.0473 245.001 46.5764 244 44 244C41.4236 244 38.9527 245.001 37.131 246.782C35.3092 248.564 34.2857 250.98 34.2857 253.5ZM37.9286 274.875C37.9286 274.56 38.0565 274.258 38.2842 274.035C38.512 273.813 38.8208 273.688 39.1429 273.688C39.4649 273.688 39.7738 273.813 40.0015 274.035C40.2292 274.258 40.3571 274.56 40.3571 274.875C40.3571 275.19 40.2292 275.492 40.0015 275.715C39.7738 275.937 39.4649 276.062 39.1429 276.062C38.8208 276.062 38.512 275.937 38.2842 275.715C38.0565 275.492 37.9286 275.19 37.9286 274.875ZM40.3571 271.513V268.938H40.4482H47.5518C47.992 268.938 48.4246 268.96 48.8571 269.012V271.483C47.104 271.995 45.8214 273.584 45.8214 275.469V277.25C45.8214 277.903 46.3679 278.438 47.0357 278.438H48.25C48.9179 278.438 49.4643 277.903 49.4643 277.25C49.4643 276.597 48.9179 276.062 48.25 276.062V275.469C48.25 274.482 49.0621 273.688 50.0714 273.688C51.0808 273.688 51.8929 274.482 51.8929 275.469V276.062C51.225 276.062 50.6786 276.597 50.6786 277.25C50.6786 277.903 51.225 278.438 51.8929 278.438H53.1071C53.775 278.438 54.3214 277.903 54.3214 277.25V275.469C54.3214 273.584 53.0388 271.995 51.2857 271.483V269.568C55.5054 271.053 58.5335 274.986 58.5714 279.625H29.4286C29.4665 274.563 33.0866 270.325 37.9286 269.22V271.513C36.517 272.003 35.5 273.324 35.5 274.875C35.5 276.842 37.1317 278.438 39.1429 278.438C41.154 278.438 42.7857 276.842 42.7857 274.875C42.7857 273.324 41.7688 272.003 40.3571 271.513ZM40.4482 266.562C33.0183 266.562 27 272.448 27 279.714C27 280.976 28.0473 282 29.3375 282H58.6625C59.9527 282 61 280.976 61 279.714C61 272.448 54.9817 266.562 47.5518 266.562H40.4482Z" fill="#F2F2F7"/>
</g>
<path d="M296 92C296 78.7452 306.745 68 320 68H653C666.255 68 677 78.7452 677 92V178H320C306.745 178 296 167.255 296 154V92Z" fill="#7B79B4"/>
<rect x="323" y="102" width="317" height="15" fill="white"/>
<rect x="323" y="130" width="232" height="15" fill="white"/>
<path d="M565.066 139.785H562.078C562.086 139.082 562.141 138.477 562.242 137.969C562.352 137.453 562.535 136.988 562.793 136.574C563.059 136.16 563.41 135.75 563.848 135.344C564.215 135.016 564.535 134.703 564.809 134.406C565.082 134.109 565.297 133.805 565.453 133.492C565.609 133.172 565.688 132.816 565.688 132.426C565.688 131.973 565.617 131.598 565.477 131.301C565.344 130.996 565.141 130.766 564.867 130.609C564.602 130.453 564.266 130.375 563.859 130.375C563.523 130.375 563.211 130.449 562.922 130.598C562.633 130.738 562.395 130.957 562.207 131.254C562.027 131.551 561.934 131.941 561.926 132.426H558.527C558.551 131.355 558.797 130.473 559.266 129.777C559.742 129.074 560.379 128.555 561.176 128.219C561.973 127.875 562.867 127.703 563.859 127.703C564.953 127.703 565.891 127.883 566.672 128.242C567.453 128.594 568.051 129.113 568.465 129.801C568.879 130.48 569.086 131.309 569.086 132.285C569.086 132.965 568.953 133.57 568.688 134.102C568.422 134.625 568.074 135.113 567.645 135.566C567.215 136.02 566.742 136.488 566.227 136.973C565.781 137.371 565.477 137.789 565.312 138.227C565.156 138.664 565.074 139.184 565.066 139.785ZM561.727 143.406C561.727 142.906 561.898 142.492 562.242 142.164C562.586 141.828 563.047 141.66 563.625 141.66C564.195 141.66 564.652 141.828 564.996 142.164C565.348 142.492 565.523 142.906 565.523 143.406C565.523 143.891 565.348 144.301 564.996 144.637C564.652 144.973 564.195 145.141 563.625 145.141C563.047 145.141 562.586 144.973 562.242 144.637C561.898 144.301 561.727 143.891 561.727 143.406Z" fill="white"/>
<circle cx="657" cy="189" r="44" fill="white"/>
<g clip-path="url(#clip1_136_168)">
<path d="M663.75 179.5C663.75 178.564 663.566 177.638 663.208 176.773C662.85 175.909 662.325 175.123 661.663 174.462C661.002 173.8 660.216 173.275 659.352 172.917C658.487 172.559 657.561 172.375 656.625 172.375C655.689 172.375 654.763 172.559 653.898 172.917C653.034 173.275 652.248 173.8 651.587 174.462C650.925 175.123 650.4 175.909 650.042 176.773C649.684 177.638 649.5 178.564 649.5 179.5C649.5 180.436 649.684 181.362 650.042 182.227C650.4 183.091 650.925 183.877 651.587 184.538C652.248 185.2 653.034 185.725 653.898 186.083C654.763 186.441 655.689 186.625 656.625 186.625C657.561 186.625 658.487 186.441 659.352 186.083C660.216 185.725 661.002 185.2 661.663 184.538C662.325 183.877 662.85 183.091 663.208 182.227C663.566 181.362 663.75 180.436 663.75 179.5ZM647.125 179.5C647.125 176.98 648.126 174.564 649.907 172.782C651.689 171.001 654.105 170 656.625 170C659.145 170 661.561 171.001 663.343 172.782C665.124 174.564 666.125 176.98 666.125 179.5C666.125 182.02 665.124 184.436 663.343 186.218C661.561 187.999 659.145 189 656.625 189C654.105 189 651.689 187.999 649.907 186.218C648.126 184.436 647.125 182.02 647.125 179.5ZM642.375 205.625H670.875C670.786 199.71 665.962 194.938 660.017 194.938H653.233C647.296 194.938 642.471 199.71 642.375 205.625ZM640 205.796C640 198.485 645.923 192.562 653.233 192.562H660.017C667.327 192.562 673.25 198.485 673.25 205.796C673.25 207.013 672.263 208 671.046 208H642.204C640.987 208 640 207.013 640 205.796Z" fill="#7B79B4"/>
</g>
<defs>
<clipPath id="clip0_136_168">
<rect width="34" height="38" fill="white" transform="translate(27 244)"/>
</clipPath>
<clipPath id="clip1_136_168">
<rect width="33.25" height="38" fill="white" transform="translate(640 170)"/>
</clipPath>
</defs>
</svg>
