<svg width="89" height="25" viewBox="0 0 89 25" fill="none" xmlns="http://www.w3.org/2000/svg">
<g opacity="0.8">
<path d="M21.0374 7.66478C19.3002 9.4034 16.9021 10.4807 14.2568 10.4807C9.88669 10.4807 6.19195 7.54208 5.03656 3.53661C4.61472 2.07252 5.48958 0.880859 7.01277 0.880859H7.07719C8.01231 0.880859 8.80404 1.51724 9.07002 2.41567C9.73292 4.6534 11.8068 6.29219 14.2547 6.29219C16.7047 6.29219 18.7786 4.6534 19.4394 2.41567C19.7054 1.51724 20.4971 0.880859 21.4322 0.880859H21.4967C23.0198 0.880859 23.8947 2.07252 23.4729 3.53661C23.0219 5.11717 22.1699 6.53136 21.0374 7.66478Z" fill="#0071BA"/>
</g>
<g opacity="0.8">
<path d="M19.7884 23.927H19.724C18.7889 23.927 17.9951 23.2906 17.7311 22.3922C17.0683 20.1523 14.9944 18.5156 12.5465 18.5156C10.0965 18.5156 8.02259 20.1544 7.36177 22.3922C7.09578 23.2906 6.30405 23.927 5.36894 23.927H5.30452C3.78132 23.927 2.90647 22.7353 3.32831 21.2712C4.47954 17.2657 8.17636 14.3271 12.5465 14.3271C16.9166 14.3271 20.6113 17.2657 21.7667 21.2712C22.1885 22.7353 21.3116 23.927 19.7884 23.927Z" fill="#A39AE1"/>
</g>
<g opacity="0.8">
<path d="M10.9173 24.3225L10.8799 24.2851C10.2108 23.6155 10.1007 22.6047 10.5475 21.7812C11.6613 19.7285 11.3516 17.104 9.62065 15.3695C7.88965 13.6371 5.26509 13.3273 3.21408 14.442C2.39118 14.8891 1.38125 14.7789 0.720439 14.1155L0.676801 14.0718C-0.368449 13.0257 -0.185582 11.5471 1.10488 10.8233C4.75805 8.77484 9.47726 9.30308 12.5818 12.4101C15.6864 15.5172 16.2142 20.2401 14.1674 23.8962C13.4401 25.1856 11.9626 25.3686 10.9173 24.3225Z" fill="#008384"/>
</g>
<g opacity="0.8">
<path d="M16.7838 0.678872L16.8212 0.716306C17.4904 1.38596 17.6005 2.39669 17.1537 3.22024C16.0399 5.27289 16.3495 7.89745 18.0805 9.63191C19.8115 11.3643 22.4361 11.6742 24.4871 10.5594C25.31 10.1123 26.3199 10.2225 26.9807 10.886L27.0244 10.9296C28.0696 11.9757 27.8867 13.4544 26.5963 14.1781C22.9431 16.2266 18.2239 15.6983 15.1193 12.5913C12.0168 9.48633 11.489 4.76337 13.5359 1.10729C14.259 -0.186276 15.7365 -0.369288 16.7838 0.678872Z" fill="#434099"/>
</g>
<path d="M34.1624 18.7047L35.3759 15.9762C36.5334 16.7415 38.1771 17.2656 39.6899 17.2656C41.2214 17.2656 41.8199 16.8351 41.8199 16.2008C41.8199 14.1253 34.3868 15.6393 34.3868 10.7811C34.3868 8.44564 36.2923 6.53857 40.1762 6.53857C41.876 6.53857 43.6319 6.93163 44.9203 7.67824L43.7816 10.4255C42.5306 9.75168 41.2983 9.41686 40.1575 9.41686C38.6073 9.41686 38.0462 9.94094 38.0462 10.594C38.0462 12.5946 45.4606 11.0993 45.4606 15.92C45.4606 18.1994 43.5551 20.1439 39.6712 20.1439C37.5246 20.1439 35.3967 19.5636 34.1624 18.7047Z" fill="#434099"/>
<path d="M46.6014 6.74284C46.6014 5.67805 47.4597 4.85449 48.7688 4.85449C50.078 4.85449 50.9362 5.61981 50.9362 6.68669C50.9362 7.80764 50.078 8.6312 48.7688 8.6312C47.4597 8.6312 46.6014 7.80764 46.6014 6.74284ZM46.9942 9.75214H50.5435V19.8823H46.9942V9.75214Z" fill="#434099"/>
<path d="M63.6144 14.0886V19.8826H60.0652V14.6688C60.0652 13.211 59.4293 12.5933 58.4027 12.5933C57.264 12.5933 56.385 13.3045 56.385 14.9849V19.8826H52.8357V9.75244H56.2166V10.8547C57.0188 10.0145 58.1596 9.58398 59.4293 9.58398C61.8024 9.58398 63.6144 10.9483 63.6144 14.0886Z" fill="#434099"/>
<path d="M76.2755 15.7141H68.9172C69.2165 16.7415 70.0934 17.3405 71.4005 17.3405C72.3896 17.3405 73.0442 17.0597 73.7341 16.4628L75.6022 18.4073C74.6318 19.4909 73.2125 20.0524 71.2883 20.0524C67.6829 20.0524 65.3492 17.8271 65.3492 14.8012C65.3492 11.7544 67.7203 9.5874 70.9142 9.5874C73.9024 9.5874 76.3296 11.4945 76.3296 14.8386C76.3316 15.0965 76.2942 15.4334 76.2755 15.7141ZM68.8611 13.8445H73.0068C72.8198 12.7797 72.0363 12.1059 70.9329 12.1059C69.8295 12.1059 69.0668 12.7797 68.8611 13.8445Z" fill="#434099"/>
<path d="M77.3396 14.7997C77.3396 11.753 79.748 9.58594 83.0542 9.58594C86.3977 9.58594 88.7688 11.755 88.7688 14.7997C88.7688 17.8652 86.3977 20.0509 83.0542 20.0509C79.7501 20.0509 77.3396 17.8652 77.3396 14.7997ZM85.1842 14.7997C85.1842 13.267 84.2698 12.4081 83.0542 12.4081C81.8593 12.4081 80.9242 13.267 80.9242 14.7997C80.9242 16.3511 81.8572 17.2288 83.0542 17.2288C84.2698 17.2288 85.1842 16.3511 85.1842 14.7997Z" fill="#434099"/>
</svg>
